<svg xmlns="http://www.w3.org/2000/svg" viewBox="-10 -10 120 120"><defs><filter x="-50" y="-50" width="200" height="200"><feOffset result="offOut" in="SourceAlpha" dx="0" dy="0"/><feGaussianBlur result="blurOut" in="offOut" stdDeviation="3"/></filter></defs><path d="M5 18.3L50 2.3 96 18 88.5 77 50 98.3 12 77.3Z" filter="url(#shadow)" class="outline" fill="black"/><path d="M5 18.3L50 2.3 50 98.3 12 77.3Z" class="left" fill="#de3641"/><path d="M50 2.3L96 18 88.5 77 50 98.3Z" class="right" fill="#b13138"/><path d="M50 13L79.3 75.5 69.3 75.5 63 61.3 50 61.3 50 52.8 59.5 52.8 50 33.1 42 52.8 50 52.8 50 61.3 38.1 61.3 32.5 75.5 21.8 75.5Z" class="letter" fill="white"/></svg>

