<?xml version="1.0" encoding="utf-8"?>
<!-- Generator: Adobe Illustrator 21.1.0, SVG Export Plug-In . SVG Version: 6.00 Build 0)  -->
<svg version="1.1" id="Ebene_1" xmlns="http://www.w3.org/2000/svg" xmlns:xlink="http://www.w3.org/1999/xlink" x="0px" y="0px"
	 width="753.2px" height="184.7px" viewBox="0 0 753.2 184.7" enable-background="new 0 0 753.2 184.7" xml:space="preserve">
<g id="Claim">
</g>
<g id="CHECK24_Kopie_Kopie_1_">
	<g>
		<path fill="#FFFFFF" d="M46.6,120L46.6,120c-12.4,0-25.2-0.3-33.6-3.9c-4.4-1.8-7.4-4.3-9.5-7.8C1.2,104.4,0,99.5,0,93.1
			c0-4.8,0.7-10.5,2.1-16.9c0.3-1.4,7.6-35.5,8.1-37.3c1.9-7.1,4.4-12.9,7.4-17.9C22.9,12.5,30,7.1,39.9,3.9C48.1,1.2,58.6,0,73.9,0
			H74c8,0,14.6,0.6,20.2,1.7c6.5,1.4,11.5,3.6,14.8,6.7c2.5,2.3,4.1,5.1,4.8,8.3c0.3,1.6,0.5,3.4,0.5,5.4c0,4.5-0.9,9.3-1.7,13.1
			c-0.1,0.6-0.2,1.1-0.3,1.6V37H82.8v-0.2c0,0,0.1-0.9,0.1-1.3c0,0,0.1-1.2,0.1-2.9c0-2.6-1.2-4.6-3.7-6.2c-2-1.1-4.4-1.5-6.8-1.8
			c-2.5-0.3-5.4-0.3-8.1-0.3c-5,0-8.7,0.4-11.8,1.2c-2.5,0.7-4.5,1.6-6.2,3C44,30.4,42,33,40.6,36.7c-1.4,3.4-2.4,7.4-3.4,12.4
			l-4,19.1C31.9,74.3,31,79,31,83c0,2.3,0.3,4.1,1,5.8c1,2.6,3.3,4.6,6.3,5.7c2.9,1.1,6.6,1.5,11.9,1.5c3.6,0,6.5-0.1,9.2-0.4
			c4.6-0.6,7.9-1.9,10.4-4.4c2.7-2.6,4.5-6.5,5.7-12.2l0.4-1.9h29.2v0.2c0,0.2-1.6,7.9-2.5,11c-0.9,3.2-1.9,5.9-3,8.4
			c-2.8,6.2-6.8,11-12.5,15c-5.5,3.8-11.3,6.2-18.4,7.4c-6.1,1.1-12.3,1.1-19.1,1.1h-0.1C49.4,120,47,120,46.6,120z"/>
	</g>
	<g>
		<path fill="#FFFFFF" d="M374.1,120L374.1,120c-12.4,0-25.2-0.3-33.6-3.9c-4.4-1.8-7.4-4.3-9.5-7.8c-2.4-3.8-3.5-8.8-3.5-15.1
			c0-4.8,0.7-10.5,2.1-16.9c0.3-1.4,7.6-35.5,8.1-37.3c1.9-7.1,4.4-12.9,7.4-17.9c5.3-8.5,12.4-13.9,22.3-17.1
			c8.2-2.7,18.7-3.9,34-3.9h0.1c8,0,14.6,0.6,20.2,1.7c6.5,1.4,11.5,3.6,14.8,6.7c2.5,2.3,4.1,5.1,4.8,8.3c0.3,1.6,0.5,3.4,0.5,5.4
			c0,4.5-0.9,9.3-1.7,13.1c-0.1,0.6-0.2,1.1-0.3,1.6v0.2h-29.6v-0.2c0,0,0.1-0.9,0.1-1.3c0,0,0.1-1.2,0.1-2.9c0-2.6-1.2-4.6-3.7-6.2
			c-2-1.1-4.4-1.5-6.8-1.8c-2.5-0.3-5.4-0.3-8.1-0.3c-5,0-8.7,0.4-11.8,1.2c-2.5,0.7-4.5,1.6-6.2,3c-2.4,1.9-4.4,4.5-5.8,8.2
			c-1.4,3.4-2.4,7.4-3.4,12.4l-4,19.1c-1.3,6.1-2.2,10.8-2.2,14.8c0,2.3,0.3,4.1,1,5.8c1,2.6,3.3,4.6,6.3,5.7
			c2.9,1.1,6.6,1.5,11.9,1.5c3.6,0,6.5-0.1,9.2-0.4c4.6-0.6,7.9-1.9,10.4-4.4c2.7-2.6,4.5-6.5,5.7-12.2l0.4-1.9h29.2v0.2
			c0,0.2-1.6,7.9-2.5,11c-0.9,3.2-1.9,5.9-3,8.4c-2.8,6.2-6.8,11-12.5,15c-5.5,3.8-11.3,6.2-18.4,7.4c-6.1,1.1-12.3,1.1-19.1,1.1
			l0,0C376.9,120,374.5,120,374.1,120z"/>
	</g>
	<g>
		<path fill="#FFFFFF" d="M310.7,119h-85l0.1-0.2L249.6,6.9c0.4-2.1,1.2-3.5,2.4-4.4c1.3-1,3-1.5,5.3-1.5H329c1.8,0,3.1,0.4,3.8,1.2
			c0.6,0.6,0.9,1.5,0.9,2.5v0.1c0,0.4-0.1,0.9-0.2,1.3l-3.7,17.5h-55.5l-4.8,23.1h52.1l-4.7,21.8h-52.1l-5.9,27.9h56.7L310.7,119z"
			/>
	</g>
	<g>
		<path fill="#FFFFFF" d="M463.2,119h-28.3l0.1-0.2L458.7,7.3c0.6-2.4,1.5-4.1,2.8-5.1c1-0.8,2.4-1.2,4.1-1.2h16.8
			c1.8,0,3.2,0.4,4,1.2c0.7,0.6,1,1.6,1,2.7c0,0.3,0,0.7-0.1,1L463.2,119z"/>
	</g>
	<g>
		<path fill="#FFFFFF" d="M541.2,119h-35.7l-0.1-0.1L479,57.7l0.1-0.1l45.8-49.7c2.8-3.1,4.5-4.7,6-5.6c1.6-1,3-1.3,5.3-1.4h23.1
			c1.1,0,1.8,0.4,2.1,0.7c0.2,0.2,0.4,0.4,0.5,0.6c0.1,0.1,0.1,0.3,0.1,0.5l0,0v0.4c0,0.5-0.3,1.3-1.2,2.3l-49.5,53.1L541.2,119z"/>
	</g>
	<g>
		<path fill="#FFFFFF" d="M182.8,119h-0.2l0.1-0.2l10.1-47.7h-46.7L135.9,119h-28.3l0.1-0.2c1-4.5,23.5-110.8,23.6-111.4
			c0.8-3.5,2.2-4.7,3.3-5.4c1.2-0.7,2.9-1,5.3-1H155c0.8,0,2.1,0.3,3.1,1.1c0.5,0.4,0.9,0.8,1.2,1.3c0.3,0.6,0.5,1.2,0.5,2
			c0,0.3,0,0.7-0.1,1c-0.1,0.7-7.9,37-8.7,40.6h46.7c3.8-17.9,8.3-39.3,8.4-39.6c0.8-3.5,2.2-4.7,3.3-5.4c1.2-0.7,2.9-1,5.3-1H230
			c0.8,0,2.1,0.3,3.1,1.1c0.5,0.4,0.9,0.8,1.2,1.3c0.3,0.6,0.5,1.2,0.5,2c0,0.3,0,0.7-0.1,1c-0.1,0.7-23,108-23.9,112.5v0.2
			L182.8,119L182.8,119z"/>
	</g>
	<g>
		<path fill="#FFFFFF" d="M624.8,24c2.2,0.6,3.9,1.6,4.8,3.5l0,0c0.6,1.2,0.9,2.6,0.9,4.3l0,0c0,1.7-0.3,3.7-0.8,6.1l0,0
			c-0.7,3.1-1.3,5.6-2.3,7.8l0,0c-1,2.2-2.3,4-4.3,5.5l0,0c-3.9,3-10,4.9-20.7,7.3l0,0c-14.2,3.2-24,5.8-30.9,9.2l0,0
			c-6.9,3.4-10.9,7.6-13.9,14.1l0,0c-2,4.3-3.5,9.7-5,16.6l0,0l-4,20.4h91.9l4.3-20.6h-64c0,0,1-5,1.8-6.8l0,0
			c1-2.4,2.4-4.1,4.2-5.4l0,0c1.8-1.3,3.9-2.2,6.6-2.9l0,0c5.2-1.5,12.5-2.4,23.2-5.2l0,0c13.2-3.4,22-7.1,28.3-13.2l0,0
			c6.3-6,10.1-14.5,12.9-27.8l0,0c1-4.9,1.6-9.7,1.6-13.4l0,0c0-5.3-1-9.3-2.8-12.4l0,0c-1.8-3.1-4.4-5.3-7.9-7l0,0
			c-6.8-3.3-16.8-4-28.7-4l0,0c-15.1,0-27,1.6-35.9,7l0,0c-8.8,5.4-15,15.3-18.4,31.4l0,0l-1,4.5h28l1.1-5c1.1-4.8,2.1-8.1,3.9-10.4
			l0,0c1.8-2.3,4.4-3.5,8-3.9l0,0c2.4-0.3,5.3-0.4,8.9-0.4l0,0c0.6,0,1.1,0,1.7,0l0,0C619.9,23.3,622.6,23.5,624.8,24L624.8,24z"/>
	</g>
	<g>
		<path fill="#FFFFFF" d="M701.9,12.7c-3.2,3.4-30.5,31.9-41.7,43.6c-2.2,2.4-4.6,5-5.7,7.2c-0.9,1.6-2,6-2.5,9.2
			c-1.2,6.6-2.1,12.6-2.6,15.1c-0.1,0.6-0.2,1.2-0.2,1.8c0,2,0.9,3.4,2,4.4s2.6,1.4,4.2,1.4c1.4,0,54.2,0,54.2,0l-5,23.5l28.5-2.7
			l4.4-20.9h10.2l4.4-20.8h-10.2c0,0,10.2-47.6,10.5-49.4c3.5-19.3-4.5-24.9-22.5-24.9C725.3,0.2,714.9-0.8,701.9,12.7z M713.9,74.4
			H673L721.7,24h3L713.9,74.4z"/>
	</g>
	<g>
		<path fill="#FFFFFF" d="M638.1,184.7L638.1,184.7c-18.4,0-36.1-4.9-51.1-14.2c-14.8-9.1-23.4-19.9-27.5-26l-5.4,13.9
			c-0.5,1.3-1.8,2.1-3.3,1.8c-1.4-0.2-2.4-1.4-2.5-2.9l-0.3-27.1l0,0c0-0.8,0.3-1.5,0.9-2c0.6-0.6,1.3-0.9,2.1-0.9h27.6l0,0
			c1.4,0,2.5,1,2.8,2.4c0,0.2,0.1,0.4,0.1,0.6c0,1.2-0.8,2.3-1.9,2.7l-13.5,5.2c11.8,10.5,36.2,27.5,70.4,27.5
			c2.9,0,5.9-0.1,8.8-0.4c14.4-1.2,29-4.8,42.1-10.2c11.5-4.8,21.6-10.9,29.4-17.7l-13.9-4.1c-1.2-0.3-2.1-1.5-2.1-2.8
			c0-0.1,0-0.2,0-0.3c0.1-1.4,1.3-2.5,2.7-2.6l27-2.5c0.1,0,0.2,0,0.3,0c0.7,0,1.4,0.2,1.9,0.7c0.6,0.5,1,1.2,1.1,2
			c2.2,26.5,2.2,26.5,2.2,26.6c0,1.3-0.9,2.5-2.2,2.8c-0.2,0.1-0.5,0.1-0.7,0.1c-1.1,0-2.2-0.6-2.7-1.6l-6.5-12.5
			c-5.2,7.1-14.3,17.1-28.6,25.7c-14.5,8.8-30.6,14-48,15.5l-1.7,0.1l0,0C643.1,184.6,640.6,184.7,638.1,184.7z"/>
	</g>
</g>
</svg>
