<svg viewBox="0 0 120 22"><path fill="#000" d="M68.163 2.72c-1.86-.031-3.209.38-4.097 1.254-1.303 1.283-1.303 3.286-1.303 4.746v6.686c0 .623-.554.914-1.743.914h-.229a.351.351 0 0 0-.371.371v.372a.351.351 0 0 0 .371.371h7a.389.389 0 0 0 .372-.371v-.372a.351.351 0 0 0-.372-.371h-.685c-.415 0-1.372-.089-1.372-.914v-3.829c0-.697.032-1.68.057-2.471.015-.492.029-.895.029-1.072 0-3.448 1.026-3.914 2.029-3.914.905 0 1.04.811 1.114 1.791 0 .123.017.24.028.338.092.882.186 1.271 1.486 1.271 1.203 0 1.486-.131 1.486-1.429-.066-2.182-1.343-3.314-3.8-3.371zM29.76 17.063v-.369c0-.188 0-.368-.197-.374h-.374a1.886 1.886 0 0 1-1.558-.786 3.714 3.714 0 0 1-.437-.571L23.79 9.777l3.114-4.657c.657-.877.914-1.089 1.914-1.143h.372a.351.351 0 0 0 .371-.371v-.372a.389.389 0 0 0-.371-.371H24.13a.351.351 0 0 0-.371.371v.372a.351.351 0 0 0 .371.371h1.143c.223 0 .286.06.286.286a.814.814 0 0 1-.171.457L22.88 8.454 20.651 4.74a.729.729 0 0 1-.108-.374V4.33a.243.243 0 0 1 .123-.228c.105-.057.168-.06.417-.057h1.163a.386.386 0 0 0 .371-.372v-.371a.389.389 0 0 0-.371-.372h-7.372a.351.351 0 0 0-.371.372v.371a.351.351 0 0 0 .371.372h.915c.691 0 .957.117 1.391.903l3.18 5.197-3.403 5.034c-.586.809-.926 1.089-1.768 1.143h-.829a.351.351 0 0 0-.371.371v.372a.351.351 0 0 0 .371.371h5.257a.351.351 0 0 0 .372-.371v-.372a.389.389 0 0 0-.372-.371h-1.046c-.242 0-.317-.08-.317-.314.04-.241.139-.469.286-.663l2.603-3.88 2.508 3.874c.032.049.066.097.103.149.145.169.232.38.246.602 0 .143-.163.229-.314.229h-.972a.386.386 0 0 0-.371.371v.372a.351.351 0 0 0 .371.371H29.4a.351.351 0 0 0 .36-.371zM39.046 2.72c-2.04 0-3.509.683-4.372 2.029V3.69a.974.974 0 0 0-.971-.971h-.914a.891.891 0 0 0-.972.886v16.108c0 .757-.554.857-1.4.886-.146 0-.286 0-.4.029h-.143a.351.351 0 0 0-.371.371v.371a.351.351 0 0 0 .371.372h7a.351.351 0 0 0 .372-.372V21a.351.351 0 0 0-.372-.371h-.514c-1.034 0-1.514-.286-1.514-.915V8.286c0-1.272.337-4.229 3.457-4.229 3.037 0 3.457 2.94 3.457 6.114 0 3.069-.286 6.343-3.543 6.343a2.974 2.974 0 0 1-1.528-.334.649.649 0 0 0-.326-.089.623.623 0 0 0-.349 1.143c.7.378 1.492.555 2.286.512 4.34 0 6.543-2.557 6.543-7.6.014-4.789-2.057-7.426-5.797-7.426zM80.509 15.086a.554.554 0 0 0-.358.131l-.042.037c-.483.543-1.269 1.095-1.835 1.095-1.46 0-1.657-1.415-1.657-2.8V4.517a.169.169 0 0 1 .166-.166h2.891a.351.351 0 0 0 .372-.371v-.686a.351.351 0 0 0-.372-.371h-2.92a.171.171 0 0 1-.165-.157V1.177a.974.974 0 0 0-.972-.971h-.971a.971.971 0 0 0-.972.971V13.43c0 2.714.572 4.285 3.543 4.285 1.714 0 2.994-.594 3.714-1.714v-.014l.035-.052.048-.08a.534.534 0 0 0 .029-.211.546.546 0 0 0-.534-.557z"></path><path fill="#B2CD0E" d="M118.437 3.143a1.029 1.029 0 0 0-.528.12 2.326 2.326 0 0 0-1.246 1.346v.02a2.557 2.557 0 0 0-.086.28c0 .04-.017.077-.026.114a1.974 1.974 0 0 0-.017.857c.042.16.119.308.226.434.228.27.55.443.9.483.037 0 .077 0 .117.017.053.003.107.003.16 0h.112a1.871 1.871 0 0 0 1.9-1.609c.134-1.022-.552-2.014-1.512-2.062z"></path><path fill="#000" d="M59.691 9.169c0-4.083-2.24-6.426-6.145-6.426-4.032 0-6.74 2.857-6.74 7.108 0 5.063 2.314 7.852 6.514 7.852 2.44 0 4.834-.403 5.823-3.312.166-.5.291-1.013.374-1.534l.017-.114a.737.737 0 0 0 0-.083.594.594 0 0 0-.594-.594.586.586 0 0 0-.411.171.731.731 0 0 0-.183.392v.031c-.217 2.423-1.732 3.757-4.263 3.757-3.6 0-3.897-3.051-3.897-6.454V8.629c0-1.443.308-4.806 3.157-4.806 2.046 0 3.02 1.348 3.066 4.228a.503.503 0 0 1-.512.492h-4.114a.683.683 0 1 0 0 1.363h7.294c.614.003.614-.535.614-.737zM13.089 9.169c0-4.083-2.232-6.426-6.143-6.426C2.914 2.743.206 5.6.206 9.85c0 5.063 2.311 7.863 6.511 7.863 2.44 0 4.834-.403 5.826-3.311a9.697 9.697 0 0 0 .374-1.546v-.114a.389.389 0 0 0 0-.083.594.594 0 0 0-.591-.594.571.571 0 0 0-.412.171.711.711 0 0 0-.183.392v.031c-.22 2.423-1.734 3.757-4.265 3.757-3.597 0-3.895-3.051-3.895-6.454V8.629c0-1.443.306-4.806 3.143-4.806 2.046 0 3.023 1.348 3.069 4.228a.503.503 0 0 1-.514.492H5.183a.683.683 0 1 0 .014 1.363h7.294c.598.003.598-.535.598-.737zM93.934 9.169c0-4.083-2.24-6.426-6.145-6.426-4.032 0-6.74 2.857-6.74 7.108 0 5.063 2.314 7.852 6.514 7.852 2.44 0 4.834-.403 5.823-3.312.166-.5.291-1.013.374-1.534l.017-.114a.754.754 0 0 0 0-.083.594.594 0 0 0-.591-.594.586.586 0 0 0-.412.171.731.731 0 0 0-.183.392v.031c-.217 2.423-1.731 3.757-4.265 3.757-3.597 0-3.895-3.051-3.895-6.454V8.629c0-1.443.309-4.806 3.158-4.806 2.045 0 3.02 1.348 3.065 4.228a.503.503 0 0 1-.511.492h-4.117a.683.683 0 1 0 .014 1.363h7.294c.6.003.6-.535.6-.737zM108.534 9.169c0-4.083-2.237-6.426-6.143-6.426-4.031 0-6.74 2.857-6.74 7.108 0 5.063 2.315 7.852 6.515 7.852 2.44 0 4.831-.403 5.823-3.312.166-.5.291-1.013.374-1.534l.017-.114a.754.754 0 0 0 0-.083.594.594 0 0 0-.591-.594.586.586 0 0 0-.412.171.731.731 0 0 0-.183.392v.031c-.217 2.423-1.734 3.757-4.265 3.757-3.598 0-3.895-3.051-3.895-6.454V8.629c0-1.443.309-4.806 3.157-4.806 2.046 0 3.02 1.348 3.066 4.228a.503.503 0 0 1-.511.492h-4.117a.683.683 0 1 0 .014 1.363h7.294c.597.003.597-.535.597-.737zM116.246 16.32h-.686c-.414 0-1.371-.089-1.371-.914V8.034c0-3.48 1.094-4.457 2.285-4.991h.026c.286-.146.303-.214.286-.234-.015-.026-.12-.043-.217-.055-.098-.011-.2-.02-.303-.023-1.603-.06-2.826.303-3.643 1.078-1.32 1.257-1.314 3.348-1.312 4.731v6.886c0 .605-.585.914-1.742.914h-.315a.371.371 0 0 0-.371.371v.372c0 .205.166.371.371.371h7.017a.354.354 0 0 0 .355-.354v-.409a.371.371 0 0 0-.38-.371z"></path></svg>
