<svg xmlns="http://www.w3.org/2000/svg" viewBox="0 0 256 566"><path d="M197.3 548.7L202.7 458.3 217.7 432.7C217.7 432.7 183.6 446.7 126.5 446.7 69.4 446.7 35.8 433 35.8 433L52.6 460.9 58.5 548.7C58.5 558.2 89.6 565.8 127.9 565.8 166.2 565.8 197.3 558.2 197.3 548.7" class="gulp-icon-red"/><path d="M180.2 126.5L191.6 81.4 254.6 15.1 238 0.9 171.2 71.6 158 125.4C148.4 125.1 138.4 124.9 128.1 124.9 57.8 124.9 0.8 132.9 0.8 142.8 0.8 152.7 57.8 160.7 128.1 160.7 198.5 160.7 255.5 152.7 255.5 142.8 255.5 135.5 224.6 129.3 180.2 126.5" class="gulp-icon-red"/><path d="M173.5 151.7C173.5 151.7 171.1 152.2 163.8 152.3 156.6 152.3 151.4 152.2 149.3 150.3 148.8 149.8 148.5 148.8 148.5 148.2 148.5 146.9 149.4 146.1 150.6 145.6L151.7 147.4C151.2 147.5 150.9 147.7 150.9 147.9 150.9 148.9 158.3 149.6 164 149.5 169.7 149.4 176.6 149 176.6 148 176.6 147.7 176.1 147.4 175.2 147.2L176.2 145.5C177.7 146 179 146.9 179 148.4 179 151 175.7 151.4 173.5 151.7" fill="#FFF"/><path d="M254.5 15.2C256.1 13.4 253.7 8.7 249.1 4.7 244.6 0.8 239.6-0.9 238 0.9 236.4 2.7 238.8 7.4 243.4 11.4 247.9 15.3 252.9 17 254.5 15.2" class="gulp-icon-red"/><path d="M194.2 327.9C192.8 313.5 225.7 292.6 217.3 292 199 293 190 313.3 180.8 334.6 177.5 342.4 166 375.6 158.4 371.5 150.9 367.4 168.2 340.1 173.1 323.9 167.5 328 146.9 343.9 141.7 329 133.2 336.2 115 340.1 117 321.2 112.5 329.2 102.4 340.3 90.2 335.7 74.2 329.6 99.5 278.6 105.7 281.2 112 283.8 104.5 295.4 102.5 299.9 98.1 309.8 93.1 322.3 96.5 324.8 102.2 329.2 117.9 308.3 118.2 307.8 121.2 304 129.5 278.7 136.2 281.6 142.9 284.5 119.5 317.9 128.2 324.5 130 325.8 137.3 323.7 141.7 318.9 144.5 315.8 143.5 309 153 286.3 162.5 263.7 171 235.4 177.5 237.6 184.1 239.7 178.7 254.2 176.3 259.6 165.4 285 146.4 326.9 155.3 323.7 164.3 320.5 169 320.3 177.7 310.1 186.5 299.8 186.1 282.9 191.9 283.3 197.8 283.6 196.8 289.1 195.4 293.2 201.1 286.6 222.6 272.7 227.8 286.5 234 302.7 197 326.2 206.2 325 215.2 323.8 229.8 314.6 236 306.2L253.1 152.6C253.1 152.6 235.9 166.8 126.5 166.8 17.1 166.8 1.7 152.9 1.7 152.9L16.2 293.1C23.9 271.2 42.3 226.8 71.2 228.3 84.3 229 101.9 254.3 86.8 255.1 80.5 255.5 79.8 242.5 72.3 240.6 66.9 239.2 59.3 243.6 54.4 248.4 44.6 258 23.6 295.7 26.4 314.4 29.9 338.4 59.5 306.1 64.5 296.5 68 289.8 70.4 269.8 78 271.9 85.7 274 77.4 294.6 71.8 312.9 65.5 333.4 62.2 355 54.4 352.5 46.5 350 59.3 323.5 58.9 318.9 51.5 325.7 37.9 343 20.5 334.4L29.5 421.5C29.5 421.5 53.5 440.5 125.9 440.5 198.2 440.5 223.1 421.8 223.1 421.8L234.3 320.9C225.2 329.9 196.1 345.8 194.2 327.9" class="gulp-icon-red"/></svg>

