<svg xmlns="http://www.w3.org/2000/svg" viewBox="-66 -67.7 378.5 378.5"><path d="M-66 280.8c0 16.6 13.4 30 30 30h318.5c16.6 0 30-13.4 30-30v-318.5c0-16.6-13.4-30-30-30H-36c-16.6 0-30 13.4-30 30V280.8z" fill="#7F7F7F"/><path d="M243.7 59.3c-15.4-19.6-36.7-30.8-57.2-30.8 -27.3 0-38.4 12.8-57.2 12 -19.6 0-34.2-12.8-57.2-13.7 -23.1 0-47.8 13.7-63.2 36.7 -21.4 34.2-18.8 97.4 16.2 151.2 12.8 19.6 29 41 51.3 41.9 19.6 0 25.6-12 52.1-12 26.5 0 31.6 12.8 51.3 12.8 22.2 0 40.2-23.9 53-42.7 10.3-16.2 12.8-22.2 18.8-35.9C199.3 159.3 193.3 86.6 243.7 59.3L243.7 59.3zM166.8 7.2c10.3-12.8 17.9-29.9 15.4-48.7 -16.2 0.9-35 11.1-46.1 23.9 -10.3 12-18.8 29.9-15.4 47C137.7 30.3 155.7 20 166.8 7.2L166.8 7.2z" style="fill:#FFF;opacity:0.6"/></svg>

