<svg xmlns="http://www.w3.org/2000/svg" viewBox="0 0 320 320"><g><path fill="#8A4182" d="M13.672,160.268c0,80.87,65.782,146.659,146.636,146.659c80.847,0,146.618-65.789,146.618-146.659 c0-80.843-65.771-146.612-146.618-146.612"/><path fill="#8A4182" d="M160.308,13.655c-80.854,0-146.636,65.77-146.636,146.612"/><path fill="#FFFFFF" d="M160.308,43.341c64.567,0,116.929,52.341,116.929,116.926c0,64.605-52.361,116.969-116.929,116.969 c-64.592,0-116.946-52.363-116.946-116.969C43.361,95.683,95.715,43.341,160.308,43.341"/><path id="path48" fill="#8A4182" d="M249.115,192.856l-43.992-14.294l2.908-8.963l43.992,14.296 L249.115,192.856"/><path fill="#8A4182" d="M193.008,122.23l-7.621-5.538l27.188-37.426l7.623,5.537 L193.008,122.23"/><path fill="#8A4182" d="M128.062,121.887l-27.184-37.424l7.625-5.539l27.183,37.426 L128.062,121.887"/><path fill="#8A4182" d="M71.303,192.296l-2.909-8.96l43.989-14.288l2.909,8.959 L71.303,192.296"/><path fill="#8A4182" d="M155.299,253.749h9.422v-46.256h-9.422V253.749z"/><path fill="#8A4182" d="M179.275,140.623l7.021,21.604l9.131,2.963l57.873-18.801 l-10.506-32.333l-57.875,18.807L179.275,140.623"/><path fill="#8A4182" d="M148.943,135.087h22.711l5.645-7.768V66.47h-33.997v60.854 L148.943,135.087"/><path fill="#8A4182" d="M134.302,162.229l7.017-21.6l-5.644-7.77l-57.871-18.803 l-10.506,32.333l57.88,18.806L134.302,162.229"/><path fill="#8A4182" d="M155.589,184.543l-18.374-13.357l-9.132,2.974 l-35.767,49.229l27.502,19.979l35.77-49.23V184.543"/><path fill="#8A4182" d="M183.387,171.186l-18.375,13.352l0.002,9.601l35.764,49.229 l27.506-19.979l-35.771-49.233L183.387,171.186"/></g></svg>
