<svg xmlns="http://www.w3.org/2000/svg" viewBox="0 0 35 35"><path d="M2.8 8.7c-3 4.3-2.6 10-0.3 14.6 0.1 0.1 0.1 0.2 0.2 0.3 0 0.1 0.1 0.1 0.1 0.2 0 0 0 0.1 0.1 0.1 0 0.1 0.1 0.1 0.1 0.2 0.1 0.1 0.1 0.3 0.2 0.4 0 0.1 0.1 0.1 0.1 0.2 0.1 0.1 0.2 0.3 0.3 0.4 0 0.1 0.1 0.1 0.1 0.2 0.1 0.2 0.2 0.4 0.4 0.5 0 0 0 0 0 0 0 0 0 0.1 0.1 0.1 0.1 0.2 0.2 0.3 0.3 0.4 0 0.1 0.1 0.1 0.1 0.2 0.1 0.1 0.2 0.3 0.3 0.4 0 0 0.1 0.1 0.1 0.1 0.1 0.2 0.3 0.3 0.4 0.5 0 0 0 0 0 0 0 0 0 0 0 0 0.1 0.2 0.3 0.3 0.4 0.5 0 0 0.1 0.1 0.1 0.1 0.1 0.1 0.2 0.2 0.4 0.3 0 0 0.1 0.1 0.1 0.1C6.7 28.8 6.8 29 7 29.1c0 0 0 0 0 0 0 0 0.1 0 0.1 0.1 0.1 0.1 0.3 0.2 0.4 0.4 0.1 0 0.1 0.1 0.2 0.1C7.8 29.8 8 29.9 8.1 30c0.1 0 0.1 0.1 0.2 0.1 0.1 0.1 0.3 0.2 0.4 0.3 0.1 0 0.1 0.1 0.1 0.1 0 0 0 0 0 0 0.1 0.1 0.3 0.2 0.4 0.3 0.1 0 0.1 0.1 0.2 0.1 0.2 0.1 0.4 0.3 0.6 0.4 0.1 0 0.1 0.1 0.2 0.1 0.2 0.1 0.3 0.2 0.5 0.3 0.1 0 0.2 0.1 0.3 0.1 0.1 0.1 0.2 0.1 0.3 0.2 0 0 0.1 0 0.1 0 0 0 0.1 0 0.1 0.1 0.2 0.1 0.4 0.2 0.5 0.2 0 0 0.1 0 0.1 0.1 0.2 0.1 0.4 0.2 0.6 0.3 0 0 0.1 0 0.2 0.1 0.2 0.1 0.4 0.1 0.6 0.2 0 0 0 0 0.1 0 0.2 0.1 0.4 0.1 0.7 0.2 0.1 0 0.1 0 0.2 0 0.2 0.1 0.4 0.1 0.7 0.2 14.6 2.7 18.8-8.8 18.8-8.8 -3.6 4.6-9.9 5.9-15.9 4.5 -0.2-0.1-0.4-0.1-0.7-0.2 -0.1 0-0.1 0-0.2-0.1 -0.2-0.1-0.4-0.1-0.6-0.2 0 0-0.1 0-0.1 0 -0.2-0.1-0.4-0.1-0.6-0.2 -0.1 0-0.1 0-0.2-0.1 -0.2-0.1-0.4-0.2-0.6-0.3 0 0-0.1 0-0.1-0.1 -0.2-0.1-0.3-0.2-0.5-0.2 0 0-0.1 0-0.1-0.1 -0.1-0.1-0.3-0.1-0.4-0.2 -0.1 0-0.2-0.1-0.3-0.1 -0.2-0.1-0.3-0.2-0.5-0.3 -0.1 0-0.1-0.1-0.2-0.1 -0.2-0.1-0.4-0.3-0.6-0.4 -0.1 0-0.1-0.1-0.2-0.1 -0.1-0.1-0.3-0.2-0.4-0.3 0 0-0.1-0.1-0.1-0.1 -0.1-0.1-0.3-0.2-0.4-0.3 -0.1 0-0.1-0.1-0.2-0.1 -0.1-0.1-0.3-0.2-0.4-0.3 -0.1 0-0.1-0.1-0.2-0.1 -0.2-0.1-0.3-0.3-0.5-0.4 0 0 0 0-0.1 0 -0.2-0.1-0.3-0.3-0.5-0.5 0 0-0.1-0.1-0.1-0.1 -0.1-0.1-0.2-0.2-0.4-0.3 0 0-0.1-0.1-0.1-0.1 -0.1-0.2-0.3-0.3-0.4-0.5 0 0 0 0 0 0 -0.2-0.2-0.3-0.3-0.4-0.5 0 0-0.1-0.1-0.1-0.1 -0.1-0.1-0.2-0.3-0.3-0.4 0 0-0.1-0.1-0.1-0.1C7.3 22 7.1 21.8 7 21.6 3.7 17.1 2.5 10.9 5.2 5.7" class="jquery-icon-blue"/><path d="M12.2 5.1c-2.2 3.1-2.1 7.3-0.4 10.7 0.3 0.6 0.6 1.1 1 1.6 0.3 0.5 0.7 1 1.1 1.4 0.2 0.2 0.3 0.3 0.5 0.5 0 0 0.1 0.1 0.1 0.1 0.2 0.2 0.3 0.3 0.5 0.5 0 0 0 0 0 0 0 0 0 0 0 0 0.2 0.2 0.4 0.3 0.6 0.5 0 0 0.1 0.1 0.1 0.1 0.2 0.2 0.4 0.3 0.6 0.4 0 0 0 0 0 0 0.1 0.1 0.2 0.1 0.3 0.2 0 0 0.1 0.1 0.1 0.1 0.1 0.1 0.3 0.2 0.5 0.3 0 0 0 0 0.1 0 0.1 0.1 0.3 0.2 0.4 0.2 0 0 0.1 0 0.1 0.1 0.1 0 0.2 0.1 0.3 0.1 0 0 0 0 0 0 0.2 0.1 0.4 0.2 0.6 0.3 0 0 0.1 0 0.1 0.1 0.2 0.1 0.3 0.1 0.5 0.2 0.1 0 0.1 0.1 0.2 0.1 0.1 0.1 0.3 0.1 0.4 0.2 0.1 0 0.1 0 0.2 0.1 0.2 0.1 0.4 0.1 0.6 0.2 11.3 1.9 13.9-6.8 13.9-6.8 -2.3 3.4-6.9 5-11.7 3.7 -0.2-0.1-0.4-0.1-0.6-0.2 -0.1 0-0.1 0-0.2-0.1 -0.1 0-0.3-0.1-0.4-0.2 -0.1 0-0.1 0-0.2-0.1 -0.2-0.1-0.3-0.1-0.5-0.2 0 0-0.1 0-0.1-0.1 -0.2-0.1-0.4-0.2-0.6-0.3 -0.1 0-0.2-0.1-0.3-0.2 -0.1 0-0.1-0.1-0.2-0.1 -0.1-0.1-0.3-0.1-0.4-0.2 0 0-0.1 0-0.1-0.1 -0.2-0.1-0.3-0.2-0.5-0.3 0 0-0.1-0.1-0.1-0.1 -0.1-0.1-0.2-0.1-0.3-0.2 -0.2-0.1-0.4-0.3-0.6-0.4 0 0-0.1-0.1-0.1-0.1 -2.1-1.7-3.8-4-4.6-6.6C12.3 8 12.5 5 14 2.5" class="jquery-icon-blue"/><path d="M20 2.3c-1.3 1.9-1.4 4.2-0.5 6.3 0.9 2.2 2.9 4 5.1 4.8 0.1 0 0.2 0.1 0.3 0.1 0 0 0.1 0 0.1 0 0.1 0 0.3 0.1 0.4 0.1 6.2 1.2 7.9-3.2 8.4-3.8 -1.5 2.1-4 2.6-7 1.9 -0.2-0.1-0.5-0.1-0.7-0.2 -0.3-0.1-0.6-0.2-0.9-0.4 -0.5-0.3-1.1-0.6-1.5-0.9 -2.7-2.1-4.4-6-2.6-9.2" class="jquery-icon-blue"/></svg>

