<svg viewBox="0 0 128 128" xmlns="http://www.w3.org/2000/svg"><g><g><g><g><circle fill="#0079bf" cx="64" cy="64" r="50"/></g></g></g></g><path fill="white" d="M82.4,39.5H45.6c-3.4,0-6.1,2.7-6.1,6.1v36.7c0,3.4,2.7,6.1,6.1,6.1h36.7c3.4,0,6.1-2.7,6.1-6.1V45.6  C88.5,42.2,85.8,39.5,82.4,39.5z M60.8,77.9c0,1.6-1.3,2.9-2.9,2.9h-9.1c-1.6,0-2.9-1.3-2.9-2.9V50.1c0-1.6,1.3-2.9,2.9-2.9h9.1  c1.6,0,2.9,1.3,2.9,2.9V77.9z M82.1,65.7c0,1.6-1.3,2.9-2.9,2.9h-9.1c-1.6,0-2.9-1.3-2.9-2.9V50.1c0-1.6,1.3-2.9,2.9-2.9h9.1  c1.6,0,2.9,1.3,2.9,2.9V65.7z"/></svg>
