<svg xmlns="http://www.w3.org/2000/svg" viewBox="0 0 1000 1000"><path d="M225.4 299c0 81.5 0 167.6 0 250.7 0 5.8-0.7 12.7 1.4 15.9 6.6 10.7 37.2-0.5 43 11.3 2 4 1.1 12.3 1.1 18.9 0 3.2 0 6.4 0 10 0 3 0.7 7.8 0 9.7 -0.8 2.1-10 4.5-12.4 5.1 -5 1.3-10.2 1.8-15.4 2.2 -12.3 0.7-22.6-1.2-31.1-3.5 -12.6-3.5-25.5-9.6-35.1-17.6 -2.8-2.3-7.5-6.3-8.4-8.9 -0.6-1.9-0.7-4.8-1.1-7.3 -2.4-17-3.5-35.9-4.3-54.3 -2.8-66 2.2-131.8 0-198 -20.8-5.2-27.6 10.8-45.1 11.3 -12.7 54.9 8.7 143.9-50.2 152.6 21.5 11.4 33.8 28.1 40.8 55.1 6 23.1 6.6 50.1 4.6 77.5 -0.6 7.8-1.3 14.6 2.2 20 6.7 10.4 25.1 11.7 30.3 23.8 1.6 3.8 2.3 11.4 0.8 15.7 -1.1 3.2-4.9 6.1-8.1 8.1 -18 11.5-49 3.6-65.1-4.6 -3.2-1.6-6.8-3.7-10-6.2 -3.1-2.4-6.6-5.2-7.8-8.1 -0.8-1.8-1.1-4.5-1.6-7 -3.2-15.4-3.8-36.7-4.1-55.1 -0.2-10.9 0-22.4 0-34 0-14.4 2.4-31.5-3.2-40.5 -8-12.8-31.2-14.4-35.4-32.4 -2-8.5-1-20.4 4.1-26.5 7.1-8.7 20.5-11.6 28.6-20 2.5-2.5 5.5-6.5 5.9-10 0.3-2.3-0.6-5.2-1.1-7.8 -2.9-17-5.2-37.3-3.5-57.3 5-59.6 42-87.4 101.8-92.4C173.4 293.3 200.6 295.5 225.4 299z"/><path d="M847.8 701.2c-2.2-8.5-2.4-17.8 0.8-24.6 5-10.6 17.7-14.6 26.2-22.4 2.8-2.6 6.1-6.4 6.8-9.5 0.6-2.9-0.1-8-0.3-11.6 -2.6-58.2 0-117.1 45.1-129.9 -2.2-2-4.9-3.2-7.3-4.9 -30.4-21-40.1-63.1-38.6-116.2 0.1-3.7 0.3-7.6 0.5-11.3 0.4-6.8 1.1-13-1.3-18.1 -6.3-13.2-27.7-14.3-33.2-28.9 -2.8-7.3-1.3-16.6 1.4-24.9 4.8-0.3 10.7-1.1 15.9-1.4 42.5-2 66.9 17.9 77.8 48.1 8.5 23.5 10.2 52 9.5 84.3 -0.1 4.7-0.6 9.8-0.8 14.9 -0.2 4.9-0.9 10.1 0 14.6 3.8 19.5 32.6 14.4 38.4 32.7 3 9.3 1.2 21-3.5 27.8 -7.9 11.5-25.4 14.8-36.7 24 -1.7 1.4-3.8 3.5-4.1 4.6 -0.4 1.8 0.1 5.3 0.3 8.1 1.8 37.7 4.9 82.4-6.8 112.1 -6.2 15.8-16.5 27.4-32.7 33C888.8 707.4 864.7 705.8 847.8 701.2z"/><path d="M468.8 525.7c-47.2 0-94.4 0-141.5 0 -0.2 30.2 17.3 44.2 43.8 48.1 28.2 4.1 58-3 80.8-8.6 0.5 18.2 9.7 31.9 5.7 51.3 -19.3 4.1-38.4 7.9-60 8.4 -22.5 0.5-43.8-1.5-61-6.8 -34.6-10.4-60.6-31.9-69.7-67 -10.6-40.9-1.3-84.7 14.9-112.6 8.4-14.5 19.3-26.3 32.7-35.7 13.6-9.6 31.2-16.6 51.9-17.6 20.5-1 39.6 2.8 53.2 9.5 14 6.9 24.3 17.4 32.7 30 8 12 14.8 27 18.1 44.6C473.5 486.7 473.5 507.4 468.8 525.7zM400.5 447.6c-8.2-7.2-19.7-11.8-34.3-10.8 -23.1 1.6-40.4 17.2-39.2 43.2 27.8 0.6 56.8 0.1 85.1 0.3C413.6 465.8 408.6 454.8 400.5 447.6z"/><path d="M644.1 401.1c-1.1 17.8-5.9 31.8-11.1 45.4 -12.9-4.4-28.4-10.1-45.4-11.1 -19.2-1.1-33.3 3.6-39.7 16.5 13.3 33.9 68.8 26.8 92.1 51.6 1.6 1.7 3.5 3.6 4.3 5.1 1 2.1 1.4 4.9 2.2 7.3 4.8 16.4 7.3 39.4 1.1 56.5 -6.5 18.1-20.2 30.6-35.9 38.9 -16.4 8.7-37.3 13.2-60.8 14.3 -23.3 1.1-46.4-3.5-65.4-9.5 -2.7-21.3 5.1-36.4 11.1-50.8 2 0.4 3.8 1.4 5.7 2.2 25.4 10.8 81.5 17 90.8-13.2 -5.7-12.3-14.7-20.2-26.2-25.4 -12-5.4-25.9-8-39.4-11.9 -13.4-3.9-24.9-9.1-32.4-19.2 -3.5-4.7-6.2-10.6-8.4-17.3 -2.1-6.4-3.8-13.9-3.8-21.9 -0.1-24.1 14.1-41.3 28.9-51.6 15.8-11 37.4-18.3 61.9-19.4C602.5 386.3 624.6 392.5 644.1 401.1z"/><path d="M819.7 401.1c3.2 15.7-3.5 27.4-5.9 40 -7.5 3.2-16.2 1.1-24-0.5 -7.7-1.6-15.6-3.5-23.2-4.6 -15.7-2.3-29.6-0.7-35.4 11.1 -0.7 1.5-1.9 3.4-1.9 4.9 0 2.9 3.3 8.7 4.6 10.8 5.9 9.5 16.3 15 28.1 17.8 17.4 4.1 36.1 4 48.1 13 3.2 2.4 5.8 5.8 8.4 8.9 8.9 10.8 17.3 24.8 15.9 45.4 -1.3 19-11.9 33.5-22.7 44.3 -21.5 21.5-54.2 36.7-97 36.7 -19.6 0-38.6-5.2-53.8-13 -2.9-22.4 9.9-31.6 11.3-50.5 2.1 0.1 3.8 1.4 5.7 2.2 5.9 2.2 12.3 3.9 18.9 5.4 25 5.8 58 5.8 69.2-13.2 1.1-1.8 2.4-4.3 2.4-5.7 0.1-3.3-4.7-10.5-6.5-12.7 -17.7-21-56.7-19.1-80-35.1 -3.9-2.7-8.3-5.9-10-9.2 -1.4-2.6-2.3-6.7-3.2-9.7 -2.8-9.1-5.4-21.6-4.3-33.2 1.4-15.8 7.4-26.9 15.1-35.7 15.5-17.6 41.2-28.8 72.7-30.3C779.8 386.9 801.1 392.9 819.7 401.1z"/></svg>

