<svg xmlns="http://www.w3.org/2000/svg" viewBox="0 0 38 38"><path d="M31.7 13.5C31.7 6.5 26 0.8 18.9 0.8c-7 0-12.8 5.7-12.8 12.8 0 0 0 0 0 0.1C2.5 15.8 0 19.9 0 24.5c0 7 5.7 12.8 12.8 12.8 2.3 0 4.4-0.6 6.2-1.6 1.8 1 4 1.6 6.2 1.6 7 0 12.8-5.7 12.8-12.8C38 19.8 35.5 15.7 31.7 13.5zM19 33c-2.3-1.7-3.9-4.3-4.2-7.4 1.3 0.4 2.7 0.7 4.1 0.7 1.5 0 3-0.3 4.3-0.8C22.9 28.6 21.3 31.2 19 33zM8.5 14.9c1.3-0.6 2.7-0.9 4.3-0.9 1.5 0 2.9 0.3 4.2 0.9 -2.1 1.8-3.6 4.3-4.2 7.2C10.5 20.4 8.9 17.8 8.5 14.9zM18.9 24.1c-1.5 0-2.8-0.3-4.1-0.8 0.4-2.9 1.9-5.5 4.2-7.2 2.2 1.7 3.8 4.2 4.2 7.1C21.9 23.7 20.5 24.1 18.9 24.1zM21.1 14.8c1.3-0.5 2.7-0.9 4.2-0.9 1.5 0 2.8 0.3 4.1 0.8 -0.4 2.9-1.9 5.4-4.1 7.1C24.7 19.1 23.2 16.7 21.1 14.8zM18.9 3c5.4 0 9.9 4.1 10.5 9.4 -1.3-0.4-2.7-0.7-4.1-0.7 -2.3 0-4.4 0.6-6.2 1.6 -1.8-1-4-1.6-6.2-1.6 -1.5 0-3 0.3-4.3 0.8C9 7.2 13.5 3 18.9 3zM12.8 35c-5.8 0-10.5-4.7-10.5-10.5 0-3.4 1.6-6.5 4.2-8.4 0.7 3.6 3 6.6 6.1 8.4 0 3.8 1.7 7.3 4.4 9.6C15.7 34.7 14.3 35 12.8 35zM25.3 35c-1.5 0-2.9-0.3-4.2-0.9 2.7-2.3 4.4-5.8 4.4-9.7 0 0 0 0 0-0.1 3-1.8 5.2-4.9 5.9-8.4 2.6 1.9 4.3 5 4.3 8.5C35.8 30.3 31.1 35 25.3 35z" fill="#010002"/></svg>

