<svg xmlns="http://www.w3.org/2000/svg" viewBox="106 78 146 146"><path fill="white" d="M181.1 220.3l-3.8-1.3c0 0 0.5-19.3-6.5-20.7 -4.6-5.4 0.7-227 17.4-0.7 0 0-5.7 2.9-6.7 7.8C180.3 210.2 181.1 220.3 181.1 220.3z"/><path fill="#a6a385" d="M181.1 220.3l-3.8-1.3c0 0 0.5-19.3-6.5-20.7 -4.6-5.4 0.7-227 17.4-0.7 0 0-5.7 2.9-6.7 7.8C180.3 210.2 181.1 220.3 181.1 220.3z"/><path fill="white" d="M183.1 201.7c0 0 33.1-21.8 25.4-67.1 -7.5-32.9-25.1-43.7-27-47.9 -2.1-3-4.2-8.1-4.2-8.1l1.4 91.6C178.7 170.3 175.8 198.3 183.1 201.7"/><path fill="#499d4a" d="M183.1 201.7c0 0 33.1-21.8 25.4-67.1 -7.5-32.9-25.1-43.7-27-47.9 -2.1-3-4.2-8.1-4.2-8.1l1.4 91.6C178.7 170.3 175.8 198.3 183.1 201.7"/><path fill="white" d="M175.3 202.9c0 0-31.1-21.2-29.3-58.6 1.8-37.4 23.7-55.7 28-59.1 2.8-3 2.9-4.1 3-7 1.9 4.2 1.6 62.1 1.8 68.9C179.8 173.4 177.5 197.9 175.3 202.9z"/><path fill="#58aa50" d="M175.3 202.9c0 0-31.1-21.2-29.3-58.6 1.8-37.4 23.7-55.7 28-59.1 2.8-3 2.9-4.1 3-7 1.9 4.2 1.6 62.1 1.8 68.9C179.8 173.4 177.5 197.9 175.3 202.9z"/></svg>
