<svg xmlns="http://www.w3.org/2000/svg" viewBox="0 0 1000 1000" fill="#0d9921"><path d="M76 422.8l98.4 115.7V421.8c0-7.6 2.1-13.3 6.3-17.1 4.2-3.8 9.8-5.7 17-5.7 7.3 0 13.1 1.9 17.4 5.7 4.2 3.8 6.4 9.5 6.4 17.1v154.4c0 17.2-9.2 25.8-27.6 25.8 -4.6 0-8.7-0.5-12.4-1.5 -3.7-1-7.1-2.7-10.3-4.9 -3.2-2.2-6.2-4.8-9-7.8 -2.8-3-5.5-6-8.3-9.2l-96-114.3v115c0 7.5-2.2 13.2-6.7 17C46.7 600 41 602 33.9 602c-7.2 0-13-1.9-17.4-5.8 -4.4-3.9-6.5-9.5-6.5-16.9V427.8c0-6.4 0.9-11.5 2.8-15.1 2.2-4 5.8-7.3 10.9-9.8 5.1-2.5 10.5-3.8 16.4-3.8 4.6 0 8.5 0.6 11.8 1.7 3.3 1.2 6.1 2.7 8.6 4.7 2.5 2 5 4.5 7.6 7.6C70.6 416.2 73.2 419.4 76 422.8z"/><path d="M624.6 422.8l98.4 115.7V421.8c0-7.6 2.1-13.3 6.3-17.1 4.2-3.8 9.8-5.7 17-5.7 7.3 0 13.2 1.9 17.4 5.7s6.4 9.5 6.4 17.1v154.4c0 17.2-9.2 25.8-27.6 25.8 -4.6 0-8.7-0.5-12.4-1.5 -3.7-1-7.1-2.7-10.3-4.9 -3.2-2.2-6.2-4.8-9-7.8 -2.8-3-5.5-6-8.3-9.2l-96-114.3v115c0 7.5-2.2 13.2-6.7 17 -4.5 3.8-10.2 5.8-17.2 5.8 -7.2 0-13-1.9-17.4-5.8 -4.4-3.9-6.5-9.5-6.5-16.9V427.8c0-6.4 0.9-11.5 2.8-15.1 2.2-4 5.8-7.3 10.9-9.8 5.1-2.5 10.5-3.8 16.4-3.8 4.6 0 8.5 0.6 11.8 1.7 3.3 1.2 6.1 2.7 8.6 4.7 2.5 2 5 4.5 7.6 7.6C619.1 416.2 621.8 419.4 624.6 422.8z"/><path d="M802.6 560.5l56.5-64.1 -47.6-57c-4.5-5.5-7.8-10.3-10.1-14.3 -2.2-4-3.4-7.8-3.4-11.4 0-3.8 2.2-7.1 6.5-10.1 4.3-3 9.6-4.5 15.8-4.5 7.1 0 12.7 1.6 16.6 4.9 4 3.3 9.4 9.3 16.5 18.1l37.9 47.7 40.5-47.7c3.3-4 6.2-7.4 8.5-10.3 2.4-2.9 4.6-5.2 6.8-7.1 2.2-1.9 4.6-3.3 7.3-4.2 2.7-0.9 5.8-1.4 9.4-1.4 6.4 0 11.7 1.5 15.8 4.5 4.1 3 6.1 6.5 6.1 10.6 0 6-4.4 14.1-13.3 24.4l-49.8 57.8 53.6 64.1c4.8 5.6 8.3 10.3 10.5 14 2.2 3.7 3.3 7.2 3.3 10.5 0 3.1-1 6-2.9 8.6 -2 2.6-4.7 4.6-8.3 6.2 -3.6 1.5-7.6 2.3-12.1 2.3 -4.8 0-8.9-0.8-12.2-2.3 -3.3-1.6-6-3.5-8.1-5.8 -2.1-2.3-5.9-6.8-11.5-13.5l-44.4-54.4 -47.2 56c-3.7 4.5-6.3 7.6-7.8 9.4 -1.5 1.8-3.4 3.5-5.6 5.2 -2.2 1.7-4.8 3-7.8 4 -3 1-6.5 1.5-10.5 1.5 -6.2 0-11.3-1.5-15.4-4.4 -4.1-2.9-6.1-7.2-6.1-12.9C790 578.1 794.2 570 802.6 560.5z"/><path d="M536 463.2v-40.1c0-8.1-2.4-14.2-7.2-18.1 -4.8-4-11-6-18.7-6 -7.5 0-13.6 2-18.3 6 -4.7 4-7.1 10-7.1 18.1v40.1H536z"/><path d="M484.8 495v82.7c0 8 2.4 14.1 7.2 18.1 4.8 4.1 10.8 6.1 18.2 6.1 7.7 0 13.9-2 18.7-6 4.8-4 7.2-10.1 7.2-18.2V495H484.8z"/><path d="M334.9 479.9c-9.4 1.3-16.6 9.4-16.6 19.2 0 10.7 8.7 19.4 19.4 19.4h71.3l-23.6 42.9H311l-29.8-64 32.5-60.5h72.1l9.8 20.4h43.1L410.3 398H290.6l-52.7 98.1 48.4 104.1h122.1l66.2-120.3L334.9 479.9 334.9 479.9z"/></svg>

