<svg xmlns="http://www.w3.org/2000/svg" viewBox="0 0 471 512"><path d="M0.2 36.4l40.6 364.1c2.1 14.2 10.8 24.5 21.9 30L221.2 508.5c10.2 4.3 20.7 5 31.9 0l158.1-78c13-6.5 20.7-20 20.1-34.1l39.4-361.6C470.8 16.6 454.3 0 434.3 0L36.7 0C16.7 0-2.1 17 0.2 36.4zM324.6 304.5v-23.6c0.3-29.2-10.1-33.8-35.4-33v-27.5c21.6 0.4 35.3-0.8 35.4-32.8v-25.4c0-30 13.5-45.8 47.4-45.3l24.7 0v27.8c-14.4-0.7-24.5 0.9-28.8 5.3 -15 17.3 11.4 76.6-27.5 83.3 38.7 9 13.2 64.6 27.5 83.5 3.5 4.8 14.3 5.9 28.8 5.5v27.6h-24.7C342.3 350 324.6 339.2 324.6 304.5zM123.2 202.5c17.1-21.9 51.1-20.6 60.5 3.1l0-16.2h23.8v85.5c31.1-3 41.2-56.6 16.8-89.4 -37.6-51.3-113.2-34.7-135.6 14.7 -38.9 92 54.4 168.7 124.8 107.8l12.2 19.9c-61.2 49.9-121.8 12.6-137.9-6.8 -44.9-46-42.9-145.7 33.4-181.7 78.3-30.9 137.9 27.1 137.9 88.5 -1.5 52-33.1 71.5-75.2 70.4v-19c-9.5 24.1-41.8 23.6-58.1 6C105.5 263.7 107.3 222.9 123.2 202.5zM181.2 242.4c0-43.6-44.2-43.6-44.2 0C135.4 285.9 182.2 286.4 181.2 242.4z"/></svg>

