<svg viewBox="50 50 248 120" xmlns="http://www.w3.org/2000/svg" fill-rule="evenodd" clip-rule="evenodd" stroke-linejoin="round" stroke-miterlimit="1.41421"><g><path d="M283.575,102.03L283.575,74.7L271.33,94.767L259.119,74.7L259.119,102.03L246.217,102.03L246.217,51.006L259.102,51.006L271.315,71.774L283.575,51.006L296.459,51.006L296.459,102.03L283.575,102.03ZM224.913,82.565L218.506,63.944L212.099,82.565L224.913,82.565ZM231.516,102.03L228.489,93.203L208.527,93.203L205.434,102.03L192.769,102.03L211.256,51.007L225.744,51.007L244.212,102.03L231.516,102.03ZM175.194,61.791L162.824,61.791L162.824,75.532L174.838,75.532C178.344,75.532 180.87,72.146 180.87,68.728C180.87,65.507 178.756,61.791 175.194,61.791M182.651,84.908L191.183,102.03L178.129,102.03L170.561,85.728L162.824,85.728L162.824,102.03L150.934,102.03L150.934,51.007L176.93,51.007C186.074,51.007 192.96,58.666 192.96,68.569C192.96,76.288 189.403,81.796 182.651,84.908M145.616,87.042C145.717,96.91 136.263,103.473 124.887,103.473C102.283,103.473 103.807,86.636 103.702,85.261L115.691,85.261C115.183,90.498 120.568,93.399 125.397,93.297C128.955,93.246 133.318,92.587 133.879,87.903C134.995,78.499 104.419,85.261 104.419,65.727C104.419,55.344 114.778,49.65 124.887,49.65C139.213,49.65 145.601,58.113 145.601,67.219L133.282,67.219C133.282,67.219 133.879,59.973 124.636,59.973C121.025,59.973 117.015,61.398 116.557,64.761C115.34,73.554 145.362,67.049 145.616,87.042M75.862,60.275C66.93,60.275 63.17,68.569 63.17,76.512C63.17,84.4 67.232,92.527 75.811,92.527C84.453,92.527 88.418,84.301 88.418,76.459C88.418,68.411 84.702,60.275 75.862,60.275M75.862,103.423C60.933,103.423 51.024,92.484 51.024,76.563C51.024,60.733 61.694,49.598 75.862,49.598C90.396,49.546 100.658,60.329 100.658,76.563C100.658,92.461 90.904,103.423 75.862,103.423" fill="rgb(255,102,0)"/><path d="M55.832,129.113L81.359,129.113L81.359,132.117L59.353,132.117L59.353,145.475L79.961,145.475L79.961,148.479L59.353,148.479L59.353,163.08L81.618,163.08L81.618,166.084L55.832,166.084L55.832,129.113Z" fill="rgb(255,102,0)" fill-rule="nonzero"/><rect x="87.835" y="129.113" width="3.521" height="36.971" fill="rgb(255,102,0)" fill-rule="nonzero"/> <path d="M99.062,129.113L102.998,129.113L124.538,160.387L124.641,160.387L124.641,129.113L128.162,129.113L128.162,166.084L124.227,166.084L102.687,134.809L102.583,134.809L102.583,166.084L99.062,166.084L99.062,129.113Z" fill="rgb(255,102,0)" fill-rule="nonzero"/><path d="M138.262,153.917C138.107,161.527 143.544,163.857 150.327,163.857C154.211,163.857 160.113,161.734 160.113,156.35C160.113,152.155 155.97,150.498 152.502,149.67L144.269,147.65C139.919,146.563 135.932,144.544 135.932,138.745C135.932,135.12 138.262,128.337 148.67,128.337C156.022,128.337 162.34,132.22 162.34,139.831L158.819,139.831C158.56,134.24 154.004,131.34 148.722,131.34C143.907,131.34 139.453,133.204 139.453,138.693C139.453,142.161 141.991,143.663 145.046,144.336L154.055,146.563C159.285,147.961 163.634,150.291 163.634,156.297C163.634,158.834 162.598,166.86 149.499,166.86C140.748,166.86 134.327,162.925 134.741,153.917L138.262,153.917Z" fill="rgb(255,102,0)" fill-rule="nonzero"/><path d="M164.207,129.113L193.514,129.113L193.514,132.117L180.621,132.117L180.621,166.084L177.1,166.084L177.1,132.117L164.207,132.117L164.207,129.113Z" fill="rgb(255,102,0)" fill-rule="nonzero"/><path d="M211.432,163.857C221.166,163.857 225.31,155.675 225.31,147.598C225.31,139.521 221.166,131.339 211.432,131.339C201.646,131.339 197.504,139.521 197.504,147.598C197.504,155.675 201.646,163.857 211.432,163.857M211.432,128.337C223.031,128.337 228.83,137.45 228.83,147.598C228.83,157.748 223.031,166.86 211.432,166.86C199.782,166.86 193.983,157.748 193.983,147.598C193.983,137.45 199.782,128.337 211.432,128.337" fill="rgb(255,102,0)" fill-rule="nonzero"/><path d="M234.27,129.113L238.206,129.113L259.746,160.387L259.849,160.387L259.849,129.113L263.371,129.113L263.371,166.084L259.434,166.084L237.894,134.809L237.791,134.809L237.791,166.084L234.27,166.084L234.27,129.113Z" fill="rgb(255,102,0)" fill-rule="nonzero"/><path d="M270.778,129.113L296.305,129.113L296.305,132.117L274.299,132.117L274.299,145.475L294.908,145.475L294.908,148.479L274.299,148.479L274.299,163.08L296.564,163.08L296.564,166.084L270.778,166.084L270.778,129.113Z" fill="rgb(255,102,0)" fill-rule="nonzero"/><path d="M304.038,131.237C303.844,131.129 303.533,131.074 303.105,131.074L302.447,131.074L302.447,132.658L303.143,132.658C303.47,132.658 303.714,132.625 303.878,132.561C304.179,132.441 304.329,132.213 304.329,131.877C304.329,131.559 304.232,131.345 304.038,131.237M303.207,130.548C303.749,130.548 304.146,130.601 304.4,130.706C304.852,130.894 305.078,131.263 305.078,131.813C305.078,132.204 304.935,132.492 304.651,132.676C304.5,132.774 304.289,132.845 304.02,132.888C304.361,132.943 304.611,133.085 304.77,133.316C304.928,133.547 305.007,133.773 305.007,133.993L305.007,134.313C305.007,134.414 305.011,134.523 305.018,134.638C305.025,134.754 305.038,134.83 305.056,134.866L305.083,134.92L304.362,134.92C304.358,134.906 304.354,134.891 304.351,134.877C304.347,134.862 304.344,134.846 304.34,134.828L304.324,134.687L304.324,134.341C304.324,133.837 304.186,133.503 303.911,133.341C303.749,133.247 303.463,133.201 303.055,133.201L302.447,133.201L302.447,134.92L301.677,134.92L301.677,130.548L303.207,130.548ZM300.863,130.326C300.198,130.995 299.865,131.803 299.865,132.75C299.865,133.705 300.196,134.518 300.858,135.191C301.523,135.863 302.331,136.2 303.283,136.2C304.233,136.2 305.041,135.863 305.707,135.191C306.372,134.518 306.705,133.705 306.705,132.75C306.705,131.803 306.372,130.995 305.707,130.326C305.038,129.653 304.23,129.317 303.283,129.317C302.339,129.317 301.532,129.653 300.863,130.326M306.103,135.571C305.325,136.352 304.385,136.742 303.283,136.742C302.179,136.742 301.241,136.352 300.468,135.571C299.697,134.793 299.312,133.851 299.312,132.745C299.312,131.649 299.701,130.713 300.478,129.936C301.252,129.162 302.187,128.775 303.283,128.775C304.385,128.775 305.325,129.162 306.103,129.936C306.88,130.709 307.269,131.646 307.269,132.745C307.269,133.848 306.88,134.79 306.103,135.571" fill="rgb(255,102,0)" fill-rule="nonzero"/></g></svg>
