<svg xmlns="http://www.w3.org/2000/svg" viewBox="0 0 290.206 174.165"><g><path fill="#FEFEFE" d="M290.102,152.082c0,6.167-0.204,12.343,0.088,18.496c0.143,3.005-0.605,3.595-3.588,3.587 c-46.5-0.119-93-0.083-139.5-0.083c0.39-0.988,1.269-0.85,2.076-0.931c14.379-1.447,24.85-13.563,24.201-27.991 c-0.659-14.666-12.331-26.049-26.811-26.146c-13.762-0.092-23.393,8.301-27.602,24.054c-24.901-0.002-49.803-0.003-74.705-0.005 c-0.132-0.651-0.232-1.312-0.4-1.955c-2.693-10.319-10.091-17.128-19.54-17.994c-10.008-0.918-18.242,4.231-22.854,14.255 c-0.301,0.656-0.163,1.747-1.367,1.713c0-45.167,0.037-90.333-0.083-135.5C0.01,0.6,0.62-0.003,3.602,0 c94.333,0.1,188.667,0.1,283,0c2.981-0.003,3.592,0.599,3.584,3.582c-0.121,44.833-0.084,89.667-0.084,134.5 c-2.541-0.288-3.126-2.788-4.614-4.226c-6.413-6.189-16.779-6.573-22.966-0.631c-6.425,6.173-6.424,17.567,0.003,23.716 c6.208,5.939,16.553,5.555,22.963-0.634C286.975,154.87,287.561,152.37,290.102,152.082z M200.544,94.166 c6.26-0.832,9.504-4.227,9.526-10.585c0.082-22.976,0.086-45.951,0-68.927c-0.026-7.141-5.498-12.377-12.709-12.549 c-2.329-0.056-4.661-0.01-6.992-0.01c-31.301,0-62.6-0.022-93.9,0.016c-8.661,0.01-14.183,4.595-14.264,12.656 c-0.23,22.807-0.184,45.618-0.023,68.426c0.049,6.996,5.569,11.858,12.674,11.887c6.326,0.026,12.719,0.588,18.965-0.122 c10.899-1.241,19.922,1.177,26.305,10.646c0.273,0.405,0.701,0.709,1.064,1.051c2.261,2.128,5.483,2.328,7.388,0.856 c3.705-2.863,7.852-5.643,9.509-10.487c2.944-0.682,5.89-1.363,8.834-2.045c4.729,0.032,9.457,0.065,14.186,0.098 c4.502,4.373,8.915,8.843,13.537,13.085c3.07,2.819,6.642,3.206,9.759,0.156c3.089-3.021,2.861-6.493,0.153-9.764 C203.293,97.028,201.884,95.624,200.544,94.166z M181.051,143.028c-1.791,0.219-4.418-0.494-4.42,1.953 c-0.002,2.854,2.807,2.033,4.604,2.075c1.683,0.039,4.298,0.579,4.307-1.876C185.551,142.277,182.703,143.365,181.051,143.028z M213.673,147.148c1.583-0.396,4.175,0.827,4.207-2.035c0.032-2.867-2.543-2.029-4.131-1.977c-1.697,0.056-4.592-1.121-4.419,2.153 C209.476,148.04,212.112,146.717,213.673,147.148z M246.099,147.135c1.675-0.309,4.512,0.706,4.449-2.194 c-0.051-2.411-2.66-1.872-4.349-1.835c-1.797,0.04-4.6-0.745-4.544,2.123C241.702,147.653,244.324,146.914,246.099,147.135z M197.073,147.125c1.724-0.222,4.318,0.582,4.49-1.894c0.187-2.675-2.449-2.154-4.137-2.114c-1.615,0.04-4.146-0.891-4.142,2.051 C193.29,147.751,195.602,146.852,197.073,147.125z M229.519,147.127c1.498-0.422,4.004,0.947,4.379-1.802 c0.353-2.584-1.894-2.294-3.467-2.217c-1.82,0.089-4.586-0.88-4.813,1.984C225.437,147.362,227.84,146.961,229.519,147.127z"/><path fill-rule="evenodd" clip-rule="evenodd" fill="#FDFEFD" d="M143.102,174.082c-46.5,0-93-0.036-139.5,0.083 c-2.983,0.008-3.712-0.584-3.588-3.587c0.28-6.821,0.088-13.663,0.088-20.496c2.8,6.467,6.34,12.219,13.224,15.212 c12.312,5.352,28.376-1.267,30.936-18.194c24.878,0,49.756,0.001,74.635,0.001c1.693,14.372,8.66,22.367,22.694,25.993 C142.25,173.265,142.869,173.333,143.102,174.082z"/><path fill-rule="evenodd" clip-rule="evenodd" fill="#E52F5D" d="M143.102,174.082c-0.233-0.749-0.851-0.817-1.512-0.988 c-14.034-3.626-21-11.621-22.694-25.993c0.023-1.344,0.047-2.688,0.071-4.032c4.209-15.753,13.84-24.146,27.602-24.054 c14.479,0.097,26.151,11.479,26.811,26.146c0.648,14.428-9.822,26.544-24.201,27.991c-0.808,0.081-1.687-0.058-2.076,0.931 C145.768,174.082,144.436,174.082,143.102,174.082z M124.888,145.986c-0.041,11.021,10.821,23.182,20.331,22.761 c12.171-0.538,22.557-10.798,22.629-22.354c0.073-11.754-9.814-21.603-21.635-21.549 C134.374,124.898,124.932,134.259,124.888,145.986z"/><path fill-rule="evenodd" clip-rule="evenodd" fill="#35B068" d="M44.261,147.1c-2.559,16.928-18.624,23.546-30.936,18.194 c-6.884-2.993-10.424-8.745-13.224-15.212c0-3.667,0-7.333,0-11c1.204,0.034,1.065-1.057,1.367-1.713 c4.612-10.023,12.846-15.173,22.854-14.255c9.449,0.866,16.846,7.675,19.54,17.994c0.168,0.644,0.269,1.304,0.4,1.955 C44.262,144.409,44.262,145.754,44.261,147.1z M39.424,145.271c0.096-9.78-7.505-17.508-17.224-17.51 c-9.576-0.002-17.168,7.379-17.365,16.882c-0.203,9.783,7.218,17.542,16.988,17.76C31.541,162.62,39.329,155.039,39.424,145.271z" /><path fill-rule="evenodd" clip-rule="evenodd" fill="#E6E6E6" d="M290.102,152.082c-2.541,0.288-3.127,2.788-4.614,4.226 c-6.41,6.188-16.755,6.573-22.963,0.634c-6.427-6.148-6.428-17.543-0.003-23.716c6.187-5.942,16.553-5.559,22.966,0.631 c1.488,1.438,2.073,3.938,4.614,4.226C290.102,142.749,290.102,147.415,290.102,152.082z M285.114,145.326 c0.081-6.621-4.512-11.709-10.767-11.928c-6.111-0.213-12.074,5.361-12.236,11.439c-0.161,6.066,5.404,11.716,11.748,11.926 C279.984,156.967,285.035,151.834,285.114,145.326z"/><path fill-rule="evenodd" clip-rule="evenodd" fill="#6C50BB" d="M166.921,94.979c-2.944,0.682-5.89,1.363-8.834,2.045 c-1.999,0.04-3.997,0.08-5.995,0.12c-5.504-0.67-10.838-1.997-15.967-4.119l0.042,0.032c-0.686-0.349-1.373-0.697-2.059-1.046 c-1.565-1.099-3.13-2.197-4.696-3.296c-11.336-9.6-16.219-21.847-15.01-36.593c0.369-1.796,0.737-3.591,1.105-5.387 c9.418-28.787,42.035-36.851,63.229-19.789c2.272,2.35,4.546,4.699,6.818,7.049c9.228,14.165,10.321,28.717,2.009,43.674 c-0.784,1.412-1.376,2.56,0.069,3.912c3.479,3.258,6.895,6.584,10.336,9.882c0.857,0.901,1.715,1.802,2.572,2.703 c1.343,1.458,2.752,2.862,4.015,4.388c2.708,3.271,2.936,6.742-0.153,9.764c-3.117,3.05-6.688,2.663-9.759-0.156 c-4.622-4.242-9.035-8.712-13.537-13.085c-2.491-3.992-5.375-6.069-9.823-2.394C170.043,93.707,168.387,94.227,166.921,94.979z M152.107,27.496c-1.916-0.601-3.574,0.568-5.373,0.779c-9.618,2.643-17.067,7.779-20.363,17.693 c-0.421,1.038-0.843,2.077-1.265,3.115c-2.119,5.022-2.003,10.126-0.553,15.277c0.536,2.357,0.872,4.789,2.539,6.719 c5.802,11.85,18.162,18.243,31.188,16.133c13.85-2.243,23.689-12.533,25.526-26.696c1.541-11.872-5.609-24.64-16.622-29.682 c-1.802-1.479-3.983-2.023-6.19-2.503C158.068,27.664,155.161,26.808,152.107,27.496z"/><path fill-rule="evenodd" clip-rule="evenodd" fill="#E6E6E6" d="M129.412,88.715c1.565,1.099,3.131,2.197,4.696,3.296 c0.405,0.902,1.218,1.001,2.059,1.046l-0.042-0.032c1.462,4.183,4.494,7.188,7.622,10.111c1.118,1.045,2.469,1.239,3.547,0.093 c1.771-1.881,4.396-3.12,4.799-6.085c1.998-0.04,3.996-0.08,5.995-0.12c-1.657,4.845-5.804,7.624-9.509,10.487 c-1.905,1.472-5.127,1.271-7.388-0.856c-0.364-0.342-0.792-0.646-1.064-1.051c-6.383-9.469-15.405-11.887-26.305-10.646 c-6.246,0.71-12.639,0.148-18.965,0.122c-7.105-0.028-12.625-4.891-12.674-11.887c-0.161-22.808-0.207-45.619,0.023-68.426 c0.082-8.062,5.604-12.646,14.264-12.656c31.3-0.038,62.6-0.016,93.9-0.016c2.331,0,4.663-0.046,6.992,0.01 c7.211,0.172,12.683,5.408,12.709,12.549c0.086,22.976,0.082,45.951,0,68.927c-0.022,6.358-3.267,9.753-9.528,10.585 c-0.858-0.901-1.716-1.802-2.573-2.703c6.864-2.167,7.365-7.324,7.269-13.579c-0.32-20.811-0.114-41.629-0.125-62.444 c-0.004-6.465-1.796-8.338-8.241-8.343c-33.804-0.028-67.608-0.023-101.412-0.003c-5.515,0.003-8.334,2.736-8.342,8.129 c-0.032,22.314-0.039,44.629,0.004,66.942c0.011,5.74,2.133,7.878,7.805,7.917c9.991,0.068,19.982,0.03,29.974,0.009 C126.522,90.087,128.302,90.457,129.412,88.715z"/><path fill-rule="evenodd" clip-rule="evenodd" fill="#F0F0F0" d="M44.261,147.1c0-1.346,0-2.69,0.001-4.036 c24.901,0.002,49.803,0.003,74.705,0.005c-0.023,1.344-0.047,2.688-0.071,4.032C94.018,147.101,69.14,147.1,44.261,147.1z"/><path fill-rule="evenodd" clip-rule="evenodd" fill="#E6E6E6" d="M166.921,94.979c1.466-0.752,3.122-1.271,4.362-2.296 c4.448-3.676,7.332-1.599,9.823,2.394C176.378,95.044,171.649,95.011,166.921,94.979z"/><path fill-rule="evenodd" clip-rule="evenodd" fill="#E6E6E6" d="M181.051,143.028c1.652,0.337,4.5-0.751,4.49,2.152 c-0.009,2.455-2.624,1.915-4.307,1.876c-1.797-0.042-4.605,0.778-4.604-2.075C176.633,142.534,179.26,143.247,181.051,143.028z"/><path fill-rule="evenodd" clip-rule="evenodd" fill="#E6E6E6" d="M213.673,147.148c-1.561-0.432-4.197,0.892-4.343-1.858 c-0.173-3.274,2.722-2.098,4.419-2.153c1.588-0.053,4.163-0.891,4.131,1.977C217.848,147.976,215.256,146.752,213.673,147.148z"/><path fill-rule="evenodd" clip-rule="evenodd" fill="#E6E6E6" d="M246.099,147.135c-1.774-0.221-4.396,0.519-4.443-1.906 c-0.056-2.868,2.747-2.083,4.544-2.123c1.688-0.037,4.298-0.576,4.349,1.835C250.61,147.841,247.773,146.826,246.099,147.135z"/><path fill-rule="evenodd" clip-rule="evenodd" fill="#E6E6E6" d="M197.073,147.125c-1.472-0.273-3.783,0.626-3.788-1.957 c-0.005-2.941,2.526-2.011,4.142-2.051c1.688-0.04,4.323-0.561,4.137,2.114C201.392,147.707,198.797,146.903,197.073,147.125z"/><path fill-rule="evenodd" clip-rule="evenodd" fill="#E6E6E6" d="M229.519,147.127c-1.679-0.166-4.082,0.235-3.901-2.034 c0.228-2.864,2.993-1.896,4.813-1.984c1.573-0.077,3.819-0.367,3.467,2.217C233.522,148.074,231.017,146.705,229.519,147.127z"/><path fill-rule="evenodd" clip-rule="evenodd" fill="#FDF9FA" d="M124.888,145.986c0.043-11.728,9.486-21.088,21.325-21.142 c11.82-0.054,21.708,9.795,21.635,21.549c-0.072,11.556-10.458,21.815-22.629,22.354 C135.709,169.168,124.847,157.008,124.888,145.986z M140.917,146.583c-0.839,0.879-1.775,1.802-2.645,2.784 c-1.379,1.557-1.762,3.274-0.176,4.862c1.54,1.541,3.594,1.522,4.865-0.008c2.425-2.923,4.31-2.706,6.691,0.011 c1.373,1.568,3.461,1.548,4.799-0.103c1.209-1.491,1.382-3.094-0.721-4.556c-2.174-1.511-2.65-3.475-0.279-5.649 c1.811-1.661,2.895-3.965,0.578-6.013c-2.143-1.894-4.016-0.506-5.543,1.225c-1.773,2.011-3.133,2.511-4.873-0.255 c-1.249-1.985-3.395-2.801-5.462-0.72c-2.074,2.088-0.939,3.879,0.69,5.575C139.625,144.553,140.756,145.113,140.917,146.583z"/><path fill-rule="evenodd" clip-rule="evenodd" fill="#FAFCFB" d="M39.424,145.271c-0.096,9.769-7.883,17.35-17.601,17.132 c-9.77-0.218-17.191-7.977-16.988-17.76c0.197-9.503,7.789-16.884,17.365-16.882C31.919,127.763,39.52,135.49,39.424,145.271z M31.146,141.536c-0.502-1.808-1.592-2.845-3.536-1.551c-1.222,0.813-2.228,1.971-3.27,3.033c-2.319,2.368-4.334,6.06-7.844,1.184 c-0.675-0.938-2.201-0.943-3.092,0.123c-0.832,0.995-0.559,2.103,0.095,3.213c3.449,5.857,6.528,6.307,11.269,1.583 c1.645-1.638,3.301-3.265,4.927-4.921C30.384,143.498,31.159,142.82,31.146,141.536z"/><path fill-rule="evenodd" clip-rule="evenodd" fill="#FDFEFD" d="M285.114,145.326c-0.079,6.508-5.13,11.641-11.255,11.438 c-6.344-0.21-11.909-5.859-11.748-11.926c0.162-6.078,6.125-11.652,12.236-11.439C280.603,133.617,285.195,138.705,285.114,145.326 z"/><path fill-rule="evenodd" clip-rule="evenodd" fill="#FDFDFD" d="M129.412,88.715c-1.11,1.742-2.89,1.372-4.512,1.376 c-9.991,0.021-19.983,0.06-29.974-0.009c-5.672-0.039-7.794-2.177-7.805-7.917c-0.043-22.313-0.037-44.628-0.004-66.942 c0.008-5.393,2.827-8.126,8.342-8.129c33.804-0.021,67.608-0.025,101.412,0.003c6.445,0.005,8.237,1.878,8.241,8.343 c0.011,20.815-0.195,41.634,0.125,62.444c0.097,6.255-0.404,11.412-7.269,13.579c-3.441-3.298-6.856-6.624-10.336-9.882 c-1.445-1.353-0.854-2.5-0.069-3.912c8.312-14.957,7.219-29.509-2.008-43.673c1.646-0.05,3.292-0.108,4.938-0.147 c2.418-0.057,4.379-0.978,4.444-3.595c0.068-2.741-2.074-3.578-4.394-3.585c-3.936-0.013-7.871,0.175-11.808,0.277 c-21.194-17.062-53.812-8.998-63.231,19.787c-5.086-3.049-10.454-1.778-15.727-0.859c-1.821,0.317-1.824,2.174-1.588,3.717 c0.275,1.801,1.537,2.455,3.218,2.467c4.332,0.03,8.663,0.044,12.994,0.064C113.193,66.868,118.076,79.115,129.412,88.715z M107.655,33.81c2.321,0,4.651,0.127,6.959-0.039c1.976-0.142,3.499-1.104,3.589-3.368c0.09-2.241-1.177-3.516-3.271-3.571 c-4.631-0.124-9.27-0.087-13.903,0.018c-2.131,0.048-3.479,1.354-3.384,3.494c0.091,2.06,1.425,3.351,3.545,3.454 C103.341,33.902,105.5,33.82,107.655,33.81z M104.333,64.086c0-0.016,0-0.032,0-0.049c-0.824,0-1.648,0.02-2.471-0.004 c-2.34-0.065-3.808,0.854-3.88,3.381c-0.066,2.314,1.448,3.338,3.378,3.471c2.442,0.169,4.948,0.134,7.36-0.238 c1.822-0.282,2.633-1.773,2.417-3.717c-0.194-1.753-1.161-2.696-2.855-2.824C106.973,64.007,105.649,64.086,104.333,64.086z"/><path fill-rule="evenodd" clip-rule="evenodd" fill="#FCFBFC" d="M124.553,64.361c-1.45-5.151-1.565-10.255,0.553-15.272 c0.813,1.171,1.17,2.812,3.018,2.9c4.987,0.015,9.975,0.029,14.962,0.044c2.573,0.031,3.146-1.944,2.86-3.692 c-0.285-1.749-2.01-3.063-3.825-3.032c-5.251,0.091-10.559-0.859-15.749,0.665c3.293-9.919,10.743-15.056,20.36-17.699 c-0.92,2.128-0.491,3.853,1.595,4.997c1.303,0.716,2.592,0.446,3.644-0.498c1.858-1.669,1.371-3.483,0.136-5.277 c3.054-0.688,5.961,0.168,8.888,0.836c-0.969,1.743-1.458,3.576,0.884,4.451c2.12,0.792,4.232,0.588,5.306-1.948 c11.013,5.042,18.163,17.81,16.622,29.682C181.97,74.68,172.13,84.97,158.28,87.213c-13.026,2.11-25.386-4.283-31.188-16.133 c2.659-0.013,5.328,0.114,7.974-0.078c2.462-0.178,4.06-1.604,3.917-4.213c-0.133-2.438-2.015-2.747-3.978-2.702 C131.521,64.168,128.037,64.269,124.553,64.361z M153.312,70.948c0.662,0,1.325,0.012,1.987-0.002 c2.546-0.051,4.872-0.703,4.737-3.77c-0.141-3.197-2.707-3.344-5.133-3.151c-1.744,0.138-3.658,1.115-5.159,0.645 c-2.153-0.676-2.737,0.466-3.299,1.787c-0.696,1.636,0.218,2.87,1.542,3.767C149.625,71.333,151.518,70.842,153.312,70.948z M160.137,48.907c-0.133-2.287-1.494-3.511-3.44-3.532c-1.988-0.022-3.46,1.337-3.429,3.399c0.031,1.979,1.236,3.419,3.408,3.379 C158.762,52.115,159.921,50.883,160.137,48.907z M170.615,52.008c1.78-0.394,3.145-1.398,3.28-3.221 c0.163-2.187-1.493-2.714-3.308-2.711c-1.82,0.003-3.465,0.552-3.277,2.736C167.466,50.626,168.823,51.636,170.615,52.008z"/><path fill-rule="evenodd" clip-rule="evenodd" fill="#E53661" d="M128.125,51.989c-1.848-0.088-2.205-1.729-3.018-2.9 c0.421-1.043,0.843-2.082,1.266-3.118c5.191-1.521,10.5-0.571,15.75-0.662c1.815-0.031,3.54,1.283,3.825,3.032 c0.285,1.748-0.287,3.724-2.86,3.692C138.104,50.419,133.117,50.509,128.125,51.989z"/><path fill-rule="evenodd" clip-rule="evenodd" fill="#FBE3D8" d="M114.402,52.122c-4.331-0.021-8.663-0.034-12.994-0.064 c-1.681-0.012-2.943-0.666-3.218-2.467c-0.235-1.543-0.233-3.399,1.588-3.717c5.273-0.919,10.641-2.189,15.727,0.859 C115.139,48.531,114.771,50.326,114.402,52.122z"/><path fill-rule="evenodd" clip-rule="evenodd" fill="#FB8E58" d="M178.736,26.946c3.937-0.103,7.872-0.29,11.808-0.277 c2.319,0.007,4.462,0.844,4.394,3.585c-0.065,2.617-2.026,3.538-4.444,3.595c-1.646,0.039-3.291,0.098-4.938,0.147 C183.282,31.646,181.009,29.296,178.736,26.946z"/><path fill-rule="evenodd" clip-rule="evenodd" fill="#E6E6E6" d="M124.553,64.361c3.484-0.093,6.968-0.193,10.453-0.274 c1.963-0.045,3.844,0.264,3.978,2.702c0.143,2.609-1.455,4.035-3.917,4.213c-2.646,0.192-5.315,0.065-7.974,0.078 C125.425,69.15,125.089,66.719,124.553,64.361z"/><path fill-rule="evenodd" clip-rule="evenodd" fill="#FAFCFB" d="M152.092,97.144c-0.402,2.965-3.028,4.204-4.799,6.085 c-1.078,1.146-2.429,0.952-3.547-0.093c-3.128-2.923-6.159-5.929-7.622-10.111C141.253,95.146,146.588,96.474,152.092,97.144z"/><path fill-rule="evenodd" clip-rule="evenodd" fill="#E52F5D" d="M152.107,27.496c1.235,1.794,1.723,3.608-0.136,5.277 c-1.052,0.944-2.341,1.214-3.644,0.498c-2.086-1.145-2.515-2.869-1.595-4.997C148.533,28.064,150.191,26.896,152.107,27.496z"/><path fill-rule="evenodd" clip-rule="evenodd" fill="#FBE3D8" d="M167.185,30.835c-1.073,2.536-3.186,2.74-5.306,1.948 c-2.342-0.875-1.853-2.708-0.884-4.451C163.201,28.812,165.383,29.355,167.185,30.835z"/><path fill-rule="evenodd" clip-rule="evenodd" fill="#FAFCFB" d="M136.167,93.057c-0.841-0.045-1.654-0.144-2.059-1.046 C134.794,92.359,135.481,92.708,136.167,93.057z"/><path fill-rule="evenodd" clip-rule="evenodd" fill="#E42D5B" d="M140.917,146.583c-0.161-1.47-1.292-2.03-2.076-2.846 c-1.63-1.696-2.764-3.487-0.69-5.575c2.068-2.081,4.213-1.266,5.462,0.72c1.74,2.766,3.1,2.266,4.873,0.255 c1.527-1.73,3.4-3.118,5.543-1.225c2.316,2.048,1.232,4.352-0.578,6.013c-2.371,2.175-1.895,4.139,0.279,5.649 c2.103,1.462,1.93,3.064,0.721,4.556c-1.338,1.65-3.426,1.671-4.799,0.103c-2.381-2.717-4.266-2.934-6.691-0.011 c-1.271,1.53-3.325,1.549-4.865,0.008c-1.586-1.588-1.204-3.306,0.176-4.862C139.142,148.385,140.078,147.462,140.917,146.583z"/><path fill-rule="evenodd" clip-rule="evenodd" fill="#35B068" d="M31.146,141.536c0.013,1.284-0.762,1.962-1.451,2.664 c-1.626,1.656-3.282,3.283-4.927,4.921c-4.741,4.724-7.82,4.274-11.269-1.583c-0.654-1.11-0.926-2.218-0.095-3.213 c0.892-1.066,2.417-1.061,3.092-0.123c3.51,4.876,5.525,1.185,7.844-1.184c1.042-1.062,2.047-2.22,3.27-3.033 C29.554,138.691,30.644,139.729,31.146,141.536z"/><path fill-rule="evenodd" clip-rule="evenodd" fill="#FB8E58" d="M107.655,33.814c-2.155,0.006-4.314,0.088-6.464-0.018 c-2.121-0.104-3.454-1.395-3.545-3.454c-0.095-2.14,1.253-3.446,3.384-3.494c4.633-0.104,9.271-0.142,13.903-0.018 c2.094,0.056,3.361,1.33,3.271,3.571c-0.091,2.265-1.614,3.227-3.589,3.368C112.306,33.937,109.976,33.81,107.655,33.814z"/><path fill-rule="evenodd" clip-rule="evenodd" fill="#B6A9DD" d="M104.333,64.086c1.317,0,2.64-0.079,3.95,0.02 c1.694,0.128,2.661,1.071,2.855,2.824c0.215,1.943-0.595,3.435-2.417,3.717c-2.413,0.372-4.918,0.407-7.36,0.238 c-1.931-0.133-3.444-1.156-3.378-3.471c0.072-2.527,1.54-3.446,3.88-3.381c0.823,0.023,1.647,0.004,2.471,0.004 C104.333,64.054,104.333,64.07,104.333,64.086z"/><path fill-rule="evenodd" clip-rule="evenodd" fill="#E53661" d="M153.312,70.955c-1.795-0.113-3.688,0.378-5.324-0.731 c-1.324-0.896-2.238-2.131-1.542-3.767c0.562-1.321,1.146-2.463,3.299-1.787c1.501,0.471,3.415-0.507,5.159-0.645 c2.426-0.192,4.992-0.046,5.133,3.151c0.135,3.066-2.191,3.719-4.737,3.77C154.638,70.96,153.975,70.948,153.312,70.955z"/><path fill-rule="evenodd" clip-rule="evenodd" fill="#E53661" d="M160.137,48.907c-0.216,1.976-1.375,3.208-3.461,3.246 c-2.172,0.04-3.377-1.399-3.408-3.379c-0.031-2.062,1.44-3.422,3.429-3.399C158.643,45.396,160.004,46.62,160.137,48.907z"/><path fill-rule="evenodd" clip-rule="evenodd" fill="#FBE3D8" d="M170.615,52.008c-1.792-0.372-3.149-1.382-3.305-3.195 c-0.188-2.185,1.457-2.733,3.277-2.736c1.814-0.003,3.471,0.524,3.308,2.711C173.76,50.609,172.396,51.614,170.615,52.008z"/><path fill-rule="evenodd" clip-rule="evenodd" fill="#E42D5B" d="M128.125,51.989c4.992-1.48,9.98-1.57,14.962,0.044 C138.1,52.019,133.112,52.004,128.125,51.989z"/></g></svg>
