<svg xmlns="http://www.w3.org/2000/svg" width="432" height="445" viewBox="0 0 432.1 445.4"><g fill="none" stroke-linejoin="round" stroke-width="10" stroke="#FFF"><path d="M323.2 324.2c2.8-23.6 2-27.1 19.6-23.2l4.5 0.4c13.5 0.6 31.2-2.2 41.6-7 22.4-10.4 35.6-27.7 13.6-23.1 -50.3 10.4-53.8-6.7-53.8-6.7 53.1-78.8 75.3-178.8 56.1-203.3C352.5-5.5 262 26 260.5 26.9l-0.5 0.1c-9.9-2.1-21.1-3.3-33.6-3.5 -22.8-0.4-40 6-53.1 15.9 0 0-161.4-66.5-153.9 83.6 1.6 31.9 45.8 241.7 98.5 178.3 19.3-23.2 37.9-42.7 37.9-42.7 9.2 6.1 20.3 9.3 31.9 8.1l0.9-0.8c-0.3 2.9-0.2 5.7 0.4 9 -13.6 15.2-9.6 17.8-36.7 23.4 -27.5 5.7-11.3 15.7-0.8 18.4 12.8 3.2 42.3 7.7 62.3-20.2l-0.8 3.2c5.3 4.3 5 30.6 5.7 49.5 0.8 18.8 2 36.4 5.9 46.8 3.8 10.4 8.4 37.1 44 29.4 29.8-6.4 52.6-15.6 54.7-101.1" stroke-width="40" stroke="#000"/><path d="M402.4 271.2c-50.3 10.4-53.8-6.7-53.8-6.7 53.1-78.8 75.3-178.8 56.2-203.3 -52.3-66.8-142.8-35.2-144.3-34.4l-0.5 0.1c-9.9-2.1-21.1-3.3-33.6-3.5 -22.8-0.4-40 6-53.1 15.9 0 0-161.4-66.5-153.9 83.6 1.6 31.9 45.8 241.7 98.5 178.3 19.3-23.2 37.9-42.7 37.9-42.7 9.2 6.1 20.3 9.3 31.9 8.1l0.9-0.8c-0.3 2.9-0.2 5.7 0.4 9 -13.6 15.2-9.6 17.8-36.7 23.4 -27.5 5.7-11.3 15.7-0.8 18.4 12.8 3.2 42.3 7.7 62.3-20.2l-0.8 3.2c5.3 4.3 9.1 27.7 8.4 49 -0.6 21.3-1 35.9 3.1 47.3 4.2 11.4 8.4 37.1 44 29.4 29.8-6.4 45.3-22.9 47.4-50.6 1.5-19.6 5-16.7 5.2-34.3l2.8-8.3c3.2-26.6 0.5-35.2 18.9-31.2l4.5 0.4c13.5 0.6 31.2-2.2 41.6-7 22.4-10.4 35.6-27.7 13.6-23.1z" fill="#336791"/><path d="M215.9 286.5c-1.4 49.5 0.3 99.4 5.2 111.5 4.8 12.1 15.2 35.7 50.9 28 29.8-6.4 40.7-18.8 45.4-46.1 3.5-20.1 10.1-75.9 11-87.3"/><path d="M173.1 38.3c0 0-161.5-66-154 84.1 1.6 31.9 45.8 241.7 98.5 178.3 19.3-23.2 36.7-41.3 36.7-41.3"/><path d="M260.3 26.2c-5.6 1.8 89.8-34.9 144.1 34.4 19.2 24.5-3 124.5-56.2 203.3"/><path d="M348.3 264c0 0 3.5 17 53.8 6.7 22-4.6 8.8 12.8-13.6 23.2 -18.3 8.5-59.5 10.7-60.1-1.1 -1.7-30.4 21.6-21.1 20-28.7 -1.5-6.8-12-13.6-18.9-30.3 -6-14.6-82.8-126.8 21.3-110.2 3.8-0.8-27.1-99-124.6-100.6 -97.4-1.6-94.2 119.8-94.2 119.8" stroke-linejoin="bevel"/><path d="M188.6 274.3c-13.6 15.2-9.6 17.8-36.7 23.4 -27.5 5.7-11.3 15.7-0.8 18.4 12.8 3.2 42.3 7.7 62.3-20.2 6.1-8.5 0-22.1-8.4-25.5 -4-1.7-9.4-3.8-16.4 4z"/><path d="M187.7 274.1c-1.4-8.9 2.9-19.5 7.5-31.9 6.9-18.6 22.9-37.3 10.1-96.3 -9.5-44-73.4-9.2-73.4-3.2 0 6 2.9 30.3-1.1 58.5 -5.2 36.9 23.5 68.1 56.5 64.9"/><path d="M172.5 141.7c-0.3 2 3.7 7.5 9 8.2 5.2 0.7 9.7-3.5 10-5.6 0.3-2-3.7-4.3-9-5 -5.2-0.7-9.7 0.3-10 2.4z" fill="#FFF" stroke-width="4"/><path d="M331.9 137.5c0.3 2-3.7 7.5-9 8.2 -5.2 0.7-9.7-3.5-10-5.6 -0.3-2 3.7-4.3 9-5 5.2-0.7 9.7 0.3 10 2.4z" fill="#FFF" stroke-width="2"/><path d="M350.7 123.4c0.9 16-3.4 26.9-4 43.9 -0.8 24.7 11.8 53.1-7.2 81.4"/></g></svg>

