<svg xmlns="http://www.w3.org/2000/svg" viewBox="0 0 320 320"><path fill="#FBFBFB" d="M141.25 1.25h180v320h-105l1.45-2.387c1.151-.871 2.972-1.521 3.343-2.647 2.409-7.311 4.504-14.726 6.701-22.105l.138-.149c.376-.338.752-.676 1.13-1.013 7.706-3.005 16.818-1.878 23.468-7.989 1.002-.73 2.004-1.461 3.008-2.191.298.025.513-.097.642-.367l2.863-2.135-.013-.006 1.367-1.07-.198-.439.227.426 2.4-1.531c7.162-4.396 10.127-11.774 13.441-18.905a.933.933 0 0 0 .219-.928c6.186-7.12 5.282-15.6 4.602-24.034l-.344-2.601c.909-6.04-.49-11.448-4.426-16.159l-.019-.043-2.693-5.941-.093-.213-1.013-2.479-.038-.084-2.315-3.948-1.397-6.012 2.64-11.121c.438-.429.877-.855 1.316-1.284l-.072-.023c.384-.082.766-.167 1.148-.251.688-.785 1.375-1.568 2.062-2.354.5-.017.713-.273.638-.767 6.781-6.763 13.563-13.524 20.345-20.285.25-.379.5-.756.752-1.133l.193-.457c.956-1.819 2.766-3.66 2.715-5.45-.197-7.227-.969-14.438-1.528-21.654.272-4.377 1.661-9.045.615-13.082-3.573-13.784-8.235-27.284-12.007-41.023-1.938-7.064-2.129-14.657-4.467-21.551-2.272-6.704-6.277-12.82-9.522-19.194-7.837-11.129-18.545-17.292-32.09-18.54l-16.516-.19-12.37 4.495-2.556.493-1.42.725-2.208.924c-11.952 3.566-23.796 4.641-35.321-1.538l-.448-.247-1.956-1.1-.343-.222-3.503-2.142c-.087-.303-.286-.439-.6-.41l-.494-.438-1.842-1.47-2.044-1.489-2.322-1.751-3.738-2.611c-.038-.311-.211-.491-.519-.543l-2.191-1.245-.945-1.057c-2.951-2.358-5.902-4.711-8.852-7.065z"/><path fill-rule="evenodd" clip-rule="evenodd" fill="#FDFDFD" d="M66.25 321.25H1.326c-.006-106.666-.006-213.334-.006-320H112.5c-.948.821-1.86 2.305-2.851 2.359-6.849.374-10.296 4.988-13.375 10.181l-9.296 9.769-2.756 4.528a.842.842 0 0 1-.368.602c-6.548 3.281-9.033 9.289-10.651 15.877-2.083 3.499-4.298 6.925-6.225 10.507-7.361 13.692-14.888 27.306-21.773 41.236-2.021 4.087-2.127 9.12-3.11 13.72l-.135 3.541c-1.032 1.859-2.795 3.651-2.969 5.587-.742 8.263 1.047 15.79 7.928 21.312.455.815.907 1.635 1.359 2.452l1.048 2.238.6 2.347.876 1.515c.137.37.258.746.363 1.126l.679 1.293.48 2.325 2.069 6.543 1.268 4.985a2.826 2.826 0 0 1-.657.952l-2.602 3.612-11.077 11.459-1.897 1.751a1.682 1.682 0 0 1-.384.951c-6.802 4.285-13.556 19.097-12.114 26.564l-.111 4.318c-1.14 4.564-5.985 9.005-.457 13.789l2.522 8.486 6.919 11.815 6.018 7.555.384.381 12.58 11.123c1.372 1.474 2.474 3.56 4.166 4.307 5.746 2.535 7.811 7.077 7.775 12.858-.074 12.015-.308 24.025-.476 36.036z"/><path fill-rule="evenodd" clip-rule="evenodd" fill="#A48E0A" d="M173.75 321.25H75l1.118-13.706-1.241-17.542-.368-4.848.286-3.93c2.106-6.21 5.857-5.465 10.156-2.404-.006.396.036.785.127 1.169l1.13 5.101c.638 1.938.897 4.12 1.973 5.771 8.761 13.455 21.193 21.229 37.088 23.45 1.069.208 2.145.425 3.22.642 2.678 1.061 5.283 2.762 8.044 3.073 16.152 1.819 31.694.674 44.668-10.817.724-.062 1.45-.128 2.175-.191-1.598 4.33-3.193 8.661-4.79 12.991l-4.836 1.241z"/><path fill-rule="evenodd" clip-rule="evenodd" fill="#CBAE07" d="M178.587 320.009c1.597-4.33 3.192-8.661 4.794-12.986.443-.341.881-.686 1.319-1.031.405-.403.809-.805 1.21-1.207l.039-.111 1.477-2.256 2.689-6.04-.01-.024c.229-.469.46-.937.69-1.403.309-1.037.617-2.073.927-3.109l8.312-3.488c3.388.856 6.734 1.957 10.171 2.517 7.658 1.249 8.527 3.024 6.154 10.305-2.137 6.551-3.439 13.374-5.109 20.077H210c-1.969-.369-3.932-1.018-5.907-1.056-8.499-.163-17.003-.143-25.506-.188z"/><path fill-rule="evenodd" clip-rule="evenodd" fill="#3C3619" d="M211.25 321.25c1.67-6.703 2.973-13.526 5.109-20.077 2.373-7.28 1.504-9.056-6.154-10.305-3.437-.56-6.783-1.66-10.172-2.514l-.019-2.024c.113-.523.228-1.047.339-1.57 7.572 3.725 15.633 5.006 24.25 3.892l.388 6.34-.001.004-1.183 3.763-.29 1.213-.606 1.665c.013.353-.073.681-.256.985-.196.542-.394 1.085-.589 1.628l-4.366 14.614-1.45 2.387-5-.001z"/><path fill-rule="evenodd" clip-rule="evenodd" fill="#C3C7C2" d="M96.274 13.79c3.079-5.192 6.527-9.807 13.375-10.181.99-.055 1.902-1.538 2.851-2.359h28.75l8.852 7.061-8.841-3.272c-3.781-.047-7.562-.092-11.344-.138a1.26 1.26 0 0 0-.858-.099c-9.339-2.822-17.528.302-25.428 4.918l-1.561 1.037h-.144l-5.652 3.033z"/><path fill-rule="evenodd" clip-rule="evenodd" fill="#B2B5A3" d="M66.25 321.25c.168-12.011.402-24.021.476-36.033.036-5.781-2.029-10.323-7.775-12.858-1.692-.747-2.794-2.833-4.167-4.307 7.667.064 11.094 5.655 14.575 11.177l.349 2.989.099 1.757a1.22 1.22 0 0 0 .314 1.039l-.275 22.448L70 321.25h-3.75z"/><path fill-rule="evenodd" clip-rule="evenodd" fill="#3C3619" d="M70 321.25l-.154-13.789 2.482 5.653 1.115.029.365-5.668 2.31.068L75 321.249l-5 .001z"/><path fill-rule="evenodd" clip-rule="evenodd" fill="#B2B5A3" d="M178.587 320.009c8.503.045 17.007.025 25.506.186 1.976.038 3.938.687 5.907 1.056h-36.25l4.837-1.242z"/><path fill-rule="evenodd" clip-rule="evenodd" fill="#FDFDFD" d="M116.25 1.25H115h1.25z"/><path fill-rule="evenodd" clip-rule="evenodd" fill="#868877" d="M273.526 36.667c3.245 6.375 7.25 12.49 9.522 19.194 2.338 6.895 2.528 14.487 4.467 21.551 3.771 13.739 8.434 27.239 12.007 41.023 1.046 4.037-.343 8.705-.615 13.082-1.208-5.196-3.14-10.353-3.427-15.6-.303-5.527-1.706-10.054-5.789-13.729l-6.015-19.055c-.355-6.342-.712-12.683-1.068-19.024l-3.883-12.836-1.176-3.694-2.574-3.816-1.449-7.096z"/><path fill-rule="evenodd" clip-rule="evenodd" fill="#564B18" d="M276.432 180.498c.074.493-.139.75-.637.766-.649-.003-1.301-.004-1.949-.006l-1.263 2.611.071.023-1.501-.086-2.326-.008-3.809 4.873c-2.914 2.52-5.841 3.172-8.797.066-.323-2.223 4.47-6.391-2.337-6.146-1.816-4.326-3.167-8.624.753-12.607v10.556l27.88-14.268c.014 1.163.029 2.326.042 3.49-4.54.4-7.961 2.366-10.393 7.52h5.265l-.999 3.216z"/><path fill-rule="evenodd" clip-rule="evenodd" fill="#483E0E" d="M141.261 5.038c2.948 1.091 5.895 2.183 8.841 3.272l.945 1.057 2.191 1.245c.308.052.48.233.519.543l3.738 2.611 2.322 1.751 2.044 1.489 1.842 1.469.114.367.38.071c.313-.029.513.107.6.41l3.503 2.142.343.222c.653.366 1.305.733 1.956 1.1l.448.247c1.716 1.285 3.492 2.502 5.136 3.878 1.727 1.443 3.326 3.038 4.98 4.566l-3.352.447-.09.123-2.716-.713-.118-.061-3.609-1.323c-5.543-3.961-10.852-8.317-16.693-11.769-5.438-3.211-11.444-5.46-17.199-8.133a3.504 3.504 0 0 0-.914-.705l-.539-1.812c1.776-.829 3.552-1.662 5.328-2.494z"/><path fill-rule="evenodd" clip-rule="evenodd" fill="#5B5D4F" d="M224.991 294.991c-.11-1.816-.222-3.632-.388-6.34-8.617 1.114-16.678-.167-24.252-3.891-.002.001-.248-.088-.248-.088l-1.229-1.019c-.913-1.164-1.824-2.33-2.734-3.496 1.163.344 2.422.506 3.476 1.059 18.009 9.452 35.735 7.17 53.338-1.18l.806 2.393-1.281 2.529c-6.648 6.111-15.761 4.984-23.469 7.988l-1.128 1.014-.138.149-2.753.882z"/><path fill-rule="evenodd" clip-rule="evenodd" fill="#8E7F26" d="M289.692 102.188c4.082 3.678 5.485 8.204 5.788 13.731.287 5.247 2.219 10.403 3.427 15.6.56 7.217 1.331 14.428 1.528 21.654.051 1.791-1.759 3.631-2.716 5.453l1.468-14.958-6.13 11.464-.604-1.891 1.663-8.003.537-4.067-.132-4.68c-.5-5.317-.796-10.663-1.553-15.943-.88-6.151-2.166-12.243-3.276-18.36z"/><path fill-rule="evenodd" clip-rule="evenodd" fill="#564B18" d="M273.526 36.667l1.449 7.097.015-.007-4.028-2.261.003-.038c-.371-.473-.744-.944-1.115-1.416l-9.334-8.786-14.092-6.457a2.504 2.504 0 0 0-.31-.953l2.831-.64c-.438-.986-.617-2.47-1.367-2.861-1.912-1-4.077-1.513-6.142-2.219 13.545 1.25 24.253 7.412 32.09 18.541z"/><path fill-rule="evenodd" clip-rule="evenodd" fill="#4D482B" d="M293.059 155.131c1.747-3.27 3.495-6.538 6.129-11.464l-1.468 14.958-.191.451c-.251.376-.502.755-.753 1.137l-20.345 20.285 1.002-3.214 5.127-7.521c-.013-1.164-.028-2.327-.042-3.49l.006-.005c5.011-.415 8.758-2.425 9.839-7.799l.214-2.135c.159-.401.321-.802.482-1.203z"/><path fill-rule="evenodd" clip-rule="evenodd" fill="#6A6D56" d="M181.161 31.482c-1.653-1.53-3.253-3.125-4.979-4.568-1.644-1.376-3.42-2.593-5.136-3.878 11.525 6.179 23.369 5.104 35.321 1.538l-11.574 5.554c.206.283.775 1.069 1.348 1.855-3.486.487-6.979.973-10.468 1.458l-3.635-.019-.877-1.94z"/><path fill-rule="evenodd" clip-rule="evenodd" fill="#4D482B" d="M241.437 18.127c2.064.707 4.229 1.219 6.142 2.219.75.392.929 1.875 1.367 2.861-.943.212-1.887.426-2.831.64l-7.372-1.314-1.257-.135-3.74-.311-2.503.115-3.733.317c.228-2.144-6.815-.18-2.588-4.583l16.515.191z"/><path fill-rule="evenodd" clip-rule="evenodd" fill="#4F5F60" d="M253.76 282.43c-.269-.798-.537-1.596-.809-2.393 6.539-7.104 13.079-14.207 19.621-21.311l3.645.013c-3.314 7.131-6.279 14.509-13.441 18.905l-2.4 1.531-.227-.426.197.438-1.366 1.071.011.006-2.861 2.135c-.129.271-.344.393-.643.368l-1.727-.337z"/><path fill-rule="evenodd" clip-rule="evenodd" fill="#6A6D56" d="M280.693 231.177c.115.866.229 1.733.346 2.601l-1.145 5.029c-1.511 2.91-3.021 5.821-4.534 8.732-.511-7.973-1.019-15.943-1.527-23.915l-.143-3.557-.845-2.585-1.605-5.057 2.217-1.332 2.792 3.881.019.043 4.425 16.16z"/><path fill-rule="evenodd" clip-rule="evenodd" fill="#3C3619" d="M256.222 188.738c2.956 3.105 5.883 2.453 8.797-.065l1.323-1.119 1.1-1.343 1.386-2.412 2.327.008.185 1.37-2.64 11.121-2.214.025-9.914-1.133-4.173-3.685 3.823-2.767z"/><path fill-rule="evenodd" clip-rule="evenodd" fill="#71611D" d="M224.921 17.937c-4.228 4.403 2.815 2.439 2.588 4.583l-16.278 4.967c.439-1.686.88-3.37 1.32-5.055l12.37-4.495z"/><path fill-rule="evenodd" clip-rule="evenodd" fill="#B2B5A3" d="M224.991 294.991l2.753-.881c-2.197 7.38-4.292 14.795-6.701 22.105-.371 1.127-2.191 1.776-3.343 2.647 1.456-4.871 2.911-9.743 4.362-14.615.195-.543.394-1.085.593-1.627.183-.305.269-.633.255-.986.201-.556.405-1.109.607-1.664l.29-1.213 1.183-3.763.001-.003z"/><path fill-rule="evenodd" clip-rule="evenodd" fill="#564B18" d="M212.551 22.432c-.44 1.685-.881 3.369-1.32 5.055a86240.83 86240.83 0 0 0-15.091 4.496l-1.347-1.854 11.574-5.554 2.208-.924 1.42-.725c.853-.166 1.704-.331 2.556-.494z"/><path fill-rule="evenodd" clip-rule="evenodd" fill="#5B5D4F" d="M275.361 247.538l4.535-8.733-3.461 19.007a.93.93 0 0 1-.219.928l-3.645-.011c.93-3.73 1.861-7.46 2.79-11.191z"/><path fill-rule="evenodd" clip-rule="evenodd" fill="#435756" d="M266.488 196.324c.736-.01 1.473-.018 2.211-.026l1.397 6.012 2.315 3.948.038.084 1.013 2.479.093.213c-.032.688-.065 1.375-.099 2.061l-2.217 1.333-6.271-9.704 1.52-6.4z"/><path fill-rule="evenodd" clip-rule="evenodd" fill="#868877" d="M276.436 257.812l3.461-19.007c.379-1.676.762-3.352 1.143-5.027.678 8.434 1.581 16.913-4.604 24.034zM280.693 231.177l-4.426-16.159c3.936 4.711 5.336 10.119 4.426 16.159zM273.457 211.094l.099-2.061 2.693 5.941c-.932-1.293-1.862-2.586-2.792-3.88z"/><path fill-rule="evenodd" clip-rule="evenodd" fill="#6A6D56" d="M168.299 21.467z"/><path fill-rule="evenodd" clip-rule="evenodd" fill="#868877" d="M272.412 206.258l-2.315-3.948 2.315 3.948zM256.129 282.4l2.861-2.135c-.953.713-1.906 1.424-2.861 2.135z"/><path fill-rule="evenodd" clip-rule="evenodd" fill="#4D482B" d="M273.846 181.258c.648.002 1.3.003 1.949.006l-2.063 2.354.114-2.36z"/><path fill-rule="evenodd" clip-rule="evenodd" fill="#6A6D56" d="M157.495 13.767l-3.738-2.611 3.738 2.611z"/><path fill-rule="evenodd" clip-rule="evenodd" fill="#868877" d="M253.76 282.43l1.727.339c-1.003.729-2.005 1.46-3.007 2.19.425-.844.852-1.687 1.28-2.529z"/><path fill-rule="evenodd" clip-rule="evenodd" fill="#6A6D56" d="M153.238 10.613l-2.191-1.245 2.191 1.245z"/><path fill-rule="evenodd" clip-rule="evenodd" fill="#868877" d="M260.375 279.176l2.4-1.531-2.4 1.531z"/><path fill-rule="evenodd" clip-rule="evenodd" fill="#6A6D56" d="M170.598 22.789l-1.956-1.1 1.956 1.1zM161.86 17.008l-2.044-1.489c.682.496 1.364.992 2.044 1.489z"/><path fill-rule="evenodd" clip-rule="evenodd" fill="#3C3619" d="M273.846 181.258l-.114 2.36c-.383.084-.765.169-1.148.251l1.262-2.611z"/><path fill-rule="evenodd" clip-rule="evenodd" fill="#868877" d="M273.463 208.82l-1.013-2.479 1.013 2.479z"/><path fill-rule="evenodd" clip-rule="evenodd" fill="#B2B5A3" d="M227.882 293.961l1.128-1.014-1.128 1.014z"/><path fill-rule="evenodd" clip-rule="evenodd" fill="#868877" d="M258.979 280.26l1.366-1.071c-.453.357-.91.714-1.366 1.071z"/><path fill-rule="evenodd" clip-rule="evenodd" fill="#8E7F26" d="M296.775 160.213z"/><path fill-rule="evenodd" clip-rule="evenodd" fill="#4D482B" d="M271.339 185.177c-.061-.458-.122-.914-.185-1.37l1.5.086-1.315 1.284z"/><path fill-rule="evenodd" clip-rule="evenodd" fill="#6A6D56" d="M164.196 18.915l-.38-.071-.114-.367.494.438zM209.995 22.925l-1.42.725 1.42-.725z"/><path fill-rule="evenodd" clip-rule="evenodd" fill="#5B5D4F" d="M69.357 279.23c-3.479-5.523-6.907-11.114-14.573-11.179-4.193-3.707-8.386-7.416-12.573-11.124.278-.275.55-.549.822-.823l-1.212.443-6.018-7.555c1.458-.419 3.435 4.341 4.452-.447 2.43 2.162 4.798 4.398 7.302 6.473 11.263 9.328 23.238 16.405 38.757 11.877l-3.812 3.232-3.63.951-9.046.728-.469 7.424z"/><path fill-rule="evenodd" clip-rule="evenodd" fill="#C3C7C2" d="M42.094 110.028c.983-4.6 1.09-9.633 3.111-13.72 6.886-13.93 14.412-27.544 21.773-41.235 1.926-3.582 4.142-7.008 6.225-10.507.185.136.364.277.538.428l-1.224 4.953-8.21 16.327c-8.209 12.943-16.332 25.928-19.953 41.098l-2.26 2.656z"/><path fill-rule="evenodd" clip-rule="evenodd" fill="#6A6D56" d="M39.045 184.02c.226-.277.354-.594.381-.952.632-.585 1.265-1.168 1.899-1.75l11.077-11.459 2.14-.29 1.721 4.163-16.361 18.574-2.462.208c-.467-.034-.935-.067-1.402-.102l3.007-8.392z"/><path fill-rule="evenodd" clip-rule="evenodd" fill="#5B5D4F" d="M36.037 192.412l1.403.102c-1.554 5.817-3.107 11.637-4.66 17.456l-.38 3.745-1.155 7.564-4.023-.141-.403-6.236.11-4.32c.547-1.467.952-3.01 1.671-4.387 2.418-4.625 4.949-9.193 7.437-13.783z"/><path fill-rule="evenodd" clip-rule="evenodd" fill="#3C3619" d="M56.263 173.731l-1.72-4.162c.125-.307.248-.614.369-.923l.491-1.352c.145-.455.012-.805-.398-1.049.285-.271.504-.59.657-.952.525-.964 1.05-1.93 1.579-2.894l4.076.066c2.36 4.156 5.31 1.156 8.054.666.65 1.346 1.301 2.691 1.953 4.036l-7.57 2.591-7.491 3.973z"/><path fill-rule="evenodd" clip-rule="evenodd" fill="#4D482B" d="M96.274 13.79c1.884-1.012 3.768-2.023 5.653-3.033l2.172 3.155-8.04 7.236-1.144 1.237-.03.034-1.196 1.242a3.25 3.25 0 0 1-.738.549l-1.713 2.02-.01.011-4.917.15.667-2.832 9.296-9.769z"/><path fill-rule="evenodd" clip-rule="evenodd" fill="#292922" d="M40.256 248.546c-1.018 4.788-2.995.028-4.453.447l-6.92-11.816c.978-2.479-2.631-7.205 3.506-7.149.264.255.371.564.317.929.083 6.909 2.192 12.95 7.536 17.607l.014-.018z"/><path fill-rule="evenodd" clip-rule="evenodd" fill="#C3C7C2" d="M46.918 140.47c-6.88-5.523-8.668-13.05-7.927-21.313.174-1.936 1.937-3.728 2.97-5.587l.474 11.469c.059.394.102.791.128 1.188l3.584 10.064 1.544 3.564-.773.615zM36.037 192.412c-2.488 4.59-5.019 9.158-7.438 13.783-.72 1.377-1.125 2.92-1.671 4.387-1.44-7.466 5.314-22.277 12.116-26.562a43850.96 43850.96 0 0 1-3.007 8.392z"/><path fill-rule="evenodd" clip-rule="evenodd" fill="#4D482B" d="M32.39 230.027c-6.137-.056-2.529 4.671-3.506 7.149l-2.522-8.485.859-7.553 4.023.14.999 1.33.147 7.419z"/><path fill-rule="evenodd" clip-rule="evenodd" fill="#868877" d="M57.237 162.398l-1.576 2.896-1.267-4.986-2.07-6.542-.479-2.324-.681-1.294a14.051 14.051 0 0 0-.361-1.126l-.878-1.515c-.2-.782-.4-1.564-.598-2.347.205-.449.407-.897.61-1.346l6.1 7.795c.401 3.596.801 7.194 1.2 10.789z"/><path fill-rule="evenodd" clip-rule="evenodd" fill="#C3C7C2" d="M73.203 44.566c1.618-6.589 4.103-12.596 10.65-15.876.006.792.014 1.582.019 2.374l-1.479 1.742-1.268 1.676-7.385 10.512a8.533 8.533 0 0 0-.537-.428z"/><path fill-rule="evenodd" clip-rule="evenodd" fill="#8E7F26" d="M83.873 31.063l-.02-2.373a.847.847 0 0 0 .368-.605c.696-.566 1.394-1.131 2.09-1.694l4.917-.15-7.443 11.386c.03-2.189.06-4.376.088-6.564z"/><path fill-rule="evenodd" clip-rule="evenodd" fill="#868877" d="M42.435 125.038l-.474-11.469.134-3.541 2.259-2.658-1.919 17.668z"/><path fill-rule="evenodd" clip-rule="evenodd" fill="#C3C7C2" d="M27.221 221.139l-.859 7.553c-5.529-4.784-.684-9.225.457-13.789l.402 6.236zM52.325 153.766l2.07 6.542-2.07-6.542zM86.312 26.391a814.99 814.99 0 0 0-2.09 1.694l2.757-4.526-.667 2.832zM55.004 166.246c.411.244.543.594.398 1.049l-.491 1.352c-.121.309-.243.616-.369.923-.714.095-1.427.192-2.141.289l2.603-3.613zM49.927 147.506l.878 1.515c-.294-.505-.586-1.009-.878-1.515zM49.938 143.812c-.202.449-.404.897-.609 1.346-.352-.746-.701-1.492-1.05-2.238.211-.179.421-.362.628-.547l1.031 1.439zM48.278 142.921c-.452-.817-.904-1.637-1.359-2.452l.772-.614a24652534310364236 24652534310364236 0 0 1 .587 3.066zM41.325 181.317c-.634.582-1.267 1.165-1.899 1.75.635-.583 1.267-1.167 1.899-1.75zM51.166 150.147l.681 1.294c-.229-.431-.455-.862-.681-1.294z"/><path fill-rule="evenodd" clip-rule="evenodd" fill="#564B18" d="M181.202 307.209c-12.975 11.491-28.517 12.637-44.668 10.817-2.762-.312-5.367-2.013-8.042-3.073.889-5.911 5.771-3.015 8.884-4.025.898.099 1.793.196 2.688.293 4.954-.006 9.908-.012 14.862-.02 2.012-.269 4.023-.537 6.033-.807l1.608-.248c7.616-.831 13.671-4.529 18.661-10.177l-.026 7.24z"/><path fill-rule="evenodd" clip-rule="evenodd" fill="#483E0E" d="M125.275 314.322c-15.9-2.231-28.333-10.006-37.094-23.461-1.075-1.651-1.335-3.834-1.972-5.771l.006-3.812 3.931-.003 9.867 16.236c.744.516 1.49 1.03 2.235 1.546l.005-.025 1.363 1.115v-.009c.431.395.863.788 1.294 1.181l.022.038 2.493 1.201.024.035c1.501 1.181 2.84 2.733 4.533 3.467 4.423 1.918 9.001 3.477 13.517 5.18l-.104 2.544-.12.538z"/><path fill-rule="evenodd" clip-rule="evenodd" fill="#3C3619" d="M90.147 281.274l-3.931.001-1.138-1.286a4.682 4.682 0 0 1-.127-1.169c-1.133-7.845-6.584-4.17-11.612-4.89l1.456 7.294c-.095 1.31-.19 2.619-.283 3.93-1.462-.048-2.927-.095-4.391-.141a1.222 1.222 0 0 1-.314-1.04l-.099-1.756c-.116-.997-.231-1.994-.349-2.989l.467-7.422c2.817-.227 5.932-.478 9.045-.725 1.209-.318 2.42-.637 3.631-.954l3.812-3.232 3.43-2.138 1.677-1.759.389-.399c.368-.146.628-.403.78-.77l.38-.318 2.195 3.711-5.018 16.052z"/><path fill-rule="evenodd" clip-rule="evenodd" fill="#CBAE07" d="M125.502 311.239c-4.516-1.703-9.094-3.262-13.517-5.18-1.693-.733-3.032-2.286-4.533-3.467l11.352 1.345 18.569 6.989c-3.11 1.012-7.993-1.885-8.882 4.026-1.077-.217-2.152-.434-3.222-.642.006.011.128-.528.124-.528.034-.846.071-1.694.109-2.543z"/><path fill-rule="evenodd" clip-rule="evenodd" fill="#16160D" d="M70.121 285.014c1.464.046 2.929.093 4.391.141.12 1.615.243 3.232.365 4.848l-1.069 17.474-.365 5.668-1.115-.029-2.482-5.653.275-22.449z"/><path fill-rule="evenodd" clip-rule="evenodd" fill="#483E0E" d="M181.202 307.209l.026-7.239-.011.011c1.716-2.098 3.435-4.194 5.153-6.29a6795.2 6795.2 0 0 1 3.744 2.687c-.896 2.013-1.793 4.025-2.687 6.04l-1.479 2.256s-.039.111-.035.112l-1.214 1.206c-.438.346-.876.69-1.319 1.031-.728.058-1.454.123-2.178.186z"/><path fill-rule="evenodd" clip-rule="evenodd" fill="#564B18" d="M73.808 307.476l1.069-17.474 1.241 17.542-2.31-.068zM74.795 281.225l-1.456-7.294c5.027.72 10.479-2.955 11.612 4.89-4.299-3.061-8.05-3.806-10.156 2.404zM85.079 279.989c.379.43.759.858 1.138 1.286l-.007 3.814-1.131-5.1z"/><path fill-rule="evenodd" clip-rule="evenodd" fill="#16160D" d="M190.115 296.377c-1.249-.896-2.496-1.792-3.746-2.687l-.771-5.6c-.013-1.246-.023-2.493-.039-3.739l4.445-8.179 4.805 3.016 1.283.934.049.036 2.733 3.498a7.34 7.34 0 0 0-.024 1.24l-.247.274-7.361-2.309c.183 3.362.331 6.17.481 8.978-.31 1.036-.618 2.072-.927 3.109-.229.467-.461.935-.69 1.403l.009.026z"/><path fill-rule="evenodd" clip-rule="evenodd" fill="#483E0E" d="M191.723 291.84c-.15-2.808-.299-5.615-.481-8.978 2.917.915 5.138 1.611 7.362 2.306.471.387.942.774 1.411 1.162l.019 2.024c-2.77 1.16-5.54 2.324-8.311 3.486z"/><path fill-rule="evenodd" clip-rule="evenodd" fill="#A48E0A" d="M185.949 304.673l1.479-2.256-1.479 2.256zM184.7 305.991l1.214-1.206-1.214 1.206z"/><path fill-rule="evenodd" clip-rule="evenodd" fill="#483E0E" d="M190.105 296.353c.229-.469.461-.937.69-1.403-.23.466-.461.934-.69 1.403z"/><path fill-rule="evenodd" clip-rule="evenodd" fill="#5B5D4F" d="M224.99 294.995l-1.183 3.763 1.183-3.763zM223.518 299.971c-.202.555-.406 1.108-.607 1.664l.607-1.664zM222.655 302.621c-.199.542-.397 1.084-.593 1.627.2-.542.397-1.085.593-1.627z"/><path fill-rule="evenodd" clip-rule="evenodd" fill="#16160D" d="M200.015 286.33c-.469-.388-.94-.775-1.411-1.162-.001.003.246-.271.244-.271.418-.073.838-.149 1.256-.225 0 0 .246.089.248.088-.11.523-.224 1.047-.337 1.57z"/><path fill-rule="evenodd" clip-rule="evenodd" fill="#3C3619" d="M104.099 13.912l-2.172-3.155a2.39 2.39 0 0 1 .146.001c.521-.344 1.04-.692 1.559-1.039 7.9-4.617 16.089-7.741 25.427-4.918l-5.41 3.438-2.525.004-5.078 1.026c-3.984 1.547-7.965 3.095-11.947 4.643z"/><path fill-rule="evenodd" clip-rule="evenodd" fill="#5B5D4F" d="M141.261 5.038a9052.67 9052.67 0 0 0-5.325 2.497c-.741.338-1.485.678-2.229 1.016l-3.57-.156-.22-3.495c3.781.046 7.563.091 11.344.138z"/><path fill-rule="evenodd" clip-rule="evenodd" fill="#71611D" d="M129.917 4.9l.218 3.496c-2.163-.051-4.325-.105-6.487-.158l5.41-3.438c.298-.068.585-.034.859.1z"/><path fill-rule="evenodd" clip-rule="evenodd" fill="#4D482B" d="M103.631 9.719c-.519.347-1.038.695-1.559 1.039.518-.348 1.038-.694 1.559-1.039z"/><path fill-rule="evenodd" clip-rule="evenodd" fill="#5B5D4F" d="M69.708 282.218l.099 1.756-.099-1.756z"/><path fill-rule="evenodd" clip-rule="evenodd" fill="#F6DD2D" d="M246.424 24.8l14.088 6.456c-3.505-.029-5.546.906-2.646 4.51 2.29 2.847 4.499 5.894 7.321 8.119 1.384 1.09 4.081.511 6.183.688 1.253 1.756 2.504 3.514 3.757 5.272l2.659 7.562c.221.55.439 1.101.66 1.651l.418 2.152 4.813 21.925 6.015 19.055c1.11 6.115 2.396 12.207 3.277 18.356.757 5.28 1.053 10.626 1.554 15.941-2.184 1.826-4.931 3.286-6.428 5.566-2.577 3.924-4.395 8.353-6.493 12.589-.854 1.722-1.61 3.493-2.677 5.826 3.701.225 6.298.381 8.889.541-1.767 1.755-3.527 3.507-5.29 5.259l-.006.005-27.88 14.268.001-10.556c.83-13.082-3.398-24.246-12.851-33.333-2.052-1.973-4.039-3.654-1.523-6.549l15.98-16.361 8.375-21.379c4.062-13.628.916-26.16-5.181-38.536-4.627-9.395-10.684-16.855-21.268-19.209-4.704-1.046-9.642-1.032-14.473-1.499-3.935-3.401.752-4.21 1.924-4.477 6.869-1.562 13.855-2.617 20.802-3.842z"/><path fill-rule="evenodd" clip-rule="evenodd" fill="#8E7F26" d="M283.677 83.135l-4.813-21.925 3.745 2.9 1.068 19.025z"/><path fill-rule="evenodd" clip-rule="evenodd" fill="#564B18" d="M282.608 64.11l-3.745-2.9c-.139-.718-.279-1.435-.417-2.153-.22-.551-.44-1.102-.661-1.65l-2.659-7.562c-.047-2.028-.092-4.058-.136-6.087l-.015.007 2.573 3.814 1.177 3.695c1.296 4.279 2.589 8.558 3.883 12.836z"/><path fill-rule="evenodd" clip-rule="evenodd" fill="#8E7F26" d="M278.726 51.274l-1.177-3.695 1.177 3.695z"/><path fill-rule="evenodd" clip-rule="evenodd" fill="#483E0E" d="M240.265 130.104c-2.516 2.896-.528 4.577 1.523 6.549 9.452 9.087 13.681 20.25 12.851 33.333-3.921 3.983-2.57 8.281-.756 12.606-2.882.86-5.763 1.723-8.645 2.584l-.112-2.462-.209-.435 1.019-2.3 2.758-6.527.537-.239-.114-.49.241-10.396c-.225-.71-.447-1.42-.671-2.131l-.592-2.871-.714-2.004-.115-.285-.868-1.875-2.623-4.476.049.075c-.4-.493-.8-.985-1.198-1.478l.121.142-1.502-2.49.064.094-1.252-1.438.131.103-.109-1.371-2.675-2.277-2.451-2.431c-.455-1.675-.91-3.349-1.367-5.023 2.226-.831 4.452-1.659 6.679-2.487z"/><path fill-rule="evenodd" clip-rule="evenodd" fill="#16160D" d="M245.239 185.176c2.881-.861 5.762-1.724 8.644-2.584 6.809-.244 2.016 3.924 2.339 6.146l-3.823 2.768c-1.989.014-3.979.026-5.971.041l-1.53-5.36c.108-.339.221-.675.341-1.011zM282.56 169.764l-5.127 7.521-5.266-.001c2.432-5.154 5.853-7.12 10.393-7.52z"/><path fill-rule="evenodd" clip-rule="evenodd" fill="#71611D" d="M268.827 183.799l-1.386 2.412c-.366.448-.732.896-1.1 1.343l-1.323 1.119 3.809-4.874z"/><path fill-rule="evenodd" clip-rule="evenodd" fill="#E8C704" d="M123.648 8.238l6.487.158c1.191.05 2.381.103 3.572.156l2.764.794c.344.185.648.419.915.705-.489.352-.935.811-1.477 1.038-8.426 3.525-16.89 6.965-25.25 10.639-.613.27-.504 2.181-.731 3.33l-8.899 8.751-8.494 10.181c-.638.002-1.709-.227-1.852.04-6.868 12.865-10.565 26.361-8.807 41.152 1.484 12.485 5.557 24.967-2.612 37.208-3.348 5.017-3.863 11.924-5.668 17.97l1.65.552 4.168-3.362c-1.237 4.108-2.302 8.281-3.794 12.296-.617 1.657-2.152 2.971-3.27 4.442a1.144 1.144 0 0 0-.866-.682l-20.341-18.26-3.479-4.44-1.223-2.087c.432-1.177 1.151-2.33 1.245-3.533.385-4.934-.484-10.246 1.055-14.753 3.793-11.104 8.592-21.87 13.133-32.711 1.651-3.944 3.719-7.714 5.597-11.564l11.282-19.979 5.032-8.651 7.443-11.387.01-.01a3618.4 3618.4 0 0 1 1.713-2.021c.272-.147.518-.331.738-.549l1.196-1.242s.03-.034.031-.033l1.143-1.238 8.04-7.236c3.982-1.548 7.964-3.096 11.946-4.642l5.078-1.028 2.525-.004z"/><path fill-rule="evenodd" clip-rule="evenodd" fill="#F6DC2C" d="M109.927 25.058c.227-1.149.118-3.061.731-3.33 8.36-3.673 16.824-7.113 25.25-10.639.542-.227.988-.686 1.477-1.038 5.754 2.673 11.761 4.922 17.198 8.133 5.842 3.452 11.15 7.808 16.693 11.769l3.609 1.323.118.061 2.716.713.088-.12c1.408.5 2.818.995 4.229 1.492 1.213.006 2.425.012 3.638.02.664 1.806 2.169 3.779 1.846 5.385-1.786 8.862-4.806 17.536-5.911 26.461-1.589 12.855-8.606 25.034-5.101 38.577.046.172-1.898.858-2.912 1.302-5.307-.492-10.653-.75-15.896-1.625-1.461-.244-2.62-2.306-3.917-3.534l2.437-6.299c1.874-4.325 4.224-8.512 5.535-13.002 4.256-14.584 2.719-28.422-6.405-40.987-.536-.736-1.069-1.479-1.603-2.22-5.862-8.751-13.018-16.553-24.051-16.943-6.527-.231-13.175 2.888-19.769 4.501zm63.649 18.983c-2.68-3.843-5.003-7.746-10.351-6.999-.276.038-.866 4.784.206 6.133 2.547 3.203 6.079 4.73 10.145.866z"/><path fill-rule="evenodd" clip-rule="evenodd" fill="#E8C704" d="M182.038 33.423c-1.411-.497-2.821-.992-4.229-1.492 1.118-.153 2.234-.301 3.354-.451.291.649.583 1.296.875 1.943z"/><path fill-rule="evenodd" clip-rule="evenodd" fill="#71611D" d="M136.471 9.347l-2.764-.794 2.229-1.017c.175.604.355 1.207.535 1.811z"/><path fill-rule="evenodd" clip-rule="evenodd" fill="#E8C704" d="M174.887 31.277l-3.609-1.323 3.609 1.323zM177.721 32.051l-2.716-.713 2.716.713z"/><path fill-rule="evenodd" clip-rule="evenodd" fill="#B2B5A3" d="M194.809 279.188l-4.802-3.016c-.07-.296-.1-.598-.087-.903l1.508-4.236a2.24 2.24 0 0 0 1.211-.217l.215.293 1.057 1.096.17.079c1.01 5.927 6.031 5.084 10.04 5.948l2.126.502 1.525.772c.397.042.787.124 1.166.249l3.773 1.024 1.357.166.748.063c4.562.189 9.128.303 13.682.581 24.211 1.477 46.465-23.513 42.869-45.358l-.172-9.909 2.638-2.699 1.527 23.915-2.788 11.189a78526.605 78526.605 0 0 0-19.621 21.309c-17.6 8.35-35.326 10.632-53.335 1.18-1.054-.553-2.312-.715-3.476-1.059l-.049-.036c-.426-.31-.855-.621-1.282-.933z"/><path fill-rule="evenodd" clip-rule="evenodd" fill="#3C3619" d="M200.104 284.673l-1.256.225a7.677 7.677 0 0 1 .026-1.241c.411.337.82.677 1.23 1.016z"/><path fill-rule="evenodd" clip-rule="evenodd" fill="#ECE58D" d="M287.817 161.007c-2.595-.157-5.191-.313-8.893-.538 1.066-2.333 1.822-4.104 2.677-5.826 2.099-4.236 3.916-8.665 6.493-12.589 1.497-2.28 4.244-3.74 6.428-5.566l.131 4.684c-.179 1.356-.357 2.711-.537 4.066l-1.664 8.008a12303.6 12303.6 0 0 1-3.509 6.608l-1.126 1.153z"/><path fill-rule="evenodd" clip-rule="evenodd" fill="#F6DD2D" d="M288.943 159.853l3.509-6.608c.202.625.403 1.256.605 1.886-.159.401-.321.802-.481 1.203-.506.757-1.01 1.515-1.514 2.272l-2.119 1.247zM294.116 145.237c.18-1.355.358-2.71.537-4.066l-.537 4.066z"/><path fill-rule="evenodd" clip-rule="evenodd" fill="#E8C704" d="M173.598 105.168c1.014-.446 2.958-1.131 2.912-1.304-3.506-13.542 3.512-25.721 5.101-38.577 1.105-8.925 4.125-17.599 5.911-26.461.323-1.605-1.182-3.579-1.846-5.385l10.465-1.459c5.029-1.5 10.06-2.999 15.09-4.497l16.278-4.967 3.733-.316 2.503-.116 3.74.311 1.257.135 7.372 1.314c.167.298.271.615.31.953-6.947 1.225-13.933 2.279-20.801 3.842-1.172.266-5.858 1.075-1.924 4.478-7.548 3.364-15.105 6.908-19.993 13.876-2.772 3.952-8.169 6.887-6.36 13.136l-3.653 15.133c-.365 4.321-.73 8.642-1.097 12.962-.472 2.106-1.271 4.203-1.346 6.323-.146 4.261.105 8.537.191 12.808-.884.121-1.766.241-2.648.363-.442-.007-.885-.015-1.328-.021l-3.703-.264-10.164-2.267z"/><path fill-rule="evenodd" clip-rule="evenodd" fill="#ECE58D" d="M271.369 44.573c-2.102-.177-4.799.402-6.183-.688-2.822-2.225-5.031-5.272-7.321-8.119-2.899-3.604-.858-4.539 2.646-4.51l9.34 8.787 1.113 1.416-.002.036c.138 1.026.272 2.051.407 3.078z"/><path fill-rule="evenodd" clip-rule="evenodd" fill="#8E7F26" d="M271.369 44.573l-.406-3.078c1.342.755 2.685 1.509 4.027 2.262.044 2.03.089 4.059.136 6.087-1.253-1.757-2.504-3.515-3.757-5.271zM270.965 41.459l-1.113-1.416c.369.472.742.943 1.113 1.416z"/><path fill-rule="evenodd" clip-rule="evenodd" fill="#564B18" d="M288.943 159.853l2.119-1.247c.433-.045.866-.09 1.3-.137-1.081 5.375-4.828 7.384-9.839 7.799 1.763-1.752 3.523-3.504 5.29-5.259.379-.386.755-.771 1.13-1.156z"/><path fill-rule="evenodd" clip-rule="evenodd" fill="#8E7F26" d="M292.362 158.469l-1.3.137c.504-.757 1.008-1.515 1.514-2.272l-.214 2.135z"/><path fill-rule="evenodd" clip-rule="evenodd" fill="#71611D" d="M233.745 22.087l-2.503.116 2.503-.116zM238.742 22.533z"/><path fill-rule="evenodd" clip-rule="evenodd" fill="#C3C7C2" d="M273.833 223.624l-2.638 2.698-.005-.062-2.002-5.029c-5.57-9.162-10.977-18.417-21.054-23.655-1.412-.735-1.977-3.099-2.934-4.707.409-.441.818-.883 1.229-1.324l5.969-.039c1.391 1.229 2.782 2.457 4.176 3.682.442.744.881 1.49 1.318 2.234l1.972 1.691 5.105 3.609 6.271 9.704 1.604 5.056c.281.861.564 1.723.847 2.585l.142 3.557z"/><path fill-rule="evenodd" clip-rule="evenodd" fill="#868877" d="M273.69 220.067l-.847-2.585c.284.863.565 1.723.847 2.585z"/><path fill-rule="evenodd" clip-rule="evenodd" fill="#16160D" d="M257.893 197.422c-.438-.744-.876-1.49-1.318-2.234 3.301.38 6.605.758 9.911 1.136-.504 2.134-1.011 4.267-1.517 6.399l-5.104-3.609-1.972-1.692z"/><path fill-rule="evenodd" clip-rule="evenodd" fill="#564B18" d="M266.342 187.554c.367-.446.733-.895 1.1-1.343-.367.448-.734.894-1.1 1.343z"/><path fill-rule="evenodd" clip-rule="evenodd" fill="#C3C7C2" d="M191.429 271.03l-1.509 4.239-2.43-2.671-1.479-1.24c-1.153-.907-2.308-1.812-3.461-2.72l-1.47-2.377-2.344-2.314-3.941-1.309a1.965 1.965 0 0 1-1.034-.113l-5.305-1.06-12.23.724-2.214-.107c-.773-.572-1.487-1.53-2.328-1.658-10.986-1.686-21.99-3.255-32.989-4.853-8.477-3.401-16.564-4.542-22.997 3.951l-2.727 1.989-.38.316-.781.771-.388.398-1.678 1.76-3.43 2.138c-15.519 4.528-27.495-2.549-38.757-11.877-2.504-2.074-4.872-4.311-7.302-6.473l-.014.018c-2.156-5.806-4.312-11.612-6.467-17.42 4.901-2.402 10.171-6.052 15.08-1.23 3.398 3.338 5.888 2.914 8.924.994l.951-5.909 6.37 3.65-.034-.02c1.241 3.394 2.169 6.951 3.838 10.117 1.039 1.971 3.198 3.352 4.854 4.995.839.072 1.677.145 2.517.216 1.648.014 3.298.026 4.946.039 5.823.406 7.752-3.946 9.862-8.073a.87.87 0 0 0 .409-.703l1.208-1.249 8.461-1.495c5.809 3.297 6.041-2.05 7.321-5.028 1.317-3.062 1.888-6.445 2.785-9.688l2.488.455c0 4.032-.298 8.094.094 12.087.316 3.22-.149 7.629 5.428 7.028 3.625 6.436 6.072 7.08 11.975 2.613 2.759-2.086 5.082-4.748 7.602-7.148a5.25 5.25 0 0 0 1.18.382l6.44 9.329c2.793 4.392 6.803 4.721 10.682 2.247 3.737-2.384 6.902-5.666 10.319-8.553 3.197 4.563 6.374 9.145 9.648 13.654.218.299 1.185.053 1.804.06l1.33.185.293 2.226c.291.846.581 1.691.87 2.538.101.392.218.777.353 1.158l.822 1.401c.108.372.244.735.4 1.091l.854 1.308.074.106 1.052 1.398c.137.321.293.633.469.934.316.426.634.85.951 1.273.764.914 1.525 1.829 2.288 2.743l1.239 1.358c.146.303.312.592.498.871.324.373.65.745.975 1.117l.256.271a1.735 1.735 0 0 0-.221 1.14z"/><path fill-rule="evenodd" clip-rule="evenodd" fill="#71611D" d="M82.503 270.128c-1.211.317-2.422.636-3.631.954l3.631-.954z"/><path fill-rule="evenodd" clip-rule="evenodd" fill="#292922" d="M41.821 256.548l1.212-.443c-.271.274-.543.548-.822.823-.006.001-.39-.38-.39-.38z"/><path fill-rule="evenodd" clip-rule="evenodd" fill="#564B18" d="M67.471 66.257c-1.878 3.85-3.946 7.62-5.597 11.564-4.541 10.841-9.339 21.606-13.133 32.711-1.539 4.508-.67 9.819-1.055 14.753-.094 1.203-.813 2.356-1.245 3.534l-3.877-2.594c-.027-.396-.07-.793-.129-1.188l1.919-17.667c3.621-15.168 11.743-28.153 19.95-41.094 1.054-.005 2.111-.011 3.167-.019z"/><path fill-rule="evenodd" clip-rule="evenodd" fill="#8E7F26" d="M67.471 66.257l-3.167.02 8.213-16.328 6.236-3.67-11.282 19.978z"/><path fill-rule="evenodd" clip-rule="evenodd" fill="#483E0E" d="M78.753 46.278l-6.236 3.67 1.224-4.955c2.461-3.505 4.923-7.008 7.383-10.508.422-.557.847-1.118 1.27-1.68l1.479-1.742c-.027 2.187-.057 4.374-.087 6.562l-5.033 8.653z"/><path fill-rule="evenodd" clip-rule="evenodd" fill="#D2D5D3" d="M56.263 173.731l7.49-3.972 9.663.001c1.499 3.223 2.489 5.6 3.687 7.865 1.32 2.496 2.832 4.893 4.26 7.333-3.372 2.097-6.953 3.924-10.074 6.344-9.44 7.316-18.614 14.978-28.087 22.251-2.82 2.164-6.284 3.487-9.453 5.196l-1.348-5.035.379-3.745 7.123-17.664 16.36-18.574z"/><path fill-rule="evenodd" clip-rule="evenodd" fill="#C3C7C2" d="M39.902 192.306l-7.123 17.664 4.661-17.456c.821-.071 1.641-.139 2.462-.208zM32.4 213.715l1.348 5.035-1.504 3.858-.999-1.33 1.155-7.563z"/><path fill-rule="evenodd" clip-rule="evenodd" fill="#868877" d="M81.363 184.959c-1.428-2.44-2.94-4.837-4.26-7.333-1.198-2.266-2.188-4.643-3.687-7.865l-9.663-.001 7.57-2.59 3.687.203c.34.269.724.366 1.152.292.303.194.631.327.983.397l1.208 1.025c.83.854 1.659 1.707 2.492 2.557 1.415 6.539 2.827 13.081 4.239 19.623l-.238 4.785-1.265-.087-2.218-11.006z"/><path fill-rule="evenodd" clip-rule="evenodd" fill="#16160D" d="M80.84 171.648c-.83-.854-1.659-1.707-2.486-2.562a296.85 296.85 0 0 0-1.209-1.024 2.802 2.802 0 0 1-.983-.398c-.384-.098-.769-.194-1.153-.291l-3.687-.203c-.651-1.346-1.302-2.691-1.95-4.035.183-1.008.362-2.018.542-3.028l-.652-1.449-.529-1.135-.914-4.159 3.664.241c.405.081.694.308.866.683 2.422 2.989 3.556 7.721 8.986 6.642l1.071 1.645 2.726 7.402-4.292 1.671z"/><path fill-rule="evenodd" clip-rule="evenodd" fill="#A48E0A" d="M68.733 157.522c.177.378.353.757.527 1.135l.654 1.449c-.18 1.011-.36 2.021-.542 3.028-2.746.488-5.696 3.488-8.057-.668l-.026-10.44a8324.29 8324.29 0 0 0 7.444 5.496z"/><path fill-rule="evenodd" clip-rule="evenodd" fill="#564B18" d="M61.29 152.022l.026 10.444-4.075-.066c-.402-3.598-.802-7.195-1.202-10.794l2.582-1.707c.889.709 1.779 1.415 2.669 2.123z"/><path fill-rule="evenodd" clip-rule="evenodd" fill="#868877" d="M54.912 168.646l.491-1.352-.491 1.352z"/><path fill-rule="evenodd" clip-rule="evenodd" fill="#8E7F26" d="M92.951 24.21l-1.713 2.021 1.713-2.021zM96.059 21.148l-1.143 1.238 1.143-1.238zM94.885 22.419l-1.196 1.242 1.196-1.242z"/><path fill-rule="evenodd" clip-rule="evenodd" fill="#C8D0CE" d="M81.363 184.959c.739 3.669 1.479 7.337 2.217 11.008a4.4 4.4 0 0 1-.063.08l-2.104 1.652c-.385.167-.771.334-1.155.503l-2.508.79-.045.042-3.45 5.072-.396 2.207-1.227 2.52-.216-.142-3.101.689c-.357.207-.71.198-1.061-.025l-6.681 2.3.071-.079-1.883 1.955-1.033 11.467-.951 5.909c-3.037 1.92-5.526 2.344-8.924-.994-4.908-4.821-10.179-1.172-15.08 1.231a1.9 1.9 0 0 0-1.067-.188 1.021 1.021 0 0 0-.317-.929l-.146-7.419 1.504-3.858c3.169-1.709 6.633-3.032 9.453-5.196 9.474-7.273 18.647-14.935 28.087-22.251 3.123-2.42 6.704-4.247 10.076-6.344z"/><path fill-rule="evenodd" clip-rule="evenodd" fill="#5B5D4F" d="M32.708 230.956c.374-.04.73.022 1.067.188l6.467 17.419c-5.342-4.657-7.451-10.698-7.534-17.607z"/><path fill-rule="evenodd" clip-rule="evenodd" fill="#16160D" d="M58.62 149.9c-.861.569-1.721 1.136-2.582 1.707l-6.1-7.794-1.032-1.438-1.215-2.52-1.544-3.564 1.517-5.384c1.159 1.481 2.319 2.96 3.479 4.44 1.857 2.374 4.068 4.558 5.461 7.179 1.167 2.193 1.38 4.896 2.016 7.374z"/><path fill-rule="evenodd" clip-rule="evenodd" fill="#868877" d="M47.664 130.906l-1.517 5.384-3.584-10.064 3.878 2.594 1.223 2.086z"/><path fill-rule="evenodd" clip-rule="evenodd" fill="#8E7F26" d="M82.394 32.807c-.423.562-.848 1.123-1.27 1.68.424-.564.847-1.122 1.27-1.68z"/><path fill-rule="evenodd" clip-rule="evenodd" fill="#FAE02C" d="M185.559 284.352c.016 1.246.026 2.493.039 3.74-1.458 3.964-2.92 7.926-4.38 11.889l.011-.011c-4.99 5.647-11.045 9.346-18.66 10.177l-1.609.248-6.032.808-14.863.019c-.895-.097-1.79-.194-2.688-.293-6.192-2.33-12.381-4.66-18.571-6.992-2.945-3.406-6.046-6.69-8.801-10.243-4.284-5.523-5.384-11.864-1.948-17.961 3.333-5.918 8.65-9.122 16.002-8.396 1.91.189 4.009-1.527 6.021-2.369 2.449.373 4.899.744 7.35 1.116 1.75.528 3.468 1.345 5.254 1.538 9.828 1.061 19.682 1.867 29.504 2.979 4.209.476 8.75.954 9.143 6.781-1.307-.901-2.52-2.005-3.938-2.666-3.129-1.459-5.624-1.354-5.647 3.074l1.281 4.497.899.755.832 1.851c-.108.12-.296.24-.299.364-.004.123.166.329.287.352.124.023.28-.133.422-.211.246.145.461.325.646.543l3.028 4.739c.514-1.598 1.025-3.194 1.538-4.792l-.002-4.304.938-4.248c1.412 2.338 2.827 4.677 4.243 7.016z"/><path fill-rule="evenodd" clip-rule="evenodd" fill="#CBAE07" d="M140.063 311.221l14.863-.019-14.863.019zM160.959 310.395l1.609-.248-1.609.248z"/><path fill-rule="evenodd" clip-rule="evenodd" fill="#E8C704" d="M130.078 264.967c-2.012.842-4.111 2.559-6.021 2.369-7.353-.727-12.669 2.478-16.002 8.396-3.436 6.097-2.336 12.438 1.948 17.961 2.755 3.553 5.856 6.837 8.801 10.243-3.784-.445-7.568-.895-11.352-1.343l-.023-.035-2.494-1.201-.022-.038-1.295-1.181v.008l-1.364-1.114-.004.022-2.236-1.543-9.867-16.236 5.018-16.054c.985-1.089 1.97-2.178 2.951-3.27 4.167-.702 8.351-2.018 12.506-1.934 4.409.088 8.792 1.502 13.187 2.337l1.929.388 2.934 1.066 1.406 1.159z"/><path fill-rule="evenodd" clip-rule="evenodd" fill="#A48E0A" d="M125.502 311.239c-.038.849-.076 1.696-.109 2.544.04-.848.075-1.697.109-2.544z"/><path fill-rule="evenodd" clip-rule="evenodd" fill="#CBAE07" d="M100.014 297.511l2.236 1.543a734.383 734.383 0 0 1-2.236-1.543zM104.935 301.356l2.494 1.201-2.494-1.201zM102.254 299.031l1.364 1.114-1.364-1.114zM103.618 300.138l1.295 1.181c-.433-.393-.864-.787-1.295-1.181z"/><path fill-rule="evenodd" clip-rule="evenodd" fill="#71611D" d="M98.121 261.953l-2.956 3.268-2.194-3.709 2.728-1.988c.204.176.405.354.604.531l1.207 1.205c.192.24.395.472.611.693zM89.745 264.758l1.678-1.76-1.678 1.76zM91.811 262.6l.781-.771a1.363 1.363 0 0 1-.781.771z"/><path fill-rule="evenodd" clip-rule="evenodd" fill="#564B18" d="M181.218 299.98c1.46-3.963 2.922-7.925 4.38-11.889l.771 5.599-5.151 6.29zM185.559 284.352l-4.245-7.016.015.043c-.393-5.825-4.934-6.304-9.143-6.779-9.822-1.111-19.677-1.918-29.504-2.979-1.786-.193-3.504-1.01-5.252-1.538.013-.394.008-.786-.016-1.18 10.241.806 20.476 1.735 30.73 2.335 2.719.159 5.499-.693 8.253-1.081l4.582 1.442c.524.348 1.05.693 1.573 1.039 1.153.907 2.308 1.812 3.461 2.72.492.414.984.827 1.479 1.24l2.43 2.671c-.013.306.017.607.087.903-1.487 2.726-2.968 5.454-4.45 8.18z"/><path fill-rule="evenodd" clip-rule="evenodd" fill="#5B5D4F" d="M194.809 279.188l1.283.934-1.283-.934z"/><path fill-rule="evenodd" clip-rule="evenodd" fill="#71611D" d="M121.123 8.242l-5.078 1.028c1.692-.344 3.385-.686 5.078-1.028z"/><path fill-rule="evenodd" clip-rule="evenodd" fill="#3C3619" d="M197.346 60.132c-1.809-6.249 3.588-9.184 6.36-13.136 4.888-6.968 12.445-10.512 19.993-13.876 4.831.466 9.769.452 14.473 1.498 10.584 2.354 16.641 9.814 21.268 19.209 6.097 12.376 9.242 24.908 5.182 38.536l-4.323.002-.186-4.854.194-2.487c.328-4.005 1.335-8.094.848-11.997-1.107-8.88-2.299-17.936-9.85-24.289l-1.218-1.455-1.019-1.118c-.492-.497-.982-.995-1.475-1.492l-1.101-1.051-.128-.107-1.271-1.065-2.878-1.989c-6.562-6.037-16.358-5.896-24.646.354l-12.678 12.862-7.545 6.455zM240.265 130.104l-6.679 2.484c-1.614-2.055-3.23-4.109-4.847-6.162l3.839-.364 5.266-.924 4.705-2.557.037-.029 1.28-1.061.149-.107 1.131-1.039.206-.197 1.046-1.029.223-.221 1.029-1.024.229-.228c.325-.369.651-.737.979-1.106l1.2-1.516 3.645-2.626 2.543 1.345a83176.203 83176.203 0 0 0-15.981 16.361z"/><path fill-rule="evenodd" clip-rule="evenodd" fill="#71611D" d="M256.245 113.743l-2.543-1.344c2.384-6.616 8.191-12.106 6.599-20.034l4.32-.001c-2.793 7.126-5.584 14.252-8.376 21.379z"/><path fill-rule="evenodd" clip-rule="evenodd" fill="#8E7F26" d="M277.785 57.406l.661 1.65-.661-1.65z"/><path fill-rule="evenodd" clip-rule="evenodd" fill="#FAE02C" d="M249.357 162.326l-.24 10.395a3.483 3.483 0 0 0-.424.731l-2.757 6.527-1.02 2.3.209.435-3.53 4.924-2.686 2.704c-7.137 3.92-14.068 8.292-21.473 11.613-5.905 2.65-12.388 4.02-18.612 5.956-.85.151-1.701.304-2.552.457l-30.028 1.666-2.484-.049-17.651-3.253-.36-.106-8.479-2.415-4.283-1.385-.355-.143-3.123-1.083c-1.1-.501-2.2-1-3.3-1.499l-21.095-12.139c-3.245-7.005-7.195-13.777-9.587-21.061-4.932-15.013 1.772-32.244 13.354-39.274 9.984-6.062 20.771-10.802 31.203-16.125 3.711-.512 7.423-1.022 11.135-1.533l2.518-.304 8.562.153c1.344.477 2.651 1.178 4.037 1.395 10.402 1.627 20.822 3.159 31.238 4.722l4.909 1.633c2.09.851 4.18 1.702 6.27 2.551l.309.218.378-.021 1.795.963-.018-.007c6.377 4.295 12.752 8.592 19.129 12.889l-3.939 1.995c3.144 4.732 6.027 9.41 9.251 13.842 3.727 5.121 4.932 4.85 8.115-1.315l2.623 4.479.868 1.872.115.283.714 2.006.592 2.871.672 2.132zm-67.023-1.375c10.754.269 19.067 3.756 25.307 11.365 1.471-.69 2.621-1.169 3.713-1.752 5.931-3.167 6.747-5.732 1.367-9.393-5.084-3.459-11.31-6.091-17.349-7.006-4.235-.64-9.935.399-13.038 6.786zm-66.411-12.352c7.002 4.438 13.52 8.109 19.465 12.546 2.744 2.048 5.285 3.428 7.494.896 1.718-1.968 3.156-5.491 2.626-7.852-1.382-6.148-7.32-7.318-12.319-7.562-5.905-.287-12.634-2.713-17.266 1.972z"/><path fill-rule="evenodd" clip-rule="evenodd" fill="#ECE58D" d="M243.774 148.684c-3.184 6.165-4.389 6.436-8.115 1.315-3.224-4.432-6.107-9.109-9.251-13.842 1.82-.922 2.88-1.459 3.936-1.998l4.608 3.453 2.451 2.431 1.25 2.526 1.536 1.123-.133-.104 1.252 1.438-.064-.094c.502.83 1.002 1.66 1.502 2.49 0 0-.121-.142-.121-.14.398.492.798.984 1.198 1.476l-.049-.074z"/><path fill-rule="evenodd" clip-rule="evenodd" fill="#71611D" d="M234.952 137.612a7883.226 7883.226 0 0 0-4.608-3.453l-19.125-12.886 11.594 1.065 5.926 4.087c1.617 2.053 3.233 4.107 4.848 6.162l1.365 5.025zM241.596 187.638l3.53-4.924.112 2.462a33.32 33.32 0 0 0-.34 1.011l-3.302 1.451zM238.653 142.569l-1.25-2.526 2.675 2.277-1.425.249z"/><path fill-rule="evenodd" clip-rule="evenodd" fill="#F6DC2C" d="M249.357 162.326c-.225-.71-.447-1.42-.671-2.131l.671 2.131zM248.095 157.324l-.714-2.006c.237.669.475 1.338.714 2.006zM242.746 147.423c-.5-.83-1-1.66-1.502-2.49l1.502 2.49zM244.917 182.279l1.02-2.3-1.02 2.3zM248.693 173.452c.111-.263.253-.505.424-.731-.001.002.113.492.113.492l-.537.239zM238.653 142.569l1.425-.249.109 1.371-1.534-1.122zM241.309 145.027l-1.252-1.438 1.252 1.438zM243.823 148.759c-.4-.492-.8-.984-1.198-1.476l1.198 1.476zM247.266 155.035l-.868-1.872c.29.622.579 1.247.868 1.872z"/><path fill-rule="evenodd" clip-rule="evenodd" fill="#3C3619" d="M241.596 187.638l3.303-1.451 1.529 5.36-1.225 1.32c-2.979 2.85-5.96 5.698-8.941 8.547l-3.806.121c2.152-3.73 4.303-7.462 6.454-11.193l2.686-2.704z"/><path fill-rule="evenodd" clip-rule="evenodd" fill="#F6DC2C" d="M79.413 137.551l-4.168 3.361-1.65-.552c1.805-6.046 2.32-12.953 5.668-17.97 8.168-12.241 4.096-24.723 2.612-37.208-1.758-14.791 1.938-28.287 8.807-41.152.143-.267 1.214-.038 1.853-.04l-4.768 17.177c-.534 5.426-1.679 10.875-1.477 16.273.473 12.554 3.624 24.303 12.803 33.644l1.03 2.642-3.707 5.118-1.447 1.089-2.91 2.289a1.024 1.024 0 0 0-.737.495l-3.081 1.906c-2.943 4.308-5.886 8.618-8.828 12.928z"/><path fill-rule="evenodd" clip-rule="evenodd" fill="#483E0E" d="M94.968 119.932l1.447-1.089c5.494-1.4 6.128-2.275 3.707-5.118-.343-.88-.687-1.762-1.025-2.641l7.154.146 1.247.187c1.869 2.717 1.98 4.744-1.563 6.411-2.221 1.046-3.981 3.072-5.948 4.658v.001l-2.488 1.277-1.337 1.187-1.235 1.143-.089.08-1.173 1.143-.1.101-1.145 1.159-.08.072-2.437 2.598-4.964 8.658-4.941 10.098.226 6.182c.123.301.166.61.128.932l.877 1.646.106 2.169c-5.43 1.079-6.564-3.652-8.986-6.642 1.117-1.47 2.653-2.784 3.27-4.441 1.493-4.015 2.558-8.188 3.794-12.296 2.942-4.309 5.884-8.619 8.828-12.927l3.079-1.907c.17-.277.416-.441.738-.494.971-.766 1.941-1.531 2.91-2.293z"/><path fill-rule="evenodd" clip-rule="evenodd" fill="#3C3619" d="M109.927 25.058c6.594-1.613 13.242-4.731 19.771-4.5 11.033.391 18.188 8.192 24.051 16.943.534.741 1.067 1.483 1.601 2.22l3.272 10.326-3.589-.023c-.944-1.999-2.003-3.95-2.812-6.001-4.728-11.986-12.939-19.129-27.217-19.026-2.01.524-4.021 1.046-6.028 1.565-5.142.824-10.558 1.205-12.403 7.495l-.045.046c-.486-.052-.972-.106-1.458-.16l-4.041-.134c2.965-2.918 5.931-5.834 8.898-8.751z"/><path fill-rule="evenodd" clip-rule="evenodd" fill="#5B5D4F" d="M101.027 33.809l4.041.133.396 1.437-.035-.006-1.225 1.339.015.038c-3.906-1.05-4.361.519-2.764 3.644.024.4-.15.674-.523.82l-1.964 3.083c.114.33.012.564-.309.703l-2.412 5.006c-5.156 13.457-6.364 27.186-2.839 41.239-.74-1.645-2.003-3.25-2.13-4.941-.531-7.089-.605-14.211-1.141-21.299-.101-1.333-1.546-2.562-2.372-3.839l4.768-17.177 8.494-10.18z"/><path fill-rule="evenodd" clip-rule="evenodd" fill="#483E0E" d="M58.62 149.9c-.636-2.478-.849-5.181-2.016-7.375-1.393-2.621-3.604-4.805-5.461-7.179l20.341 18.26-3.664-.243.914 4.159a8324.29 8324.29 0 0 1-7.444-5.496c-.89-.712-1.78-1.418-2.67-2.126z"/><path fill-rule="evenodd" clip-rule="evenodd" fill="#71611D" d="M197.576 115.934c-10.416-1.561-20.836-3.093-31.238-4.72-1.386-.217-2.693-.918-4.035-1.395l-7.454-1.131-1.064-8.679c1.298 1.228 2.456 3.29 3.917 3.534 5.242.874 10.589 1.133 15.896 1.625l10.164 2.269c2.021 1.597 3.916 3.404 6.101 4.733 2.433 1.481 5.13 2.528 7.713 3.764zM158.62 50.046c-1.09-3.442-2.181-6.886-3.27-10.331 9.124 12.57 10.661 26.408 6.405 40.992-1.311 4.49-3.661 8.677-5.535 13.002l-.095-2.451c5.488-13.455 6.846-27.161 2.495-41.212z"/><path fill-rule="evenodd" clip-rule="evenodd" fill="#483E0E" d="M156.125 91.259l.096 2.451-2.437 6.299 1.065 8.679-1.111.978-2.518.304-6.317-1.303c1.251-2.959 2.5-5.919 3.75-8.879l2.765-6.071 1.039-1.364-.101.082 3.769-1.176z"/><path fill-rule="evenodd" clip-rule="evenodd" fill="#ECE58D" d="M173.576 44.041c-4.066 3.865-7.599 2.337-10.145-.866-1.072-1.349-.482-6.095-.206-6.133 5.348-.747 7.671 3.156 10.351 6.999z"/><path fill-rule="evenodd" clip-rule="evenodd" fill="#71611D" d="M155.35 39.726l-1.602-2.225 1.602 2.225z"/><path fill-rule="evenodd" clip-rule="evenodd" fill="#435756" d="M190.422 268.504a7.072 7.072 0 0 1-.498-.871c-.412-.454-.826-.905-1.239-1.358-.763-.914-1.524-1.829-2.288-2.741l-.951-1.275a8.163 8.163 0 0 1-.469-.935l-1.052-1.397-.075-.106c-.286-.435-.569-.872-.854-1.308a8.85 8.85 0 0 1-.4-1.091c-.275-.468-.55-.935-.822-1.401a14.18 14.18 0 0 1-.354-1.158 758.43 758.43 0 0 0-.868-2.538l-.294-2.227.542.011.536-.077c2.887 2.073 5.776 4.146 8.335 6.697 1.198 2.824 2.963 5.539 4.727 8.253.502-.279 1.001-.559 1.501-.839.38-3.673.761-7.346 1.232-11.933-2.907 1.864-4.895 3.141-7.46 4.519a915.068 915.068 0 0 0 5.566-9.438c7.575 1.299 14.361.104 19.539-6.175.111 1.913.223 3.826.333 5.74-5.556 2.189-7.919 7.367-5.554 13.49 3.467 8.979 7.428 12.291 14.215 9.952 5.069-1.747 9.403-5.632 14.063-8.565.311-.15.625-.286.946-.408.832-.402 1.665-.807 2.498-1.209l.085-.053 1.374-.736a91.46 91.46 0 0 1 1.117-.479l1.389-.817c.359-.15.725-.287 1.096-.408 5.125-.713 9.164-2.512 8.759-8.755l2.188-3.533c6.397-.769 3.101-5.69 3.811-8.896 1.394-1.485 2.784-2.971 3.34-3.562l6.933 3.357c3.596 21.846-18.658 46.835-42.869 45.358-4.554-.278-9.119-.392-13.68-.579a1.538 1.538 0 0 0-.75-.065 313.74 313.74 0 0 0-1.357-.165l-3.773-1.025a5.396 5.396 0 0 0-1.168-.246l-1.523-.775c-.708-.168-1.417-.335-2.129-.5-3.346-1.98-6.692-3.966-10.037-5.95 0 0-.17-.079-.171-.077-.353-.363-.704-.731-1.056-1.098 0 0-.215-.293-.215-.29-.327-.307-.655-.618-.986-.928 0 0-.256-.271-.256-.268-.327-.374-.653-.748-.977-1.122zm19.016-2.297c-2.467-1.131-4.193-2.565-5.038-2.162-1.335.641-2.467 2.402-2.896 3.915-.185.647 2.149 2.81 2.421 2.656 1.657-.937 3.054-2.341 5.513-4.409z"/><path fill-rule="evenodd" clip-rule="evenodd" fill="#4F5F60" d="M271.367 236.232l-6.933-3.357-3.339 3.562c-7.804-9.036-11.992-9.847-21.117-4.087l-.119.057-2.38 1.211-.115.082c-.435.29-.868.582-1.302.872a8.843 8.843 0 0 1-1.01.437l-1.367 1.049s-.17.11-.168.11l-1.176.963-2.807 2.688-.898 1.09-.19.279-.883 1.454.13 3.616c-.019.533-.037 1.066-.059 1.596-.915-2.106-1.826-4.209-2.737-6.311l-2.095-1.219v-6.846c1.453-1.628 2.905-3.258 4.359-4.886 1.398-.369 2.798-.737 4.196-1.104 3.67.332 7.498.339 8.401-4.164.779-3.892.485-7.887-4.568-9.178.356-4.243.715-8.487 1.07-12.73 2.981-2.851 5.963-5.699 8.941-8.549.955 1.61 1.52 3.974 2.932 4.709 10.077 5.238 15.483 14.493 21.053 23.655.666 1.678 1.335 3.354 2.003 5.029l.005.062.173 9.91z"/><path fill-rule="evenodd" clip-rule="evenodd" fill="#868877" d="M194.08 272.284c3.345 1.984 6.691 3.97 10.037 5.95-4.006-.866-9.027-.023-10.037-5.95zM208.938 279.756c1.258.342 2.516.685 3.773 1.025-1.257-.343-2.515-.684-3.773-1.025zM192.854 271.109c.352.366.703.734 1.056 1.098-.351-.367-.705-.732-1.056-1.098zM191.652 269.892c.331.31.659.621.986.928a2.266 2.266 0 0 1-1.211.214 1.736 1.736 0 0 1 .225-1.142zM214.068 280.946c.257-.04.507-.019.75.065-.25-.023-.5-.043-.75-.065zM206.246 278.734z"/><path fill-rule="evenodd" clip-rule="evenodd" fill="#6A6D56" d="M191.441 107.357c-.086-4.271-.338-8.546-.191-12.808.074-2.121.874-4.217 1.346-6.321l2.687 10.601c.206 5.617 3.352 9.478 7.587 12.687l-.393 1.217-11.036-5.376z"/><path fill-rule="evenodd" clip-rule="evenodd" fill="#483E0E" d="M191.441 107.357c3.678 1.792 7.356 3.584 11.035 5.373.442 1.211.884 2.423 1.324 3.637l-1.315 1.201-4.909-1.633c-2.583-1.237-5.28-2.284-7.714-3.766-2.185-1.329-4.079-3.137-6.101-4.733 1.236.088 2.47.176 3.703.262l1.328.023 2.649-.364z"/><path fill-rule="evenodd" clip-rule="evenodd" fill="#868877" d="M197.346 60.132c2.516-2.151 5.029-4.303 7.546-6.454l-6.349 13.745-.683 1.645c-.149.714-.302 1.427-.453 2.14a484.58 484.58 0 0 1-.719 1.652l-.235 2.152c-.921.086-1.842.17-2.761.254 1.218-5.045 2.437-10.089 3.654-15.134z"/><path fill-rule="evenodd" clip-rule="evenodd" fill="#B2B5A3" d="M193.692 75.265c.919-.084 1.84-.168 2.761-.254-.016 7.912-.029 15.822-.047 23.733-.376.017-.75.045-1.124.085l-2.687-10.601c.367-4.322.732-8.642 1.097-12.963z"/><path fill-rule="evenodd" clip-rule="evenodd" fill="#71611D" d="M188.793 107.721z"/><path fill-rule="evenodd" clip-rule="evenodd" fill="#B2B5A3" d="M271.19 226.261c-.668-1.676-1.337-3.352-2.003-5.029l2.003 5.029z"/><path fill-rule="evenodd" clip-rule="evenodd" fill="#3C3619" d="M257.893 197.422z"/><path fill-rule="evenodd" clip-rule="evenodd" fill="#C8D0CE" d="M119.278 237.329c-5.578.601-5.112-3.809-5.428-7.028-.392-3.993-.094-8.055-.094-12.087l-2.488-.455c-.897 3.243-1.468 6.626-2.785 9.688-1.281 2.979-1.513 8.325-7.32 5.028l.014-2.523.044-.015c.423-.378.845-.758 1.268-1.138l.059-.058c4.601-3.885 4.996-8.09 1.172-12.465l-.501.104c-.273-.218-.548-.434-.822-.65a.851.851 0 0 0-.652-.608l-.512-.395-.947-1.135-.555-6.103c.178-.373.292-.765.34-1.175 2.757-.734 5.69-2.438 8.227-1.973 3.751.687 7.147 3.117 10.825 4.445 7.317 2.641 14.723 5.035 22.091 7.531l2.558 1.371c.515 1.584.593 4.046 1.636 4.564 2.121 1.055 4.782 1.498 7.187 1.397 3.871-.162 5.386 1.328 4.911 5.069-.016.389-.028.775-.034 1.162-1.132.5-2.264.998-3.395 1.496l-1.537 1.047-.136.102-1.115.888-4.812 9.087-6.44-9.329 1.236-3.177-.189-1.166.071.1-2.101-2.234-8.915 1.754-6.047 1.691-6.187 1.155 1.613 3.978c-.082.689-.161 1.373-.24 2.057z"/><path fill-rule="evenodd" clip-rule="evenodd" fill="#363832" d="M68.256 209.355c.35.224.704.232 1.062.021 1.034-.231 2.066-.459 3.099-.686l.215.142 1.227-2.52.396-2.208c1.149-1.691 2.299-3.382 3.45-5.071l.044-.042c.835-.264 1.672-.527 2.509-.79l1.155-.505c.701-.55 1.402-1.101 2.104-1.65l.063-.08 1.265.087c-.208 2.239-.627 4.484-.588 6.72.167 9.637.257 19.285.928 28.889.114 1.643 2.923 3.098 4.488 4.638l1.413-.377c-2.112 4.127-4.041 8.479-9.864 8.073l-4.947-.039-2.517-.216-1.483-2.359 7.522-.591c-4.347-2.75-.735-10.805-8.824-8.215l-5.907-3.947.034.02-1.423-2.358c1.79-.109 3.58-.22 5.965-.367l-8.028-11.337.033-3.01s-.071.079-.072.076c2.225-.768 4.453-1.532 6.681-2.298z"/><path fill-rule="evenodd" clip-rule="evenodd" fill="#C8D0CE" d="M178.928 249.913c-.619-.007-1.586.239-1.804-.06-3.274-4.51-6.451-9.091-9.648-13.654 1.869-4.062-.542-6.019-3.732-7.592-.406-2.476-.814-4.953-1.222-7.428 1.251-.391 2.503-.78 3.756-1.17.797.057 1.596.112 2.395.168l2.717.895c2.496.873 4.99 1.748 7.487 2.621l.098 2.548c-.018 7.891-.032 15.781-.047 23.672z"/><path fill-rule="evenodd" clip-rule="evenodd" fill="#292922" d="M130.138 228.451l8.914-1.754.885 2.217-1.082 3.88c-2.52 2.4-4.843 5.062-7.602 7.148-5.903 4.467-8.351 3.822-11.975-2.613.08-.685.158-1.368.236-2.054l4.423-3.938 6.201-2.886z"/><path fill-rule="evenodd" clip-rule="evenodd" fill="#435756" d="M163.743 228.607c3.19 1.573 5.602 3.53 3.732 7.592-3.417 2.887-6.582 6.169-10.319 8.553-3.879 2.474-7.889 2.145-10.682-2.247l4.812-9.087c.396.141.792.278 1.189.416l-3.669 7.775 1.162.529 6.262-5.543.662.824-2.656 5.648 1.178.869 10.625-11.557c-1.956-.277-3.913-.959-5.752-.721-2.609.338-5.131 1.354-7.691 2.08-.114-.396-.18-.8-.195-1.211l.135-.102 1.538-1.047 3.395-1.494 2.893-.956c1.127-.105 2.254-.213 3.381-.321z"/><path fill-rule="evenodd" clip-rule="evenodd" fill="#71611D" d="M123.81 262.354c-4.395-.835-8.778-2.249-13.187-2.337-4.156-.084-8.339 1.231-12.506 1.934a10.303 10.303 0 0 1-.607-.691l-1.206-1.205c-.2-.178-.4-.355-.604-.531 6.432-8.494 14.52-7.354 22.995-3.953l5.115 6.783z"/><path fill-rule="evenodd" clip-rule="evenodd" fill="#6A6D56" d="M123.81 262.354l-5.116-6.784c11.001 1.599 22.005 3.168 32.991 4.854.841.128 1.555 1.086 2.328 1.658h-20.258l-.102 1.279 3.759 1.542c.024.394.029.786.016 1.18-2.452-.372-4.902-.743-7.351-1.116l-1.405-1.158c-.977-.355-1.956-.712-2.935-1.066l-1.927-.389z"/><path fill-rule="evenodd" clip-rule="evenodd" fill="#16160D" d="M137.413 264.903l-3.759-1.542.102-1.279h20.258l2.214.107c2.125.495 4.237 1.062 6.379 1.472 4.587.875 9.191 1.669 13.79 2.496-2.754.388-5.534 1.24-8.253 1.081-10.256-.599-20.49-1.529-30.731-2.335z"/><path fill-rule="evenodd" clip-rule="evenodd" fill="#6A6D56" d="M176.396 266.157c-4.599-.827-9.203-1.621-13.79-2.496-2.142-.409-4.253-.977-6.379-1.472 4.077-.241 8.153-.482 12.232-.725l5.303 1.061c.336.131.68.168 1.035.112l3.94 1.31c.781.771 1.562 1.543 2.345 2.314-.035.447-.068.893-.104 1.338-1.528-.48-3.056-.96-4.582-1.442z"/><path fill-rule="evenodd" clip-rule="evenodd" fill="#B2B5A3" d="M72.275 241.382l1.483 2.359c-1.656-1.644-3.815-3.024-4.854-4.995-1.668-3.166-2.597-6.724-3.838-10.117l5.907 3.947 1.302 8.806z"/><path fill-rule="evenodd" clip-rule="evenodd" fill="#868877" d="M178.928 249.913l.045-23.672c.336 2.396.77 4.782.99 7.187.513 5.529.92 11.068 1.372 16.603l-.536.077-.542-.011c-.444-.06-.884-.122-1.329-.184z"/><path fill-rule="evenodd" clip-rule="evenodd" fill="#B2B5A3" d="M63.677 226.29l1.423 2.358-6.37-3.65c.345-3.822.689-7.645 1.035-11.465.264.246.526.494.786.743l.085 3.3 1.698 7.666 1.343 1.048zM101.175 229.952c-.003.841-.008 1.683-.013 2.523L92.7 233.97l-.237-.268 8.712-3.75z"/><path fill-rule="evenodd" clip-rule="evenodd" fill="#4D482B" d="M138.855 232.794l1.082-3.882.607.049.608-.029-.07-.1.188 1.166-1.236 3.177a5.205 5.205 0 0 1-1.179-.381z"/><path fill-rule="evenodd" clip-rule="evenodd" fill="#B2B5A3" d="M76.274 243.957l4.947.039-4.947-.039zM173.762 262.525l-5.303-1.061c1.767.354 3.534.709 5.303 1.061zM178.737 263.947l-3.94-1.31c1.312.438 2.626.874 3.94 1.31z"/><path fill-rule="evenodd" clip-rule="evenodd" fill="#868877" d="M180.551 252.323z"/><path fill-rule="evenodd" clip-rule="evenodd" fill="#B2B5A3" d="M180.978 267.6c.036-.445.069-.891.104-1.338l1.469 2.377-1.573-1.039zM187.49 272.599l-1.479-1.24 1.479 1.24z"/><path fill-rule="evenodd" clip-rule="evenodd" fill="#868877" d="M190.422 268.504c.324.374.65.748.975 1.12-.325-.375-.651-.747-.975-1.12zM188.685 266.274c.413.453.827.904 1.239 1.358l-1.239-1.358zM185.445 262.258c.316.426.634.852.951 1.275l-.951-1.275zM183.925 259.926l1.052 1.397-1.052-1.397zM182.996 258.512c.284.436.567.873.854 1.308l-.854-1.308zM181.773 256.02c.272.467.547.934.822 1.401-.274-.468-.546-.935-.822-1.401z"/><path fill-rule="evenodd" clip-rule="evenodd" fill="#B2B5A3" d="M91.494 235.223a.873.873 0 0 1-.411.7l-1.411.377 1.534-1.333.288.256z"/><path fill-rule="evenodd" clip-rule="evenodd" fill="#B2B5A3" d="M92.7 233.971l-1.208 1.249c.001.003-.286-.253-.286-.253l-.04-1.396 1.297.133.237.267z"/><path fill-rule="evenodd" clip-rule="evenodd" fill="#16160D" d="M91.166 233.569l.041 1.397-1.534 1.333c-1.564-1.54-4.374-2.995-4.488-4.638-.671-9.604-.761-19.252-.928-28.889-.039-2.235.38-4.48.588-6.72l.238-4.786c1.562.014 3.125.027 4.687.042l-.032 2.396-.023 5.098.121 13.689-.89 3.688.103 3.721c.219 1.17.437 2.342.74 3.972 2.13-2.115 3.658-3.636 5.187-5.153l.062.061 2.07 8.624-5.942 6.165z"/><path fill-rule="evenodd" clip-rule="evenodd" fill="#4D482B" d="M89.77 191.31c-1.562-.015-3.125-.028-4.687-.042-1.412-6.542-2.825-13.084-4.239-19.623 1.427-.555 2.858-1.111 4.288-1.669l1.436-.175 5.9 9.023 1.674 2.161-.116-.072 1.312 1.315-.069-.065 1.331 1.286-.063-.1c.715.562 1.429 1.124 2.143 1.688l1.257.396-2.377 4.565-2.562-1.259c-3.903-3.539-3.381 1.926-5.228 2.571z"/><path fill-rule="evenodd" clip-rule="evenodd" fill="#3C3619" d="M75.009 167.373c.384.097.769.193 1.153.291a1.393 1.393 0 0 1-1.153-.291z"/><path fill-rule="evenodd" clip-rule="evenodd" fill="#4D482B" d="M77.145 168.062z"/><path fill-rule="evenodd" clip-rule="evenodd" fill="#CBAE07" d="M81.335 160.929l-.106-2.169-.877-1.646a1.839 1.839 0 0 0-.129-.932L79.998 150l4.941-10.098-.104 24.021-2.428-1.352-1.072-1.642z"/><path fill-rule="evenodd" clip-rule="evenodd" fill="#71611D" d="M82.407 162.573l2.43 1.351c.034.375.128.735.283 1.08l.851 1.549.598 3.248-1.436.175-2.726-7.403z"/><path fill-rule="evenodd" clip-rule="evenodd" fill="#483E0E" d="M69.915 160.106c-.218-.483-.438-.966-.654-1.449l.654 1.449z"/><path fill-rule="evenodd" clip-rule="evenodd" fill="#B2B5A3" d="M68.256 209.355c-2.228.766-4.456 1.529-6.682 2.297 2.228-.763 4.455-1.53 6.682-2.297z"/><path fill-rule="evenodd" clip-rule="evenodd" fill="#868877" d="M77.705 199.034c-1.151 1.689-2.3 3.38-3.45 5.071l3.45-5.071zM80.258 198.202z"/><path fill-rule="evenodd" clip-rule="evenodd" fill="#B2B5A3" d="M72.417 208.691a719.75 719.75 0 0 0-3.099.686c1.032-.227 2.065-.456 3.099-.686z"/><path fill-rule="evenodd" clip-rule="evenodd" fill="#868877" d="M83.517 196.047l-2.104 1.65 2.104-1.65zM73.859 206.313l-1.227 2.52 1.227-2.52z"/><path fill-rule="evenodd" clip-rule="evenodd" fill="#B2B5A3" d="M61.646 211.576c-.011 1.003-.021 2.007-.033 3.009a6.932 6.932 0 0 0-1.062-.309c-.26-.249-.522-.497-.786-.743.626-.653 1.254-1.305 1.881-1.957z"/><path fill-rule="evenodd" clip-rule="evenodd" fill="#D2D5D3" d="M174.756 284.892c-.278-.618-.555-1.234-.832-1.845a1.929 1.929 0 0 0-.899-.761c-.427-1.499-.854-2.998-1.284-4.498 4.869-3.263 6.031 1.908 8.636 3.795 0 1.435.002 2.869.008 4.306-1.521.019-3.046.034-4.572.051a2.3 2.3 0 0 0-.646-.534 2.37 2.37 0 0 0-.411-.514z"/><path fill-rule="evenodd" clip-rule="evenodd" fill="#ECE58D" d="M180.376 281.583c-2.604-1.887-3.767-7.058-8.636-3.795.026-4.428 2.521-4.532 5.65-3.073 1.418.661 2.631 1.765 3.938 2.666l-.015-.045-.937 4.247zM175.812 285.939c1.526-.017 3.052-.032 4.572-.051-.519 1.596-1.03 3.192-1.544 4.79a6526.595 6526.595 0 0 1-3.028-4.739zM174.756 284.892c.162.153.301.328.41.514-.142.069-.298.226-.422.202-.121-.022-.291-.229-.287-.352.003-.124.19-.244.299-.364zM173.024 282.286c.382.161.683.417.899.761-.299-.258-.599-.509-.899-.761z"/><path fill-rule="evenodd" clip-rule="evenodd" fill="#71611D" d="M125.738 262.742c.979.354 1.958.711 2.935 1.066l-2.935-1.066z"/><path fill-rule="evenodd" clip-rule="evenodd" fill="#3C3619" d="M96.303 260.055l1.206 1.205-1.206-1.205z"/><path fill-rule="evenodd" clip-rule="evenodd" fill="#FAFAF9" d="M196.407 98.744c.017-7.912.03-15.822.046-23.733l.235-2.153c.237-.55.479-1.1.719-1.65.151-.713.304-1.426.453-2.141l.683-1.644 6.349-13.745 12.678-12.862c8.184-2.322 16.381-3.779 24.646-.354l2.878 1.989 1.271 1.065.128.107 1.101 1.051c.492.497.982.995 1.475 1.492l1.019 1.118 1.218 1.455c1.73 3.95 4.139 7.752 5.045 11.885 1.765 8.036 2.686 16.257 3.957 24.401l-.194 2.487c-3.353 9.171-6.703 18.341-10.055 27.511l-1.2 1.516-.979 1.106-.229.228c-.344.34-.687.682-1.029 1.024l-.223.22c-.348.343-.696.688-1.046 1.03 0 0-.206.197-.206.195l-1.131 1.04-.149.106-1.28 1.062-.037.029c-1.567.852-3.136 1.706-4.705 2.557l-5.266.924-10.019-4.826-.063-.031-4.943-2.458c-.384-.156-.767-.312-1.148-.469l-3.821-2.083-.043-.023-.097-5.046c5.266-2.418 8.349-6.159 6.99-12.267-1.109-4.992-4.731-7.114-9.525-7.357-6.027-.306-9.797 2.564-11.151 8.497-.786-.416-1.57-.834-2.352-1.253z"/><path fill-rule="evenodd" clip-rule="evenodd" fill="#6A6D56" d="M260.307 85.025c-1.271-8.145-2.192-16.366-3.957-24.401-.906-4.132-3.314-7.935-5.045-11.885 7.551 6.354 8.742 15.409 9.85 24.289.487 3.903-.52 7.993-.848 11.997zM250.058 115.023c3.352-9.17 6.702-18.34 10.055-27.511.062 1.618.122 3.236.186 4.854 1.596 7.926-4.212 13.417-6.596 20.033-1.215.873-2.432 1.749-3.645 2.624zM242.216 40.461c-8.266-3.425-16.463-1.968-24.646.354 8.287-6.25 18.083-6.39 24.646-.354zM250.087 47.284l-1.019-1.118 1.019 1.118zM247.594 44.674l-1.101-1.051 1.101 1.051zM246.365 43.516l-1.271-1.065 1.271 1.065z"/><path fill-rule="evenodd" clip-rule="evenodd" fill="#C3C7C2" d="M222.56 121.236l10.019 4.826-3.839.364c-1.977-1.362-3.952-2.725-5.927-4.087a1.614 1.614 0 0 1-.253-1.103z"/><path fill-rule="evenodd" clip-rule="evenodd" fill="#6A6D56" d="M237.844 125.138l4.705-2.557-4.705 2.557zM246.621 118.897l1.029-1.024-1.029 1.024zM247.879 117.646c.325-.369.652-.737.979-1.106-.328.368-.654.736-.979 1.106zM242.586 122.551l1.28-1.062-1.28 1.062zM244.016 121.383l1.131-1.04-1.131 1.04zM245.353 120.147c.35-.343.698-.687 1.046-1.03-.349.345-.697.688-1.046 1.03z"/><path fill-rule="evenodd" clip-rule="evenodd" fill="#F1CE02" d="M86.567 169.801c-.2-1.082-.398-2.165-.596-3.249-.283-.517-.568-1.033-.852-1.548a3.382 3.382 0 0 1-.283-1.08l.103-24.021 4.964-8.658 2.437-2.598.08-.072 1.145-1.159.1-.101 1.173-1.143.089-.08 1.235-1.143 1.337-1.187 2.488-1.277v-.001c5.652-2.257 11.341-4.426 16.915-6.861.866-.379 1.199-1.974 1.778-3.007a2.055 2.055 0 0 1 1.008-.336l20.397-.778c-10.432 5.323-21.218 10.063-31.203 16.125-11.582 7.03-18.286 24.262-13.354 39.274 2.393 7.283 6.342 14.056 9.587 21.061-1.726-.844-3.452-1.686-5.178-2.528-.419-.133-.839-.267-1.257-.397l-2.143-1.688s.063.1.06.102a540.617 540.617 0 0 1-1.261-1.221c-.438-.438-.874-.878-1.31-1.317 0 0 .116.072.113.074-.559-.72-1.115-1.441-1.671-2.163l-5.901-9.023z"/><path fill-rule="evenodd" clip-rule="evenodd" fill="#E8C704" d="M182.334 160.951c3.103-6.387 8.803-7.426 13.038-6.785 6.039.915 12.265 3.546 17.349 7.006 5.38 3.66 4.563 6.226-1.367 9.393-1.092.583-2.242 1.062-3.713 1.752-6.24-7.61-14.553-11.097-25.307-11.366z"/><path fill-rule="evenodd" clip-rule="evenodd" fill="#CBAE07" d="M115.923 148.599c4.632-4.685 11.361-2.258 17.266-1.972 5 .244 10.937 1.414 12.319 7.562.53 2.361-.908 5.884-2.626 7.852-2.209 2.531-4.75 1.151-7.494-.896-5.945-4.437-12.463-8.108-19.465-12.546z"/><path fill-rule="evenodd" clip-rule="evenodd" fill="#16160D" d="M132.987 202.826l4.283 1.385 8.479 2.415.36.106 5.003 2.135c.552.058 1.104.113 1.654.171l1.886.215c.88 1.475 1.761 2.948 2.644 4.423-2.013-.009-4.029-.019-6.045-.027-13.054-1.446-25.057-5.982-36.424-12.389 3.782.037 7.565.073 11.347.111l3.335.229c1.042.361 2.082.723 3.122 1.08-.002-.002.356.146.356.146z"/><path fill-rule="evenodd" clip-rule="evenodd" fill="#71611D" d="M238.91 190.342c-2.151 3.731-4.302 7.463-6.453 11.19-.957.696-1.915 1.396-2.872 2.097-4.79.023-6.479 1.815-6.765 8.319-.305 6.852-.152 13.725-.198 20.589-.44-4.621-1.177-9.234-1.27-13.86-.312-15.581-.297-15.638-15.094-11.171l-3.764 1.074-3.632.678c-.014-.449-.025-.897-.038-1.347 6.225-1.937 12.707-3.306 18.612-5.956 7.406-3.321 14.337-7.693 21.474-11.613z"/><path fill-rule="evenodd" clip-rule="evenodd" fill="#564B18" d="M126.174 201.371l-11.346-.111a1.87 1.87 0 0 1-1.025-.005l-4.177-3.607a1.399 1.399 0 0 1-.808-.026l-9.969-3.887-1.29-3.735 2.377-4.565 5.178 2.529 21.095 12.139-.035 1.268z"/><path fill-rule="evenodd" clip-rule="evenodd" fill="#6A6D56" d="M140.085 111.503l-20.397.778c1.965-6.81 8.049-5.012 12.752-6.102l5.11.143c2.45.781 4.901 1.562 7.352 2.345l6.318 1.303c-3.712.511-7.424 1.021-11.135 1.533z"/><path fill-rule="evenodd" clip-rule="evenodd" fill="#71611D" d="M166.244 210.034c10.011-.556 20.021-1.11 30.029-1.669-2.965 1.292-5.934 2.583-8.899 3.879-7.031.071-14.062.143-21.092.212l-.038-2.422z"/><path fill-rule="evenodd" clip-rule="evenodd" fill="#4D482B" d="M222.56 121.236c-.049.398.036.766.253 1.103l-11.594-1.065.018.007-1.795-.963-.378.021-.309-.218-4.954-3.752c-.44-1.213-.882-2.426-1.324-3.637l.393-1.213c3.223 1.553 6.446 3.104 9.671 4.655l.043.023 3.821 2.083 1.146.469c1.648.819 3.298 1.638 4.945 2.458l.064.029z"/><path fill-rule="evenodd" clip-rule="evenodd" fill="#564B18" d="M187.371 212.241c2.969-1.293 5.938-2.584 8.902-3.876.851-.15 1.702-.303 2.552-.454.013.449.024.897.038 1.345a9393.467 9393.467 0 0 0-10.047 4.236l-1.445-1.251z"/><path fill-rule="evenodd" clip-rule="evenodd" fill="#71611D" d="M151.112 208.867l-5.003-2.135 17.651 3.253-9.108-.732c-.629-.071-1.257-.143-1.887-.218l-1.653-.168z"/><path fill-rule="evenodd" clip-rule="evenodd" fill="#564B18" d="M154.652 209.253l9.108.732 2.484.049.036 2.422-8.987 1.22-2.641-4.423z"/><path fill-rule="evenodd" clip-rule="evenodd" fill="#71611D" d="M145.75 206.626l-8.479-2.415 8.479 2.415zM203.801 116.367l4.954 3.752-6.27-2.551c.44-.4.878-.8 1.316-1.201z"/><path fill-rule="evenodd" clip-rule="evenodd" fill="#6A6D56" d="M153.738 109.666l1.111-.978c2.484.377 4.97.753 7.453 1.131l-8.564-.153z"/><path fill-rule="evenodd" clip-rule="evenodd" fill="#71611D" d="M126.174 201.371l.036-1.27c1.1.499 2.2.998 3.3 1.499l-3.336-.229zM209.441 120.317l1.795.963-1.795-.963zM132.987 202.826s-.358-.148-.356-.146c.119.05.238.098.356.146z"/><path fill-rule="evenodd" clip-rule="evenodd" fill="#5B5D4F" d="M229.584 203.628l2.873-2.096c1.269-.038 2.537-.078 3.805-.118-.355 4.245-.714 8.489-1.071 12.73-.141.74-.279 1.485-.417 2.229l-6.115-2.788c.307-3.319.616-6.638.925-9.957z"/><path fill-rule="evenodd" clip-rule="evenodd" fill="#4D482B" d="M87.766 61.166c.825 1.276 2.271 2.506 2.372 3.839.536 7.087.609 14.21 1.141 21.299.127 1.692 1.39 3.297 2.131 4.942l12.842 19.983-7.154-.146c-9.184-9.342-12.335-21.091-12.808-33.645-.203-5.397.942-10.846 1.476-16.272z"/><path fill-rule="evenodd" clip-rule="evenodd" fill="#71611D" d="M100.123 113.725c2.421 2.843 1.787 3.718-3.707 5.118l3.707-5.118zM91.321 122.716l-3.079 1.907c1.025-.638 2.052-1.272 3.079-1.907zM94.968 119.932l-2.91 2.29c.97-.764 1.94-1.528 2.91-2.29z"/><path fill-rule="evenodd" clip-rule="evenodd" fill="#FAFAF9" d="M106.251 111.229L93.409 91.246c-3.526-14.055-2.318-27.783 2.838-41.24L98.659 45c.32-.139.423-.374.309-.704l1.964-3.083c.374-.146.548-.42.523-.82l2.764-3.644-.016-.039c.408-.448.817-.892 1.226-1.338l.034.006 1.063-1.276.045-.046 12.403-7.495c2.006-.519 4.018-1.043 6.028-1.565 14.278-.103 22.49 7.04 27.217 19.026.81 2.051 1.868 4.002 2.812 6.001-.028 1.019-.331 2.124-.044 3.045 2.506 8.049 3.366 16.108 1.02 24.385-1.401 4.941-2.446 9.984-3.652 14.98l.1-.082c-.367.05-.726.132-1.079.245-.928-1.265-2.066-2.424-2.747-3.81-2.585-5.26-6.242-8.261-12.572-7.806-5.346.385-7.777 3.664-10.331 7.676-2.716 4.268.225 6.912 1.946 9.969 1.459 2.59 3.168 5.04 4.767 7.552-4.703 1.09-10.788-.708-12.752 6.102a2.032 2.032 0 0 0-1.007.336c-3.312-4.28-7.369-1.602-11.183-1.201-.414-.06-.83-.122-1.246-.185z"/><path fill-rule="evenodd" clip-rule="evenodd" fill="#71611D" d="M107.498 111.416c3.813-.4 7.871-3.079 11.183 1.201-.58 1.033-.913 2.628-1.779 3.007-5.573 2.435-11.263 4.604-16.915 6.861 1.967-1.586 3.727-3.612 5.948-4.658 3.544-1.667 3.432-3.694 1.563-6.411zM92.34 128.647l-2.437 2.598 2.437-2.598zM79.998 150.001l.225 6.182c-.074-2.061-.15-4.121-.225-6.182zM99.987 122.486l-2.488 1.277c.829-.426 1.659-.85 2.488-1.277zM96.162 124.95l-1.235 1.143 1.235-1.143zM94.838 126.173l-1.173 1.143 1.173-1.143zM93.565 127.416l-1.145 1.159 1.145-1.159zM80.352 157.114l.877 1.646-.877-1.646z"/><path fill-rule="evenodd" clip-rule="evenodd" fill="#292922" d="M152.356 92.434c1.206-4.997 2.251-10.039 3.652-14.98 2.346-8.276 1.486-16.335-1.02-24.385-.287-.921.016-2.026.044-3.045l3.589.023c4.35 14.05 2.992 27.756-2.495 41.212l-3.77 1.175z"/><path fill-rule="evenodd" clip-rule="evenodd" fill="#6A6D56" d="M118.979 26.559l-12.408 7.498c1.846-6.291 7.262-6.672 12.408-7.498zM125.002 24.996l-6.032 1.569c2.011-.523 4.022-1.045 6.032-1.569zM106.526 34.103l-1.063 1.276-.396-1.437c.487.055.974.108 1.459.161zM104.219 36.749l-2.764 3.644c-1.597-3.125-1.142-4.694 2.764-3.644zM98.659 45l-2.412 5.006L98.659 45zM100.932 41.213c-.655 1.028-1.31 2.054-1.964 3.083l1.964-3.083zM105.429 35.372c-.409.446-.818.89-1.226 1.338l1.226-1.338z"/><path fill-rule="evenodd" clip-rule="evenodd" fill="#B2B5A3" d="M132.44 106.179c-1.598-2.512-3.307-4.962-4.767-7.552-1.721-3.057-4.662-5.701-1.946-9.969 2.554-4.012 4.985-7.291 10.331-7.676 6.33-.455 9.986 2.545 12.572 7.806.681 1.385 1.819 2.545 2.747 3.81-.071.376-.058.75.041 1.119l-2.765 6.071-11.103 6.535c-1.703-.049-3.406-.096-5.11-.144zm4.538-22.829c-5.469.014-8.897 3.541-8.759 9.014.131 5.226 4.04 9.285 8.93 9.275 4.676-.011 8.978-4.944 8.873-10.173-.102-4.976-3.618-8.13-9.044-8.116z"/><path fill-rule="evenodd" clip-rule="evenodd" fill="#363832" d="M137.551 106.322l11.103-6.535c-1.25 2.96-2.499 5.92-3.75 8.879l-7.353-2.344z"/><path fill-rule="evenodd" clip-rule="evenodd" fill="#292922" d="M151.418 93.717a2.489 2.489 0 0 1-.041-1.119 6.336 6.336 0 0 1 1.079-.245l-1.038 1.364z"/><path fill-rule="evenodd" clip-rule="evenodd" fill="#16160D" d="M188.816 213.491c3.35-1.413 6.698-2.826 10.047-4.235l3.632-.674 3.764-1.076c14.797-4.467 14.781-4.41 15.094 11.171.093 4.626.829 9.239 1.27 13.858.13.301.189.615.181.943v6.846c.812.472 1.453.846 2.096 1.217l-2.039 12.283-1.894-.095-3.327-3.979-2.531-2.895c-.109-1.914-.221-3.827-.33-5.738.219-1.536.437-3.07.653-4.605l.678-1.54c-.416-5.822-.833-11.646-1.247-17.467l.651-1.837-4.46 1.537c-1.32.689-2.64 1.379-3.959 2.07l-2.391.605c-4.041.508-8.083 1.014-12.125 1.521l-7.527-.223a13.632 13.632 0 0 0-1.125-.129c-.574-3.942-.381-7.393 4.889-7.558z"/><path fill-rule="evenodd" clip-rule="evenodd" fill="#4F5F60" d="M183.928 221.049c.376.029.75.073 1.123.132l7.527.222c4.042-.508 8.084-1.014 12.127-1.523l-7.342 5.084-10.422 6.799c2.786 5.212 5.54 10.369 8.295 15.528-1.744 2.987-3.49 5.973-5.236 8.96-2.889-2.074-5.778-4.146-8.665-6.22-.452-5.534-.859-11.073-1.372-16.603-.221-2.404-.654-4.791-.99-7.187-.031-.85-.064-1.698-.097-2.548.38-1.653.761-3.309 1.139-4.964l3.913 2.32z"/><path fill-rule="evenodd" clip-rule="evenodd" fill="#868877" d="M195.236 247.29c-2.755-5.159-5.509-10.316-8.295-15.528l10.422-6.799 8.951 2.461c-2.071.006-4.175-.223-6.206.065-4.089.581-8.112 6.067-7.509 9.924.66 4.209 5.165 7.596 9.748 6.157 2.977-.934 7.124-3.582 7.508-5.981.498-3.116-2.218-6.749-3.551-10.158l5.868 1.421 1.39-1.373c-2.157-2.736-4.313-5.471-6.471-8.205 1.321-.689 2.641-1.379 3.962-2.067 1.27.1 2.538.198 3.808.299.414 5.821.831 11.645 1.248 17.466l-.679 1.541-.653 4.605c-5.179 6.276-11.965 7.471-19.541 6.172z"/><path fill-rule="evenodd" clip-rule="evenodd" fill="#B8120C" d="M257.284 245.336l-2.188 3.529c-3.495.461-7.666 2.344-10.33 1.07-4.641-2.216-5.546-7.346-4.551-12.447.153-.232.233-.487.239-.765l1.068-1.462.01.036c1.148-.405 2.363-.685 3.438-1.236 6.997-3.594 11.195-1.182 11.473 6.553.056 1.582.549 3.148.841 4.722z"/><path fill-rule="evenodd" clip-rule="evenodd" fill="#C3C7C2" d="M240.455 236.724a1.423 1.423 0 0 1-.24.766c-3.729 7.873-.475 14.167 8.709 16.848-.862 1.095-1.725 2.188-2.586 3.284-.371.121-.736.258-1.096.406-.465.271-.927.546-1.389.819-.373.157-.746.317-1.118.478-.458.245-.915.491-1.373.738l-.084.053-2.499 1.209c-.321.122-.636.258-.947.406-2.613.13-5.225.263-7.837.395 2.251-5.258 2.363-10.162-2.358-14.268.02-.533.038-1.066.057-1.6 3.65 2.452 5.797.413 7.317-2.666 1.151-2.333 2.889-5.095-1.477-6.25a2.181 2.181 0 0 0-.019-1.175s.17-.11.17-.108c.455-.351.91-.701 1.367-1.051.346-.124.682-.27 1.011-.434.435-.291.868-.584 1.301-.875l.115-.082 2.38-1.211s.119-.057.119-.055c.518.982 1.036 1.965 1.555 2.946l-.011-.036c-.356.486-.711.974-1.067 1.463z"/><path fill-rule="evenodd" clip-rule="evenodd" fill="#868877" d="M229.995 262.125c2.612-.132 5.224-.265 7.837-.395-4.659 2.936-8.993 6.82-14.062 8.567-6.787 2.339-10.748-.973-14.215-9.952-2.365-6.123-.002-11.301 5.554-13.49.843.965 1.687 1.929 2.529 2.896-7.05 7.169-6.628 10.276 1.493 15.283 4.93 3.038 7.601-.64 10.864-2.909zM241.533 235.298c-.519-.981-1.037-1.964-1.555-2.946 9.125-5.762 13.313-4.951 21.117 4.085-.711 3.206 2.586 8.128-3.812 8.896-.292-1.571-.785-3.137-.841-4.719-.277-7.734-4.476-10.146-11.473-6.553-1.073.552-2.287.832-3.436 1.237zM246.338 257.621c.861-1.096 1.724-2.189 2.586-3.284-9.184-2.681-12.438-8.975-8.709-16.848-.994 5.101-.089 10.23 4.552 12.446 2.664 1.273 6.835-.609 10.33-1.07.405 6.244-3.634 8.043-8.759 8.756z"/><path fill-rule="evenodd" clip-rule="evenodd" fill="#4F5F60" d="M189.344 257.206c2.892-1.856 4.879-3.133 7.786-4.997-.472 4.587-.853 8.26-1.232 11.933-.5.28-.999.56-1.501.839l-5.053-7.775z"/><path fill-rule="evenodd" clip-rule="evenodd" fill="#868877" d="M209.438 266.207c-2.459 2.068-3.855 3.472-5.514 4.409-.271.153-2.605-2.009-2.421-2.656.43-1.513 1.562-3.274 2.896-3.915.845-.403 2.572 1.031 5.039 2.162zM238.779 261.324l2.499-1.209-2.499 1.209zM241.362 260.062c.458-.247.915-.493 1.373-.738-.456.247-.914.492-1.373.738zM243.854 258.847c.462-.273.924-.548 1.389-.819l-1.389.819z"/><path fill-rule="evenodd" clip-rule="evenodd" fill="#B8120C" d="M229.995 262.125c-3.263 2.269-5.935 5.947-10.864 2.909-8.121-5.007-8.543-8.114-1.493-15.283 1.11 1.325 2.22 2.652 3.328 3.979l1.894.095 2.039-12.283c.91 2.104 1.821 4.206 2.736 6.312 4.723 4.109 4.611 9.013 2.36 14.271z"/><path fill-rule="evenodd" clip-rule="evenodd" fill="#C3C7C2" d="M222.803 233.479a2.194 2.194 0 0 0-.181-.943c.046-6.862-.106-13.735.198-20.587.286-6.504 1.975-8.296 6.765-8.319-.31 3.318-.619 6.637-.927 9.957l-.029.18-.65 2.596-.816 12.231c-1.455 1.627-2.907 3.257-4.36 4.885z"/><path fill-rule="evenodd" clip-rule="evenodd" fill="#16160D" d="M227.162 228.593c.271-4.077.544-8.154.816-12.23l.65-2.597.029-.18 6.115 2.787c-1.139 3.705-2.275 7.41-3.415 11.115l-4.195 1.105z"/><path fill-rule="evenodd" clip-rule="evenodd" fill="#B2B5A3" d="M231.358 227.488c1.14-3.705 2.276-7.41 3.415-11.115.138-.743.276-1.488.417-2.229 5.055 1.293 5.349 5.288 4.569 9.18-.903 4.503-4.731 4.496-8.401 4.164z"/><path fill-rule="evenodd" clip-rule="evenodd" fill="#D2D5D3" d="M233.534 237.342c4.365 1.155 2.628 3.917 1.477 6.25-1.521 3.079-3.667 5.118-7.317 2.666l-.13-3.616.883-1.454s.19-.279.191-.278c.299-.362.599-.728.897-1.091l2.807-2.688c.381.17.778.24 1.192.211z"/><path fill-rule="evenodd" clip-rule="evenodd" fill="#868877" d="M239.859 232.406l-2.38 1.211c.793-.404 1.587-.806 2.38-1.211zM228.446 241.188l-.883 1.454.883-1.454zM229.535 239.818l-.897 1.091.897-1.091zM233.534 237.342a2.457 2.457 0 0 1-1.192-.211l1.176-.964c.111.39.117.781.016 1.175zM235.053 235.008zM237.364 233.699c-.433.291-.866.584-1.301.875.433-.293.867-.585 1.301-.875z"/><path fill-rule="evenodd" clip-rule="evenodd" fill="#C3C7C2" d="M212.54 116.173c-3.225-1.551-6.448-3.103-9.671-4.655-4.235-3.211-7.381-7.072-7.587-12.688.374-.04.748-.068 1.124-.085l2.351 1.256c1.985 8.453 4.862 10.792 13.687 11.127l.096 5.045z"/><path fill-rule="evenodd" clip-rule="evenodd" fill="#B2B5A3" d="M197.407 71.207c-.24.551-.481 1.1-.719 1.65.242-.548.48-1.099.719-1.65zM198.543 67.423l-.683 1.644.683-1.644z"/><path fill-rule="evenodd" clip-rule="evenodd" fill="#868877" d="M180.015 218.729c-.378 1.655-.759 3.311-1.139 4.964-2.497-.873-4.991-1.748-7.488-2.62-.905-.298-1.81-.596-2.716-.896-.799-.056-1.598-.111-2.396-.168l-4.972-.486-2.226-.049-6.729-1.705-7.237-.454-3.9-.995c-7.369-2.496-14.774-4.891-22.091-7.531-3.677-1.328-7.074-3.759-10.825-4.445-2.536-.466-5.47 1.238-8.227 1.973-1.424-7.268 4.786-6.852 8.75-8.695.266.089.536.098.81.026a2398.04 2398.04 0 0 1 4.175 3.607 1.87 1.87 0 0 0 1.025.005c11.366 6.406 23.369 10.942 36.422 12.389 2.382.442 4.762.903 7.148 1.322 7.205 1.26 14.412 2.506 21.616 3.758z"/><path fill-rule="evenodd" clip-rule="evenodd" fill="#363832" d="M91.166 233.569l5.94-6.166-2.071-8.624.509-.559-.569.498-5.187 5.153c-.304-1.63-.521-2.802-.743-3.971.752-1.173 1.506-2.348 2.261-3.522l8.979-2.786c.315.38.63.758.946 1.133a.691.691 0 0 0 .512.397c.332.08.549.282.652.607.164.354.438.573.822.651l.501-.104-1.172 12.465-.058.058-1.268 1.138-.044.015-8.712 3.751-1.298-.134z"/><path fill-rule="evenodd" clip-rule="evenodd" fill="#D2D5D3" d="M159.078 219.475c.742.017 1.484.033 2.226.053.405.553.811 1.103 1.218 1.652l1.222 7.428c-1.127.107-2.254.216-3.382.322-.953-.068-1.905-.139-2.857-.207.476-3.741-1.04-5.231-4.911-5.069-2.405.101-5.066-.343-7.187-1.397-1.043-.519-1.121-2.98-1.636-4.565.448-.127.894-.25 1.342-.375 2.412.151 4.825.303 7.237.452 2.242.567 4.485 1.136 6.728 1.706z"/><path fill-rule="evenodd" clip-rule="evenodd" fill="#4D482B" d="M108.819 197.621c-3.963 1.844-10.174 1.428-8.75 8.695-.049.41-.162.802-.34 1.175l-3.701-2.766a.912.912 0 0 1 .115-.834l.136-1.295 2.57-8.862 9.97 3.887z"/><path fill-rule="evenodd" clip-rule="evenodd" fill="#5B5D4F" d="M96.028 204.726l3.702 2.766.555 6.103-8.979 2.784-2.36-.198c.297-1.229.593-2.459.891-3.688l3.84-2.539 2.351-5.228z"/><path fill-rule="evenodd" clip-rule="evenodd" fill="#B2B5A3" d="M102.546 228.742l1.172-12.465c3.824 4.375 3.428 8.58-1.172 12.465z"/><path fill-rule="evenodd" clip-rule="evenodd" fill="#C3C7C2" d="M123.938 231.337l-4.423 3.938-1.611-3.978 6.187-1.155c-.09.394-.14.792-.153 1.195z"/><path fill-rule="evenodd" clip-rule="evenodd" fill="#4D482B" d="M123.938 231.337c.013-.403.063-.801.152-1.194l6.047-1.691-6.199 2.885z"/><path fill-rule="evenodd" clip-rule="evenodd" fill="#C3C7C2" d="M141.153 228.932l-.608.029-.607-.049-.885-2.215c.699.744 1.399 1.491 2.1 2.235z"/><path fill-rule="evenodd" clip-rule="evenodd" fill="#B2B5A3" d="M145.112 217.315c-.448.125-.894.248-1.342.375-.853-.455-1.705-.913-2.558-1.37l3.9.995z"/><path fill-rule="evenodd" clip-rule="evenodd" fill="#C3C7C2" d="M157.504 228.723c.952.068 1.904.139 2.857.207-.963.319-1.927.639-2.892.957.007-.389.019-.776.035-1.164zM154.075 231.381l-1.538 1.047c.513-.349 1.025-.699 1.538-1.047zM141.271 229.998l-.188-1.166c.062.388.124.776.188 1.166z"/><path fill-rule="evenodd" clip-rule="evenodd" fill="#B2B5A3" d="M101.22 229.938l1.268-1.138c-.423.38-.845.76-1.268 1.138z"/><path fill-rule="evenodd" clip-rule="evenodd" fill="#5B5D4F" d="M103.217 216.382a1.101 1.101 0 0 1-.822-.651l.822.651zM101.743 215.123a.696.696 0 0 1-.512-.397c.17.135.341.265.512.397z"/><path fill-rule="evenodd" clip-rule="evenodd" fill="#C3C7C2" d="M152.402 232.529c.016.411.081.815.195 1.211l-.122.096c-.396-.14-.793-.277-1.188-.418l1.115-.889z"/><path fill-rule="evenodd" clip-rule="evenodd" fill="#16160D" d="M72.275 241.382l-1.302-8.806c8.089-2.59 4.477 5.465 8.824 8.215l-7.522.591zM60.551 214.276c.362.074.715.177 1.062.309l8.028 11.338c-2.385.147-4.175.258-5.965.367l-1.342-1.048c-.565-2.557-1.132-5.111-1.698-7.666l-.085-3.3z"/><path fill-rule="evenodd" clip-rule="evenodd" fill="#B2B5A3" d="M162.521 221.18c-.407-.55-.812-1.1-1.218-1.652 1.658.159 3.315.32 4.972.482-1.251.389-2.503.779-3.754 1.17zM168.672 220.178c.906.3 1.811.598 2.716.896-.905-.301-1.81-.597-2.716-.896z"/><path fill-rule="evenodd" clip-rule="evenodd" fill="#16160D" d="M152.597 233.74c2.56-.727 5.082-1.742 7.691-2.08 1.839-.238 3.796.443 5.752.721l-10.625 11.557-1.178-.869 2.656-5.648-.662-.824-6.262 5.543c-.387-.177-.774-.354-1.162-.529l3.669-7.775.121-.096z"/><path fill-rule="evenodd" clip-rule="evenodd" fill="#363832" d="M60.637 217.576c.566 2.555 1.133 5.109 1.698 7.666l-1.698-7.666z"/><path fill-rule="evenodd" clip-rule="evenodd" fill="#C3C7C2" d="M93.676 209.953l-3.84 2.539-.122-13.689.023-5.098.032-2.396c1.847-.645 1.325-6.109 5.229-2.569-.684.392-1.971.796-1.964 1.176.12 6.681.398 13.359.642 20.037z"/><path fill-rule="evenodd" clip-rule="evenodd" fill="#4D482B" d="M88.945 216.18l2.36.198-2.26 3.523c-.031-1.241-.066-2.481-.1-3.721zM89.737 193.705l-.023 5.098.023-5.098z"/><path fill-rule="evenodd" clip-rule="evenodd" fill="#D2D5D3" d="M93.676 209.953c-.244-6.678-.521-13.356-.642-20.037-.007-.38 1.28-.784 1.964-1.176l2.562 1.259 1.29 3.735-2.57 8.862c-.11.124-.315.251-.312.372.009.309.111.615.176.923a.912.912 0 0 0-.115.834l-2.353 5.228z"/><path fill-rule="evenodd" clip-rule="evenodd" fill="#564B18" d="M92.468 178.824c.556.722 1.112 1.443 1.671 2.163-.555-.722-1.113-1.442-1.671-2.163zM96.536 183.35zM94.025 180.913c.436.439.872.879 1.31 1.317-.435-.439-.872-.878-1.31-1.317z"/><path fill-rule="evenodd" clip-rule="evenodd" fill="#564B18" d="M95.268 182.163c.442.43.884.859 1.328 1.288-.441-.431-.884-.859-1.328-1.288z"/><path fill-rule="evenodd" clip-rule="evenodd" fill="#CBAE07" d="M85.119 165.004c.284.515.569 1.031.852 1.548l-.852-1.548z"/><path fill-rule="evenodd" clip-rule="evenodd" fill="#292922" d="M212.443 111.127c-8.824-.335-11.701-2.674-13.687-11.127 1.354-5.933 5.124-8.803 11.151-8.497 4.794.243 8.416 2.365 9.525 7.357 1.36 6.108-1.723 9.848-6.989 12.267z"/><path fill-rule="evenodd" clip-rule="evenodd" fill="#C3C7C2" d="M222.496 121.205l-4.945-2.458 4.945 2.458zM216.404 118.279l-3.821-2.083 3.821 2.083z"/><path fill-rule="evenodd" clip-rule="evenodd" fill="#363832" d="M180.015 218.729c-7.204-1.253-14.411-2.498-21.615-3.759-2.387-.419-4.766-.88-7.148-1.322l6.045.027 8.985-1.22c7.031-.069 14.062-.141 21.093-.212l1.442 1.248c-5.271.164-5.464 3.615-4.891 7.559-1.302-.775-2.608-1.548-3.911-2.321z"/><path fill-rule="evenodd" clip-rule="evenodd" fill="#564B18" d="M151.112 208.867c.55.057 1.101.111 1.653.168-.549-.055-1.101-.11-1.653-.168zM206.259 207.506l-3.764 1.076 3.764-1.076z"/><path fill-rule="evenodd" clip-rule="evenodd" fill="#4D482B" d="M113.804 201.255z"/><path fill-rule="evenodd" clip-rule="evenodd" fill="#16160D" d="M136.978 83.35c5.427-.014 8.943 3.141 9.043 8.115.105 5.229-4.197 10.162-8.873 10.173-4.89.01-8.798-4.049-8.93-9.275-.137-5.472 3.29-9 8.76-9.013z"/><path fill-rule="evenodd" clip-rule="evenodd" fill="#C3C7C2" d="M206.314 227.424l-8.951-2.461 7.342-5.084c.795-.2 1.593-.401 2.389-.604l6.469 8.203-1.39 1.373-5.868-1.421.009-.006z"/><path fill-rule="evenodd" clip-rule="evenodd" fill="#435756" d="M214.861 217.505c-1.27-.101-2.538-.199-3.808-.299l4.459-1.538-.651 1.837z"/><path fill-rule="evenodd" clip-rule="evenodd" fill="#363832" d="M192.578 221.402c-2.51-.073-5.019-.147-7.527-.222l7.527.222z"/><path fill-rule="evenodd" clip-rule="evenodd" fill="#435756" d="M215.431 236.512l.679-1.541c-.227.513-.454 1.027-.679 1.541z"/><path fill-rule="evenodd" clip-rule="evenodd" fill="#B8120C" d="M206.305 227.431c1.333 3.409 4.049 7.042 3.551 10.158-.384 2.399-4.531 5.048-7.508 5.981-4.583 1.438-9.088-1.948-9.748-6.157-.604-3.856 3.42-9.343 7.509-9.924 2.031-.288 4.135-.06 6.206-.065l-.01.007z"/><path fill-rule="evenodd" clip-rule="evenodd" fill="#868877" d="M240.455 236.724c.355-.488.711-.977 1.067-1.462l-1.067 1.462z"/><path fill-rule="evenodd" clip-rule="evenodd" fill="#5B5D4F" d="M228.629 213.766z"/><path fill-rule="evenodd" clip-rule="evenodd" fill="#B2B5A3" d="M159.078 219.475c-2.243-.569-4.485-1.139-6.729-1.707l6.729 1.707z"/><path fill-rule="evenodd" clip-rule="evenodd" fill="#16160D" d="M94.975 218.719l.569-.498-.509.559a1.726 1.726 0 0 0-.06-.061z"/><path fill-rule="evenodd" clip-rule="evenodd" fill="#5B5D4F" d="M96.144 203.892c-.065-.308-.167-.614-.176-.923-.003-.121.202-.248.312-.372l-.136 1.295z"/></svg>
