<svg xmlns="http://www.w3.org/2000/svg" viewBox="0 0 320 320"><g><text transform="matrix(1 0 0 1 19 261.7344)"><tspan x="0" y="0" fill="#727376" font-family="'MyriadPro-Regular'" font-size="106.5">py</tspan><tspan x="110.758" y="0" fill="#0999D7" font-family="'MyriadPro-Regular'" font-size="106.5">test</tspan></text><g><rect x="114" y="38" fill="#099DDD" width="19" height="4"/><rect x="140.5" y="38" fill="#C9D244" width="19" height="4"/><rect x="165" y="38" fill="#D57D36" width="19" height="4"/><rect x="189.5" y="38" fill="#BF2E23" width="19" height="4"/><rect x="114" y="62" fill="#099DDD" width="19" height="98"/><rect x="140" y="62" fill="#C9D244" width="20" height="78"/><rect x="165" y="62" fill="#D57D36" width="19" height="49"/><rect x="191" y="62" fill="#BF2E23" width="16" height="31"/><path fill="#67686A" d="M213,52c0,2.761-2.238,5-5,5h-94c-2.761,0-5-2.239-5-5l0,0c0-2.761,2.239-5,5-5h94 C210.762,47,213,49.239,213,52L213,52z"/></g></g></svg>
