<svg xmlns="http://www.w3.org/2000/svg" width="320" height="320" viewBox="0 0 320 320"><path fill="#61dafb" d="M305.3 160.5c0-19.1-23.9-37.2-60.6-48.5 8.5-37.4 4.7-67.1-11.9-76.7 -3.8-2.2-8.3-3.3-13.2-3.3v13.1c2.7 0 4.9 0.5 6.7 1.5 8 4.6 11.5 22.1 8.8 44.5 -0.6 5.5-1.7 11.3-3 17.3 -11.5-2.8-24.1-5-37.3-6.4 -7.9-10.9-16.2-20.8-24.5-29.4 19.2-17.8 37.2-27.6 49.4-27.6V32l0 0c-16.2 0-37.3 11.5-58.7 31.5 -21.4-19.9-42.6-31.3-58.7-31.3v13.1c12.2 0 30.2 9.7 49.4 27.4 -8.2 8.6-16.5 18.5-24.3 29.3 -13.3 1.4-25.9 3.6-37.4 6.5 -1.4-5.9-2.4-11.6-3.1-17.1 -2.8-22.5 0.6-39.9 8.6-44.6 1.8-1.1 4.1-1.5 6.8-1.5V32.3l0 0c-4.9 0-9.4 1.1-13.3 3.3 -16.5 9.5-20.2 39.2-11.7 76.5 -36.6 11.3-60.4 29.3-60.4 48.4 0 19.1 23.9 37.2 60.6 48.5 -8.5 37.4-4.7 67.1 11.9 76.7 3.8 2.2 8.3 3.3 13.2 3.3 16.2 0 37.3-11.5 58.7-31.5 21.4 19.9 42.6 31.3 58.7 31.3 4.9 0 9.4-1.1 13.3-3.3 16.5-9.5 20.2-39.2 11.7-76.5C281.4 197.6 305.3 179.5 305.3 160.5zM228.7 121.2c-2.2 7.6-4.9 15.4-7.9 23.2 -2.4-4.7-4.9-9.4-7.7-14.1 -2.7-4.7-5.6-9.3-8.5-13.8C212.9 117.8 221 119.4 228.7 121.2zM201.8 183.9c-4.6 7.9-9.3 15.5-14.2 22.5 -8.8 0.8-17.6 1.2-26.6 1.2 -8.9 0-17.8-0.4-26.5-1.1 -4.9-7-9.6-14.5-14.2-22.3 -4.5-7.7-8.5-15.5-12.2-23.4 3.6-7.9 7.8-15.8 12.2-23.5 4.6-7.9 9.3-15.5 14.2-22.5 8.8-0.8 17.6-1.2 26.6-1.2 8.9 0 17.8 0.4 26.5 1.1 4.9 7 9.6 14.5 14.2 22.3 4.5 7.7 8.5 15.5 12.2 23.4C210.2 168.3 206.2 176.2 201.8 183.9zM220.8 176.2c3.2 7.9 5.9 15.8 8.1 23.4 -7.7 1.9-15.8 3.5-24.2 4.7 2.9-4.5 5.8-9.2 8.5-13.9C215.8 185.7 218.3 180.9 220.8 176.2zM161.1 239c-5.5-5.6-10.9-11.9-16.3-18.8 5.3 0.2 10.7 0.4 16.2 0.4 5.5 0 11-0.1 16.3-0.4C172 227 166.5 233.3 161.1 239zM117.4 204.3c-8.3-1.2-16.4-2.8-24.1-4.6 2.2-7.6 4.9-15.4 7.9-23.2 2.4 4.7 4.9 9.4 7.7 14.1C111.7 195.3 114.5 199.9 117.4 204.3zM160.8 82c5.5 5.6 10.9 11.9 16.3 18.8 -5.3-0.2-10.7-0.4-16.2-0.4 -5.5 0-11 0.1-16.3 0.4C150 93.9 155.4 87.6 160.8 82zM117.3 116.6c-2.9 4.5-5.8 9.2-8.5 13.9 -2.7 4.7-5.2 9.4-7.6 14.1 -3.2-7.9-5.9-15.8-8.1-23.4C100.8 119.4 108.9 117.8 117.3 116.6zM64.1 190.2c-20.8-8.9-34.3-20.5-34.3-29.8 0-9.2 13.5-20.9 34.3-29.8 5.1-2.2 10.6-4.1 16.3-5.9 3.4 11.5 7.8 23.5 13.2 35.8 -5.4 12.2-9.8 24.2-13.1 35.6C74.8 194.4 69.2 192.4 64.1 190.2zM95.8 274.2c-8-4.6-11.5-22.1-8.8-44.5 0.6-5.5 1.7-11.3 3-17.3 11.5 2.8 24.1 5 37.3 6.4 7.9 10.9 16.2 20.8 24.5 29.4 -19.2 17.8-37.2 27.6-49.4 27.6C99.8 275.8 97.5 275.2 95.8 274.2zM235.2 229.4c2.8 22.5-0.6 39.9-8.6 44.6 -1.8 1.1-4.1 1.5-6.8 1.5 -12.2 0-30.2-9.7-49.4-27.4 8.2-8.6 16.5-18.5 24.3-29.3 13.3-1.4 25.9-3.6 37.4-6.5C233.5 218.3 234.6 224 235.2 229.4zM257.9 190.2c-5.1 2.2-10.6 4.1-16.3 5.9 -3.4-11.5-7.8-23.5-13.2-35.8 5.4-12.2 9.8-24.2 13.1-35.6 5.8 1.8 11.3 3.8 16.5 6 20.8 8.9 34.3 20.5 34.3 29.8C292.1 169.7 278.7 181.4 257.9 190.2z"/><path fill="#61dafb" d="M102.1 32.2L102.1 32.2 102.1 32.2z"/><circle fill="#61dafb" cx="161" cy="160.5" r="26.9"/><path fill="#61dafb" d="M219.5 32L219.5 32 219.5 32z"/></svg>

