<svg xmlns="http://www.w3.org/2000/svg" viewBox="0 0 311.3 278.1"><circle cx="156.8" cy="139" r="139" fill="#EDF3F7"/><defs></defs><mask id="scrum-icon-mask1" maskUnits="userSpaceOnUse" x="649.2" y="153.5" width="211.6" height="218.5"><g filter="url(#scrum-icon-filter1)"><linearGradient id="scrum-icon-filter2" gradientUnits="userSpaceOnUse" x1="746" y1="259.8" x2="789.4" y2="310.5"><stop offset="0" stop-color="#FFF"/><stop offset="1" stop-color="#000"/></linearGradient><path d="M860.7 236.6l-79.6-83h-132v132l2.2 20.9 61.3 65.3c3 0.2 6.1 0.3 9.1 0.3C797.4 372.1 858.9 311.7 860.7 236.6z" fill="url(#scrum-icon-filter2)"/></g></mask><path mask="url(#scrum-icon-mask1)" d="M860.7 236.6l-79.6-83h-132v132l2.2 20.9 61.3 65.3c3 0.2 6.1 0.3 9.1 0.3C797.4 372.1 858.9 311.7 860.7 236.6z" fill="#A7C0CE" opacity="0.6"/><defs></defs><mask id="scrum-icon-mask2" maskUnits="userSpaceOnUse" x="50.6" y="59.6" width="241.1" height="218.5"><g filter="url(#scrum-icon-filter3)"><linearGradient id="scrum-icon-gradient1" gradientUnits="userSpaceOnUse" x1="185.1" y1="198.5" x2="224.1" y2="242"><stop offset="0" stop-color="#FFF"/><stop offset="1" stop-color="#000"/></linearGradient><path d="M291.7 170.3c-37.1-37.1-83.6-83.7-91-91 -7.7-7.6-17.2-13.4-27.7-16.6 -6.4-2-13.3-3.1-20.4-3.1 -1.1 0-2.1 0-3.2 0.1 -0.4 0-0.8 0.1-1.2 0.1 -0.6 0-1.3 0.1-1.9 0.1 -0.5 0-1 0.1-1.5 0.2 -0.5 0.1-1 0.1-1.4 0.2 -0.6 0.1-1.2 0.2-1.8 0.3 -0.3 0-0.5 0.1-0.8 0.1 -19.8 3.5-36.6 15.4-46.6 31.9l-19.7-8.8 11.3 29.7c-1 4.7-1.6 9.6-1.6 14.7 0 17.3 6.4 33 16.9 45H50.6v22.7l79.6 79.9c8.4 1.6 17.1 2.4 26 2.4C222.3 278.1 277.6 232 291.7 170.3z" fill="url(#scrum-icon-gradient1)"/></g></mask><path mask="url(#scrum-icon-mask2)" d="M291.7 170.3c-37.1-37.1-83.6-83.7-91-91 -7.7-7.6-17.2-13.4-27.7-16.6 -6.4-2-13.3-3.1-20.4-3.1 -1.1 0-2.1 0-3.2 0.1 -0.4 0-0.8 0.1-1.2 0.1 -0.6 0-1.3 0.1-1.9 0.1 -0.5 0-1 0.1-1.5 0.2 -0.5 0.1-1 0.1-1.4 0.2 -0.6 0.1-1.2 0.2-1.8 0.3 -0.3 0-0.5 0.1-0.8 0.1 -19.8 3.5-36.6 15.4-46.6 31.9l-19.7-8.8 11.3 29.7c-1 4.7-1.6 9.6-1.6 14.7 0 17.3 6.4 33 16.9 45H50.6v22.7l79.6 79.9c8.4 1.6 17.1 2.4 26 2.4C222.3 278.1 277.6 232 291.7 170.3z" fill="#A7C0CE" opacity="0.4"/><path d="M221.1 128.1c0-37.8-30.7-68.5-68.5-68.5 -37.8 0-68.5 30.7-68.5 68.5 0 37.8 30.7 68.5 68.5 68.5 3.5 0 6.9-0.3 10.2-0.8h90.9v-22.7h-49.5C214.7 161.1 221.1 145.3 221.1 128.1zM185 160.4c-6.5 6.5-14.8 11-24.1 12.7h-8.6v0.7c-12.5-0.1-23.8-5.2-32-13.4 -8.3-8.3-13.4-19.7-13.4-32.4 0-12.7 5.1-24.1 13.4-32.4 8.3-8.3 19.7-13.4 32.4-13.4 12.7 0 24.1 5.1 32.4 13.4 8.3 8.3 13.4 19.7 13.4 32.4C198.4 140.7 193.3 152.1 185 160.4z" fill="#2B96DE"/><linearGradient id="scrum-icon-gradient2" gradientUnits="userSpaceOnUse" x1="173.2" y1="124.8" x2="168.7" y2="170.8"><stop offset="0" stop-color="#2B96DE"/><stop offset="1" stop-color="#1D6993"/></linearGradient><path d="M152.6 59.6c-7.7 0-15.1 1.3-22 3.6v24.7c6.5-3.6 14-5.6 22-5.6 12.7 0 24.1 5.1 32.4 13.4 8.3 8.3 13.4 19.7 13.4 32.4 0 12.7-5.1 24.1-13.4 32.4 -6.5 6.5-14.8 11-24.1 12.7h43.3c10.5-12 16.9-27.8 16.9-45C221.1 90.2 190.5 59.6 152.6 59.6z" fill="url(#scrum-icon-gradient2)"/><rect x="50.6" y="173.1" width="128.9" height="22.7" fill="#2B96DE"/><linearGradient id="scrum-icon-gradient3" gradientUnits="userSpaceOnUse" x1="50.6" y1="184.5" x2="142.5" y2="184.5"><stop offset="0" stop-color="#2B96DE"/><stop offset="1" stop-color="#1D6993"/></linearGradient><path d="M101 173.1H50.6v22.7h91.8C126 193.4 111.5 185.1 101 173.1z" fill="url(#scrum-icon-gradient3)"/><polygon points="90.8 126.6 133.7 110.3 74.4 83.7 " fill="#2B96DE"/><polygon points="246.1 151.4 246 216.4 278.5 183.9 " fill="#2B96DE"/><linearGradient id="scrum-icon-gradient4" gradientUnits="userSpaceOnUse" x1="719.1" y1="335.6" x2="717.6" y2="281.6"><stop offset="0" stop-color="#90D62D"/><stop offset="1" stop-color="#5A9300"/></linearGradient><polygon points="650.2 285.5 652.4 306.5 780 306.5 782.2 285.8 782.2 168.2 650.2 168.2 " fill="url(#scrum-icon-gradient4)"/><linearGradient id="scrum-icon-gradient5" gradientUnits="userSpaceOnUse" x1="768.1" y1="299.8" x2="757.4" y2="283.3"><stop offset="0" stop-color="#5A9300"/><stop offset="0.0879" stop-color="#90D62D"/><stop offset="1" stop-color="#5A9300"/></linearGradient><rect x="650.2" y="153.5" width="132" height="132" fill="url(#scrum-icon-gradient5)"/><path d="M650.2 285.5c0 0 65 0 84.8 0 19.7 0 41.4-10.7 41.4-10.7s5.8-6.2 5.8-22.4c0-14.7 0-98.9 0-98.9h-132V285.5z" fill="#90D62D"/><linearGradient id="scrum-icon-gradient6" gradientUnits="userSpaceOnUse" x1="764.5" y1="277.6" x2="714.1" y2="209.7"><stop offset="0" stop-color="#76BC08"/><stop offset="0.0879" stop-color="#90D62D"/><stop offset="1" stop-color="#5A9300"/></linearGradient><path d="M672.2 181.3L672.2 181.3h-0.4v67.7l43.2 36.6h19.8c19.7 0 41.4-10.7 41.4-10.7s5.8-6.2 5.8-22.4v-47.3l-17.8-23.8H672.2z" fill="url(#scrum-icon-gradient6)" opacity="0.7"/><path d="M672.2 181.3h-0.4v67.7h5.1v-40.7h24.1v40.7h5.1v-40.7h24.1v40.7h5.1v-40.7h24.1v40.7h5.1v-67.7H672.2L672.2 181.3zM735.2 186.4h24.1v16.9H735.2V186.4zM706.1 186.4h24.1v16.9h-24.1V186.4zM676.9 186.4h24.1v16.9h-24.1V186.4z" fill="#FFF"/></svg>

