<svg xmlns="http://www.w3.org/2000/svg" viewBox="0 0 16 16"><g><linearGradient id="selenium-icon-gradient1" gradientUnits="userSpaceOnUse" x1="7.5986" y1="1.4419" x2="7.5986" y2="14.4785"><stop  offset="0" style="stop-color:#C7C7C7"/><stop  offset="1" style="stop-color:#1F1F1F"/></linearGradient><path fill="url(#selenium-icon-gradient1)" d="M3.3,14.5c-1.3,0-2.3-1-2.3-2.3V3.7c0-1.3,1-2.3,2.3-2.3h8.5c1.3,0,2.3,1,2.3,2.3v8.5c0,1.3-1,2.3-2.3,2.3H3.3 z"/><path fill="#404040" d="M11.8,1.7c1.1,0,2,0.9,2,2v8.5c0,1.1-0.9,2-2,2H3.3c-1.1,0-2-0.9-2-2V3.7c0-1.1,0.9-2,2-2H11.8 M11.8,1.2H3.3 C2,1.2,0.8,2.3,0.8,3.7v8.5c0,1.4,1.1,2.5,2.5,2.5h8.5c1.4,0,2.5-1.1,2.5-2.5V3.7C14.4,2.3,13.2,1.2,11.8,1.2L11.8,1.2z"/></g><path fill="f2f7f2" stroke="#404040" stroke-width="0.2107" stroke-miterlimit="10" d="M3.2,11.3c0,0.3,0.1,0.5,0.2,0.6c0.2,0.2,0.6,0.4,1,0.4c0.3,0,0.5,0,0.7-0.1c0.4-0.1,0.5-0.3,0.5-0.7 c0-0.2-0.1-0.3-0.3-0.5c-0.2-0.1-0.4-0.2-0.8-0.3L4,10.6c-0.6-0.1-1.1-0.3-1.3-0.5C2.3,9.9,2.1,9.5,2.1,8.9c0-0.5,0.2-1,0.6-1.3 c0.4-0.3,1-0.5,1.7-0.5C5,7.1,5.6,7.2,6,7.6C6.4,7.9,6.7,8.4,6.7,9H5.5c0-0.4-0.2-0.6-0.5-0.8C4.8,8.1,4.6,8.1,4.3,8.1 C4,8.1,3.7,8.2,3.5,8.3C3.3,8.4,3.2,8.6,3.2,8.8c0,0.2,0.1,0.4,0.3,0.5c0.1,0.1,0.4,0.2,0.8,0.2l1,0.2c0.5,0.1,0.8,0.2,1,0.4 c0.4,0.3,0.5,0.7,0.5,1.2c0,0.5-0.2,1-0.6,1.3c-0.4,0.4-1,0.5-1.8,0.5c-0.8,0-1.4-0.2-1.8-0.5C2.2,12.4,2,11.9,2,11.3H3.2z"/><path fill="f2f7f2" stroke="#404040" stroke-width="0.2107" stroke-miterlimit="10" d="M10.4,8.9c0.3,0.1,0.6,0.4,0.8,0.6c0.2,0.3,0.3,0.6,0.3,0.9c0,0.2,0,0.5,0,0.9H8.4c0,0.4,0.2,0.7,0.5,0.9 c0.2,0.1,0.4,0.2,0.6,0.2c0.3,0,0.5-0.1,0.6-0.2c0.1-0.1,0.2-0.2,0.2-0.3h1.2c0,0.3-0.2,0.5-0.4,0.8c-0.4,0.4-0.9,0.6-1.6,0.6 c-0.6,0-1.1-0.2-1.5-0.5S7.2,11.8,7.2,11c0-0.8,0.2-1.3,0.6-1.7c0.4-0.4,0.9-0.6,1.6-0.6C9.8,8.7,10.1,8.7,10.4,8.9z M8.7,9.8 c-0.2,0.2-0.3,0.4-0.3,0.7h2c0-0.3-0.1-0.5-0.3-0.7C9.9,9.7,9.6,9.6,9.4,9.6C9.1,9.6,8.9,9.7,8.7,9.8z"/><polygon fill="#2CB134" stroke="#404040" stroke-width="0.5" stroke-miterlimit="10" points="9.7,5.7 7.9,4.1 6.9,5.6 9.6,8.1 15.7,1.9 14.7,0.4 "/></svg>
