<svg xmlns="http://www.w3.org/2000/svg" viewBox="0 0 320 320"><g><path fill="#FEFEFE" d="M1.79,317.79c0-105.333,0-210.667,0-316c105.334,0,210.667,0,316,0c0,105.333,0,210.667,0,316 C212.457,317.79,107.124,317.79,1.79,317.79z M183.458,249.097c2.624,1.793,5.698,2.336,8.683,3.126 c7.506,2.346,14.926,4.978,22.621,6.683c0.68,0.385,1.315,0.909,2.044,1.136c16.27,5.06,32.563,10.038,48.805,15.184 c1.996,0.633,2.93-0.244,4.027-1.4c11.638-12.242,21.392-25.805,28.597-41.12c1.827-3.888,4.151-7.612,4.607-12.036 c1.074-1.069,1.385-2.508,1.853-3.865c4.339-12.595,6.631-25.534,7.809-38.827c1.48-16.704-0.236-33.046-4.035-49.177 c-3.018-12.812-8.104-24.938-14.482-36.508c-7.024-12.742-15.639-24.317-25.962-34.492c-9.739-9.597-20.599-17.771-32.548-24.64 c-21.284-12.236-44.243-18.51-68.502-20.074c-16.485-1.062-32.699,1.391-48.643,5.809c-30.573,8.472-56.02,25.113-76.25,49.229 C20.822,93.466,9.074,123.09,6.727,156.143c-1.359,19.131,0.986,37.969,6.689,56.249c0.979,0.621,1.89,0.397,2.762,0.115 c20.993-6.768,41.945-13.664,62.991-20.265c8.375-2.627,16.562-5.875,25.155-7.802c0.224,0.473,0.373,1,0.681,1.409 c11.876,15.848,23.743,31.701,35.694,47.491c1.071,1.416,1.918,3.288,3.757,3.883c5.101,1.649,10.253,3.145,15.385,4.701 C167.558,244.827,175.354,247.469,183.458,249.097z M208.004,297.704c-4.056-2.17-8.491-3.109-12.83-4.357 c-22.891-6.578-45.761-13.222-68.662-19.761c-2.483-0.709-4.157-1.985-5.228-4.316c-1.634-3.559-3.379-7.068-5.137-10.57 c-7.715-15.366-15.42-30.737-23.209-46.067c-1.292-2.543-2.041-5.478-4.579-7.759c-0.21,1.822,0.402,2.986,0.886,4.158 c9.347,22.648,18.704,45.293,28.073,67.931c0.656,1.588,1.347,3.357,3.309,3.59c7.021,0.831,13.84,2.647,20.738,4.071 c17.27,3.565,34.521,7.222,51.814,10.67C198.072,296.268,202.857,298.094,208.004,297.704z M210.833,298.392 c1.211,0.965,2.228,1.65,3.832,0.708C213.467,298.459,212.544,297.74,210.833,298.392z M85.633,199.631 c0.294,1.124,0.299,1.923,1.25,2.118C87.187,200.789,86.935,200.16,85.633,199.631z M217.764,300.077 c-0.232-0.072-0.377-0.117-0.522-0.161c0.028,0.096,0.056,0.191,0.083,0.287C217.436,300.171,217.547,300.139,217.764,300.077z"/><path fill-rule="evenodd" clip-rule="evenodd" fill="#A0D2A4" d="M104.325,184.44c-8.593,1.927-16.78,5.175-25.155,7.802 c-21.045,6.601-41.998,13.497-62.991,20.265c-0.873,0.282-1.783,0.506-2.762-0.115c-5.703-18.28-8.048-37.118-6.689-56.249 c2.347-33.052,14.095-62.676,35.354-88.02c20.23-24.117,45.677-40.758,76.25-49.229c15.944-4.418,32.157-6.872,48.643-5.809 c24.259,1.564,47.218,7.838,68.502,20.074c11.949,6.869,22.809,15.043,32.548,24.64c10.323,10.174,18.938,21.75,25.962,34.492 c6.379,11.57,11.465,23.696,14.482,36.508c3.799,16.131,5.516,32.473,4.035,49.177c-1.178,13.293-3.47,26.232-7.809,38.827 c-0.468,1.357-0.778,2.796-1.853,3.865c-4.538-4.311-9.1-8.593-13.606-12.937c-4.604-4.438-9.137-8.997-15.977-9.686 c-2.116-0.214-3.942-1.137-5.856-1.877c-1.317-1.311-0.749-2.841-0.305-4.423c-5.699-1.485-11.336-2.618-16.727-4.467 c-4.372-1.5-7.923-1.624-10.669,2.604c-1.388-1.356-3.746-1.138-4.83-2.982c0.205-0.986,0.411-1.973,0.668-3.214 c-6.069-1.594-12.084-2.874-17.887-4.796c-4.208-1.394-7.318-0.956-9.598,3.004c-8.775-0.928-11.104-6.21-9.54-14.123 c3.027-2.081,4.129-4.766,4.111-8.604c-0.045-9.558,0.528-19.117,0.854-28.676c9.473-7.059,9.459-16.881,7.936-27.603 c-1.69,0-3.37,0-5.05,0c-0.18-4.096,0.692-8.079,1.21-12.107c0.716-5.569,1.985-11.249,1.485-16.743 c-0.525-5.777-2.878-11.383-4.388-17.076c-0.544-2.047-1.724-2.839-3.894-3.108c-10.588-1.313-20.943-3.36-29.597-10.353 c-1.709-1.381-3.893-2.163-5.805-3.311c-2.567-1.541-5.106-1.49-7.918-0.55c-8.445,2.822-16.97,5.404-25.431,8.182 c-4.678,1.536-9.214,2.973-12.261,7.643c-4.563,6.995-10.726,12.831-15.358,19.824c-1.21,1.715-0.632,3.417-0.105,5.208 c2.192,7.455,5.335,14.633,6.547,22.373c-2.641-0.364-3.421,0.906-3.262,3.387c0.167,2.599,0.337,5.259-0.021,7.817 c-0.935,6.683,2.497,11.108,7.198,14.999c1.269,8.028,0.28,16.149,0.954,24.178c0.419,4.996-0.994,10.853,4.565,14.314 c-1.435,2.3-0.788,4.867-0.641,7.252c0.201,3.257-0.747,4.963-4.097,5.724c-2.476,0.561-5.124,1.106-7.197,2.864 C106.962,183.565,105.402,183.062,104.325,184.44z"/><path fill-rule="evenodd" clip-rule="evenodd" fill="#E7BA8E" d="M267.402,196.169c1.914,0.74,3.74,1.663,5.856,1.877 c6.84,0.688,11.372,5.248,15.977,9.686c4.507,4.344,9.068,8.626,13.606,12.937c-0.456,4.424-2.78,8.148-4.607,12.036 c-7.205,15.315-16.959,28.878-28.597,41.12c-1.098,1.156-2.031,2.033-4.027,1.4c-16.241-5.146-32.535-10.124-48.805-15.184 c-0.729-0.227-1.364-0.751-2.042-1.136c0.413-0.804,0.702-1.704,1.251-2.399c13.879-17.595,27.657-35.273,41.811-52.646 C260.326,200.789,261.774,195.638,267.402,196.169z"/><path fill-rule="evenodd" clip-rule="evenodd" fill="#E7BA8E" d="M104.325,184.44c1.077-1.378,2.637-0.875,4.028-1.034 c0.504,0.143,1.042,0.213,1.507,0.438c8.385,4.026,16.772,8.049,25.127,12.138c1.286,0.629,2.325,0.66,3.691,0.116 c7.555-3.004,15.291-5.583,22.705-8.894c4.197-1.874,8.984-2.575,12.545-5.826c0.776-0.08,1.565-0.289,2.327-0.218 c4.248,0.395,7.727-0.619,10.889-3.893c3.412-3.53,7.551-6.359,11.372-9.496c-1.564,7.913,0.765,13.195,9.538,14.124 c-4.223,5.341-8.406,10.714-12.677,16.016c-11.826,14.687-23.688,29.345-35.535,44.014c-5.132-1.557-10.284-3.052-15.385-4.701 c-1.838-0.595-2.686-2.467-3.757-3.883c-11.951-15.79-23.818-31.644-35.694-47.491 C104.698,185.44,104.548,184.913,104.325,184.44z"/> <path fill-rule="evenodd" clip-rule="evenodd" fill="#996045" d="M267.402,196.169c-5.628-0.531-7.076,4.62-9.577,7.69 c-14.153,17.373-27.932,35.052-41.811,52.646c-0.549,0.695-0.838,1.596-1.251,2.399c-7.697-1.705-15.117-4.337-22.623-6.683 c-0.16-1.516,1.011-2.438,1.767-3.405c9.117-11.665,18.419-23.187,27.464-34.906c6.154-7.974,12.861-15.533,18.332-24.028 c2.745-4.228,6.296-4.104,10.668-2.604c5.391,1.849,11.027,2.981,16.727,4.467C266.653,193.328,266.085,194.858,267.402,196.169z"/><path fill-rule="evenodd" clip-rule="evenodd" fill="#996045" d="M159.842,241.925c11.848-14.669,23.709-29.327,35.535-44.014 c4.271-5.302,8.454-10.675,12.677-16.016c2.281-3.961,5.392-4.398,9.6-3.005c5.803,1.922,11.817,3.202,17.887,4.796 c-0.257,1.241-0.463,2.228-0.668,3.211c-1.791,1.377-3.816,2.267-5.294,4.271c-4.339,5.879-9.082,11.46-13.643,17.178 c-10.832,13.577-21.652,27.167-32.478,40.751C175.354,247.469,167.558,244.827,159.842,241.925z"/><path fill-rule="evenodd" clip-rule="evenodd" fill="#E5E9F2" d="M208.004,297.704c-5.146,0.39-9.932-1.437-14.824-2.411 c-17.293-3.448-34.545-7.104-51.814-10.67c-6.898-1.424-13.718-3.24-20.738-4.071c-1.962-0.232-2.653-2.002-3.309-3.59 c-9.369-22.638-18.726-45.282-28.073-67.931c-0.484-1.172-1.097-2.336-0.886-4.158c2.538,2.281,3.286,5.216,4.579,7.759 c7.789,15.33,15.495,30.701,23.209,46.067c1.758,3.502,3.502,7.012,5.137,10.57c1.071,2.331,2.745,3.607,5.228,4.316 c22.901,6.539,45.771,13.183,68.662,19.761C199.513,294.595,203.948,295.534,208.004,297.704z"/><path fill-rule="evenodd" clip-rule="evenodd" fill="#E4B78B" d="M183.458,249.097c10.825-13.584,21.646-27.174,32.478-40.751 c4.561-5.718,9.304-11.299,13.643-17.178c1.478-2.004,3.503-2.894,5.294-4.271c1.084,1.848,3.442,1.629,4.83,2.985 c-5.47,8.495-12.177,16.055-18.331,24.028c-9.045,11.72-18.347,23.241-27.464,34.906c-0.756,0.968-1.927,1.89-1.767,3.405 C189.156,251.433,186.082,250.89,183.458,249.097z"/><path fill-rule="evenodd" clip-rule="evenodd" fill="#E5E9F2" d="M210.833,298.392c1.711-0.651,2.634,0.067,3.832,0.708 C213.061,300.042,212.044,299.356,210.833,298.392z"/><path fill-rule="evenodd" clip-rule="evenodd" fill="#E5E9F2" d="M85.633,199.631c1.302,0.529,1.554,1.158,1.25,2.118 C85.932,201.554,85.927,200.755,85.633,199.631z"/><path fill-rule="evenodd" clip-rule="evenodd" fill="#E5E9F2" d="M217.764,300.077c-0.217,0.062-0.328,0.094-0.439,0.126 c-0.027-0.096-0.055-0.191-0.083-0.287C217.387,299.96,217.531,300.005,217.764,300.077z"/><path fill-rule="evenodd" clip-rule="evenodd" fill="#FDFDFD" d="M198.516,167.771c-3.821,3.137-7.96,5.966-11.372,9.496 c-3.162,3.273-6.641,4.287-10.889,3.893c-0.762-0.071-1.551,0.138-2.327,0.216c-4.441,0.108-8.882,0.216-13.323,0.324 c-0.013-2.497-0.084-4.996-0.022-7.493c0.05-2.012-0.636-3.015-2.794-3.468c-9.398-1.973-17.941-6.53-27.007-9.341 c-7.962-2.468-10.535-6.618-11.745-14.729c-1.699-11.392-1.782-22.684-1.904-34.062c-0.01-0.914-0.099-1.858,0.659-2.581 c3.479,10.953,6.955,21.907,10.444,32.856c0.341,1.069,0.352,2.544,1.971,2.491c1.452-0.047,1.818-1.163,2.038-2.443 c0.73-4.247,1.696-8.457,2.298-12.72c0.897-6.343,1.832-7.399,8.463-8.49c5.708,0.101,10.247,3.803,15.579,5.06 c-4.795,1.261-9.583,2.552-14.392,3.762c-1.401,0.353-3.034,0.279-2.728,2.456c-0.777,3.063-0.61,6.12-0.038,9.742 c6.245-1.406,12.267-2.764,18.289-4.121c5.392,1.245,10.782,2.487,16.333,3.767c0.688-3.327,0.372-6.417,0.263-9.499 c0.638-2.112-0.846-2.355-2.314-2.688c-4.207-0.953-8.404-1.945-12.606-2.921c1.555-3.01,5.959-2.744,7.127-6.198 c0.175-0.077,0.358-0.11,0.549-0.099c0.339-0.21,0.678-0.42,1.016-0.63c6.936,0.049,11.396,3.592,12.73,9.92 c0.836,3.968,1.951,7.877,2.812,11.841c0.505,2.321,1.758,3.327,4.319,3.109c2.388-7.236,4.884-14.387,7.09-21.626 c1.599-5.25,3.654-10.404,4.085-15.96c1.499-2.302,2.072-9.515,0.641-9.767c-3.189-0.562-2.046-3.219-3.146-5.271 c-10.184,0-20.486,0-30.789,0c-0.192-1.503-1.766-2.654-1.054-4.71c9.214,0,18.491,0,27.768,0 c2.288-0.207,4.682,0.58,6.861-0.581c0.708-3.111,0.05-5.796-1.47-8.408c-2.161-3.718-4.993-7.035-6.503-11.153 c-0.472-1.285-1.668-1.981-3.148-1.954c-7.329,0.133-14.603-1.441-21.95-0.715c-0.476-0.05-0.951-0.101-1.426-0.151 c-0.426-0.647-1.053-0.714-1.741-0.6c-1.253-0.35-2.507-0.7-3.761-1.05c1.771-1.801,4.769-1.398,6.729-3.895 c-5.001,0.869-9.557,1.82-14.158,2.427c-11.644,1.536-23.202,3.207-34.094,8.076c-4.966,2.221-9.914,4.749-15.465,5.407 c4.633-6.994,10.796-12.83,15.359-19.825c3.046-4.67,7.583-6.107,12.261-7.643c8.46-2.777,16.986-5.359,25.431-8.182 c2.812-0.94,5.351-0.991,7.918,0.55c1.912,1.147,4.096,1.93,5.805,3.311c8.653,6.992,19.009,9.04,29.597,10.353 c2.17,0.27,3.35,1.062,3.894,3.108c1.51,5.693,3.862,11.299,4.388,17.076c0.5,5.494-0.77,11.173-1.485,16.743 c-0.518,4.029-1.39,8.012-1.21,12.107c-1.892,9.104-3.014,18.288-2.886,27.603c-0.325,9.559-0.898,19.118-0.854,28.676 C202.645,163.006,201.543,165.69,198.516,167.771z"/><path fill-rule="evenodd" clip-rule="evenodd" fill="#E4E8EF" d="M117.79,110.026c-0.757,0.723-0.668,1.667-0.658,2.581 c0.122,11.379,0.205,22.67,1.904,34.062c1.21,8.111,3.783,12.261,11.745,14.729c9.066,2.811,17.609,7.368,27.007,9.341 c2.158,0.453,2.844,1.456,2.794,3.468c-0.062,2.497,0.01,4.996,0.022,7.493c-5.626,0.075-11.261-0.018-16.876,0.281 c-3.522,0.187-6.297-0.927-8.96-3.1c-4.746-3.872-9.646-7.555-14.482-11.316c-5.56-3.461-4.146-9.318-4.565-14.314 c-0.673-8.029,0.315-16.15-0.954-24.179c0.451-8.997-0.156-17.835-3.915-26.202c-1.212-7.74-4.355-14.918-6.547-22.373 c-0.527-1.792-1.105-3.493,0.105-5.208c5.551-0.657,10.499-3.185,15.464-5.406c10.892-4.87,22.45-6.54,34.094-8.076 c4.601-0.607,9.157-1.558,14.158-2.427c-1.96,2.497-4.958,2.094-6.729,3.895c-0.541,0.293-1.082,0.585-1.624,0.876 c-9.975,3.16-19.197,8.34-29.178,11.334c-6.749,2.023-8.463,6.433-8.749,12.418c-0.914-0.001-1.849-0.123-2.739,0.024 c-1.664,0.276-4.254-1.16-4.342,2.246c-0.087,3.357,2.419,2.432,4.16,2.44c10.71,0.052,21.422,0.014,32.133,0.005 c0.011,0.265,0.022,0.529,0.034,0.793c-2.223,3.102-5.076,4.309-9.026,4.096c-6.53-0.352-13.091-0.08-19.639-0.104 c-1.651-0.006-3.284-0.116-3.082,2.302C117.887,103.003,116.637,106.334,117.79,110.026z"/><path fill-rule="evenodd" clip-rule="evenodd" fill="#CE9B6F" d="M120.287,167.565c4.836,3.762,9.736,7.444,14.482,11.316 c2.663,2.173,5.438,3.286,8.96,3.1c5.615-0.299,11.25-0.206,16.876-0.281c4.441-0.108,8.882-0.216,13.323-0.324 c-3.561,3.253-8.348,3.954-12.545,5.828c-7.414,3.311-15.15,5.89-22.705,8.894c-1.366,0.544-2.405,0.513-3.691-0.116 c-8.355-4.089-16.742-8.111-25.127-12.138c-0.465-0.225-1.002-0.295-1.507-0.438c2.072-1.759,4.72-2.305,7.196-2.865 c3.35-0.761,4.298-2.467,4.097-5.724C119.499,172.433,118.852,169.865,120.287,167.565z"/><path fill-rule="evenodd" clip-rule="evenodd" fill="#E6BC90" d="M203.48,130.491c-0.128-9.315,0.994-18.5,2.886-27.603 c1.68,0,3.359,0,5.05,0C212.939,113.61,212.953,123.432,203.48,130.491z"/><path fill-rule="evenodd" clip-rule="evenodd" fill="#E6BB8F" d="M110.853,102.871c3.758,8.367,4.366,17.205,3.915,26.202 c-4.702-3.89-8.133-8.315-7.198-14.998c0.358-2.559,0.188-5.219,0.021-7.817C107.432,103.776,108.212,102.506,110.853,102.871z"/><path fill-rule="evenodd" clip-rule="evenodd" fill="#E7BB8E" d="M159.774,64.151c0.542-0.292,1.083-0.583,1.624-0.876 c1.254,0.35,2.508,0.699,3.762,1.048c0.458,0.555,1.065,0.676,1.74,0.601c0.475,0.05,0.95,0.101,1.426,0.151 c6.047,2.792,12.631,3.94,18.883,6.114c1.639,0.57,2.88,1.158,3.363,2.819c1.347,4.618,2.646,9.251,3.964,13.878 c-9.276,0-18.554,0-27.768,0c-0.712,2.057,0.861,3.208,1.053,4.71c0.209,0.54,0.419,1.08,0.629,1.62 c-1.484,4.96,0.823,8.058,5.639,7.943c1.823-0.042,3.707-1.948,5.516,0.02c-0.096,0.809-0.836,2.071,0.624,2.102 c2.337,0.049,4.787,0.639,6.944-0.448c0.3-1.631-1.004-2.243-1.415-3.289c4.211-0.292,8.421-0.584,12.631-0.875 c1.895,2.317,1.438,5.44,2.731,7.965c-0.434,5.556-2.489,10.71-4.088,15.96c-2.206,7.239-4.702,14.39-7.09,21.626 c-2.562,0.218-3.814-0.788-4.319-3.109c-0.86-3.964-1.976-7.873-2.812-11.841c-1.334-6.328-5.795-9.871-12.73-9.92 c-0.339,0.209-0.677,0.419-1.016,0.63c-0.19-0.011-0.374,0.021-0.549,0.099c-1.858,0.494-3.717,0.987-5.574,1.48 c-0.694-1.345-2.282,0.134-3.168-1.037C159.774,102.447,159.774,83.299,159.774,64.151z"/><path fill-rule="evenodd" clip-rule="evenodd" fill="#DDAD7D" d="M159.774,64.151c0,19.147,0,38.296,0,57.372 c0.886,1.171,2.474-0.308,3.168,1.038c-4.634,2.879-8.446-0.683-12.478-1.8c-2.827-0.782-5.205-1.266-7.461,0.958 c-6.63,1.091-7.564,2.147-8.461,8.49c-0.603,4.263-1.568,8.474-2.298,12.72c-0.22,1.28-0.586,2.396-2.038,2.443 c-1.62,0.053-1.63-1.422-1.971-2.491c-3.489-10.949-6.965-21.903-10.444-32.856c-1.153-3.692,0.097-7.023,1.558-10.321 c4.6-0.198,9.153,0.34,13.71,0.85c-0.386,1.155-2.096,1.812-1.225,3.607c2.496,0.35,5.051,0.38,7.486-0.012 c0.733-1.159-0.016-1.947-0.211-2.806c3.085,0.342,6.171,0.685,9.14,1.015c1.351,2.978-1.552,5.691,0.396,8.715 c0.782-3.593,1.797-6.852,2.114-10.177c0.234-2.461,2.325-4.921,0.336-7.486c-0.012-0.264-0.022-0.528-0.034-0.793 c0.66-1.378,1.728-2.655,1.021-4.716c-10.036,0-20.135,0-30.234,0c0.286-5.985,2-10.395,8.749-12.418 C140.577,72.492,149.799,67.312,159.774,64.151z"/><path fill-rule="evenodd" clip-rule="evenodd" fill="#E5E8EF" d="M194.536,87.886c-1.317-4.627-2.617-9.26-3.964-13.878 c-0.483-1.661-1.725-2.249-3.363-2.819c-6.252-2.174-12.836-3.322-18.883-6.114c7.348-0.726,14.621,0.849,21.95,0.715 c1.48-0.027,2.677,0.669,3.148,1.954c1.51,4.118,4.342,7.435,6.503,11.153c1.52,2.612,2.178,5.297,1.47,8.408 C199.218,88.466,196.824,87.679,194.536,87.886z"/><path fill-rule="evenodd" clip-rule="evenodd" fill="#E5E8EF" d="M168.45,94.217c-0.21-0.54-0.42-1.08-0.629-1.62 c10.304,0,20.606,0,30.79,0c1.101,2.052-0.043,4.708,3.146,5.271c1.432,0.252,0.858,7.465-0.641,9.767 c-1.29-2.524-0.834-5.647-2.728-7.964c0.223-2.5-1.53-2.262-3.124-2.261c-6.295,0.004-12.598-0.179-18.882,0.075 C173.073,97.618,170.501,96.752,168.45,94.217z"/><path fill-rule="evenodd" clip-rule="evenodd" fill="#DDAF81" d="M159.715,138.62c-6.022,1.357-12.043,2.714-18.289,4.121 c-0.572-3.622-0.739-6.678,0.039-9.742c3.669,0.469,6.856-2.199,10.542-1.621c1.081,4.218,4.831,3.494,7.802,4.214 C159.777,136.602,159.746,137.61,159.715,138.62z"/><path fill-rule="evenodd" clip-rule="evenodd" fill="#E6BA8E" d="M159.715,138.62c0.031-1.009,0.062-2.018,0.094-3.028 c2.743-0.724,6.166-0.323,6.987-4.225c3.323-0.442,6.363,0.888,9.515,1.521c0.109,3.082,0.425,6.172-0.263,9.499 C170.497,141.107,165.106,139.864,159.715,138.62z"/> <path fill-rule="evenodd" clip-rule="evenodd" fill="#C7946C" d="M176.311,132.888c-3.151-0.633-6.191-1.963-9.515-1.521 c-4.93,0.003-9.859,0.007-14.79,0.011c-3.685-0.578-6.872,2.09-10.542,1.621c-0.307-2.177,1.326-2.104,2.727-2.456 c4.809-1.21,9.597-2.501,14.391-3.763c0.935,0.166,1.87,0.332,2.807,0.499c4.202,0.977,8.399,1.969,12.606,2.921 C175.465,130.533,176.948,130.776,176.311,132.888z"/><path fill-rule="evenodd" clip-rule="evenodd" fill="#E5E6EC" d="M161.39,127.278c-0.937-0.167-1.872-0.333-2.807-0.499 c-5.331-1.257-9.869-4.958-15.578-5.06c2.254-2.225,4.632-1.741,7.459-0.959c4.031,1.117,7.844,4.679,12.478,1.8 c1.857-0.494,3.716-0.987,5.574-1.481C167.349,124.535,162.944,124.269,161.39,127.278z"/><path fill-rule="evenodd" clip-rule="evenodd" fill="#E5E8EF" d="M166.9,64.924c-0.675,0.075-1.282-0.046-1.74-0.601 C165.848,64.21,166.475,64.276,166.9,64.924z"/><path fill-rule="evenodd" clip-rule="evenodd" fill="#E5E6EC" d="M169.065,120.981c0.339-0.211,0.677-0.421,1.016-0.63 C169.743,120.562,169.404,120.771,169.065,120.981z"/><path fill-rule="evenodd" clip-rule="evenodd" fill="#FCFAF9" d="M121.848,87.903c10.099,0,20.198,0,30.234,0 c0.707,2.061-0.362,3.338-1.021,4.716c-10.711,0.008-21.423,0.047-32.133-0.005c-1.741-0.008-4.247,0.917-4.16-2.44 c0.088-3.405,2.679-1.969,4.342-2.246C119.999,87.78,120.934,87.902,121.848,87.903z"/><path fill-rule="evenodd" clip-rule="evenodd" fill="#C79268" d="M151.094,93.412c1.989,2.564-0.103,5.025-0.336,7.486 c-0.316,3.325-1.332,6.584-2.114,10.177c-1.948-3.024,0.955-5.738-0.396-8.715c-2.969-0.33-6.055-0.672-9.139-1.015 c-1.84-1.616-3.831-2.079-6.051-0.79c-4.557-0.509-9.11-1.048-13.71-0.85c-0.204-2.417,1.429-2.308,3.08-2.302 c6.548,0.024,13.109-0.247,19.639,0.104C146.018,97.721,148.871,96.514,151.094,93.412z"/><path fill-rule="evenodd" clip-rule="evenodd" fill="#C89269" d="M168.45,94.217c2.051,2.535,4.623,3.401,7.934,3.268 c6.284-0.254,12.587-0.071,18.882-0.075c1.594,0,3.347-0.238,3.124,2.261c-4.211,0.291-8.421,0.583-12.632,0.875 c-2.585-1.468-4.608-0.815-6.153,1.635c-1.809-1.968-3.692-0.062-5.516-0.02C169.273,102.274,166.966,99.177,168.45,94.217z"/><path fill-rule="evenodd" clip-rule="evenodd" fill="#694B37" d="M179.604,102.18c1.545-2.45,3.568-3.103,6.153-1.635 c0.411,1.046,1.715,1.657,1.415,3.289c-2.157,1.086-4.607,0.497-6.944,0.448C178.769,104.251,179.509,102.989,179.604,102.18z"/><path fill-rule="evenodd" clip-rule="evenodd" fill="#674935" d="M133.058,100.555c2.22-1.289,4.211-0.826,6.051,0.79 c0.194,0.858,0.943,1.646,0.21,2.806c-2.435,0.392-4.99,0.361-7.486,0.012C130.962,102.367,132.672,101.709,133.058,100.555z"/><path fill-rule="evenodd" clip-rule="evenodd" fill="#5B402E" d="M152.006,131.378c4.93-0.004,9.86-0.007,14.79-0.011 c-0.821,3.902-4.244,3.501-6.987,4.225C156.837,134.872,153.087,135.596,152.006,131.378z"/></g></svg>
