<svg xmlns="http://www.w3.org/2000/svg" viewBox="0 0 320 320"><g><g><path fill="#99BB77" d="M0.647,320.625c0-106.625,0-213.251,0-319.938c106.577,0,213.177,0,319.877,0 c0,106.605,0,213.271,0,319.938C213.951,320.625,107.311,320.625,0.647,320.625z M94.475,198.884 c0,22.391-0.035,44.782,0.014,67.173c0.026,12.109,9.848,23.067,22.553,22.658c3.954-0.127,7.919-0.125,11.871,0.034 c13.076,0.53,23.133-10.723,22.918-22.869c-0.092-5.206-0.041-10.415-0.008-15.622c0.047-7.215,5.141-12.641,11.873-12.698 c7.212-0.062,12.518,5.265,12.562,12.664c0.033,5.832-0.095,11.666,0.043,17.495c0.24,10.197,8.02,19.162,18.145,20.407 c5.445,0.669,11.005,0.577,16.511,0.548c12.922-0.067,22.168-9.43,22.176-22.318c0.016-27.286,0.004-54.572,0.006-81.857 c0-1.042-0.001-2.084,0.034-3.124c0.056-1.712,1.035-2.331,2.479-1.596c1.838,0.937,3.688,1.971,5.259,3.289 c5.469,4.598,6.179,10.81,5.369,17.361c-0.157,1.28-0.86,2.769-1.801,3.624c-2.62,2.382-3.544,5.086-2.37,8.407 c1.179,3.333,2.296,6.709,3.814,9.886c0.511,1.066,2.156,2.138,3.314,2.172c0.914,0.026,2.333-1.355,2.733-2.414 c1.322-3.491,2.671-7.061,3.231-10.72c0.305-1.985-0.91-4.23-1.546-6.326c-0.516-1.698-1.408-3.309-1.729-5.033 c-0.299-1.61-0.053-3.321-0.066-4.987c-0.07-9.28-5.9-17.404-14.651-20.422c-0.788-0.271-1.704-0.36-2.338-0.832 c-0.649-0.482-1.023-1.332-1.519-2.021c0.661-0.379,1.3-1.032,1.986-1.087c1.967-0.154,3.953-0.062,5.932-0.077 c13.85-0.104,24.967-11.241,24.979-25.087c0.021-23.016-0.288-46.037,0.12-69.046c0.234-13.208-11.619-25.436-25.225-25.249 c-8.33,0.115-16.665,0.143-24.993-0.021c-1.719-0.034-3.821-0.644-5.062-1.754c-8.679-7.773-18.706-12.881-30.093-14.93 c-22.951-4.129-43.904,0.39-61.926,15.722c-13.061,11.111-20.658,25.43-23.307,42.29c-1.05,6.685-0.73,6.848-7.437,6.896 c-14.881,0.107-23.352,11.746-22.836,23.481c0.516,11.746,0.126,23.532,0.104,35.3c-0.008,3.741-1.353,5.605-3.933,5.65 c-2.591,0.044-3.558-1.419-3.665-5.358c-0.126-4.679-0.285-9.358-0.479-14.035c-0.234-5.679-3.42-8.749-9.135-8.831 c-2.499-0.036-5-0.065-7.498,0.009c-5.916,0.175-8.991,3.328-9.015,9.241c-0.028,7.082,0.242,14.174-0.056,21.243 c-0.592,14.043,10.768,23.314,23.161,23.189c4.686-0.047,9.411,0.353,14.048-0.129c3.741-0.388,7.709-1.156,10.996-2.87 c8.543-4.457,11.672-12.299,11.724-21.555c0.061-10.831-0.036-21.663,0.074-32.493c0.015-1.479,0.823-2.95,1.264-4.426 c0.466,1.499,1.333,2.997,1.339,4.497C94.508,154.518,94.481,176.7,94.475,198.884z"/><path fill-rule="evenodd" clip-rule="evenodd" fill="#749E46" d="M94.478,198.884c0.003-22.184,0.03-44.366-0.057-66.549 c-0.006-1.5-0.873-2.998-1.339-4.497c-0.441,1.476-1.249,2.946-1.264,4.426c-0.109,10.83-0.013,21.662-0.074,32.493 c-0.052,9.256-3.181,17.098-11.724,21.555c-3.286,1.714-7.254,2.482-10.996,2.87c-4.637,0.481-9.362,0.082-14.048,0.129 c-12.393,0.125-23.753-9.146-23.161-23.189c0.298-7.069,0.027-14.161,0.056-21.243c0.024-5.914,3.099-9.066,9.015-9.241 c2.497-0.074,4.999-0.045,7.498-0.009c5.715,0.082,8.901,3.152,9.135,8.831c0.193,4.677,0.352,9.355,0.479,14.035 c0.106,3.939,1.073,5.402,3.665,5.358c2.58-0.045,3.925-1.909,3.933-5.65c0.022-11.768,0.412-23.555-0.104-35.3 c-0.516-11.735,7.955-23.374,22.836-23.481c6.707-0.049,6.387-0.212,7.437-6.896c2.649-16.86,10.247-31.179,23.307-42.29 c18.021-15.332,38.975-19.852,61.926-15.722c11.387,2.048,21.414,7.157,30.093,14.93c1.24,1.111,3.343,1.721,5.062,1.754 c8.328,0.165,16.663,0.137,24.993,0.021c13.605-0.187,25.459,12.041,25.225,25.249c-0.408,23.009-0.099,46.03-0.12,69.046 c-0.013,13.846-11.13,24.983-24.979,25.087c-1.979,0.016-3.965-0.077-5.932,0.077c-0.687,0.055-1.325,0.708-1.986,1.087 c0.495,0.688,0.869,1.538,1.519,2.021c0.634,0.472,1.55,0.561,2.338,0.832c8.751,3.018,14.581,11.142,14.651,20.422 c0.014,1.666-0.232,3.377,0.066,4.987c0.321,1.725,1.214,3.335,1.729,5.033c0.636,2.096,1.851,4.341,1.546,6.326 c-0.561,3.659-1.909,7.229-3.231,10.72c-0.4,1.059-1.819,2.44-2.733,2.414c-1.158-0.034-2.804-1.105-3.314-2.172 c-1.519-3.177-2.636-6.553-3.814-9.886c-1.174-3.321-0.25-6.025,2.37-8.407c0.94-0.855,1.644-2.344,1.801-3.624 c0.81-6.552,0.1-12.764-5.369-17.361c-1.57-1.318-3.421-2.353-5.259-3.289c-1.443-0.735-2.423-0.116-2.479,1.596 c-0.035,1.04-0.034,2.082-0.034,3.124c-0.002,27.285,0.01,54.571-0.006,81.857c-0.008,12.889-9.254,22.251-22.176,22.318 c-5.506,0.029-11.065,0.121-16.511-0.548c-10.125-1.245-17.904-10.21-18.145-20.407c-0.138-5.829-0.01-11.663-0.043-17.495 c-0.045-7.399-5.351-12.727-12.562-12.664c-6.732,0.058-11.826,5.483-11.873,12.698c-0.033,5.207-0.084,10.416,0.008,15.622 c0.215,12.146-9.842,23.399-22.918,22.869c-3.951-0.159-7.917-0.161-11.871-0.034c-12.705,0.409-22.527-10.549-22.553-22.658 C94.44,243.666,94.475,221.274,94.478,198.884z M145.627,248.126c0.02-0.725-0.056-1.466,0.071-2.17 c1.643-9.085,9.993-15.302,19.642-14.653c9.572,0.643,16.919,7.986,17.155,17.355c0.149,5.933-0.033,11.873,0.057,17.809 c0.137,8.917,6.974,15.729,15.908,15.908c3.853,0.078,7.707,0.094,11.56,0.035c10.491-0.16,16.876-6.64,16.88-17.115 c0.012-30.411,0.006-60.823,0.008-91.234c0-1.1,0-2.199,0-3.695c-13.547,1.158-25.851-1.006-36.118-9.852 c-10.198-8.784-15.023-20.059-15.105-33.631c2.25,0,4.148,0,6.089,0c0.07,0.644,0.135,1.052,0.156,1.462 c1.127,21.331,16.337,35.841,37.732,35.964c6.77,0.039,13.54,0.05,20.31,0.017c11.771-0.059,20.087-8.339,20.103-20.044 c0.03-22.288,0.039-44.575,0.018-66.863c-0.011-11.362-8.223-19.752-19.593-19.937c-7.497-0.122-15-0.149-22.495,0.012 c-17.738,0.381-31.896,12.249-35.341,29.564c-0.56,2.815-0.708,5.713-1.069,8.768c-1.072,0-2,0.033-2.924-0.009 c-0.899-0.042-1.796-0.161-3.1-0.285c0.571-20.794,10.417-34.818,29.897-42.634c-18.034-13.873-37.817-17.048-58.358-10.632 c-30.466,9.516-44.856,31.89-46.226,63.541c-4.277,0-8.424-0.076-12.567,0.015c-10.085,0.22-16.477,6.771-16.504,16.833 c-0.012,4.271-0.001,8.54-0.002,12.811c-0.002,8.228,0.102,16.457-0.042,24.683c-0.106,6.067-3.88,10.021-9.492,10.382 c-5.733,0.37-9.767-2.922-10.559-9.122c-0.446-3.488-0.274-7.062-0.285-10.599c-0.033-10.162,0.541-8.866-9.556-8.958 c-2.721-0.025-3.914,1.238-3.869,4.036c0.109,6.872,0.033,13.747,0.06,20.621c0.037,9.405,6.888,16.295,16.368,16.427 c4.165,0.058,8.332,0.007,12.498,0.006c11.771-0.004,18.212-6.37,18.229-18.052c0.018-11.665-0.022-23.33,0.027-34.994 c0.021-5.061,2.563-8.323,7.03-8.787c2.748-0.285,5.549-0.052,8.712-0.052c0,1.324,0,2.439,0,3.555 c0.005,45.097,0.01,90.192,0.015,135.289c0,2.188-0.042,4.376,0.019,6.562c0.234,8.311,6.145,15.045,14.399,15.764 c5.166,0.449,10.423,0.406,15.6,0.036c6.238-0.444,10.725-3.979,13.097-9.686c1.046-2.517,1.077-5.454,1.569-8.201 c0-1.246,0-2.493,0-3.739c-0.002-3.128-0.003-6.256-0.005-9.383C145.625,250.207,145.626,249.166,145.627,248.126z M248.497,217.747c0.222,0.005,0.444,0.009,0.667,0.014c0.757-2.606,1.655-5.185,2.179-7.837c0.146-0.736-0.629-2.131-1.325-2.435 c-0.876-0.382-2.301-0.273-3.12,0.227c-0.644,0.394-1.176,1.821-0.976,2.583C246.59,212.832,247.611,215.271,248.497,217.747z"/><path fill-rule="evenodd" clip-rule="evenodd" fill="#FCFDFB" d="M145.627,264.37c-0.492,2.747-0.523,5.685-1.569,8.201 c-2.372,5.706-6.858,9.241-13.097,9.686c-5.177,0.37-10.434,0.413-15.6-0.036c-8.254-0.719-14.165-7.453-14.399-15.764 c-0.061-2.186-0.018-4.374-0.019-6.562c-0.005-45.097-0.01-90.192-0.015-135.289c0-1.115,0-2.231,0-3.555 c-3.163,0-5.964-0.232-8.712,0.052c-4.466,0.463-7.008,3.726-7.03,8.787c-0.049,11.665-0.01,23.329-0.027,34.994 c-0.017,11.682-6.458,18.048-18.229,18.052c-4.166,0.001-8.333,0.052-12.498-0.006c-9.479-0.132-16.331-7.021-16.368-16.427 c-0.027-6.874,0.049-13.749-0.06-20.621c-0.045-2.798,1.148-4.061,3.869-4.036c10.097,0.093,9.523-1.204,9.556,8.958 c0.011,3.537-0.161,7.111,0.285,10.599c0.792,6.2,4.825,9.492,10.559,9.122c5.612-0.361,9.386-4.314,9.492-10.382 c0.144-8.226,0.04-16.455,0.042-24.683c0.001-4.271-0.01-8.54,0.002-12.811c0.028-10.062,6.419-16.612,16.504-16.833 c4.144-0.091,8.29-0.015,12.567-0.015c1.37-31.651,15.76-54.025,46.226-63.541c20.541-6.416,40.324-3.241,58.358,10.632 c-19.48,7.816-29.326,21.84-29.897,42.634c1.304,0.124,2.2,0.243,3.1,0.285c0.924,0.042,1.852,0.009,2.924,0.009 c0.361-3.055,0.51-5.952,1.069-8.768c3.444-17.315,17.603-29.183,35.341-29.564c7.495-0.161,14.998-0.133,22.495-0.012 c11.37,0.185,19.582,8.575,19.593,19.937c0.021,22.288,0.013,44.575-0.018,66.863c-0.016,11.705-8.332,19.985-20.103,20.044 c-6.77,0.033-13.54,0.022-20.31-0.017c-21.396-0.123-36.605-14.633-37.732-35.964c-0.021-0.41-0.086-0.818-0.156-1.462 c-1.94,0-3.839,0-6.089,0c0.082,13.572,4.907,24.847,15.105,33.631c10.268,8.846,22.571,11.01,36.118,9.852 c0,1.496,0,2.596,0,3.695c-0.002,30.411,0.004,60.823-0.008,91.234c-0.004,10.476-6.389,16.955-16.88,17.115 c-3.853,0.059-7.707,0.043-11.56-0.035c-8.935-0.179-15.771-6.991-15.908-15.908c-0.09-5.936,0.093-11.876-0.057-17.809 c-0.236-9.369-7.583-16.713-17.155-17.355c-9.649-0.648-17.999,5.568-19.642,14.653c-0.127,0.704-0.052,1.445-0.071,2.17 c-0.001,1.04-0.003,2.081-0.004,3.122c0.001,3.127,0.003,6.255,0.005,9.383C145.628,261.877,145.627,263.124,145.627,264.37z M234.112,62.996c-2.242,0.06-4.181,0.424-4.339,3.076c-0.158,2.642,1.397,3.558,3.936,3.588c1.843,0.021,3.693,0.482,5.519,0.852 c4.937,1,7.805,4.017,8.566,9.002c0.188,1.23-0.059,2.724,0.566,3.638c0.745,1.093,2.257,2.373,3.354,2.302 c0.973-0.063,2.547-1.81,2.63-2.906c0.63-8.278-3.675-14.8-11.489-17.492C240.038,64.085,237.032,63.667,234.112,62.996z M141.15,94.849c0.021-4.439-3.46-7.986-7.794-7.943c-4.217,0.042-7.672,3.541-7.704,7.801c-0.032,4.394,3.475,7.906,7.876,7.889 C137.916,102.576,141.129,99.312,141.15,94.849z"/><path fill-rule="evenodd" clip-rule="evenodd" fill="#EEF7E6" d="M248.497,217.747c-0.886-2.476-1.907-4.915-2.575-7.448 c-0.2-0.762,0.332-2.189,0.976-2.583c0.819-0.5,2.244-0.608,3.12-0.227c0.696,0.304,1.471,1.698,1.325,2.435 c-0.523,2.652-1.422,5.23-2.179,7.837C248.941,217.756,248.719,217.752,248.497,217.747z"/><path fill-rule="evenodd" clip-rule="evenodd" fill="#68912F" d="M145.627,264.37c0-1.246,0-2.493,0-3.739 C145.628,261.877,145.627,263.124,145.627,264.37z"/><path fill-rule="evenodd" clip-rule="evenodd" fill="#68912F" d="M145.623,251.248c0.001-1.041,0.003-2.082,0.004-3.122 C145.626,249.166,145.625,250.207,145.623,251.248z"/><path fill-rule="evenodd" clip-rule="evenodd" fill="#779E4A" d="M234.112,62.996c2.92,0.671,5.926,1.089,8.743,2.06 c7.814,2.692,12.119,9.214,11.489,17.492c-0.083,1.097-1.657,2.843-2.63,2.906c-1.098,0.071-2.609-1.209-3.354-2.302 c-0.625-0.914-0.379-2.408-0.566-3.638c-0.762-4.986-3.63-8.002-8.566-9.002c-1.825-0.37-3.676-0.831-5.519-0.852 c-2.538-0.03-4.094-0.947-3.936-3.588C229.932,63.42,231.87,63.056,234.112,62.996z"/><path fill-rule="evenodd" clip-rule="evenodd" fill="#769E48" d="M141.15,94.849c-0.021,4.463-3.234,7.728-7.622,7.746 c-4.401,0.018-7.908-3.495-7.876-7.889c0.031-4.26,3.486-7.758,7.704-7.801C137.69,86.863,141.171,90.41,141.15,94.849z"/></g></g></svg>
