<svg xmlns="http://www.w3.org/2000/svg" viewBox="0 0 225.18 224.17"><g><path fill="#3F403F" d="M225.094,79.085c0,5,0,10,0,15c-0.291,0.253-0.532,0.547-0.732,0.88c-0.647,1.451,0.223,2.825,0.204,4.25 c-0.604,1.93-0.603,3.952-0.824,5.918c-0.611,5.413-3.24,9.205-8.035,11.812c-5.402,2.937-5.628,4.623-1.404,8.795 c2.835,2.799,3.921,6.155,3.641,9.965c-0.575,7.828-2.079,15.489-4.71,22.899c-1.688,4.755-5.091,7.585-10.169,7.241 c-5.138-0.349-7.218,2.174-8.028,7.159c3.757-0.834,6.832-2.808,10.198-3.943c1.268-0.428,2.691-0.897,3.804,0.085 c1.331,1.175,0.979,2.85,0.323,4.181c-4.555,9.239-8.852,18.653-14.716,27.147c-3.401,4.927-8.493,7.868-14.378,9.291 c-10.503,2.54-20.945,5.138-30.628,10.271c-6.951,3.685-14.767,3.384-22.407,3.47c-3.411-0.35-6.854-1.292-10.138,0.58 c-1,0-2,0-3,0c-3.267-1.28-6.774-0.915-10.153-1.445c-1.857-0.292-3.558-0.608-4.784-2.137c-1.666-2.492-3.305-0.416-4.95,0.068 c-1.059,0.586-2.19,0.825-3.395,0.744c-1.695-0.115-3.301-0.82-5.027-0.731c-2.7,0.069-5.445-0.338-8.035,0.802 c-6.742,0.738-12.414-1.879-17.342-6.078c-10.537-8.979-17.276-20.931-24.726-32.307c-0.724-1.106-1.415-2.54-0.586-3.742 c1.031-1.496,2.694-0.969,4.11-0.478c5.344,1.854,10.35,4.465,15.767,6.865c-2.737-5.362-4.924-10.933-7.595-16.278 c-1.184-2.37-3.91-1.29-5.847-2.042c-2.168-1.101-4.575-0.516-6.835-0.973c-2.395-0.831-3.786-2.681-4.636-4.903 c-2.316-6.054-4.321-12.195-4.438-18.774c0.879-3.304,0.985-6.713,1.246-10.097c0.202-0.623,0.324-1.308,0.968-1.638 c-0.044,0.003-0.305,0.005-0.335,0.045c-6.41,6.257-14.446,10.443-20.651,16.893c-1.017,1.058-2.585,1.507-4.064,0.408 c-1.493-2.733,0.284-4.785,1.592-6.801c5.047-7.775,10.208-15.488,17.08-21.824c2.313-2.133,2.741-3.703,0.644-6.587 c-3.545-4.872-5.189-10.646-5.308-16.76c-0.326-1.872,2.49-3.902-0.316-5.652c-1.768-2.914-1.875-5.758,0.32-8.507 c-0.025-0.957,1.984,1.11,1.258-0.825c-0.46-1.228-1.165-2.366-1.275-3.722c0.947-6.501,7.567-11.451,16.11-12.069 c1.052,0.443,1.605,1.236,1.656,2.377c-0.803,2.889-3.539,3.603-5.689,4.916c-2.751,1.681-5.037,3.571-4.921,7.17 c-0.515,2.727-0.471,5.455-0.06,8.181c0.196,6.501,1.479,12.748,4.556,18.839c-1.003-4.793,1.344-6.952,5.511-7.742 c1.19-0.226,2.38-0.466,1.784-2.186c-0.215-1.059-0.222-2.045,0.772-2.748c2.861-1.67,5.839-0.196,8.757-0.293 c3.463-0.114,6.934,0.033,10.363-0.614c1.339,0.125,2.688,0.169,4.029,0.26c2.92,1.104,5.786,0.969,8.585-0.434 c1.422-0.515,2.883-0.747,4.393-0.6c2.037,0.489,4.055,0.671,5.985-0.438c1.415-0.532,2.87-0.729,4.372-0.562 c2.643,0.798,5.23,0.843,7.709-0.594c2.054-0.754,4.159-0.929,6.312-0.594c3.848,1.228,7.663,1.573,11.394-0.439 c1.358-0.509,2.75-0.785,4.206-0.661c5.303,0.383,10.607,0.275,15.908,0.024c1.461-0.162,2.856,0.123,4.219,0.612 c3.721,1.988,7.539,1.751,11.403,0.471c2.158-0.355,4.268-0.172,6.322,0.575c2.47,1.385,5.048,1.464,7.704,0.609 c1.506-0.187,2.962,0.028,4.375,0.554c1.918,1.074,3.931,0.983,5.98,0.45c1.521-0.162,2.983,0.094,4.412,0.595 c2.611,1.465,5.257,0.874,7.907,0.108c2.443-0.171,4.948-0.516,6.48,2.093c0.054,0.368-0.052,0.769-0.367,0.809 c-0.492,0.062-0.448,0.332-0.242,0.232c3.177-1.545,6.555-0.737,9.841-0.9c1.674-0.083,3.339,0.032,4.798,1.028 c1.607,2.063,3.993,1.916,6.238,2.24c3.781,0.544,7.149,1.647,7.459,6.577c1.824-4.291,2.554-8.575,3.143-12.896 c0.328-1.414,0.474-2.846,0.483-4.293c0.7-2.341,1.021-4.684,0.029-7.03c-0.013-1.42-0.369-2.762-0.965-4.042 c-1.115-2.683-3.587-3.822-5.883-5.123c-3.47-1.967-7.195-3.413-10.765-5.173c-1.556-0.767-4.033-1.871-2.801-3.897 c1.833-3.013,0.19-5.054-0.936-7.345c-12.895-26.229-33.915-41.893-62.368-47.85c-0.636-0.25-1.317-0.376-1.941-0.659 c-1.787-1.595-3.864-1.701-6.066-1.162c-0.443-0.014-0.873-0.103-1.293-0.241c-2.36-1.459-4.8-1.611-7.32-0.432 c-0.373,0.251-0.775,0.43-1.203,0.563c-0.438,0.111-0.883,0.146-1.332,0.127c-2.07-0.763-3.892,0.083-5.718,0.909 c-14.379,2.67-27.647,7.937-39.425,16.736c-1.064,0.795-2.308,1.311-3.715,1.2c-1.473-0.321-2.345-1.22-2.609-2.705 c0.09-2.908,2.271-4.295,4.286-5.746C81.605,7.064,95.824,1.144,111.994,0.587c1.042,0.021,2.089-0.064,3.125,0.123 c3.335,0.745,6.716,0.228,10.072,0.357c1.264,0.025,2.448-0.585,3.723-0.479c1.488-0.146,2.873,0.501,4.332,0.583 c1.633,0.533,3.324,0.394,5.002,0.428c15.979,1.772,29.343,9.192,41.043,19.689c11.982,10.751,21.868,23.189,27.836,38.365 c1.397,3.555,4.035,5.528,7.45,6.79C220.498,68.633,225.239,71.835,225.094,79.085z"/><path fill-rule="evenodd" clip-rule="evenodd" fill="#FEFEFE" d="M17.966,81.84c-1.069,3.164-1.137,6.332-0.029,9.503 c1.184,1.497,0.663,3.111,0.323,4.713c0.938,10.069,3.735,16.056,9.451,19.467c-8.975,8.42-16.422,17.937-22.751,28.328 c-1.033,1.695-2.197,3.306-2.441,5.35c-0.2,1.411-0.752,2.368-2.424,1.885c0-49.167,0.034-98.333-0.083-147.5 C0.003,0.603,0.61-0.01,3.594,0.001c36.166,0.13,72.333,0.084,108.5,0.084c0.66,0.33,0.641,0.616-0.056,0.858 C95.24,3.916,79.602,9.648,66.063,20.337c-0.474,0.374-0.683,1.083-1.015,1.636c-2.098,4.916-6.734,7.687-9.982,11.649 C48.06,42.173,42.422,51.43,38.038,61.53c-0.935,2.154-1.488,5.016-4.938,4.601c-3.754,1.668-7.478,3.354-11.102,5.34 c-2.931,1.606-3.88,3.646-3.739,6.644C18.618,79.392,19.029,80.674,17.966,81.84z"/><path fill-rule="evenodd" clip-rule="evenodd" fill="#FEFEFE" d="M0.094,151.085c0.808-0.628,1.616-1.257,2.424-1.885 c7.326-6.279,14.603-12.625,22.79-17.796c1.489-0.94,2.743-2.457,4.777-2.292l-0.132-0.135c-0.621,1.035-1.242,2.07-1.863,3.105 c-1.162,3.252,0.123,6.713-0.854,9.979c1.632,7.985,2.098,16.344,7.415,23.148c2.404,0.96,4.963,0.664,7.454,0.916 c4.813-1.125,7.144,0.685,8.528,5.593c1.686,5.978,5.221,11.29,7.785,17.71c-7.339-3.391-14.679-6.782-22.018-10.173 c-0.248,0.188-0.496,0.377-0.744,0.565c3.636,5.517,7.206,11.079,10.927,16.537c4.297,6.303,8.557,12.669,14.644,17.465 c4.649,3.663,9.751,6.273,15.877,6.212c3.05-0.563,6.183,0.631,9.209-0.44c1.576,0.085,3.176-0.257,4.724,0.282 c1.165,0.149,2.284,0.07,3.268-0.667c1.532-0.989,3.071-0.927,4.617-0.033c4.606,3.032,10.594,1.792,15.174,4.907 c-36.735,0-73.47-0.037-110.205,0.07c-2.983,0.009-3.913-0.501-3.888-3.757C0.176,197.295,0.094,174.189,0.094,151.085z"/><path fill-rule="evenodd" clip-rule="evenodd" fill="#FEFEFE" d="M224.232,94.32c0.365,0.208,0.652,0.13,0.861-0.235 c0,42.167-0.039,84.333,0.084,126.5c0.009,2.983-0.601,3.598-3.584,3.585c-31.5-0.137-63-0.085-94.5-0.085 c-0.258-0.213-0.334-0.411-0.229-0.596c0.102-0.177,0.199-0.266,0.295-0.266c7.931-0.085,15.732-1.613,22.589-5.321 c9.387-5.077,19.508-7.362,29.652-9.759c7.81-1.845,13.216-6.384,16.83-13.396c4.23-8.204,8.558-16.357,13.414-25.621 c-6.639,2.893-12.253,5.338-18.576,8.093c1.677-4.603,3.078-8.42,4.455-12.245c0.609-1.692,1.827-1.414,3.241-1.291 c2.307,0.2,4.648,0.177,6.964,0.053c2.546-0.135,4.373-1.425,5.201-3.926c2.778-8.388,4.63-16.949,5.202-25.796 c0.255-3.944-1.943-6.138-4.615-8.474c-1.122-0.98-4.021,0.143-3.284-1.79c0.95-2.489,0.576-6.518,3.423-7.263 c9.825-2.573,10.567-10.726,12.282-18.43C223.568,96.775,223.141,95.488,224.232,94.32z"/><path fill-rule="evenodd" clip-rule="evenodd" fill="#FEFEFE" d="M225.094,79.085c-1.411-7.387-7.678-9.644-13.414-11.971 c-2.897-1.176-4.479-2.672-5.543-5.406c-6.678-17.15-17.838-31.061-31.989-42.495C163.675,10.752,151.77,4.91,138.202,3.051 c-1.558-1.097-3.521,0.14-5.091-0.886c-1.322-0.406-2.646-0.812-3.968-1.219c-0.692-0.248-0.709-0.535-0.05-0.861 c30.833,0,61.667,0.054,92.5-0.085c2.984-0.014,3.604,0.601,3.586,3.586C225.029,28.751,225.094,53.918,225.094,79.085z"/><path fill-rule="evenodd" clip-rule="evenodd" fill="#323332" d="M127.16,223.224c-0.026,0.286-0.049,0.574-0.066,0.861 c-0.666,0-1.334,0-2,0c-2-0.794-4-0.794-6,0c-0.666,0-1.334,0-2,0C120.158,220.405,123.668,221.909,127.16,223.224z"/><path fill-rule="evenodd" clip-rule="evenodd" fill="#323332" d="M126.209,2.04c-3.697-0.294-7.496,0.866-11.098-0.776 c1.379-1.58,3.536,0.122,4.982-1.179c0.666,0,1.334,0,2,0C123.096,1.517,125.861-0.768,126.209,2.04z"/><path fill-rule="evenodd" clip-rule="evenodd" fill="#CACACA" d="M126.209,2.04c-0.718-2.027-3.396,0.072-4.115-1.955 c2.334,0,4.666,0,7,0c-0.024,0.289-0.008,0.577,0.05,0.861C128.166,1.312,127.188,1.676,126.209,2.04z"/><path fill-rule="evenodd" clip-rule="evenodd" fill="#C7C7C7" d="M120.094,0.085c-1.287,1.976-3.408,0.422-4.982,1.179 c-1.025-0.107-2.049-0.214-3.073-0.32c0.065-0.283,0.085-0.569,0.056-0.858C114.76,0.085,117.428,0.085,120.094,0.085z"/><path fill-rule="evenodd" clip-rule="evenodd" fill="#ABABAB" d="M119.094,224.085c2-1.562,4-1.56,6,0 C123.094,224.085,121.094,224.085,119.094,224.085z"/><path fill-rule="evenodd" clip-rule="evenodd" fill="#E4D567" d="M126.086,4.92c0.352,0.003,0.702,0.006,1.053,0.008 c1.051-0.533,2.094-0.425,3.135,0.033c1.539,0.638,2.805,2.273,4.781,1.292c14.285,2.27,27.006,8.088,38.412,16.903 c12.66,9.784,21.559,22.363,28.076,36.882c1.969,4.386-1.69,2.428-3.31,3.584c5.135,2.489,10.03,4.871,14.934,7.238 c2.629,1.27,5.299,2.478,6.704,5.293c-0.524,1.766-0.216,3.565-0.224,5.354c0.59,2.048,0.595,4.096,0.003,6.143 c0.013,1.799-0.327,3.612,0.244,5.386c-0.431,5.158-1.734,10.092-3.751,14.853c-0.567,1.339-1.384,2.588-2.91,1.957 c-1.536-0.634-0.21-2.021-0.091-2.961c0.622-4.921-1.037-6.69-7.865-6.584c-2.206,0.034-3.316-0.209-4.04-2.138 c1.023-2.438-1.268-1.361-1.827-1.452c-3.975-0.644-8.086,0.718-12.029-0.758c-2.378-0.922-4.87-0.659-7.333-0.708 c-2.661,0.36-5.331,0.932-7.919-0.354c-1.257-0.894-2.674-0.748-4.086-0.629c-2,0.33-4.015,0.896-5.911-0.377 c-1.274-0.78-2.671-0.768-4.086-0.627c-2.661,0.367-5.326,0.856-7.926-0.314c-1.924-1.083-4.013-0.76-6.069-0.712 c-3.987,0.353-7.982,0.978-11.924-0.325c-1.001-0.251-2.001-0.501-3.002-0.752c-5.686-0.94-11.373-0.94-17.06,0.001 c-1.001,0.25-2.003,0.5-3.004,0.751c-3.942,1.303-7.937,0.678-11.925,0.325c-2.056-0.048-4.145-0.371-6.069,0.712 c-2.599,1.173-5.264,0.678-7.925,0.317c-1.415-0.14-2.812-0.159-4.086,0.624c-1.897,1.273-3.912,0.707-5.912,0.377 c-1.416-0.139-2.833-0.29-4.086,0.628c-1.951,1.427-4.172,0.36-6.241,0.677c-2.228-0.445-4.396-1.877-6.746-0.425 c-6.65,1.469-13.321,0.461-19.985,0.159c-0.872,0.678-1.728,0.775-3.083-0.567c1.462,1.59,3.222,1.261,4.052,2.538 c0.759,1.374,3.633,0.516,3.344,2.354c-0.41,2.609-2.73,0.695-4.129,0.907c-5.928,0.898-6.292,1.257-5.369,7.044 c0.174,1.093,0.695,2.806-0.587,3.037c-1.5,0.271-3.249-0.302-3.925-2.225c-2.209-6.276-4.337-12.565-4.132-19.355 c0.571-3.298,0.516-6.598,0.029-9.899c-0.987-5.578,3.972-6.394,7.041-8.644c1.421-1.042,3.163-1.646,4.759-2.45 c1.305-2.164,3.277-3.351,5.687-3.894c0.488-0.129,1.04,0.072,1.494-0.272c-0.647-0.014-1.168-0.3-1.62-0.753 c-1.561-3.795,0.813-6.729,2.335-9.715c5.12-10.041,11.567-19.116,20.108-26.603c1.54-1.35,3.215-2.262,5.21-2.622 c11.731-9.544,24.927-15.842,39.962-18.102c0.947-0.143,1.851-0.579,2.774-0.879c1.131-1.091,2.513-0.461,3.79-0.554 c3.598,1.667,7.156-0.841,10.746-0.104C125.102,4.572,125.605,4.698,126.086,4.92z"/><path fill-rule="evenodd" clip-rule="evenodd" fill="#F3F3F3" d="M62.047,117.857c0.769,0.082,1.533,0.142,2.103-0.545 c1.609-1.245,3.256-0.959,4.916-0.118c0.306,1.071,1.136,0.77,1.872,0.717c0.757-0.432,1.477-0.399,2.153,0.174 c-0.812,3.274-4.695,4.891-4.974,9.466c7.625-4.519,14.218-9.549,22.011-12.31c2.873,0.623,5.729-1.773,8.636-0.025 c0.538,0.324-0.19,0.204,0.431,0.098c0.272-0.047-0.554-0.168-0.424-0.581c0.013-0.538,0.276-0.89,0.76-1.093 c1.514,0.023,3.045-0.329,4.515,0.289c1.69,0.083,3.38,0.166,5.07,0.248c4.592,0.891,9.235,0.124,13.84,0.45 c1.199,0.085,3.199-0.92,3.214,1.649c-4.028,3.159-8.233,6.146-13.487,6.57c-3.662,0.296-4.869,2.46-5.741,5.465 c-1.489,5.13-3.689,10.125-4.54,15.348c-0.64,3.932-3.741,5.432-5.922,5.613c-8.813,0.736-17.283,3.21-25.71,5.276 c-5.778,1.417-9.662,1.278-13.698-2.963c-1.536-1.614-4.372-1.899-5.15-4.515c-2.054-1.697-1.371-3.852-0.994-5.954 c0.047-1.11,0.561-2.344-0.812-3.08c-0.891-1.608-0.611-3.26-0.185-4.918c0.009-1.081,0.749-2.336-0.73-3.062 c-1.085-1.594-0.647-3.269-0.263-4.941c-1.986-5.103,1.304-5.732,5.064-5.993c1.458-0.102,2.962-0.05,4.25-0.942 C59.441,117.161,60.751,117.595,62.047,117.857z"/><path fill-rule="evenodd" clip-rule="evenodd" fill="#73706F" d="M179.508,161.085c-14.026-1.656-28.049-3.349-42.084-4.925 c-2.24-0.252-3.092-1.442-3.67-3.388c-1.802-6.062-3.944-12.034-5.506-18.155c-0.848-3.317-2.931-3.727-5.566-3.568 c-2.812,0.168-6.23-1.04-7.476,3.105c-1.771,5.899-3.716,11.747-5.425,17.663c-0.734,2.541-2.136,3.803-4.755,4.366 c-13.171,2.834-26.309,5.819-39.451,8.784c-2.72,0.614-5.014,0.249-7.47-1.393C41.896,152.744,41.867,152.8,40.09,132.12 c-0.185-2.147-0.568-4.278-0.83-6.421c-0.331-2.703,1.113-4.137,3.595-4.425c2.603-0.303,2.878,1.834,3.118,3.635 c0.766,5.764,1.556,11.53,2.091,17.318c0.913,9.891,11.331,17.843,21.215,15.81c10.1-2.077,20.12-4.544,30.23-6.559 c3.118-0.621,4.509-2.2,5.282-5.06c1.476-5.459,3.223-10.845,4.74-16.293c0.695-2.497,1.836-4.151,4.715-4.239 c1.811-0.055,3.6-0.703,5.412-0.784c11.713-0.525,12.613,0.155,15.799,11.362c0.364,1.281,1.062,2.511,1.197,3.806 c0.831,7.975,4.833,11.473,13.18,11.668c9.263,0.216,18.491,1.951,27.731,3.056c2.537,0.303,4.298-1.243,6.401-2.229 c8.669-4.062,12.3-10.886,12.2-20.199c-0.028-2.633,0.682-5.268,0.939-7.912c0.227-2.33,1.041-3.887,3.738-3.417 c2.333,0.407,3.423,1.573,3.009,4.167c-1.048,6.563-1.896,13.157-2.841,19.737c-0.094,0.655-0.219,1.323-0.45,1.939 C199.308,150.409,183.119,161.155,179.508,161.085z"/><path fill-rule="evenodd" clip-rule="evenodd" fill="#F3F3F3" d="M192.286,136.062c-0.009,0.686-0.018,1.37-0.026,2.056 c0.607,1.544,0.485,2.915-0.948,3.973c-2.345,4.89-7.716,6.274-11.285,9.746c-1.601,1.287-3.244,0.975-4.902,0.131 c-3.845-1.789-8.144-0.432-12.058-1.745c-1.643,0.563-3.29,0.518-4.939,0.033c-3.893-2.126-8.299-1.334-12.438-2.037 c-2.734-0.465-3.994-1.32-4.643-4.017c-0.951-3.966-2.679-7.75-3.55-11.728c-0.907-4.138-2.296-7.685-6.392-9.569 c-0.76-0.307-1.289-0.748-0.967-1.679c8.509-1.391,16.706-4.014,24.986-6.309c2.271-0.355,4.548-0.878,6.751,0.295 c2.952,1.75,6.528,0.084,9.498,1.738c-0.935,0.893-1.891,0.928-2.757,0.289c2.069,0.63,4.287,0.493,6.518,0.026l-0.079-0.363 c1.312-0.333,2.63-0.754,3.833,0.3c3.514,0.649,7.004,1.557,10.547,1.872c3.336,0.298,5.273,1.384,4.824,5.043 c0.78,1.86,0.076,3.437-0.952,4.95c-0.007,0.686-0.013,1.372-0.02,2.059C194.005,132.985,193.356,134.566,192.286,136.062z"/><path fill-rule="evenodd" clip-rule="evenodd" fill="#F3F3F3" d="M135.078,163.381c-3.676-0.449-6.289,3.213-10.011,2.586 c-2.986,0.571-5.97,0.638-8.95-0.038c-2.357-0.654-4.715-1.309-7.071-1.963c-2.044,2.151-4.619,2.883-7.495,2.807 c-0.394,0.181-0.787,0.367-1.176,0.561c-0.41,0.194-0.82,0.185-1.229-0.005c-6.075,2.036-10.198,6.499-13.042,11.836 c-2.235,4.194-6.509,5.04-9.86,6.288c-3.101,1.155-6.847,1.675-10.292,2.556c-1.081,0.276-1.935-0.018-2.546-0.992 c-3.221-5.134-6.941-10.002-8.505-16.016c1.009-1.116,2.425-1.438,3.628-0.901c3.982,1.777,7.785,0.551,11.624-0.366 c10.569-2.522,21.019-5.508,31.553-8.164c1.973-0.497,3.623-1.561,5.424-2.358c5.362-1.392,5.463-6.371,6.91-10.34 c1.393-3.821,2.588-7.732,3.58-11.676c0.567-2.253,1.425-3.258,3.934-3.207c2.381,0.049,3.371,0.756,4.01,3.122 c1.65,6.117,3.963,12.063,5.447,18.215c0.74,3.069,2.238,4.027,4.994,4.004c0.604,0.463,1.016,1.047,1.141,1.812 c0.039,0.771-0.182,1.454-0.688,2.042C136.031,163.476,135.569,163.531,135.078,163.381z"/><path fill-rule="evenodd" clip-rule="evenodd" fill="#51B85B" d="M131.359,198.195c-0.281-0.166-0.612-0.283-0.837-0.506 c-4.534-4.499-4.532-4.502-7.513,1.318c-2.506,2.472-5.844,2.249-8.921,2.528c-10.246,0.93-20.49,1.919-30.766,2.372 c-2.278-0.319-4.448-1.15-6.736-1.546c-1.439-0.249-1.549,0.651-2.007,1.431c-5.265,1.888-10.543,2.626-15.886,0.353 c-2.561-1.732-3.893-4.461-5.589-6.895c0.405-0.867,1.145-1.269,2.032-1.467c2.305,0.164,4.634,0.607,6.836-0.554 c14.412-2.648,29.052-2.929,43.588-4.271c15.372-1.421,30.788-2.229,46.167-3.61c9.228-0.829,18.48-1.968,27.787-1.822 c2.043,0.094,4.09,0.062,6.136,0.037c3.176,0.089,6.322-2.945,9.528-0.098c-0.573,2.085-1.466,4.007-2.885,5.66 c-0.97,0.817-1.692,2.231-3.255,1.793c-1.969-0.553-0.086,1.426-1.044,1.48c-1.81,1.763-4.016,1.562-6.237,1.308 c-2.27,0.35-4.339-3.013-6.74-0.33c-1.516,1.524-3.393,1.486-5.312,1.283c-2.265,0.393-4.396-3.049-6.752-0.204 c-1.812,1.681-3.984,1.514-6.179,1.259c-2.271,0.373-4.303-3.015-6.723-0.393c-1.281,1.353-2.904,1.411-4.586,1.274 c-2.312-0.609-4.672-1.036-6.992-1.644c-1.489-0.391,0.576,1.028-0.363,1.247C135.85,200.521,133.604,199.505,131.359,198.195z"/><path fill-rule="evenodd" clip-rule="evenodd" fill="#E4D567" d="M195.18,185.466c-3.216-0.521-6.01,2.198-9.287,1.208 c-1.914-0.029-3.842-0.388-5.731,0.218c-12.948,1.616-25.97,2.308-38.975,3.266c-25.461,1.876-50.904,3.989-76.356,5.989 c-1.158,0.091-2.327,0.028-3.491,0.037c-1.982,0.943-4.196-0.105-6.191,0.723c-0.682,0.115-1.363,0.229-2.044,0.344 c-1.449-1.738-2.958-3.438-3.691-5.651c0.278-0.12,0.688-0.418,0.823-0.323c5.951,4.182,12.005,3.421,18.449,1.021 c5.836-2.174,11.961-3.573,17.958-5.314c3.109-2.338,6.933-2.509,10.465-2.723c14.556-0.88,29.053-2.468,43.607-3.34 c6.267-0.376,12.505-1.786,18.75,0.082c1.029,1.106,2.329,1.111,3.682,0.899c1.667-0.32,3.345-0.818,4.926,0.299 c1.257,0.804,2.645,0.857,4.068,0.713c2.327-0.304,4.668-0.91,6.926,0.314c0.339,0.278,0.678,0.557,1.017,0.835 c2.006,0.83,4.013,0.831,6.019,0c3.588-1.336,7.446-1.676,11.088-3.386C197.104,182.816,196.436,184.273,195.18,185.466z"/><path fill-rule="evenodd" clip-rule="evenodd" fill="#DF7E39" d="M159.466,181.002c-4.21,2.205-8.843,1.066-13.242,1.456 c-19.836,1.76-39.713,3.058-59.578,4.523c1.623-2.34,3.247-4.682,4.872-7.022c5.642-4.686,12.705-3.488,19.021-3.659 c11.398-0.31,22.605-2.171,33.934-2.849c2.783-0.166,5.197,0.562,7.648,1.556C154.91,176.587,157.354,178.592,159.466,181.002z"/><path fill-rule="evenodd" clip-rule="evenodd" fill="#787574" d="M165.244,111.38c5.788-3.116,11.356-6.584,17.057-9.819 c1.167-0.662,2.962-0.6,4.383-0.363c6.232,1.04,12.421,2.337,18.651,3.392c2.653,0.449,3.51,1.37,2.868,4.28 c-1.955,8.876-1.792,8.803-10.606,7.388C186.938,114.546,176.339,112.371,165.244,111.38z"/><path fill-rule="evenodd" clip-rule="evenodd" fill="#1E72B6" d="M82.014,201.923c13.666-0.972,27.332-1.943,40.997-2.915 c-0.747,2.528-1.706,4.96-3.22,7.143c-7.252,4.181-15.444,3.027-23.24,3.903c-6.886,0.773-13.849,0.952-20.732,1.866 c-3.752,0.498-7.226-0.5-10.726-1.534c-2.76-1.436-4.76-3.651-6.397-6.241c5.546-0.642,11.095-1.284,16.644-1.926 C77.516,201.035,79.769,201.561,82.014,201.923z"/><path fill-rule="evenodd" clip-rule="evenodd" fill="#1E72B6" d="M181.041,193.965c2.45,0.028,4.939,0.424,7.256-0.784 c0.999-0.759,1.966-0.998,2.845,0.177c-0.99,3.905-3.603,6.312-7.206,7.803c-11.695,3.015-23.715,3.704-35.658,4.923 c-3.468,0.354-6.925,0.053-10.307-0.877c-2.461-2.096-4.914-4.197-6.612-7.011c2.308-0.386,4.765,0.241,6.942-1.02 c2.207-1.08,4.467-0.652,6.727-0.243c1.814,0.052,3.652,0.284,5.324-0.719c1.853-1.092,3.77-0.694,5.689-0.249 c2.436,0.014,4.919,0.448,7.217-0.798c1.88-1.01,3.818-0.636,5.758-0.24c2.147,0.079,4.321,0.386,6.336-0.713 C177.204,193.122,179.121,193.52,181.041,193.965z"/><path fill-rule="evenodd" clip-rule="evenodd" fill="#E1453C" d="M88.116,99.101c-22.941,4.533-43.279,15.27-63.451,26.602 c9.174-10.897,20.675-18.842,32.447-26.456c1.571-1.208,3.251-0.673,4.92-0.306c7.315-0.347,14.63-0.694,21.945-1.041 C85.485,97.857,87.417,96.357,88.116,99.101z"/><path fill-rule="evenodd" clip-rule="evenodd" fill="#E1453C" d="M136.193,114.269c3.629-4.021,7.607-7.79,10.781-12.145 c2.621-3.599,5.245-5.472,9.811-4.324c2.011,0.506,4.248,0.109,6.382,0.123c2.986-0.362,5.979-0.896,8.915,0.289 c1.079,0.357,2.159,0.715,4.036,1.337c-11.904,7.944-24.242,13.206-37.79,15.65C137.354,115.493,136.209,116.173,136.193,114.269z" /><path fill-rule="evenodd" clip-rule="evenodd" fill="#F2F2F2" d="M163.132,176.846c-5.813-2.882-10.28-7.519-15.142-11.642 c0.473-3.187,2.606-2.119,4.476-1.753c6.681,1.308,13.375,2.56,20.032,3.976c4.748,1.011,9.207,1.029,13.485-1.617 c1.534-0.948,3.253-1.814,5.154-0.725c-0.791,4.262-3.033,7.945-4.665,11.876c-0.821,1.979-2.236,2.16-3.969,2.019 c-4.111-0.336-8.223-0.675-12.334-1.013c-0.322-0.248-0.665-0.466-1.035-0.653C167.078,177.808,165.197,176.14,163.132,176.846z"/><path fill-rule="evenodd" clip-rule="evenodd" fill="#6E5BA6" d="M65.094,210.386c18.234-1.412,36.467-2.824,54.699-4.236 c-2.93,4.627-7.847,5.605-12.611,6.803c-1.407,0.354-2.978,0.017-4.25,0.987c-1.5,1.168-3.125,0.628-4.731,0.347 c-3.686,1.018-7.654,0.107-11.262,1.653c-3.28,1.042-6.558,1.075-9.834-0.013C72.903,214.508,68.47,213.592,65.094,210.386z"/><path fill-rule="evenodd" clip-rule="evenodd" fill="#E1453C" d="M152.121,175.007c-20.202,1.652-40.404,3.304-60.605,4.954 c2.301-3.229,4.805-6.228,8.632-7.752c3.626-0.133,7.247,0.876,10.876,0.057c0.165-0.015,0.356-0.089,0.493-0.033 c9.298,3.771,18.205,1.404,26.863-2.082C144.672,167.616,148.35,171.123,152.121,175.007z"/><path fill-rule="evenodd" clip-rule="evenodd" fill="#C1C1C1" d="M191.138,165.085c-8.56,7.592-18.095,4.816-27.569,2.575 c-4.005-0.948-8.002-1.931-11.99-2.946c-1.293-0.33-2.554-0.876-3.588,0.49c-1.332-0.425-2.665-0.85-3.998-1.274 c-1.717-0.799-3.634,0.047-5.365-0.647c-1.107-0.479-1.744-1.453-2.461-2.344c-0.054-0.536-0.107-1.073-0.162-1.61 c3.35,0.335,6.699,0.669,10.05,1.003c1.837,1.373,3.846,1.616,5.999,0.919c0.668,0.021,1.336,0.043,2.004,0.063 c1.893,1.008,3.836,1.672,5.998,0.927c1.331,0.042,2.661,0.083,3.991,0.125c1.852,1.315,3.857,1.59,6.007,0.885 c0.657-0.011,1.36-0.181,1.965-0.008c6.839,1.952,13.056,1.093,18.457-3.853c0.577-0.527,1.372-0.817,2.293-1.349 C193.511,160.905,192.35,163.001,191.138,165.085z"/><path fill-rule="evenodd" clip-rule="evenodd" fill="#C1C1C1" d="M107.129,159.21c-1.398,2.284-3.596,3.346-6.067,4.033 c-9.435,2.622-18.947,5.005-28.265,7.992C66.665,173.2,60.838,173.316,54.9,171c-2.072-2.058-2.51-4.758-3.038-7.923 c6.347,7.304,13.53,5.372,21.22,3.385C84.307,163.562,95.769,161.582,107.129,159.21z"/><path fill-rule="evenodd" clip-rule="evenodd" fill="#777473" d="M102.108,109.892c13.023-5.889,26.64-9.465,42.171-11.195 c-3.637,4.4-6.422,7.771-9.207,11.143c-2.13,1.79-4.389,0.075-6.586,0.17c-7.055,0.307-14.129-0.153-21.191,0.507 C105.616,110.672,103.687,111.267,102.108,109.892z"/><path fill-rule="evenodd" clip-rule="evenodd" fill="#3F403F" d="M67.3,24.183c-8.687,7.51-15.995,16.166-21.633,26.188 c-2.24,3.983-4.495,7.975-5.493,12.511c0.547,0.793,0.549,1.582-0.018,2.367c-1.874,1.256-3.844,2.305-6.071,2.793 c-0.329-0.637-0.657-1.273-0.986-1.91c1.761-0.94,2.287-2.665,2.975-4.379c5.681-14.149,13.931-26.59,24.978-37.134 c1.159-1.106,2.019-2.742,3.996-2.646C65.799,22.709,66.55,23.446,67.3,24.183z"/><path fill-rule="evenodd" clip-rule="evenodd" fill="#6D5BA6" d="M137.971,205.206c4.662-2.37,9.799-1.045,14.688-1.697 c10.347-1.381,20.845-1.634,31.278-2.35c-7.263,3.38-14.916,5.324-22.819,6.508c-2.729,0.409-5.358,1.489-8.033,2.263 c-2.669,1.007-5.329,1.192-7.972-0.093C142.646,208.427,139.639,207.85,137.971,205.206z"/><path fill-rule="evenodd" clip-rule="evenodd" fill="#F0F0F0" d="M211.981,136.894c-1.471,4.283-0.947,9.014-2.958,13.175 c-2.904,6.782-5.592,8.02-10.769,4.955c8.473-7.022,5.563-17.649,8.459-26.585c2.099,0.02,3.463,1.477,4.93,2.738 C213.408,132.984,212.739,134.937,211.981,136.894z"/><path fill-rule="evenodd" clip-rule="evenodd" fill="#F1F1F1" d="M35.135,156.067c-2.475-4.044-2.228-8.898-3.928-13.173 c-1.087-1.534-0.647-3.157-0.277-4.776c-0.232-4.127,1.92-6.157,6.008-6.824c0.341,3.388,0.665,6.608,0.989,9.83 c-0.454,2.061-0.599,4.067,1.022,5.779c0.719,0.643,0.737,1.367,0.301,2.15c-0.338,2.581-0.441,5.095,1.937,6.914 C39.235,160.025,37.187,158.166,35.135,156.067z"/><path fill-rule="evenodd" clip-rule="evenodd" fill="#F2F2F2" d="M114.167,216.209c4.085-1.355,6.778-4.617,9.93-7.252 c2.046-0.889,4.306,0.116,6.358-0.719c4.678-0.784,6.82,3.762,10.531,5.011c-0.758,4.091-4.592,3.477-7.069,3.931 c-5.124,0.939-10.351,1.881-15.646,1.398C116.543,218.421,114.456,218.867,114.167,216.209z"/><path fill-rule="evenodd" clip-rule="evenodd" fill="#E4453C" d="M90.044,107.998c9.699-8.336,20.523-13.183,34.937-10.433 c-12.281,3.008-23.129,6.847-33.599,11.697C90.093,109.732,89.896,109.049,90.044,107.998z"/><path fill-rule="evenodd" clip-rule="evenodd" fill="#BEBEBE" d="M114.167,216.209c9.272,2.033,18.146,0.432,26.819-2.96 c1.539,0.443,3.078,0.887,5.675,1.635c-5.458,1.888-10.019,3.466-14.581,5.043c-0.689-1.078-1.701-1.438-2.937-1.349 c-0.564,0.041-1.134-0.002-1.701,0.012c0.644,0.01,1.306-0.038,1.771,0.549c-0.092,0.225-0.146,0.458-0.162,0.7 c-4.97,1.259-9.947,1.125-14.93,0.088c-1.782-0.511-3.564-1.021-6.737-1.93C110.559,217.16,112.363,216.685,114.167,216.209z"/><path fill-rule="evenodd" clip-rule="evenodd" fill="#787574" d="M59.877,113.01c8.352-4.517,17.425-6.89,27.132-9.545 c-5.84,9.875-15.19,8.826-23.796,9.679C62.075,113.744,60.958,113.838,59.877,113.01z"/><path fill-rule="evenodd" clip-rule="evenodd" fill="#3C3D3C" d="M102.108,109.892c7.551-0.219,15.101-0.529,22.654-0.616 c3.434-0.039,6.873,0.364,10.31,0.565c-0.644,0.865-1.546,1.206-2.583,1.207c-9.255,0.007-18.51,0.008-27.764,0.003 C103.69,111.051,102.78,110.729,102.108,109.892z"/><path fill-rule="evenodd" clip-rule="evenodd" fill="#C1C1C1" d="M35.135,156.067c2.018-0.022,4.076,2.456,6.052-0.1 c2.28,0.904,4.811,1.854,5.021,4.616c0.126,1.658-1.898,1.409-3.116,1.482c-2.982,0.181-6.442,1.314-7.458-3.165 C35.423,157.967,35.299,157.013,35.135,156.067z"/><path fill-rule="evenodd" clip-rule="evenodd" fill="#BEBEBE" d="M198.255,155.023c4.729,0.824,8.267-0.94,10.769-4.955 c-1.376,8.37-2.723,9.716-8.371,8.915C197.971,158.604,197.283,157.417,198.255,155.023z"/><path fill-rule="evenodd" clip-rule="evenodd" fill="#3C3E3F" d="M187.381,95.952c6.749-0.161,13.508,0.038,20.318-0.702 c-1.765,2.04-3.953,2.84-6.462,2.912c-6.019-2.358-12.354-0.269-18.571-1.812C184.237,96.218,185.809,96.085,187.381,95.952z"/><path fill-rule="evenodd" clip-rule="evenodd" fill="#FAFAFA" d="M126.171,116.276c-2.743-2.224-5.972-0.788-8.957-1.18 c-2.693-0.354-5.554,0.766-8.097-0.92c6.465,0,12.93,0,19.725,0C128.158,115.519,127.217,115.961,126.171,116.276z"/><path fill-rule="evenodd" clip-rule="evenodd" fill="#ECDC69" d="M112.065,91.155c5.687-1.7,11.374-1.7,17.06-0.001 C123.439,91.154,117.752,91.154,112.065,91.155z"/><path fill-rule="evenodd" clip-rule="evenodd" fill="#353635" d="M86.091,220.12c-3.005,0.918-6,0.811-8.988-0.084 c2.846-1.831,6.008-0.592,9.008-0.93C86.741,219.457,86.735,219.794,86.091,220.12z"/><path fill-rule="evenodd" clip-rule="evenodd" fill="#F9F9F9" d="M125.787,205.096c0.485-1.179,0.639-2.805,2.236-2.886 c1.288-0.065,1.666,1.23,2.244,2.261c0.928,1.649-0.357,1.471-1.17,1.767C127.752,206.559,126.274,207.263,125.787,205.096z"/><path fill-rule="evenodd" clip-rule="evenodd" fill="#343534" d="M114.121,219.927c4.977-0.029,9.953-0.059,14.93-0.088 C124.086,221.854,119.108,221.707,114.121,219.927z"/><path fill-rule="evenodd" clip-rule="evenodd" fill="#E8453C" d="M111.024,172.266c-3.632,1.279-7.258,1.355-10.876-0.057 C103.781,170.759,107.4,172.076,111.024,172.266z"/><path fill-rule="evenodd" clip-rule="evenodd" fill="#F4F4F4" d="M100.103,166.112c2.939-0.889,5.784-2.176,8.943-2.146 c0.012,0.705,0.023,1.409,0.035,2.114C106.094,167.606,103.101,167.568,100.103,166.112z"/><path fill-rule="evenodd" clip-rule="evenodd" fill="#EDEDED" d="M136.166,160.938c1.061,0.128,2.17,0.113,2.944,1.046 c0.735,0.984,0.72,1.969-0.001,2.953c-1.525,0.528-3.083,1.204-4.029-0.89c0.216-0.273,0.487-0.472,0.814-0.594 C135.984,162.615,136.076,161.777,136.166,160.938z"/><path fill-rule="evenodd" clip-rule="evenodd" fill="#E9DA68" d="M219.096,88.085c0-2.333,0-4.667,0-7 c0.349-0.645,0.697-0.644,1.045,0c0.807,2.338,0.856,4.671-0.034,7C219.77,88.728,219.433,88.728,219.096,88.085z"/><path fill-rule="evenodd" clip-rule="evenodd" fill="#30333D" d="M132.127,91.906c3.975,0.108,7.949,0.217,11.924,0.325 C140.041,93.421,136.051,93.869,132.127,91.906z"/><path fill-rule="evenodd" clip-rule="evenodd" fill="#30333D" d="M97.136,92.231c3.975-0.108,7.95-0.217,11.925-0.325 C105.137,93.869,101.147,93.421,97.136,92.231z"/><path fill-rule="evenodd" clip-rule="evenodd" fill="#3C3E37" d="M77.103,215.927c3.278,0.005,6.557,0.01,9.835,0.014 C83.656,218.067,80.379,217.526,77.103,215.927z"/><path fill-rule="evenodd" clip-rule="evenodd" fill="#9A423D" d="M88.116,99.101c-1.123-1.285-2.744-0.853-4.138-1.201 c2.474-1.313,5.101-0.694,8.088-0.709C90.837,98.592,89.423,98.741,88.116,99.101z"/><path fill-rule="evenodd" clip-rule="evenodd" fill="#EADB68" d="M125.051,5.189c-3.637,1.466-7.288,1.314-10.949,0.102 c0.506-0.867,1.207-0.716,1.945-0.371c0.338,0.01,0.674,0.021,1.012,0.03c2.41-1.328,4.906-1.038,7.422-0.394 C124.67,4.768,124.861,4.979,125.051,5.189z"/><path fill-rule="evenodd" clip-rule="evenodd" fill="#333433" d="M27.234,142.062c-0.015-3.352-1.307-6.813,0.854-9.979 C28.023,135.429,28.73,138.84,27.234,142.062z"/><path fill-rule="evenodd" clip-rule="evenodd" fill="#343534" d="M42.103,166.127c-2.622,0.812-5.181,1.113-7.454-0.916 C37.156,165.338,39.806,164.299,42.103,166.127z"/><path fill-rule="evenodd" clip-rule="evenodd" fill="#2D2E2D" d="M99.146,167.328c0.27-0.202,0.569-0.344,0.896-0.425 c3.022-0.394,6.043-0.725,9.041,0.177C105.814,168.91,102.484,168.272,99.146,167.328z"/><path fill-rule="evenodd" clip-rule="evenodd" fill="#F8F8F8" d="M99.019,115.052c0.154,0.049,0.396,0.056,0.445,0.156 c0.106,0.219,0.113,0.485,0.16,0.732c-3.18-0.036-6.43,0.885-9.496-0.699c0.592-0.116,1.184-0.233,1.776-0.351 C94.3,113.829,96.678,113.601,99.019,115.052z"/><path fill-rule="evenodd" clip-rule="evenodd" fill="#C5C5C5" d="M160.055,162.24c-2.144,0.626-4.48,2.504-5.998-0.927 C156.226,160.525,157.988,162.367,160.055,162.24z"/><path fill-rule="evenodd" clip-rule="evenodd" fill="#3A3B3D" d="M126.086,4.92c-0.345,0.09-0.689,0.18-1.035,0.27l0.088-0.269 c-2.608-0.954-5.431,0.338-8.023-0.767C120.232,2.913,123.348,1.71,126.086,4.92z"/><path fill-rule="evenodd" clip-rule="evenodd" fill="#ECDC69" d="M22.286,79.135c1.246,3.304,1.291,6.604-0.029,9.899 C22.267,85.734,22.276,82.435,22.286,79.135z"/><path fill-rule="evenodd" clip-rule="evenodd" fill="#C7C7C7" d="M109.083,167.08c-3.014-0.059-6.027-0.117-9.041-0.177 c0.021-0.264,0.041-0.528,0.061-0.792c2.993-0.01,5.986-0.021,8.979-0.031C109.082,166.413,109.082,166.747,109.083,167.08z"/><path fill-rule="evenodd" clip-rule="evenodd" fill="#7A7776" d="M39.037,106.032c-1.212,0.382-2.099,2.729-3.519,1.147 c-1.021-1.138,0.257-1.931,1.53-2.131C38.15,104.486,39.126,104.182,39.037,106.032z"/><path fill-rule="evenodd" clip-rule="evenodd" fill="#F9F9F9" d="M116.117,165.929c2.988-1.287,5.973-1.332,8.95,0.038 c-0.241,0.187-0.513,0.282-0.817,0.286c-2.434,1.167-4.862,1.203-7.284-0.033C116.656,166.198,116.373,166.102,116.117,165.929z"/><path fill-rule="evenodd" clip-rule="evenodd" fill="#C5C5C5" d="M129.213,219.139c-1.24-0.077-2.482-0.153-3.724-0.229 c2.341-0.496,4.968-2.19,6.591,1.018C131.125,219.664,130.169,219.401,129.213,219.139z"/><path fill-rule="evenodd" clip-rule="evenodd" fill="#30333D" d="M130.158,6.055c-0.65-1.331-2.01-0.759-3.02-1.127 c2.193-0.943,4.402-1.979,5.94,0.994C132.148,6.901,131.164,6.74,130.158,6.055z"/><path fill-rule="evenodd" clip-rule="evenodd" fill="#2D403F" d="M172.082,98.212c-2.972-0.097-5.943-0.192-8.915-0.289 C166.181,96.723,169.167,96.38,172.082,98.212z"/><path fill-rule="evenodd" clip-rule="evenodd" fill="#C5C5C5" d="M170.053,163.25c-2.14,0.637-4.451,2.438-6.007-0.885 C166.048,162.66,168.051,162.955,170.053,163.25z"/><path fill-rule="evenodd" clip-rule="evenodd" fill="#2F333C" d="M62.055,94.91c2.334-0.007,4.669-0.014,7.003-0.021 c-2.902,1.981-5.911,1.505-8.947,0.388C60.622,94.43,61.32,94.573,62.055,94.91z"/><path fill-rule="evenodd" clip-rule="evenodd" fill="#C5C5C5" d="M152.053,161.25c-2.141,0.616-4.473,2.48-5.999-0.919 C148.053,160.638,150.053,160.944,152.053,161.25z"/><path fill-rule="evenodd" clip-rule="evenodd" fill="#F9F9F9" d="M175.135,117.267c-2.08,1.293-4.304,0.809-6.688,0.621 c0.816-1.277,2.04-0.557,2.927-0.937C172.627,117.057,173.881,117.161,175.135,117.267z"/><path fill-rule="evenodd" clip-rule="evenodd" fill="#D5D5D5" d="M130.139,121.227c0.322,0.56,0.645,1.119,0.967,1.679 c-1.395-0.024-2.926,0.519-4.146-0.82C127.91,120.761,129.066,121.165,130.139,121.227z"/><path fill-rule="evenodd" clip-rule="evenodd" fill="#313231" d="M39.25,149.054c-0.312-0.72-0.023-1.767-1.12-2.062 c-0.694-0.998-0.859-1.973,0.134-2.894C40.981,145.275,40.298,147.129,39.25,149.054z"/><path fill-rule="evenodd" clip-rule="evenodd" fill="#3C3E37" d="M145.113,209.837c2.656,0.031,5.314,0.062,7.971,0.094 C150.407,211.63,147.748,211.752,145.113,209.837z"/><path fill-rule="evenodd" clip-rule="evenodd" fill="#F8F8F8" d="M38.265,144.099c-0.045,0.965-0.089,1.93-0.134,2.894 c-0.045,0.155-0.043,0.39-0.145,0.449c-0.217,0.129-0.488,0.168-0.737,0.244c-0.102-2.222-0.689-4.493,0.679-6.562 C38.04,142.115,38.152,143.107,38.265,144.099z"/><path fill-rule="evenodd" clip-rule="evenodd" fill="#31343D" d="M83.143,93.261c2.642-0.105,5.283-0.212,7.925-0.317 C88.495,94.779,85.835,94.43,83.143,93.261z"/><path fill-rule="evenodd" clip-rule="evenodd" fill="#313231" d="M161.876,115.213c-2.25-0.098-4.5-0.196-6.751-0.295 C157.417,114.078,159.724,112.894,161.876,115.213z"/><path fill-rule="evenodd" clip-rule="evenodd" fill="#31343D" d="M150.12,92.943c2.642,0.104,5.284,0.209,7.926,0.314 C155.354,94.433,152.693,94.779,150.12,92.943z"/><path fill-rule="evenodd" clip-rule="evenodd" fill="#F9F9F9" d="M163.132,176.846c2.284-0.725,4.595-1.924,6.711,0.372 c-1.613,0.704-3.222,0.947-4.815-0.053C164.396,177.059,163.764,176.952,163.132,176.846z"/><path fill-rule="evenodd" clip-rule="evenodd" fill="#625F45" d="M117.115,4.154c2.682,0.177,5.473-0.784,8.023,0.767 c-2.693,0.01-5.387,0.02-8.08,0.029C117.088,4.686,117.107,4.42,117.115,4.154z"/><path fill-rule="evenodd" clip-rule="evenodd" fill="#2F323C" d="M172.129,94.891c2.64,0.118,5.279,0.236,7.919,0.354 C177.35,96.438,174.688,96.807,172.129,94.891z"/><path fill-rule="evenodd" clip-rule="evenodd" fill="#303130" d="M98.92,219.178c-1.539,0.011-3.078,0.021-4.617,0.033 C95.83,217.495,97.37,217.586,98.92,219.178z"/><path fill-rule="evenodd" clip-rule="evenodd" fill="#FEFEFE" d="M139.109,164.938c0-0.983,0-1.968,0.001-2.952 c1.628,0.647,3.255,1.296,4.882,1.944C142.365,164.266,140.737,164.602,139.109,164.938z"/><path fill-rule="evenodd" clip-rule="evenodd" fill="#21273A" d="M37.056,97.271c-1.64-0.092-3.182-0.442-4.474-1.717 c1.133-1.052,2.345-0.364,3.505-0.254C36.41,95.958,36.732,96.615,37.056,97.271z"/><path fill-rule="evenodd" clip-rule="evenodd" fill="#323332" d="M50.929,141.117c0.551,1.948-0.125,4.101,0.994,5.954 C48.949,145.527,50.002,143.312,50.929,141.117z"/><path fill-rule="evenodd" clip-rule="evenodd" fill="#31343D" d="M179.067,183.228c-2.309-0.105-4.617-0.21-6.926-0.314 C174.506,181.774,176.834,181.462,179.067,183.228z"/><path fill-rule="evenodd" clip-rule="evenodd" fill="#51B85B" d="M191.142,193.357c-0.949-0.06-1.898-0.119-2.846-0.178 c-0.335-0.249-1.653-0.342-0.542-0.916c1.349-0.698,3.012-0.786,4.54-1.138C191.91,191.869,191.525,192.613,191.142,193.357z"/><path fill-rule="evenodd" clip-rule="evenodd" fill="#A4A3A3" d="M73.091,118.085c-0.718-0.058-1.436-0.116-2.153-0.174 c0.362-2.028,1.758-2.312,3.172-1.423C74.69,116.853,74.125,117.952,73.091,118.085z"/><path fill-rule="evenodd" clip-rule="evenodd" fill="#AAAAAA" d="M116.966,166.22c2.428,0.011,4.855,0.022,7.284,0.033 c-0.063,0.251-0.118,0.504-0.164,0.759c-2.334,0.814-4.66,0.95-6.975-0.07C117.097,166.694,117.049,166.453,116.966,166.22z"/><path fill-rule="evenodd" clip-rule="evenodd" fill="#323332" d="M117.111,166.941c2.324,0.023,4.649,0.047,6.975,0.07 C121.744,168.615,119.418,168.689,117.111,166.941z"/><path fill-rule="evenodd" clip-rule="evenodd" fill="#313231" d="M193.308,129.068c-0.553-1.817,1.138-3.204,0.952-4.95 C195.284,126.026,195.982,127.871,193.308,129.068z"/><path fill-rule="evenodd" clip-rule="evenodd" fill="#DBDBDB" d="M32.174,127.869c0.8-1.897,1.978-2.42,4.019-2.634 C35.326,127.445,34.08,127.852,32.174,127.869z"/><path fill-rule="evenodd" clip-rule="evenodd" fill="#B1B1B1" d="M99.019,115.052c-2.372-0.054-4.743-0.107-7.115-0.161 c0.069-0.237,0.137-0.475,0.203-0.713c1.777-1.191,3.764-0.338,5.638-0.58c0.598-0.044,1.072,0.177,1.423,0.663 C99.138,114.528,99.088,114.792,99.019,115.052z"/><path fill-rule="evenodd" clip-rule="evenodd" fill="#D9453C" d="M90.044,107.998c0.445,0.422,0.891,0.843,1.337,1.265 c-1.286,0.98-2.563,1.987-4.468,1.578C87.534,109.32,88.929,108.811,90.044,107.998z"/><path fill-rule="evenodd" clip-rule="evenodd" fill="#A4A3A3" d="M165.027,177.165c1.605,0.018,3.211,0.034,4.816,0.052 c0.091,0.258,0.2,0.508,0.326,0.75C168.335,178.475,166.39,179.689,165.027,177.165z"/><path fill-rule="evenodd" clip-rule="evenodd" fill="#2C2D2C" d="M192.286,136.062c0.334-1.646,0.668-3.29,1.002-4.936 C194.284,133.042,194.953,134.892,192.286,136.062z"/><path fill-rule="evenodd" clip-rule="evenodd" fill="#333433" d="M211.981,136.894c-0.112-1.905-0.226-3.812-0.338-5.717 C213.413,132.984,214.138,134.854,211.981,136.894z"/><path fill-rule="evenodd" clip-rule="evenodd" fill="#ECDC69" d="M186.103,184.062c-2.006,1.478-4.013,1.473-6.019,0 C182.09,184.062,184.097,184.062,186.103,184.062z"/><path fill-rule="evenodd" clip-rule="evenodd" fill="#545453" d="M130.455,208.238c-2.036,0.981-4.208,0.754-6.358,0.719 C126.084,207.542,128.293,208.097,130.455,208.238z"/><path fill-rule="evenodd" clip-rule="evenodd" fill="#3B3D38" d="M98.2,214.286c1.578-0.115,3.155-0.23,4.732-0.346 C101.523,216.36,99.828,214.87,98.2,214.286z"/><path fill-rule="evenodd" clip-rule="evenodd" fill="#323332" d="M18.259,96.056c-0.107-1.571-0.215-3.142-0.323-4.713 C19.933,92.784,19.109,94.419,18.259,96.056z"/><path fill-rule="evenodd" clip-rule="evenodd" fill="#ECDC69" d="M62.055,94.91c-0.648,0.122-1.296,0.245-1.944,0.367 c-1.346-0.045-2.692-0.091-4.039-0.136C58.01,93.593,60.013,93.747,62.055,94.91z"/><path fill-rule="evenodd" clip-rule="evenodd" fill="#31343D" d="M73.145,94.262c1.971-0.126,3.941-0.252,5.912-0.377 C77.192,95.688,75.195,95.386,73.145,94.262z"/><path fill-rule="evenodd" clip-rule="evenodd" fill="#31343D" d="M162.132,93.885c1.97,0.125,3.94,0.251,5.911,0.377 C165.992,95.386,163.995,95.688,162.132,93.885z"/><path fill-rule="evenodd" clip-rule="evenodd" fill="#323332" d="M17.966,81.84c0.098-1.242,0.196-2.483,0.293-3.726 c1.09,1.256,1.184,2.906,0.675,4.186C18.398,83.648,18.31,82.031,17.966,81.84z"/><path fill-rule="evenodd" clip-rule="evenodd" fill="#726F6E" d="M59.877,113.01c1.111,0.045,2.223,0.089,3.335,0.133 c-1.228,0.983-2.694,0.923-4.136,0.912c-0.421-0.003-1.029-0.174-0.556-0.731C58.761,113.04,59.412,113.104,59.877,113.01z"/><path fill-rule="evenodd" clip-rule="evenodd" fill="#333433" d="M98.107,113.874c-2,0.102-4,0.202-6,0.304 c1.752-1.756,3.974-0.872,6.003-1.07c0.399,0.172,0.531,0.342,0.398,0.513C98.376,113.789,98.244,113.874,98.107,113.874z"/><path fill-rule="evenodd" clip-rule="evenodd" fill="#2B2C2B" d="M98.107,113.874c-0.002-0.256-0.001-0.511,0.002-0.767 c1.993,0.174,4.114-0.584,5.937,0.821c-1.626,0.11-3.252,0.222-4.879,0.332C98.814,114.132,98.46,114.003,98.107,113.874z"/><path fill-rule="evenodd" clip-rule="evenodd" fill="#D0443C" d="M136.193,114.269c0.711,0.311,1.422,0.62,2.134,0.931 c-1.188,0.73-2.372,1.49-3.826,0.645C135.064,115.319,135.629,114.794,136.193,114.269z"/><path fill-rule="evenodd" clip-rule="evenodd" fill="#2C2D2C" d="M49.933,133.119c0.062,1.64,0.123,3.278,0.185,4.918 C48.1,136.471,49.138,134.791,49.933,133.119z"/><path fill-rule="evenodd" clip-rule="evenodd" fill="#313231" d="M30.93,138.118c0.092,1.592,0.185,3.185,0.277,4.776 C28.842,141.434,30.292,139.753,30.93,138.118z"/><path fill-rule="evenodd" clip-rule="evenodd" fill="#313231" d="M191.312,142.091c0.316-1.324,0.632-2.648,0.948-3.973 C192.828,139.653,194.582,141.472,191.312,142.091z"/><path fill-rule="evenodd" clip-rule="evenodd" fill="#E9D968" d="M130.158,6.055c0.973-0.044,1.947-0.088,2.921-0.133 c0.659,0.11,1.317,0.221,1.976,0.331C133.391,6.981,131.707,8.171,130.158,6.055z"/><path fill-rule="evenodd" clip-rule="evenodd" fill="#2F333C" d="M116.047,4.92c-0.648,0.124-1.297,0.247-1.945,0.371 c-1.355-0.029-2.71-0.06-4.065-0.089C111.969,3.583,113.982,3.727,116.047,4.92z"/><path fill-rule="evenodd" clip-rule="evenodd" fill="#545453" d="M125.787,205.096c0.601,1.838,2.17,0.868,3.311,1.142 C126.173,207.592,125.861,207.484,125.787,205.096z"/><path fill-rule="evenodd" clip-rule="evenodd" fill="#EADB68" d="M220.141,81.085c-0.349,0-0.696,0-1.045,0 c0.111-1.667-0.378-3.429,0.775-4.932C219.961,77.798,220.051,79.441,220.141,81.085z"/><path fill-rule="evenodd" clip-rule="evenodd" fill="#2C2D2C" d="M86.091,220.12c0.006-0.338,0.013-0.676,0.02-1.014 c1.668,0.089,3.429-0.418,4.925,0.771C89.388,219.958,87.739,220.039,86.091,220.12z"/><path fill-rule="evenodd" clip-rule="evenodd" fill="#2F302F" d="M133.111,2.165c1.818-0.402,3.629-0.766,5.091,0.886 C136.467,2.978,134.626,3.508,133.111,2.165z"/><path fill-rule="evenodd" clip-rule="evenodd" fill="#313231" d="M175.124,151.968c1.635-0.044,3.269-0.088,4.902-0.131 C178.438,153.601,176.8,153.472,175.124,151.968z"/><path fill-rule="evenodd" clip-rule="evenodd" fill="#313231" d="M158.127,150.256c1.643-0.49,3.291-0.348,4.939-0.033 C161.428,151.436,159.78,151.389,158.127,150.256z"/><path fill-rule="evenodd" clip-rule="evenodd" fill="#313231" d="M48.939,125.115c0.087,1.647,0.175,3.295,0.263,4.941 C47.659,128.487,47.787,126.829,48.939,125.115z"/><path fill-rule="evenodd" clip-rule="evenodd" fill="#2F302F" d="M62.047,117.857c-1.265,0.107-2.529,0.215-3.793,0.322 C59.357,116.177,60.714,117.156,62.047,117.857z"/><path fill-rule="evenodd" clip-rule="evenodd" fill="#323332" d="M178.889,117.203c-1.277-0.1-2.556-0.199-3.833-0.3 C176.38,116.412,177.789,114.831,178.889,117.203z"/><path fill-rule="evenodd" clip-rule="evenodd" fill="#313231" d="M69.066,117.194c-1.638,0.04-3.277,0.079-4.916,0.118 C65.749,115.601,67.39,115.68,69.066,117.194z"/><path fill-rule="evenodd" clip-rule="evenodd" fill="#6B6867" d="M39.037,106.032c-0.663-0.328-1.326-0.655-1.989-0.983 c0.899-0.795,2.106-1.464,3.007-0.613C40.842,105.179,39.683,105.661,39.037,106.032z"/><path fill-rule="evenodd" clip-rule="evenodd" fill="#30333D" d="M168.073,182.2c-1.643-0.1-3.284-0.199-4.926-0.299 C164.862,180.791,166.519,180.647,168.073,182.2z"/><path fill-rule="evenodd" clip-rule="evenodd" fill="#2F403F" d="M62.032,98.94c-1.64,0.102-3.28,0.203-4.92,0.305 C58.658,97.627,60.313,97.775,62.032,98.94z"/><path fill-rule="evenodd" clip-rule="evenodd" fill="#313231" d="M224.232,94.32c-0.098,1.246-0.196,2.492-0.294,3.738 C223.363,96.76,221.869,95.388,224.232,94.32z"/><path fill-rule="evenodd" clip-rule="evenodd" fill="#EADB68" d="M219.096,88.085c0.337,0,0.674,0,1.011,0 c-0.071,1.65-0.142,3.3-0.212,4.95C218.713,91.533,219.208,89.76,219.096,88.085z"/><path fill-rule="evenodd" clip-rule="evenodd" fill="#FEFEFE" d="M30.084,129.112c0.141-0.27,0.283-0.54,0.424-0.81 c0.114,0.162,0.229,0.324,0.343,0.486c-0.298,0.064-0.596,0.128-0.896,0.19C29.952,128.978,30.084,129.112,30.084,129.112z"/><path fill-rule="evenodd" clip-rule="evenodd" fill="#464645" d="M135.895,163.454c-0.271,0.198-0.543,0.396-0.814,0.594 c-0.019-0.223-0.02-0.445-0.002-0.667C135.354,163.369,135.625,163.394,135.895,163.454z"/><path fill-rule="evenodd" clip-rule="evenodd" fill="#CDBC3F" d="M92.08,24.024c0.037-0.162,0.023-0.368,0.119-0.479 c0.612-0.702,0.807-0.105,0.845,0.357c0.8,9.567,1.227,19.184,3.093,28.626c1.089,5.508,1.827,11.163,4.948,16.071 c1.441,2.265,3.315,3.993,6.121,3.308c3.071-0.75,1.586-3.533,1.908-5.471c0.288-1.739-0.553-3.704,1.081-5.163 c0.461,0.306,0.809,0.709,1.045,1.207c0.83,3.595-0.107,7.297,0.658,10.888c0.2,0.425,0.435,0.835,0.733,1.198 c6.011,1.656,12.009,1.659,17.994-0.036c0.264-0.403,0.496-0.813,0.665-1.265c0.79-3.58-0.189-7.259,0.665-10.826 c0.238-0.497,0.593-0.891,1.059-1.182c1.951,1.95,0.78,4.42,1.094,6.642c0.199,1.41-0.451,3.209,1.38,3.908 c1.925,0.736,3.562-0.056,4.917-1.501c2.599-2.771,3.782-6.242,4.615-9.809c2.534-10.841,4.106-21.81,4.152-32.976 c0.008-1.903-0.591-3.948,0.787-5.948c1.588,1.118,1.342,2.983,2.125,4.301c0.454,3.247,1.064,6.471,1.452,9.728 c-0.112,1.816,0.628,3.474,0.981,5.205c0.039,0.512,0.061,1.023,0.066,1.537c-0.222,1.878,0.59,3.571,0.949,5.348 c0.055,3.013,0.133,6.023-0.056,9.032c-0.38,2.132-0.854,4.245-1.251,6.375c-2.199,2.603-3.146,5.684-3.676,9.003 c-0.52,3.262-1.312,6.484-4.037,8.776c-1.718,0.853-3.512,0.743-5.311,0.407c-0.41-0.154-0.789-0.392-1.112-0.674 c-0.233-0.28-0.401-0.623-0.505-0.958c-12.227-0.083-24.443-0.312-36.632,0.208c-0.27,0.301-0.565,0.565-0.862,0.849 c-0.352,0.283-0.735,0.484-1.156,0.64c-1.687,0.259-3.36,0.337-5.02-0.149c-0.711-0.314-1.284-0.793-1.729-1.425 c-1.021-2.728-1.801-5.542-2.848-8.261c-0.073-0.464-0.06-0.932,0.018-1.393c0.419-1.171,1.095-2.355-0.185-3.451 c-0.307-0.341-0.584-0.692-0.875-1.041c-1.784-1.514-2.786-3.38-2.64-5.771c0.043-0.51,0.149-1.005,0.303-1.491 c0.998-4.316,1.021-8.622-0.119-12.918c-0.118-0.508-0.185-1.022-0.208-1.543c-0.016-1.773-0.256-3.575,0.612-5.239 c3.78-0.87-0.225-3.017,0.709-4.365C89.505,30.725,89.878,27.097,92.08,24.024z"/><path fill-rule="evenodd" clip-rule="evenodd" fill="#40403F" d="M110.277,62.166c-0.083-0.293-0.11-0.59-0.082-0.893 c-0.001,0.001-0.091-0.09-0.091-0.09c0.889-1.066,2.367-0.251,3.343-1.048c0.399-0.31,0.702-0.692,0.909-1.155 c0.571-7.484,0.036-14.979,0.288-22.463c-0.078-0.535-0.35-0.942-0.814-1.221c-0.768-0.054-1.536-0.108-2.305-0.162 c-2.219,1.271,0.29,4.148-1.854,5.446c-3.693,0.636-7.379,1.188-10.975-0.468c-1.652-5.736-1.932-11.454,0.205-17.143 c15.072-0.716,30.147-0.48,45.224-0.114c2.495,5.64,1.867,11.363,0.464,17.105c-3.553,1.963-7.275,1.156-10.976,0.668 c-2.249-1.271,0.217-4.166-1.887-5.488c-0.788,0.395-2.046-0.356-2.438,1.001c0.672,6.779,0.371,13.584,0.193,20.361 c-0.079,2.999,1.121,4.095,3.602,4.658c0,0-0.07,0.095-0.069,0.096c0.045,0.302,0.028,0.6-0.048,0.895 c-1.219,4.082,0.678,8.436-1.084,12.475c-6.826,1.604-13.66,1.423-20.498,0.109C109.462,70.685,111.437,66.287,110.277,62.166z"/><path fill-rule="evenodd" clip-rule="evenodd" fill="#3E3F3E" d="M153.996,56.741c-0.014-3.103-0.025-6.205-0.039-9.308 c-0.762-1.703,0.024-3.597-0.654-5.31c-0.018-0.366-0.035-0.733-0.053-1.1c1.152-1.063-1.391-3.878,1.869-3.943 c0.451,2.302,0.902,4.604,1.354,6.906c0.557,0.944,1.041,1.907,0.785,3.061c-0.102,0.362-0.204,0.724-0.306,1.086 c-0.542,3.316-0.693,6.63,0.093,9.934c3.226-0.373,6.57-1.421,9.185,1.637c0.377,0.299,0.488,0.684,0.374,1.141 c-0.596,1.266-2.015,1.45-2.944,2.275c-1.477,1.204-0.786,3.26-1.812,4.632c-0.302,0.343-0.677,0.562-1.128,0.642 c-1.835-0.326-1.757-2.124-2.523-3.248c-0.501-0.274-0.974-0.176-1.437,0.129c-3.614,2.432-2.453,6.657-3.758,9.938 c-0.36,1.098-0.986,2.124-0.898,3.331c0.254,0.489,0.661,0.765,1.194,0.872c1.056,0.061,1.777-0.418,2.235-1.346 c0.339-0.561,0.771-1.023,1.313-1.39c1.479-0.651,2.593-0.078,3.547,1.039c0.27,0.321,0.496,0.679,0.694,1.047 c0.406,0.923,0.9,1.752,2.061,1.867c2.382,0.35,5.27-0.355,6.188,2.995c-1.713,2.112-4.292,0.134-6.203,1.315 c-0.356-0.003-0.714-0.006-1.07-0.008c-2.654-0.552-5.425,0.764-8.036-0.495c-3.159-1.51-6.529-0.617-9.799-0.857 c-3.025,0.184-6.078-0.389-9.082,0.333c-1.017-0.01-2.033-0.02-3.049-0.029c-0.428-0.297-0.891-0.521-1.388-0.672 c-6.47-0.235-12.94-0.168-19.41-0.036c-0.753,0.16-1.469,0.438-2.184,0.717c-1.027,0.007-2.054,0.014-3.081,0.021 c-5.989-0.359-11.981-0.937-17.942,0.312l0.136-0.021c-2.298,0.942-4.798-0.163-7.104,0.7c-0.36,0.01-0.721,0.021-1.082,0.03 c-1.571-0.791-3.325,0-4.923-0.569c-0.345-0.36-0.533-0.789-0.567-1.288c1.757-3.541,5.354-2.725,8.279-3.503 c0.707-0.174,1.419-0.057,2.127-0.037c0.92-0.018,1.821-0.319,2.75-0.226c1.286,0.184,2.574,0.4,3.859-0.011 c0.379-0.173,0.767-0.329,1.154-0.488c0.82-0.254,1.622-0.323,2.344,0.271c0.354,0.358,0.708,0.716,1.062,1.074 c2.006,0.596,4.003,0.851,5.962-0.176l-0.148-0.014c3.319-1.825,6.972-0.343,10.402-1.047c0.504-0.17,1.025-0.247,1.559-0.231 c2.844,0.583,5.686,0.618,8.525-0.06c0.83-0.062,1.643,0.017,2.436,0.282c5.098,0.814,10.365-0.928,15.378,1.056l-0.149,0.013 c2.005,0.908,3.998,1.08,5.967-0.105c2.66-3.409,2.849-7.644,3.623-11.614c0.447-2.29,1.289-3.971,3.162-5.219 C154.486,61.174,152.913,58.716,153.996,56.741z"/><path fill-rule="evenodd" clip-rule="evenodd" fill="#E4D566" d="M169.08,83.186c-2.152-1.173-4.605-0.921-6.893-1.452 c0.162-1.448-1.964-1.289-1.882-2.681l-0.364,0.06c-0.535-1.658-0.926-3.323-0.269-5.048c5.592-10.934,5.592-10.934,17.337-7.652 c6.917,1.933,8.902,4.271,9.501,11.432c0.179,2.146,0.182,4.312-0.12,6.463c-0.313,0.874-0.774,1.601-1.779,1.783 c-0.779-0.002-1.559-0.004-2.338-0.006C177.798,85.471,173.184,85.49,169.08,83.186z"/><path fill-rule="evenodd" clip-rule="evenodd" fill="#3F4040" d="M88.942,60.05c0.029,2.265,1.373,3.76,2.985,5.097 c-0.401,0.973-0.233,2.317-1.696,2.598c-2.542,0.229-3.736-1.812-5.334-3.165c-0.436-0.337-0.852-0.709-1.295-1.036 c-0.32-0.122-0.631-0.272-0.944-0.412c-0.332-0.093-0.65-0.219-0.971-0.34c-0.505-0.142-0.995-0.325-1.505-0.451 c-0.567-0.045-1.132-0.059-1.699-0.132c-0.636-0.081-1.219-0.293-1.75-0.653c-0.662-0.658-1.114-1.374-0.633-2.339 c2.827-1.168,5.674-2.179,8.79-1.161c1.362-2.243,0.675-4.592,0.355-6.921c0.003-0.363,0.006-0.726,0.009-1.089 c0.804-1.671-0.138-3.589,0.743-5.25c-0.207-6.67,2.037-12.818,4.034-19.021c0.333-1.034,0.882-1.731,2.048-1.748 c-0.563,3.709-1.924,7.29-1.805,11.11c0.22,1.152-0.24,2.11-0.862,3.023c-0.167,1.992-0.334,3.985-0.501,5.979 C89.192,49.441,89.127,54.745,88.942,60.05z"/><path fill-rule="evenodd" clip-rule="evenodd" fill="#40413F" d="M184.611,86.09c0.182-0.683,0.363-1.365,0.545-2.048 c1.428-4.701-0.374-9.126-1.165-13.638c-0.262-1.49-1.25-2.221-2.621-2.689c-1.701-0.581-3.566-0.966-4.525-2.785 c-0.266-1.765,1.163-2.084,2.278-2.67l-0.086-0.35c2.576-3.087-0.156-6.632,0.851-9.854l0.304,0.053 c0.29-0.423,0.352-1.036,0.978-1.182c1.516,1.032,1.096,2.675,1.172,4.086c0.204,3.794-0.102,7.23,4.162,9.893 c2.896,1.808,1.668,6.416,1.701,9.861c0.777,2.451,0.053,5.114,1.058,7.532c0.268,1.917,1.039,3.861-0.297,5.695 C187.056,88.408,185.69,87.576,184.611,86.09z"/><path fill-rule="evenodd" clip-rule="evenodd" fill="#2C303C" d="M144.065,23.11c-14.989-0.006-29.979-0.012-44.97-0.018 c-0.228-0.193-0.303-0.387-0.227-0.58c0.076-0.193,0.152-0.29,0.228-0.29c15.31-0.028,30.619-0.057,45.929-0.086 c0.278,0.205,0.399,0.437,0.363,0.696c-0.039,0.272-0.096,0.408-0.173,0.408C144.799,23.492,144.414,23.464,144.065,23.11z"/><path fill-rule="evenodd" clip-rule="evenodd" fill="#31343D" d="M60.06,86.951c-1.27,0.585-2.882-0.044-3.986,1.127 c-0.599,0.591-1.255,0.553-1.942,0.179c-0.312-0.11-0.633-0.183-0.962-0.217c-1.823-4.737,0.981-9.231,0.729-13.887 c0.009-0.701,0.017-1.402,0.026-2.104c-0.374-0.741-0.394-1.464,0.112-2.159c0.817-0.169,1.449,0.162,1.988,0.735 c1.784,2.419,1.55,5.232,1.57,8.01c0.013,1.778-0.311,3.618,0.757,5.237c0.279,0.305,0.543,0.623,0.837,0.918 C59.786,85.387,60.484,85.948,60.06,86.951z"/><path fill-rule="evenodd" clip-rule="evenodd" fill="#32353D" d="M169.08,83.186c4.603,0.035,9.091,0.59,13.193,2.898 c-0.405,0.39-0.81,0.779-1.215,1.169c-1.015,0.405-2.017,0.563-2.969-0.167c-4.84-1.731-9.977-1.386-14.956-2.143 C164.811,83.324,167.417,84.85,169.08,83.186z"/><path fill-rule="evenodd" clip-rule="evenodd" fill="#3A3C3F" d="M60.06,86.951c-0.734-0.333-1.469-0.665-2.203-0.998 c0.037-0.691,0.272-1.315,0.811-1.748c3.505-2.81,12.531-3.468,16.398-1.213c0.01,0.363,0.019,0.727,0.028,1.091 c-0.489,0.72-1.578,0.34-2.039,1.111C68.946,87.428,64.323,85.856,60.06,86.951z"/><path fill-rule="evenodd" clip-rule="evenodd" fill="#C6B641" d="M53.9,74.153c-0.269,4.628,1.06,9.339-0.729,13.887 c-0.299,0.09-0.604,0.121-0.915,0.094c-1.303,0.442-2.611,0.793-3.965,0.188C51.149,83.99,52.766,79.168,53.9,74.153z"/><path fill-rule="evenodd" clip-rule="evenodd" fill="#40413F" d="M166.063,61.212c0.055-0.503,0.11-1.005,0.166-1.507 c4.094-1.321,7.271,1.63,10.928,2.344c-0.391,1.33-1.138,2.362-2.447,2.93C171.446,64.604,167.527,65.72,166.063,61.212z"/><path fill-rule="evenodd" clip-rule="evenodd" fill="#ECDC69" d="M133.082,61.162c-2.205,0.103-4.295,0.443-4.153-3.066 c0.296-7.311,0.259-14.635,0.358-21.953c1.736,6.266,0.541,12.657,0.725,18.985C130.09,57.825,130.596,59.888,133.082,61.162z"/><path fill-rule="evenodd" clip-rule="evenodd" fill="#ECDC69" d="M114.035,61.047c-1.311,0.046-2.621,0.091-3.931,0.137 c2.454-1.294,3.017-3.334,3.069-6.044c0.121-6.345-0.867-12.737,0.602-19.038c1.188,0.676,1.268,1.841,1.278,3.004 c0.062,6.411,0.077,12.821-0.008,19.232C115.032,59.354,114.73,60.277,114.035,61.047z"/><path fill-rule="evenodd" clip-rule="evenodd" fill="#31343D" d="M76.101,59.216c0.334,0.635,0.669,1.269,1.003,1.903 c-1.235,4.175-4.733,3.537-7.86,3.708c-1.424-0.469-2.321-1.391-2.488-2.93C69.644,60.213,72.623,58.848,76.101,59.216z"/><path fill-rule="evenodd" clip-rule="evenodd" fill="#31343D" d="M55.108,71.117c-0.277-0.344-0.555-0.688-0.833-1.031 c-1.02-0.934-0.815-1.938-0.168-2.966c0.935-2.096,2.273-3.609,4.835-3.367c0.967-0.049,1.926-0.064,2.742,0.592 c0.547,0.523,0.836,1.135,0.635,1.909c-1.76,1.749-3.586,3.439-5.249,5.297C56.338,71.766,55.677,71.646,55.108,71.117z"/><path fill-rule="evenodd" clip-rule="evenodd" fill="#716C4A" d="M114.035,61.047c-0.086-8.315-0.173-16.63-0.26-24.945 c0.036-0.268,0.055-0.535,0.055-0.805c0.377-0.069,0.754-0.139,1.131-0.208c1.086,8.661,0.915,17.328,0.116,25.997 C114.73,61.073,114.383,61.06,114.035,61.047z"/><path fill-rule="evenodd" clip-rule="evenodd" fill="#C3B441" d="M188.965,87.994c-0.252-1.536-0.504-3.072-0.757-4.608 c0.671-1.023-0.005-2.396,0.875-3.365c1.519,1.192,1.563,3.18,2.499,4.656C193.997,88.488,192.294,88.829,188.965,87.994z"/><path fill-rule="evenodd" clip-rule="evenodd" fill="#40413F" d="M132.09,83.08c0.003,0.269,0.006,0.538,0.008,0.807 c-7.66,0.003-15.321,0.006-22.982,0.009c0.329-0.272,0.658-0.545,0.987-0.816C117.432,82.277,124.761,82.276,132.09,83.08z"/><path fill-rule="evenodd" clip-rule="evenodd" fill="#40413F" d="M152.25,36.103c0.412-3.416-2.088-6.784-0.166-10.226 c1.881,2.794,2.107,6.104,2.886,9.244C154.332,36.192,153.679,37.222,152.25,36.103z"/><path fill-rule="evenodd" clip-rule="evenodd" fill="#B8AD5C" d="M98.214,41.009c-0.353,0.024-0.706,0.05-1.058,0.075 c-0.927-6.332-0.909-12.665-0.012-18.999c0.351,0.021,0.701,0.042,1.052,0.063C98.839,28.435,98.816,34.721,98.214,41.009z"/><path fill-rule="evenodd" clip-rule="evenodd" fill="#E7D868" d="M97.144,22.085c0.003,6.333,0.007,12.666,0.011,18.999 C95.447,34.752,95.464,28.419,97.144,22.085z"/><path fill-rule="evenodd" clip-rule="evenodd" fill="#33363D" d="M62.092,65.915c-0.335-0.277-0.67-0.556-1.005-0.833 c-0.557-0.528-0.665-1.16-0.428-1.871c0.556-1.038,1.58-0.705,2.447-0.834c1.217-0.16,2.434-0.319,3.65-0.479 c0.78,0.673,1.56,1.346,2.34,2.018C67.337,66.601,65.068,67.497,62.092,65.915z"/><path fill-rule="evenodd" clip-rule="evenodd" fill="#30333D" d="M98.214,41.009c-0.006-6.287-0.012-12.574-0.019-18.86 c0.311-0.098,0.611-0.072,0.901,0.074c-0.001,0.29-0.001,0.58-0.001,0.87c0.002,5.662,0.005,11.324,0.008,16.985 c0.129,0.186,0.259,0.372,0.388,0.558c-0.104,0.2-0.208,0.401-0.312,0.603C98.866,41.129,98.544,41.052,98.214,41.009z"/><path fill-rule="evenodd" clip-rule="evenodd" fill="#E7D868" d="M146.04,22.103c1.675,6.32,1.732,12.636-0.04,18.948 C144.471,34.731,144.595,28.416,146.04,22.103z"/><path fill-rule="evenodd" clip-rule="evenodd" fill="#A69D57" d="M146.04,22.103c-0.013,6.316-0.026,12.633-0.04,18.949 c-0.34-0.021-0.68-0.04-1.02-0.061c-0.637-5.971-0.605-11.942-0.007-17.914c0.124-0.308,0.142-0.621,0.052-0.94 C145.363,22.125,145.701,22.114,146.04,22.103z"/><path fill-rule="evenodd" clip-rule="evenodd" fill="#2F333C" d="M88.093,84.229c5.949-1.956,11.938-1.543,17.942-0.312 C100.055,84.021,94.074,84.125,88.093,84.229z"/><path fill-rule="evenodd" clip-rule="evenodd" fill="#33363D" d="M144.974,23.077c0.002,5.972,0.005,11.943,0.007,17.914 c-0.328,0.061-0.648,0.144-0.963,0.251c-0.106-0.201-0.213-0.401-0.318-0.603c0.129-0.187,0.258-0.374,0.387-0.561 c-0.006-5.656-0.014-11.312-0.02-16.969C144.368,23.098,144.671,23.086,144.974,23.077z"/><path fill-rule="evenodd" clip-rule="evenodd" fill="#44453F" d="M61.094,63.119c-0.002,0.654-0.004,1.309-0.007,1.963 c-0.913-0.123-1.679-0.483-2.145-1.329c-0.044-0.273,0.038-0.502,0.248-0.685c0.884-1.718,0.014-3.67,0.723-5.411 c0.111-1.867,0.223-3.735,0.334-5.604c0.565-0.545,1.13-0.545,1.694,0c-0.013,0.686-0.026,1.372-0.04,2.058 C60.948,57.053,62.365,60.207,61.094,63.119z"/><path fill-rule="evenodd" clip-rule="evenodd" fill="#E8D968" d="M179.888,52.056c0.334,2.598,0.704,5.191,0.987,7.795 c0.138,1.277-0.135,2.349-1.838,2.06C179.478,58.639,178.302,55.228,179.888,52.056z"/><path fill-rule="evenodd" clip-rule="evenodd" fill="#EBDC68" d="M110.044,41.237c-3.622,1.345-7.243,1.348-10.864,0.001 l-0.143-0.304c3.435-0.695,6.898-0.258,10.351-0.266C109.606,40.858,109.825,41.048,110.044,41.237z"/><path fill-rule="evenodd" clip-rule="evenodd" fill="#EBDC68" d="M144.018,41.242c-3.626,1.337-7.25,1.345-10.873-0.008 c0.219-0.188,0.438-0.377,0.657-0.565c3.451,0.009,6.913-0.432,10.347,0.268L144.018,41.242z"/><path fill-rule="evenodd" clip-rule="evenodd" fill="#30333D" d="M152.25,36.103c0.906-0.327,1.812-0.654,2.72-0.981 c0.05,0.653,0.099,1.307,0.149,1.96c-0.623,1.314-1.246,2.629-1.869,3.943C153.01,39.365,151.574,37.948,152.25,36.103z"/><path fill-rule="evenodd" clip-rule="evenodd" fill="#31343D" d="M144.088,83.098c3.297,0.318,6.703-0.784,9.908,0.753 c-0.578,0.909-1.328,0.751-2.119,0.342c-2.596-0.072-5.191-0.144-7.787-0.216C143.446,83.686,143.445,83.393,144.088,83.098z"/><path fill-rule="evenodd" clip-rule="evenodd" fill="#5A5945" d="M61.094,63.119c0.211-3.008-0.753-6.121,0.808-9.008 c0.721,2.709-1.523,5.85,1.204,8.266C62.435,62.624,61.764,62.872,61.094,63.119z"/><path fill-rule="evenodd" clip-rule="evenodd" fill="#32353D" d="M157.045,58.067c-1.51-3.297-1.4-6.61-0.093-9.934 C157.295,51.442,157.57,54.751,157.045,58.067z"/><path fill-rule="evenodd" clip-rule="evenodd" fill="#484840" d="M151.877,84.192c0.707-0.112,1.413-0.226,2.119-0.34 c2.648,0.655,5.55-0.559,8.067,1.083c-0.67,0.096-1.34,0.191-2.009,0.288c-1.676,0.46-3.344,0.738-4.973-0.168 C154.014,84.769,152.945,84.48,151.877,84.192z"/><path fill-rule="evenodd" clip-rule="evenodd" fill="#3E4040" d="M181.169,50.927c-0.326,0.394-0.651,0.788-0.978,1.182 c-0.286-2.542-0.572-5.084-0.938-8.331C181.688,46.232,181.435,48.578,181.169,50.927z"/><path fill-rule="evenodd" clip-rule="evenodd" fill="#444540" d="M40.157,65.248c0.006-0.789,0.012-1.578,0.018-2.367 c1.747-0.269,3.495-0.537,6.616-1.018C44.223,64.197,42.249,64.826,40.157,65.248z"/><path fill-rule="evenodd" clip-rule="evenodd" fill="#E9DA68" d="M157.258,47.048c-0.503-0.958-1.654-1.751-0.785-3.061 c0.343-0.854,0.686-1.708,1.447-3.609C158.066,43.333,158.547,45.231,157.258,47.048z"/><path fill-rule="evenodd" clip-rule="evenodd" fill="#2C2F3C" d="M144.088,83.098c0.002,0.293,0.003,0.586,0.002,0.879 c-2.981-0.021-5.963-0.04-8.943-0.061C138.004,82.302,141.111,83.411,144.088,83.098z"/><path fill-rule="evenodd" clip-rule="evenodd" fill="#4A4A3F" d="M189.083,80.021c-0.292,1.121-0.583,2.241-0.875,3.363 c-0.001-2.87-0.003-5.742-0.004-8.616C188.497,76.519,188.79,78.27,189.083,80.021z"/><path fill-rule="evenodd" clip-rule="evenodd" fill="#E9DA68" d="M63.288,46.094c0.454,1.522,2.35,3.402-0.987,3.985 c-1.107-0.663-0.587-1.722-0.642-2.642C61.976,46.715,62.504,46.249,63.288,46.094z"/><path fill-rule="evenodd" clip-rule="evenodd" fill="#464741" d="M63.288,46.094c-0.418,0.327-0.837,0.654-1.255,0.981 c-0.217,0.021-0.434,0.042-0.65,0.062c0.512-1.993,0.281-4.266,2.176-5.864C64.442,43.01,62.81,44.495,63.288,46.094z"/><path fill-rule="evenodd" clip-rule="evenodd" fill="#31343D" d="M73.056,85.194c0.679-0.37,1.359-0.741,2.039-1.111 c1.676,0.131,3.469-0.411,4.949,0.855C77.714,85.023,75.385,85.109,73.056,85.194z"/><path fill-rule="evenodd" clip-rule="evenodd" fill="#EADA68" d="M54.107,67.12c0.056,0.988,0.112,1.977,0.168,2.966 c-0.116,0.654-0.233,1.309-0.35,1.964c-1.262-1.732-0.853-3.686-0.677-5.583c0.06-0.645,0.743-0.755,0.455-0.161 C53.623,66.473,53.961,66.843,54.107,67.12z"/><path fill-rule="evenodd" clip-rule="evenodd" fill="#45453F" d="M81.125,84.908c2.25-1.427,4.712-0.699,7.104-0.7 C85.943,85.276,83.524,84.992,81.125,84.908z"/><path fill-rule="evenodd" clip-rule="evenodd" fill="#242A3B" d="M61.383,47.138c0.224,0.051,0.44,0.03,0.65-0.062 c0.089,1.001,0.178,2.003,0.268,3.004c-0.12,0.658-0.24,1.316-0.359,1.975c-0.564,0-1.129,0-1.694,0 C60.626,50.415,61.004,48.776,61.383,47.138z"/><path fill-rule="evenodd" clip-rule="evenodd" fill="#2C303C" d="M85.246,51.134c1.191,2.374,1.552,4.705-0.355,6.921 C85.009,55.747,85.127,53.44,85.246,51.134z"/><path fill-rule="evenodd" clip-rule="evenodd" fill="#EADA68" d="M54.132,88.257c0.647-0.06,1.294-0.119,1.942-0.179 c0.906,0.208,1.979-0.363,2.807,0.643C57.175,89.322,55.61,89.299,54.132,88.257z"/><path fill-rule="evenodd" clip-rule="evenodd" fill="#E9D968" d="M178.09,87.086c0.99,0.056,1.979,0.111,2.969,0.167 c-1.04,0.926-2.318,0.874-3.567,0.786c-0.318-0.022-1.478,0.312-0.752-0.754C176.912,87.03,177.625,87.143,178.09,87.086z"/><path fill-rule="evenodd" clip-rule="evenodd" fill="#31343D" d="M175.11,63.951c0.683-0.634,1.365-1.269,2.047-1.902 c0.655,0.07,1.311,0.141,1.966,0.211c-0.767,0.66-1.532,1.321-2.299,1.982C176.174,64.614,175.594,64.565,175.11,63.951z"/><path fill-rule="evenodd" clip-rule="evenodd" fill="#6C6743" d="M48.291,88.322c1.322-0.052,2.594-1.147,3.964-0.188 C51.029,90.193,49.699,90.068,48.291,88.322z"/><path fill-rule="evenodd" clip-rule="evenodd" fill="#2D303C" d="M131.726,35.142c1.935,1.233,1.199,3.213,1.38,4.938 c0.664,0.341,0.641,0.624-0.07,0.851l0.109,0.305C130.915,39.612,132.73,37.048,131.726,35.142z"/><path fill-rule="evenodd" clip-rule="evenodd" fill="#2F323C" d="M110.081,40.077c0.189-1.732-0.567-3.741,1.445-4.942 c-1.049,1.899,0.867,4.519-1.481,6.103l0.107-0.305C109.441,40.704,109.418,40.419,110.081,40.077z"/><path fill-rule="evenodd" clip-rule="evenodd" fill="#5A5945" d="M59.913,57.657c0.151,1.856,0.621,3.755-0.724,5.411 C59.2,61.233,59.104,59.385,59.913,57.657z"/><path fill-rule="evenodd" clip-rule="evenodd" fill="#42433F" d="M85.998,44.795c0.007,1.786,0.517,3.644-0.743,5.25 C85.18,48.249,85.002,46.439,85.998,44.795z"/><path fill-rule="evenodd" clip-rule="evenodd" fill="#ECDC69" d="M155.082,85.056c1.658,0.057,3.314,0.112,4.973,0.168 C158.355,86.408,156.693,86.47,155.082,85.056z"/><path fill-rule="evenodd" clip-rule="evenodd" fill="#404140" d="M77.363,131.139c0.419-3.472,3.272-5.243,5.514-7.228 c1.764-1.561,4.119-1.476,6.163,0.443c2.587,2.429,4,5.439,5.021,8.722c0.703,2.337,1.015,4.664-0.165,6.957 c-0.832,0.773-0.959,2.448-2.674,2.094c-1.684,0.811-3.354,0.391-4.983,0.377c0.816,0.464,2.309-0.397,3.094,0.698 c-4.782,1.132-9.644,0.342-14.496,0.812c-0.426-1.605,0.954-1.979,1.469-2.828c-0.075-0.687,0.021-1.358,0.169-2.026 C76.074,136.408,77.649,133.876,77.363,131.139z"/><path fill-rule="evenodd" clip-rule="evenodd" fill="#F7F7F7" d="M77.196,140.021c-0.296,0.388-0.593,0.775-0.89,1.164 c-1.654-2.642-2.052-5.312-0.186-8.036c1.659,1.836,0.686,4.106,1.016,6.161C77.156,139.548,77.176,139.784,77.196,140.021z"/><path fill-rule="evenodd" clip-rule="evenodd" fill="#333433" d="M77.363,131.139c1.07,2.981,1.276,5.948-0.167,8.883l-0.164,0.105 c-0.753-2.374-0.54-4.765-0.128-7.159C77.057,132.357,77.21,131.748,77.363,131.139z"/><path fill-rule="evenodd" clip-rule="evenodd" fill="#9FA09F" d="M76.904,132.968c0.042,2.386,0.085,4.772,0.128,7.159 c-1.581-2.159-0.862-4.618-0.912-6.978C76.376,133.065,76.637,133.005,76.904,132.968z"/><path fill-rule="evenodd" clip-rule="evenodd" fill="#FEFEFE" d="M93.896,140.033c0.055-2.319,0.11-4.639,0.165-6.957 C95.558,135.432,95.766,137.757,93.896,140.033z"/><path fill-rule="evenodd" clip-rule="evenodd" fill="#353635" d="M89.333,143.202c-1.281-0.149-2.562-0.298-3.842-0.447 c0.01-0.209,0.021-0.419,0.031-0.628c1.9,0,3.8,0,5.7,0C90.944,143.103,90.254,143.356,89.333,143.202z"/><path fill-rule="evenodd" clip-rule="evenodd" fill="#404140" d="M166.093,138.085c0.149,1.979,2.684,0.314,3.034,1.986 c-1.118,1.166-2.931-0.187-4.014,1.107c-0.093,0.26-0.197,0.516-0.313,0.767c-0.804,1.013-1.782,0.628-2.749,0.345l0.065-0.37 c-3.323-0.572-6.649-0.494-9.978-0.051c-1.92-0.487-2.848-1.826-3.162-3.689c-0.701-1.413-0.26-2.921-0.367-4.382 c0.156-1.898,1.367-3.657,0.753-5.659c0.886-3.569,2.974-6.729,6.579-6.864c3.849-0.146,6.59,2.789,8.233,6.329 c0.68,1.465,1.194,3.008,1.783,4.516C167.021,134.085,166.814,136.079,166.093,138.085z"/><path fill-rule="evenodd" clip-rule="evenodd" fill="#303130" d="M152.139,141.869c3.332-1.221,6.658-1.256,9.978,0.051 C158.788,142.274,155.459,142.793,152.139,141.869z"/><path fill-rule="evenodd" clip-rule="evenodd" fill="#F8F8F8" d="M162.051,142.29c0.917-0.115,1.833-0.229,2.75-0.345 c1.582,0.11,3.165,0.221,4.747,0.33C167.024,143.155,164.52,143.6,162.051,142.29z"/><path fill-rule="evenodd" clip-rule="evenodd" fill="#91908F" d="M149.154,133.046c-0.06,1.711-0.119,3.423-0.178,5.134 c-1.435-2.732-1.361-5.472-0.039-8.216C149.916,130.928,149.689,131.976,149.154,133.046z"/><path fill-rule="evenodd" clip-rule="evenodd" fill="#FEFEFE" d="M166.093,138.085c-0.045-1.989-0.09-3.978-0.135-5.966 C167.639,134.07,167.5,136.063,166.093,138.085z"/><path fill-rule="evenodd" clip-rule="evenodd" fill="#272827" d="M165.113,141.179c1.059-1.382,2.628-0.914,4.014-1.107 c0.563,0.275,1.218,0.822,0.194,1.036C167.973,141.389,166.521,141.178,165.113,141.179z"/><path fill-rule="evenodd" clip-rule="evenodd" fill="#333433" d="M149.154,133.046c-0.072-1.027-0.145-2.055-0.217-3.082 c0.143-0.608,0.283-1.217,0.425-1.825C150.355,129.819,150.479,131.464,149.154,133.046z"/><path fill-rule="evenodd" clip-rule="evenodd" fill="#51B85B" d="M145.027,196.933c-2.242,0.08-4.486,0.161-6.728,0.242 c-0.472-0.071-1-0.037-1.406-0.242c-0.548-0.277-0.53-0.809,0.146-0.774C139.712,196.293,142.495,195.375,145.027,196.933z"/><path fill-rule="evenodd" clip-rule="evenodd" fill="#53BB55" d="M82.014,201.923c-2.226,0.098-4.451,0.195-6.675,0.295 c-0.154-0.05-0.363-0.055-0.453-0.161c-0.171-0.202-0.274-0.463-0.405-0.7C77.027,201.077,79.595,200.507,82.014,201.923z"/><path fill-rule="evenodd" clip-rule="evenodd" fill="#51B85B" d="M181.041,193.965c-1.897,0.082-3.795,0.165-5.69,0.248 c-0.339-0.268-1.686-0.674-0.48-0.926C176.866,192.872,179.126,192.534,181.041,193.965z"/><path fill-rule="evenodd" clip-rule="evenodd" fill="#53BB55" d="M169.016,194.927c-1.92,0.079-3.84,0.159-5.759,0.24 c-0.154-0.047-0.374-0.047-0.451-0.152c-0.152-0.208-0.228-0.474-0.334-0.716C164.695,194.068,166.943,193.58,169.016,194.927z"/><path fill-rule="evenodd" clip-rule="evenodd" fill="#51B85B" d="M156.041,195.965c-1.897,0.082-3.795,0.165-5.691,0.248 c-0.338-0.268-1.686-0.674-0.479-0.926C151.866,194.872,154.127,194.534,156.041,195.965z"/><path fill-rule="evenodd" clip-rule="evenodd" fill="#E0D366" d="M180.161,186.892c1.869-1.188,3.789-1.062,5.733-0.217 C183.982,186.746,182.071,186.819,180.161,186.892z"/><path fill-rule="evenodd" clip-rule="evenodd" fill="#DBD065" d="M55.148,196.906c1.932-1.359,4.1-0.695,6.189-0.723 C59.378,197.305,57.247,196.969,55.148,196.906z"/><path fill-rule="evenodd" clip-rule="evenodd" fill="#D0BF3F" d="M114.147,79.264c-0.369,0.007-0.737,0.015-1.106,0.021 c-3.553,0.443-7.104,0.557-10.651-0.051c-0.488-0.089-1.037-0.067-1.448-0.295c-0.556-0.309-0.502-0.738,0.192-0.8 c0.825-0.072,1.658-0.054,2.488-0.054c12.983-0.002,25.966-0.002,38.983,0.829c-0.936,0.106-1.871,0.213-2.807,0.32 c-5.219,0.589-10.438,0.539-15.658,0.031c-0.699-0.003-1.398-0.006-2.099-0.009C119.411,79.782,116.779,79.771,114.147,79.264z"/><path fill-rule="evenodd" clip-rule="evenodd" fill="#33363D" d="M95.068,79.088c-0.711,0.287-1.422,0.574-2.133,0.861 c-3.443-1.312-3.699-4.048-3.19-7.129c0.47-1.075,0.926-2.174,2.459-1.789C94.093,73.385,94.636,76.217,95.068,79.088z"/><path fill-rule="evenodd" clip-rule="evenodd" fill="#726C3F" d="M133.15,75.136c-0.019,0.331-0.037,0.663-0.057,0.994 c-7.668,0.716-15.335,0.802-23-0.041c0.012-0.344,0.023-0.687,0.035-1.03c0.506-0.354,1.067-0.509,1.684-0.463 c6.563-0.008,13.128-0.01,19.692,0C132.13,74.543,132.679,74.723,133.15,75.136z"/><path fill-rule="evenodd" clip-rule="evenodd" fill="#D3C13F" d="M110.094,76.089c7.667,0.014,15.334,0.027,23,0.041 C125.425,77.637,117.758,77.737,110.094,76.089z"/><path fill-rule="evenodd" clip-rule="evenodd" fill="#40413F" d="M124.141,79.267c5.22-0.011,10.439-0.021,15.659-0.032 c0.156,0.241,0.304,0.487,0.442,0.739C134.873,79.808,129.445,80.938,124.141,79.267z"/><path fill-rule="evenodd" clip-rule="evenodd" fill="#444540" d="M88.942,60.05c-1.377-5.302-1.336-10.605-0.031-15.912 c0.11,0.333,0.221,0.667,0.332,1c0.574,4.631,0.564,9.262,0.008,13.894C89.148,59.37,89.045,59.71,88.942,60.05z"/><path fill-rule="evenodd" clip-rule="evenodd" fill="#D3C13F" d="M89.251,59.031c-0.522-4.631-0.508-9.263-0.008-13.894 C90.582,49.768,90.571,54.399,89.251,59.031z"/><path fill-rule="evenodd" clip-rule="evenodd" fill="#32353D" d="M133.15,75.136c-0.348-0.052-0.695-0.103-1.043-0.154 c-0.676-0.286-0.682-0.587-0.021-0.902c0.435-3.966-0.91-8.062,0.879-11.927C133.027,66.48,133.089,70.808,133.15,75.136z"/><path fill-rule="evenodd" clip-rule="evenodd" fill="#2F323D" d="M111.075,74.988c-0.313,0.053-0.629,0.076-0.947,0.07 c0.05-4.298,0.099-8.596,0.148-12.894c1.676,3.874,0.414,7.951,0.829,11.913C111.762,74.402,111.752,74.706,111.075,74.988z"/><path fill-rule="evenodd" clip-rule="evenodd" fill="#31353D" d="M92.205,71.031c-0.42,0.792-0.839,1.583-1.259,2.375 c-3.095-1.511-2.891-3.715-1.305-6.21c0.762-0.684,1.524-1.366,2.287-2.05c0.107,0.308,0.217,0.613,0.33,0.919 c0.972,1.337,0.889,2.673,0,4.01C92.146,70.389,92.127,70.707,92.205,71.031z"/><path fill-rule="evenodd" clip-rule="evenodd" fill="#40413F" d="M102.39,79.234c3.55,0.017,7.101,0.033,10.651,0.051 c-3.616,1.569-7.392,0.552-11.097,0.688C102.083,79.721,102.232,79.475,102.39,79.234z"/><path fill-rule="evenodd" clip-rule="evenodd" fill="#D3C13F" d="M92.257,70.075c0-1.337,0-2.673,0-4.01 c0.799-0.275,1.613-0.382,1.755,0.72C94.2,68.246,94.114,69.659,92.257,70.075z"/><path fill-rule="evenodd" clip-rule="evenodd" fill="#D3C13F" d="M89.413,38.159c-0.661-1.278,0.296-2.095,0.862-3.023 c0.882,1.259,1.274,2.548,0.252,3.929C90.156,38.763,89.784,38.461,89.413,38.159z"/><path fill-rule="evenodd" clip-rule="evenodd" fill="#40413F" d="M153.996,56.741c-0.146,2.145,0.906,4.508-1.149,6.306 C153.229,60.945,153.613,58.843,153.996,56.741z"/><path fill-rule="evenodd" clip-rule="evenodd" fill="#32353D" d="M146.061,79.88c-1.958,1.779-3.949,1.658-5.967,0.105 C142.082,79.95,144.071,79.915,146.061,79.88z"/><path fill-rule="evenodd" clip-rule="evenodd" fill="#32353D" d="M102.092,79.986c-1.942,1.604-3.934,1.49-5.962,0.176 C98.117,80.104,100.104,80.045,102.092,79.986z"/><path fill-rule="evenodd" clip-rule="evenodd" fill="#4B4B40" d="M153.303,42.124c1.216,1.646,0.762,3.497,0.654,5.308 C153.112,45.741,153.21,43.932,153.303,42.124z"/><path fill-rule="evenodd" clip-rule="evenodd" fill="#E0453C" d="M107.011,36.05c0.026,0.329,0.052,0.659,0.079,0.989 c-1.548,1.016-3.217,0.463-4.851,0.371c-0.423-0.396-0.683-0.88-0.781-1.451c0.69-3.221-1.035-6.844,1.628-9.733 c12.338,0,24.677,0,37.016,0.001c2.663,2.885,0.939,6.505,1.627,9.722c-0.097,0.574-0.356,1.061-0.778,1.461 c-1.634,0.046-3.329,0.747-4.845-0.457c-0.018-1.828-0.034-3.655-0.051-5.483c-3.617-1.605-7.284-1.142-10.961-0.268l0.227,0.036 c-0.837,0.509-0.623,1.365-0.703,2.127c0.072,9.819-0.283,19.639,0.186,29.447c0.166,0.491,0.451,0.909,0.85,1.244 c0.975,0.885,2.505,0.069,3.432,1.112c0.307,2.286,0.43,4.567-0.162,6.832c-4.877,0.927-9.754,0.948-14.631-0.015 c-0.06-2.254-0.12-4.507-0.18-6.76c0.877-1.144,2.434-0.271,3.404-1.151c0.41-0.342,0.699-0.76,0.869-1.266 c0.469-9.811,0.113-19.62,0.186-29.424c-0.082-0.747,0.112-1.594-0.724-2.082l0.251-0.104c-3.668-0.966-7.333-1.026-10.993,0.04 l0.142-0.138C106.122,32.701,106.449,34.369,107.011,36.05z"/><path fill-rule="evenodd" clip-rule="evenodd" fill="#32403F" d="M118.047,65.057c-1.312,0.056-2.624,0.112-3.936,0.169 c2.405-1.343,2.991-3.374,3.062-6.098c0.231-9.005-0.983-18.047,0.628-27.015c1.052,0.762,1.248,1.879,1.256,3.064 c0.058,9.053,0.072,18.106-0.01,27.159C119.037,63.354,118.735,64.28,118.047,65.057z"/><path fill-rule="evenodd" clip-rule="evenodd" fill="#32403F" d="M129.084,65.168c-1.316-0.034-2.634-0.068-3.951-0.103 c-1.227-1.371-1.023-3.068-1.027-4.697c-0.023-7.9-0.031-15.801,0.006-23.7c0.008-1.611-0.284-3.351,1.257-4.559 c1.653,8.959,0.397,17.996,0.65,26.992C126.094,61.807,126.588,63.884,129.084,65.168z"/><path fill-rule="evenodd" clip-rule="evenodd" fill="#B2433D" d="M118.047,65.057c-0.081-10.981-0.162-21.963-0.245-32.943 c0.039-0.27,0.056-0.54,0.046-0.812c0.424,0.27,0.848,0.537,1.271,0.806c0.767,10.993,0.809,21.986-0.031,32.979 C118.74,65.076,118.395,65.066,118.047,65.057z"/><path fill-rule="evenodd" clip-rule="evenodd" fill="#C1443D" d="M125.368,32.109c-0.079,10.985-0.157,21.971-0.235,32.956 c-0.348,0.006-0.695,0.013-1.043,0.019c-0.82-10.991-0.793-21.982-0.021-32.975c0.417-0.291,0.833-0.582,1.251-0.873 C125.305,31.529,125.32,31.82,125.368,32.109z"/><path fill-rule="evenodd" clip-rule="evenodd" fill="#393B3E" d="M115.077,61.086c-0.038-8.665-0.075-17.331-0.114-25.996 c2.076,2.441,1.158,5.38,1.048,8.041C115.762,49.115,117.215,55.204,115.077,61.086z"/><path fill-rule="evenodd" clip-rule="evenodd" fill="#393B3E" d="M111.075,74.988c0.013-0.304,0.022-0.606,0.029-0.91 c6.994,0,13.988,0,20.981,0.001c0.006,0.301,0.013,0.603,0.021,0.903C125.097,74.983,118.086,74.986,111.075,74.988z"/><path fill-rule="evenodd" clip-rule="evenodd" fill="#32403F" d="M114.291,71.985c4.877,0.005,9.754,0.01,14.631,0.015 c0.385,0.027,0.768,0.056,1.152,0.084l0.02,0.019c-5.666,1.6-11.332,1.609-16.998-0.005l0.01-0.01 C113.501,72.054,113.896,72.02,114.291,71.985z"/><path fill-rule="evenodd" clip-rule="evenodd" fill="#393B3E" d="M133.035,40.93c0.029-0.283,0.053-0.566,0.07-0.851 c3.66,0,7.32,0,10.98,0c0.014,0.286,0.034,0.572,0.062,0.857C140.443,40.934,136.739,40.932,133.035,40.93z"/><path fill-rule="evenodd" clip-rule="evenodd" fill="#39403F" d="M142.047,26.1c1.664,3.653,1.648,7.309,0.012,10.966 C140.679,33.412,140.506,29.757,142.047,26.1z"/><path fill-rule="evenodd" clip-rule="evenodd" fill="#393B3E" d="M110.081,40.077c0.017,0.286,0.041,0.571,0.071,0.855 c-3.705,0.001-7.41,0.001-11.114,0.002c0.029-0.284,0.051-0.57,0.066-0.855C102.763,40.078,106.422,40.078,110.081,40.077z"/><path fill-rule="evenodd" clip-rule="evenodd" fill="#7B413E" d="M142.047,26.1c0.004,3.655,0.008,7.311,0.013,10.966 c-0.001,0,0.038-0.008,0.038-0.008c-0.426,0.518-0.801,0.484-1.127-0.103c0.025-0.322,0.015-0.643-0.033-0.963 c-0.52-3.277-0.592-6.552,0.053-9.823C141.342,26.146,141.694,26.123,142.047,26.1z"/><path fill-rule="evenodd" clip-rule="evenodd" fill="#E7453C" d="M125.094,31.201c3.693-1.598,7.36-2.051,10.961,0.267 C132.4,31.38,128.747,31.29,125.094,31.201z"/><path fill-rule="evenodd" clip-rule="evenodd" fill="#6C413E" d="M102.237,36.006c-0.069,0.328-0.079,0.658-0.032,0.989 c-0.342,0.475-0.714,0.499-1.115,0.073l0.026,0.018c-0.818-3.668-0.831-7.336,0.01-11.002c0.358,0.023,0.715,0.047,1.073,0.07 C102.834,29.436,102.783,32.72,102.237,36.006z"/><path fill-rule="evenodd" clip-rule="evenodd" fill="#E7453C" d="M107.104,31.239c3.657-1.844,7.321-1.77,10.992-0.04 C114.434,31.213,110.769,31.227,107.104,31.239z"/><path fill-rule="evenodd" clip-rule="evenodd" fill="#39403F" d="M101.126,26.084c-0.003,3.667-0.007,7.335-0.01,11.002 C99.501,33.417,99.484,29.75,101.126,26.084z"/><path fill-rule="evenodd" clip-rule="evenodd" fill="#E8453C" d="M102.237,36.006c-0.012-3.284-0.025-6.568-0.037-9.852 c0.302-0.062,0.597-0.037,0.886,0.071C102.726,29.479,103.948,32.87,102.237,36.006z"/><path fill-rule="evenodd" clip-rule="evenodd" fill="#E7453C" d="M140.99,26.169c-0.018,3.275-0.034,6.55-0.053,9.824 c-1.688-3.136-0.479-6.519-0.836-9.768C140.392,26.118,140.688,26.099,140.99,26.169z"/><path fill-rule="evenodd" clip-rule="evenodd" fill="#39403F" d="M130.074,72.084c0-1.798,0-3.596,0-5.395 c0.919,1.841,1.528,3.679,0.02,5.413L130.074,72.084z"/><path fill-rule="evenodd" clip-rule="evenodd" fill="#39403F" d="M113.096,72.098c-1.406-1.719-1.145-3.611-0.613-5.925 c1.068,2.143,0.371,4.079,0.623,5.915L113.096,72.098z"/><path fill-rule="evenodd" clip-rule="evenodd" fill="#33403F" d="M140.971,36.955c0.376,0.034,0.751,0.068,1.127,0.103 c-2.023,1.453-4.023,1.564-5.992-0.105C137.727,36.953,139.35,36.954,140.971,36.955z"/><path fill-rule="evenodd" clip-rule="evenodd" fill="#33403F" d="M101.09,37.068c0.372-0.024,0.743-0.049,1.114-0.073 c1.628,0.015,3.256,0.029,4.885,0.044C105.097,38.562,103.097,38.523,101.09,37.068z"/><path fill-rule="evenodd" clip-rule="evenodd" fill="#E7453C" d="M107.011,36.05c-1.248-1.713-1.371-3.371,0.236-4.948 C107.168,32.751,107.089,34.4,107.011,36.05z"/><path fill-rule="evenodd" clip-rule="evenodd" fill="#E4D566" d="M75.066,82.992c-5.845,0.352-11.672,0.813-17.209,2.961 l-0.418-0.042c-1.618-1.02-0.583-2.537-0.722-3.836c0.194-0.64,0.309-1.29,0.343-1.957c0.561-10.932,6.315-15.779,17.303-15.032 c5.743,0.391,6.367,4.994,8.137,8.781c0.771,2.343,1.926,4.673,0.325,7.127C80.239,81.66,77.652,82.326,75.066,82.992z"/><path fill-rule="evenodd" clip-rule="evenodd" fill="#C7B740" d="M175.11,63.951c0.571,0.097,1.144,0.193,1.714,0.29 c6.263,1.105,9.301,4.511,8.769,11.178c-0.228,2.846,0.742,5.788-0.437,8.625c-0.039-0.494-0.104-0.987-0.114-1.48 c-0.293-14.605-2.936-13.295-15.965-16.249c-2.866-0.65-5.459,0.727-6.128,4.287c-0.295,1.57-1.17,3.031-1.782,4.542 c-2.331-2.325-2.032-4.646,0.01-6.965l-0.022-0.01c1.452-2.515-0.825-5.655,1.351-8.048c0.925,1.217,2.297,0.974,3.559,1.09 C168.881,62.778,172.022,63.276,175.11,63.951z"/><path fill-rule="evenodd" clip-rule="evenodd" fill="#CBBB3F" d="M89.641,67.196c0.751,2.004-0.21,4.367,1.305,6.21 c-0.016,2.388,1.115,4.426,1.99,6.543c0,0,0.138-0.028,0.138-0.028c-1.546,1.475-3.678,0.03-5.312,1.066 c-0.749-0.012-1.497-0.022-2.246-0.034c-2.797-2.536-2.677-5.976-2.885-9.312c0.014-0.561,0.07-1.119,0.161-1.673 c1.217-2.139-0.003-5.096,2.299-6.873C86.608,64.462,88.124,65.829,89.641,67.196z"/><path fill-rule="evenodd" clip-rule="evenodd" fill="#D3C13F" d="M157.25,77.074c-0.107,0.661-0.213,1.322-0.32,1.983 c-0.385,0.39-0.836,0.677-1.354,0.862c-4.153,0.843-4.36-1.847-4.285-4.788c0.271-1.101,0.936-2.273,0.75-3.29 c-0.812-4.437,1.329-7.014,5.035-8.771c3.785,1.145,1.131,4.647,2.45,6.695C159.818,72.529,159.626,75.143,157.25,77.074z"/><path fill-rule="evenodd" clip-rule="evenodd" fill="#3B3D3E" d="M83.921,71.048c0.532,3.302,1.063,6.604,1.595,9.905 c-0.896,0.014-1.793,0.027-2.691,0.041c-0.631-1.988-1.262-3.977-1.892-5.965c-0.5-1.064-0.34-2.169-0.199-3.272 c0.368-3.238-1.434-6.782,1.367-9.675c0.314,0.007,0.629,0.016,0.944,0.025C85.158,64.909,83.564,68.074,83.921,71.048z"/><path fill-rule="evenodd" clip-rule="evenodd" fill="#33363D" d="M157.25,77.074c-0.785-2.407,1.723-4.352,0.952-6.757 c1.003-2.653-0.159-5.484,0.67-8.151c2.188,1.46,0.354,4.461,2.305,6.012c-0.003,2.322-0.007,4.644-0.01,6.966 c-1.235,1.067-0.928,2.611-1.226,3.969C159.107,78.349,158.59,77.169,157.25,77.074z"/><path fill-rule="evenodd" clip-rule="evenodd" fill="#3C3D3C" d="M132.09,83.08c-7.33-0.001-14.658-0.001-21.987-0.001 C117.432,81.451,124.761,81.45,132.09,83.08z"/><path fill-rule="evenodd" clip-rule="evenodd" fill="#D3C13F" d="M151.291,75.132c0.863,2.215,1.551,4.642,4.803,3.953 c-0.045,2.389-1.925,1.125-2.982,1.498c-1.203-0.241-2.906,0.688-3.311-1.418C150.297,77.821,150.794,76.477,151.291,75.132z"/><path fill-rule="evenodd" clip-rule="evenodd" fill="#EADB68" d="M160.306,79.053c0.581,0.282,1.201,0.507,1.732,0.863 c0.581,0.39,1.855-0.402,1.765,0.89c-0.024,0.346-1.05,0.62-1.615,0.928c-1.013,0.517-1.826,0.279-2.484-0.631 C159.014,80.148,160.215,79.768,160.306,79.053z"/><path fill-rule="evenodd" clip-rule="evenodd" fill="#BFB03F" d="M158.872,62.166c0.071,2.741,0.394,5.502-0.671,8.15 c-0.611-2.378,0.667-5.051-1.125-7.246C157.674,62.77,158.273,62.468,158.872,62.166z"/><path fill-rule="evenodd" clip-rule="evenodd" fill="#40413F" d="M162.505,60.121c-1.579,2.493,0.029,5.521-1.351,8.048 C161.531,65.474,159.918,62.445,162.505,60.121z"/><path fill-rule="evenodd" clip-rule="evenodd" fill="#393B3E" d="M114.147,79.264c2.632-0.002,5.263-0.004,7.895-0.006 C119.412,80.523,116.78,80.516,114.147,79.264z"/><path fill-rule="evenodd" clip-rule="evenodd" fill="#40413F" d="M149.801,79.165c0.736,1.264,1.955,1.048,3.113,1.013 c0.405,0.085,0.574,0.332,0.508,0.74C152.104,80.563,149.695,82.461,149.801,79.165z"/><path fill-rule="evenodd" clip-rule="evenodd" fill="#40413F" d="M87.762,80.987c1.77-0.355,3.54-0.711,5.311-1.066 C91.578,81.643,89.597,80.951,87.762,80.987z"/><path fill-rule="evenodd" clip-rule="evenodd" fill="#BFB03F" d="M153.422,80.918c-0.172-0.245-0.341-0.492-0.507-0.74 c1.114-0.203,2.336-0.099,3.179-1.093c0.279-0.006,0.559-0.016,0.836-0.027C156.877,81.782,154.684,80.473,153.422,80.918z"/><path fill-rule="evenodd" clip-rule="evenodd" fill="#D3C13F" d="M81.253,72.036c-0.107,0.998-0.214,1.996-0.32,2.994 c-3.259-9.119-3.846-9.419-13.675-6.996c-7.408,1.826-8.453,3.036-9.167,10.757c-0.107,1.159-0.057,2.335-0.958,3.247 c-0.848-3.647-0.835-7.31-0.188-10.982c-0.404-3.836,1.878-4.981,5.146-5.141c2.334-0.666,4.669-1.333,7.003-2 c2.67-0.932,5.339-1.863,8.009-2.796c0.651-0.026,1.302-0.053,1.953-0.079c1.994-0.207,1.835,1.348,1.978,2.53 c0.209,1.74-0.118,3.521,0.354,5.249C81.633,69.903,81.743,70.982,81.253,72.036z"/><path fill-rule="evenodd" clip-rule="evenodd" fill="#31343D" d="M81.253,72.036c-0.103-0.976-0.207-1.951-0.31-2.926 c-0.418-2.689-0.869-5.38,0.291-8.011c0.289,0.327,0.577,0.654,0.866,0.982C81.716,65.391,82.944,68.838,81.253,72.036z"/><path fill-rule="evenodd" clip-rule="evenodd" fill="#A2963F" d="M81.235,61.1c-0.097,2.67-0.194,5.34-0.291,8.011 c-1.921-2.389,0.338-5.754-1.888-8.07C79.805,60.265,80.532,60.229,81.235,61.1z"/><path fill-rule="evenodd" clip-rule="evenodd" fill="#42433F" d="M83.921,71.048c-1.634-2.85-0.498-5.969-0.875-8.94 c0.383-0.423,0.743-0.414,1.074,0.062c0.794,2.617,0.673,5.245,0.085,7.878C84.11,70.381,84.016,70.714,83.921,71.048z"/><path fill-rule="evenodd" clip-rule="evenodd" fill="#CFBE3F" d="M84.205,70.048c-0.401-2.622-0.486-5.247-0.085-7.878 c0.324,0.309,0.648,0.616,0.972,0.925C84.836,65.417,85.77,67.892,84.205,70.048z"/><path fill-rule="evenodd" clip-rule="evenodd" fill="#4B4A40" d="M56.945,71.056c0.062,3.661,0.125,7.322,0.187,10.983 c0.102,1.29,0.204,2.581,0.306,3.872c-2.341-0.05-1.404-1.737-1.426-2.906c-0.075-3.981,0.421-8.003-0.904-11.889 C55.721,71.097,56.333,71.076,56.945,71.056z"/><path fill-rule="evenodd" clip-rule="evenodd" fill="#FEFEFE" d="M88.252,130.351c0.148,1.717-0.864,1.825-1.907,1.901 c-1.749,0.127-2.312-0.738-2.241-2.406c0.053-1.243,0.548-1.911,1.75-1.854C87.455,128.068,87.967,129.282,88.252,130.351z"/><path fill-rule="evenodd" clip-rule="evenodd" fill="#FEFEFE" d="M157.731,128.242c-0.161,1.737-1.55,1.761-2.787,1.938 c-1.207,0.171-1.837-0.39-1.806-1.633c0.04-1.586,0.923-2.372,2.438-2.512C157.173,125.888,157.295,127.225,157.731,128.242z"/><path fill-rule="evenodd" clip-rule="evenodd" fill="#E7453C" d="M119.088,65.086c0.01-10.993,0.021-21.986,0.031-32.979 c2.127,5.646,0.817,11.505,0.864,17.246C120.026,54.584,121.17,59.953,119.088,65.086z"/><path fill-rule="evenodd" clip-rule="evenodd" fill="#E7453C" d="M124.068,32.109c0.008,10.991,0.015,21.983,0.021,32.975 c-1.669-2.05-1.056-4.498-0.942-6.741C123.588,49.602,121.897,40.784,124.068,32.109z"/></g></svg>
