<svg xmlns="http://www.w3.org/2000/svg" viewBox="0 2 48 48"><polygon points="20.1 18.2 20.2 20.5 18.6 23.5 16.1 28.4 15.6 32.5 17.4 38.3 21.5 40.6 27.7 40.6 33.5 36.2 36.1 29.3 30.1 22 28.4 17.9 " class="tux-icon-white"/><path d="M34.3 23.9c-1.6-2.3-2.9-3.7-3.6-6.6 -0.7-2.9 0.2-2.1-0.4-4.6 -0.3-1.3-0.8-2.2-1.3-2.9 -0.6-0.7-1.3-1.1-1.7-1.2 -0.9-0.5-3-1.3-5.6 0.1 -2.7 1.4-2.4 4.4-1.9 10.5 0 0.4-0.1 0.9-0.3 1.3 -0.4 0.9-1.1 1.7-1.7 2.4 -0.7 1-1.4 2-1.9 3.1 -1.2 2.3-2.3 5.2-2 6.3 0.5-0.1 6.8 9.5 6.8 9.7 0.4-0.1 2.1-0.1 3.6-0.1 2.1-0.1 3.3-0.2 5 0.2 0-0.3-0.1-0.6-0.1-0.9 0-0.6 0.1-1.1 0.2-1.8 0.1-0.5 0.2-1 0.3-1.6 -1 0.9-2.8 1.9-4.5 2.2 -1.5 0.3-4-0.2-5.2-1.7 0.1 0 0.3 0 0.4-0.1 0.3-0.1 0.6-0.2 0.7-0.4 0.3-0.5 0.1-1-0.1-1.3 -0.2-0.3-1.7-1.4-2.4-2 -0.7-0.6-1.1-0.9-1.5-1.3 0 0-0.6-0.6-0.8-0.8 -0.2-0.2-0.3-0.4-0.4-0.5 -0.2-0.5-0.3-1.1-0.2-1.9 0.1-1.1 0.5-2 1-3 0.2-0.4 0.7-1.2 0.7-1.2s-1.7 4.2-0.8 5.5c0 0 0.1-1.3 0.5-2.6 0.3-0.9 0.8-2.2 1.4-2.9s2.1-3.3 2.2-4.9c0-0.7 0.1-1.4 0.1-1.9 -0.4-0.4 6.6-1.4 7-0.3 0.1 0.4 1.5 4 2.3 5.9 0.4 0.9 0.9 1.7 1.2 2.7 0.3 1.1 0.5 2.6 0.5 4.1 0 0.3 0 0.8-0.1 1.3 0.2 0 4.1-4.2-0.5-7.7 0 0 2.8 1.3 2.9 3.9 0.1 2.1-0.8 3.8-1 4.1 0.1 0 2.1 0.9 2.2 0.9 0.4 0 1.2-0.3 1.2-0.3 0.1-0.3 0.4-1.1 0.4-1.4C37.6 29.9 35.9 26.2 34.3 23.9z" fill="#263238"/><ellipse cx="21.6" cy="15.3" rx="1.3" ry="2" class="tux-icon-white"/><ellipse cx="26.1" cy="15.2" rx="1.7" ry="2.3" class="tux-icon-white"/><ellipse transform="matrix(-0.1254 -0.9921 0.9921 -0.1254 8.9754 38.9969)" cx="21.7" cy="15.5" rx="1.2" ry="0.7" class="tux-icon-gray"/><ellipse cx="26" cy="15.6" rx="1" ry="1.3" class="tux-icon-gray"/><path d="M39.3 37.6c-0.4-0.2-1.1-0.5-1.7-1.4 -0.3-0.5-0.2-1.9-0.7-2.5 -0.3-0.4-0.7-0.2-0.8-0.2 -0.9 0.2-3 1.6-4.4 0 -0.2-0.2-0.5-0.5-1-0.5 -0.5 0-0.7 0.2-0.9 0.6s-0.2 0.7-0.2 1.7c0 0.8 0 1.7-0.1 2.4 -0.2 1.7-0.5 2.7-0.5 3.7 0 1.1 0.3 1.8 0.7 2.1 0.3 0.3 0.8 0.5 1.9 0.5 1.1 0 1.8-0.4 2.5-1.1 0.5-0.5 0.9-0.7 2.3-1.7 1.1-0.7 2.8-1.6 3.1-1.9 0.2-0.2 0.5-0.3 0.5-0.9C40 37.9 39.6 37.7 39.3 37.6z" class="tux-icon-yellow"/><path d="M19.2 37.9c-1-1.6-1.1-1.9-1.8-2.9 -0.6-1-1.9-2.9-2.7-2.9 -0.6 0-0.9 0.3-1.3 0.7 -0.4 0.4-0.8 1.3-1.5 1.8 -0.6 0.5-2.3 0.4-2.7 1 -0.4 0.6 0.4 1.5 0.4 3 0 0.6-0.5 1-0.6 1.4 -0.1 0.5-0.2 0.8 0 1.2 0.4 0.6 0.9 0.8 4.3 1.5 1.8 0.4 3.5 1.4 4.6 1.5 1.1 0.1 3 0 3-2.7C21 39.9 20.1 39.5 19.2 37.9z" class="tux-icon-yellow"/><path d="M21.1 19.8C20.5 19.4 20 19 20 18.4c0-0.6 0.4-0.8 1-1.3 0.1-0.1 1.2-1.1 2.3-1.1s2.4 0.7 2.9 0.9c0.9 0.2 1.8 0.4 1.7 1.1 -0.1 1-0.2 1.2-1.2 1.7 -0.7 0.2-2 1.3-2.9 1.3 -0.4 0-1 0-1.4-0.1C22.1 20.8 21.6 20.3 21.1 19.8z" class="tux-icon-yellow"/><path d="M20.9 19c0.2 0.2 0.5 0.4 0.8 0.5 0.2 0.1 0.5 0.2 0.5 0.2 0.4 0 0.7 0 0.9 0 0.5 0 1.2-0.2 1.9-0.6 0.7-0.3 0.8-0.5 1.3-0.7 0.5-0.3 1-0.6 0.8-0.7 -0.2-0.1-0.4 0-1.1 0.4 -0.6 0.4-1.1 0.6-1.7 0.9 -0.3 0.1-0.7 0.3-1 0.3 -0.3 0-0.6 0-0.9 0 -0.3 0-0.5-0.1-0.8-0.2 -0.2-0.1-0.3-0.2-0.4-0.2 -0.2-0.1-0.6-0.5-0.8-0.6 0 0-0.2 0-0.1 0.1C20.6 18.7 20.7 18.8 20.9 19z" class="tux-icon-brown"/><path d="M23.9 16.8c0.1 0.2 0.3 0.2 0.4 0.3 0.1 0.1 0.2 0.1 0.2 0.1 0.1-0.1 0-0.3-0.1-0.3C24.4 16.7 23.9 16.7 23.9 16.8z" class="tux-icon-brown"/><path d="M22.3 17c0 0.1 0.2 0.2 0.2 0.1 0.1-0.1 0.2-0.2 0.3-0.2 0.2-0.1 0.1-0.2-0.2-0.2C22.4 16.8 22.4 16.9 22.3 17z" class="tux-icon-brown"/><path d="M32 34.7c0 0.1 0 0.2 0 0.3 0.2 0.4 0.7 0.5 1.1 0.5 0.6 0 1.2-0.4 1.5-0.8 0-0.1 0.1-0.2 0.2-0.3 0.2-0.3 0.3-0.5 0.4-0.6 0 0-0.1-0.1-0.1-0.2 -0.1-0.2-0.4-0.4-0.8-0.5 -0.3-0.1-0.8-0.2-1-0.2 -0.9-0.1-1.4 0.2-1.7 0.5 0 0 0.1 0 0.1 0.1 0.2 0.2 0.3 0.4 0.3 0.7C32.1 34.4 32 34.5 32 34.7z" fill="#455A64"/></svg>

