<svg class="twitter-icon" xmlns="http://www.w3.org/2000/svg" viewBox="0 0 320 320"><path d="M160.6 320.6c-52.4 0-104.8 0-157.1 0.1 -2.2 0-2.9-0.4-2.9-2.8 0.1-104.9 0.1-209.7 0-314.6C0.6 0.9 1.1 0.6 3.3 0.6c104.9 0.1 209.7 0.1 314.6 0 2.1 0 2.8 0.3 2.8 2.7 -0.1 105-0.1 209.9 0 314.9 0 2.2-0.5 2.5-2.6 2.5C265.6 320.6 213.1 320.6 160.6 320.6zM24 247.2c3.5 2.9 7.3 4.9 11.1 6.9 31.5 16.4 65 21.7 100 16.5 42.5-6.3 76.8-26.7 102.3-61.2 21.9-29.6 33.1-63 32.6-100 0-3.5 1.1-5.7 3.9-7.8 8.6-6.5 15.9-14.4 22.2-23.1 0.5-0.7 1.6-1.5 0.8-2.4 -0.6-0.7-1.6 0.1-2.3 0.4 -5.9 2.4-12 4.2-18.2 5.6 -2.7 0.6-5.5 1.3-8.9 1.3 11-7.8 18.8-17.3 23-29.9 -1.8 0-2.7 0.7-3.7 1.3 -7.7 4.1-15.7 7.1-24 9.8 -5.4 1.8-9 0.8-13.4-2.9 -27.7-23.3-70.2-14.3-86.5 18 -5.7 11.3-7.2 23.1-5.2 35.5 0.3 2.1-0.1 2.5-2.2 2.4 -6.4-0.3-12.6-1.2-18.9-2.4 -36.8-7.2-67.4-25.2-91.9-53.4 -2.4-2.8-2.6-2.7-4.3 0.6 -12 23.6-5.4 53.2 15.5 69.6 0.7 0.6 1.8 0.9 2 2.2 -6.6-0.5-12.8-1.9-18.6-4.6 -5.4-2.5-5.5-2.5-5 3.6 1.4 16.6 9 29.8 22.1 40.1 6.1 4.8 13.2 7.9 21.4 10.2 -7.3 1.9-13.9 1.9-20.5 1.2 -3.2-0.4-3.7 0.1-2.4 3 7.9 18.8 21.7 30.6 41.8 35 2.7 0.6 5.4 0.9 9 1.5C80.7 242.2 53.8 249.6 24 247.2z" fill="none"/><path d="M24 247.2c29.8 2.4 56.7-4.9 81.6-23.1 -3.6-0.6-6.3-0.9-9-1.5 -20-4.4-33.9-16.2-41.8-35 -1.2-3-0.8-3.4 2.4-3 6.6 0.7 13.2 0.8 20.5-1.2 -8.3-2.4-15.3-5.4-21.4-10.2 -13-10.2-20.6-23.5-22.1-40.1 -0.5-6.1-0.5-6 5-3.6 5.8 2.6 12 4 18.6 4.6 -0.2-1.3-1.3-1.7-2-2.2 -20.9-16.4-27.5-46-15.5-69.6 1.7-3.3 1.9-3.4 4.3-0.6 24.6 28.3 55.1 46.2 91.9 53.4 6.2 1.2 12.5 2.1 18.9 2.4 2 0.1 2.5-0.3 2.2-2.4 -2-12.4-0.5-24.2 5.2-35.5 16.3-32.3 58.8-41.4 86.5-18 4.3 3.7 8 4.7 13.4 2.9 8.2-2.7 16.3-5.7 24-9.8 1-0.5 1.9-1.3 3.7-1.3 -4.2 12.6-12 22-23 29.9 3.5 0 6.2-0.7 8.9-1.3 6.2-1.4 12.3-3.2 18.2-5.6 0.7-0.3 1.7-1.1 2.3-0.4 0.9 0.9-0.3 1.7-0.8 2.4 -6.3 8.8-13.5 16.6-22.2 23.1 -2.7 2.1-3.9 4.3-3.9 7.8 0.5 37-10.7 70.4-32.6 100 -25.5 34.4-59.8 54.9-102.3 61.2 -35 5.2-68.5 0-100-16.5C31.3 252.1 27.5 250.1 24 247.2z"/></svg>
