<svg xmlns="http://www.w3.org/2000/svg" viewBox="0 0 167.85715 211.07143"><g transform="translate(-266.78571,-263.79075)"><path fill="#ffba00" d="M 266.78571,427.00504 267.5,315.57647 l 32.14286,19.28571 10,53.92857 10.71428,-42.85714 30.35715,17.5 -0.35715,111.42857 L 327.5,461.6479 l 0.71429,-58.21429 -13.57143,49.28571 -13.92857,-6.78571 -13.57143,-63.92857 -0.35715,57.14286 z"/><path fill="#29006a" d="m 353.57143,362.54076 0,111.60714 81.07143,-47.32144 0,-29.10714 -51.96429,31.25 0,-83.03571 z"/><path fill="#991039" d="m 299.64286,296.29075 -28.92857,16.78572 62.85714,36.78571 c 9.64286,3.92857 41.42857,1.07143 62.85714,-13.74999 20,-12.14286 29.46428,-27.14287 15.35714,-39.82144 l -57.5,-32.5 -23.57142,13.57143 52.5,31.07143 c 7.14286,5.71429 4.10714,10.71428 -3.21429,15.35714 -7.67857,4.46429 -19.46428,6.96429 -27.85714,3.57143 z"/></g></svg>
