<svg xmlns="http://www.w3.org/2000/svg" viewBox="0 0 48 48"><polygon points="5 10 24 21 24 43 6 30 " fill="#C5CAD5"/><polygon points="43 10 24 21 24 43 42 30 " fill="#6D83B3"/><path d="M24.5 44.6c0.3 0 0.5 0 0.8 0l9.8-7.1c0.2-0.8 0.4-1.6 0.4-2.4 0-0.1 0-0.2 0-0.3L24 43l-10.5-7.6c0.1 1 0.3 2 0.7 3l8.3 6C23.2 44.5 23.8 44.6 24.5 44.6z" fill="#5A6E91"/><polygon points="5 10 24 21 43 10 24 1 " fill="#EAF4F8"/><polygon points="11.7 9.9 24 17 36.4 9.9 24 4 " fill="#34495E"/><polygon points="40 28 40.6 15.1 27 23 27 37.4 " fill="#34495E"/><polygon points="8 28 7.4 15.1 21 23 21 37.4 " fill="#34495E"/><polyline points="19 5.5 21.4 6.7 19 10 26.3 7.7 24.7 11.3 29.3 9.7 27.2 14.2 30 16 " fill="none" stroke="#EAF4F8"/><path d="M28.8 27.4c0.1 0.5-0.5 2.8-0.5 3.1 0 0.3-0.2 0.5-0.5 0.6 -0.1-0.9-0.2-1.7-0.3-2.6 0-0.2 0.2-0.3 0.4-0.4 0.1 0.7 0.1 1.4 0.2 2.1 0 0 0.3-1.5 0.5-2.3C28.5 27.7 28.6 27.5 28.8 27.4L28.8 27.4z" fill="#ECF0F1"/><path d="M38.8 22.4c-0.1 0.3-0.1 0.8-0.5 1 0-0.3 0.1-0.5 0.2-0.7 0.2-0.4 0.2-0.9 0-1.3 -0.1-0.2 0-0.3 0.2-0.4 0.2-0.1 0.1 0.2 0.3 0.2 0.2-0.2 0.1-0.6 0.4-0.7 0.1 0.1 0 0.2-0.1 0.3 -0.2 0.5-0.3 1 0 1.5 0.1 0.2 0 0.3-0.2 0.4 0 0-0.1 0.1-0.2-0.1C38.8 22.6 38.8 22.5 38.8 22.4L38.8 22.4z" fill="#ECF0F1"/><path d="M29 30c0-0.6 0.1-1.2 0.1-1.8 0-0.2 0.1-0.3 0.3-0.4 0 0.7-0.1 1.4-0.1 2.1 0 0.2-0.1 0.2-0.2 0.3C29 30.2 29 30 29 30L29 30z" fill="#ECF0F1"/><path d="M29.5 26.8c0.2 0.1 0.1 0.4 0 0.5 0 0.1-0.1 0.2-0.2 0.2 -0.1 0-0.1-0.1-0.1-0.2C29.1 27.2 29.3 26.7 29.5 26.8z" fill="#ECF0F1"/><path d="M19.8 29.7c-0.4-0.3-0.7-0.5-1.2-0.8 0.1 0.4 0.2 0.7 0.5 0.9 0.3 0.2 0.5 0.4 0.8 0.6 0.1 0.1 0.2 0.1 0.1 0.3 -0.1 0.2-0.2 0.1-0.3 0 -0.9-0.5-1.4-1.2-1.5-2.2 0-0.1 0-0.2 0-0.3 0-0.2 0-0.5 0.3-0.6 0.2-0.1 0.4 0.1 0.5 0.2 0.2 0.2 0.5 0.3 0.7 0.5 0.1 0.1 0.2 0.2 0.1 0.3 -0.1 0.2-0.2 0-0.3 0 -0.2-0.1-0.3-0.2-0.5-0.3 -0.1-0.1-0.4-0.3-0.4 0 0 0.3 0 0.3 0.2 0.4 0.3 0.2 0.6 0.5 0.9 0.7C19.9 29.4 19.9 29.4 19.8 29.7L19.8 29.7z" fill="#ECF0F1"/><path d="M18.3 29.3c0.1 0.1-0.1 0.3-0.2 0.2 -0.4-0.3-0.7-0.5-1.1-0.8 -0.2-0.1-0.2-0.3-0.2-0.4 -0.1-0.7-0.1-1.4-0.2-2.1 0-0.1 0-0.1 0.1-0.1 0.1 0.1 0.2 0.2 0.2 0.3 0 0.4 0.1 0.8 0.1 1.2 0.1 0.7 0.2 0.9 0.7 1.1C17.9 28.9 18 29 18.3 29.3z" fill="#ECF0F1"/><path d="M29.8 29.6c0-0.7 0.1-1.4 0.1-2 0-0.2 0-0.2 0.3-0.2 0.1 0 0.2-0.4 0.4-0.5 0 0.2 0 0.4-0.2 0.6 -0.2 0.2-0.2 0.4-0.2 0.6 0 0.4-0.1 0.7-0.1 1.1C30.2 29.4 30.1 29.5 29.8 29.6z" fill="#ECF0F1"/><path d="M35.3 25.3c-0.1 0-0.2 0-0.1-0.1 0-0.5 0.1-2 0.2-2.3 0-0.1 0.1-0.2-0.1-0.3 -0.1 0-0.2 0.1-0.2 0.2 -0.1 0.3-0.3 2.8-0.1 3.1 0 0 0 0 0 0C35.1 26 35.3 25.6 35.3 25.3 35.3 25.3 35.3 25.3 35.3 25.3 35.3 25.3 35.3 25.3 35.3 25.3z" fill="#ECF0F1"/><path d="M31.6 26.1L31.6 26.1C31.6 26.1 31.6 26.1 31.6 26.1c0 0-0.2 0.2-0.2 0 0-0.2 0-0.3 0-0.5 0 0 0 0 0 0 -0.2 0-0.2 0.1-0.2 0.3 0 0.3 0 0.5-0.3 0.8 0 0-0.1 0.2 0 0.2 0.2 0.4 0.1 0.7 0.1 1.1 0 0.2-0.1 0.6 0.1 0.7 0.3 0.1 0.5-0.6 0.5-0.6 -0.2 0-0.2-0.3-0.2-0.5 0-0.4-0.1-0.8 0.3-1.1C31.7 26.4 31.6 26.3 31.6 26.1z" fill="#ECF0F1"/><path d="M37.6 21.7c-0.5 0.4-0.6 1.1-0.6 1.8 0 0.3 0 0.8 0.5 0.6 0.7-0.4 0.7-1.3 0.7-2.1C38.2 21.5 38 21.4 37.6 21.7zM37.5 23.5c-0.1 0-0.1-0.3-0.1-0.4 0-0.4 0.1-1.1 0.4-1.1 0.1 0 0.1 0.1 0.1 0.2C37.9 22.6 37.8 23.5 37.5 23.5z" fill="#ECF0F1"/><path d="M12.7 25.6c-0.2-0.1-0.3-0.2-0.4-0.4 -0.2-0.5-0.5-1-0.8-1.5 0.3 0.2 0.7 0.4 0.7 0.3 0.2-0.1-0.2-0.6-0.3-0.7 -0.2-0.1-0.4-0.3-0.7-0.5 0 0.3 0.1 1.2 0.1 1.7 0 0.1 0.1 0.2 0 0.2 -0.1 0-0.2-0.1-0.2-0.2 0-0.4-0.3-2.3-0.2-2.4 0.7 0.5 1.6 0.9 1.7 2 0 0.4-0.1 0.6-0.5 0.6 0.1 0.3 0.3 0.5 0.4 0.8C12.7 25.4 12.9 25.5 12.7 25.6z" fill="#ECF0F1"/><path d="M16.4 27.8c-0.3-0.2-0.5-0.4-0.8-0.6 -0.5-0.4-0.6-0.9-0.6-1.4 0-0.3 0.2-0.4 0.5-0.2 0.2 0.1 0.4 0.3 0.6 0.4 0.1 0 0.1 0.2 0.2 0 0.1-0.1 0.1-0.2-0.1-0.3 -0.3-0.2-0.6-0.4-0.9-0.6 -0.2-0.1-0.4-0.2-0.5 0.1 -0.2 0.7 0 1.3 0.3 1.9 0.3 0.5 0.7 0.7 1.1 1.1 0 0 0.2 0.2 0.3 0C16.6 28 16.6 27.9 16.4 27.8z" fill="#ECF0F1"/><path d="M10.7 22.1c-0.3-0.6-1.4-1.2-1.4-1.3 -0.4-0.3-0.6-0.2-0.7 0.3 0 0.4 0.1 0.7 0.2 1 0.2 0.8 0.8 1.2 1.4 1.6 0.5 0.3 0.7 0.2 0.7-0.3C11 23 10.9 22.3 10.7 22.1zM10.6 23.3c0 0.1-0.1 0.2-0.2 0.1 -0.7-0.2-1.4-1.1-1.4-1.9 0-0.1 0-0.3 0.1-0.4 0.2-0.1 0.3 0 0.4 0.1 0.6 0.4 1.1 0.8 1.2 1.6C10.7 23.1 10.7 23.2 10.6 23.3z" fill="#ECF0F1"/><path d="M36.8 23.4c-0.2-0.3-0.1-0.6 0-0.9 0-0.1 0.2-0.7-0.3-0.7 -0.3 0-0.7 0.4-0.7 0.7 -0.1 0.5-0.2 2.8-0.2 2.8 0.3-0.2 0.6-0.4 0.8-0.7C36.7 24.3 36.9 23.8 36.8 23.4zM36.4 23.9c0 0.3-0.1 0.5-0.4 0.7 0-0.3 0-0.5 0-0.7 0-0.2 0.1-0.3 0.3-0.3C36.4 23.6 36.4 23.8 36.4 23.9zM36.4 22.6c0 0.2-0.1 0.4-0.4 0.6 0-0.3 0-0.5 0-0.7 0-0.1 0.1-0.2 0.2-0.2C36.5 22.4 36.5 22.5 36.4 22.6z" fill="#ECF0F1"/><path d="M33 25.1c-0.3 0-0.2 0.3-0.3 0.4 0 0-0.1 1.6-0.1 1.7 -0.1 0.1-0.1 0.2-0.2 0.2 -0.1 0-0.1-0.2-0.1-0.2 0-0.4 0.1-0.7 0.1-1.1 0-0.1 0.1-0.4-0.1-0.3 -0.3 0-0.3 0.3-0.3 0.5 0 0.5-0.1 0.9-0.1 1.4 0 0.2 0.1 0.6 0.4 0.4 0.1-0.1 0.3-0.3 0.3-0.5 0.4 0.1 0.3-0.3 0.4-0.5 0.1-0.5 0.1-1 0.1-1.5C33 25.4 33.1 25.2 33 25.1z" fill="#ECF0F1"/><path d="M14.2 25.1c-0.1-0.3-0.3-0.7-0.4-1 0-0.1-0.1-0.2-0.2-0.2 -0.1 0-0.1 0.1-0.2 0.2l-0.6 1.6c0 0.1 0.2 0.3 0.4 0.1 0 0 0 0 0 0 0.1-0.1 0.3-1 0.5-1.4l0.5 1.3c-0.3 0-0.6-0.4-0.7-0.3 -0.2 0.2 0.4 0.6 0.7 0.8 0.2 0.1 0.3 0.5 0.4 0.6 0 0.1 0.2 0.4 0.4 0.2C14.7 26.4 14.5 25.8 14.2 25.1z" fill="#ECF0F1"/><path d="M33.9 24.3c-0.6 0.4-0.6 0.8-0.4 0.8 0.1-0.1 0.1-0.1 0.2-0.2 0.1-0.1 0.2-0.2 0.3-0.1 0.1 0.1 0.1 0.3 0 0.4 -0.1 0.1-0.1 0.1-0.2 0.2 -0.3 0.3-0.5 0.8-0.5 1.2 0 0.1 0 0.3 0.1 0.3 0.1 0 0.2 0 0.3-0.1 0.1-0.2 0.3-0.4 0.6-0.5 0-0.6 0.1-1.1 0.1-1.9C34.4 24.1 34.1 24.2 33.9 24.3zM33.8 26.3c0 0-0.1 0-0.1 0 0-0.3 0.1-0.4 0.4-0.6 0 0 0 0 0 0C34.1 25.9 34 26.1 33.8 26.3z" fill="#ECF0F1"/></svg>

