<svg xmlns="http://www.w3.org/2000/svg" viewBox="0 0 56 56"><path d="M37 0H8C7.2 0 6.5 0.7 6.5 1.9V55c0 0.3 0.7 1 1.5 1h40.1c0.8 0 1.5-0.7 1.5-1V13c0-0.7-0.1-0.9-0.3-1.1L37.6 0.3C37.4 0.1 37.2 0 37 0z" fill="#E9E9E0"/><polygon points="37.5 0.2 37.5 12 49.3 12 " fill="#D9D7CA"/><path d="M48 56H8C7.2 56 6.5 55.3 6.5 54.5V39h43v15.5C49.5 55.3 48.8 56 48 56z" class="xml-icon-orange"/><path d="M19.4 48.1L21.9 53h-1.9l-1.6-3.8h-0.1L16.6 53h-1.9l2.6-4.9 -2.7-5.2h1.9l1.8 4.1h0.1l1.9-4.1H22.1L19.4 48.1z" class="xml-icon-white"/><path d="M32 42.9h1.7V53h-1.7v-6.9l-2.3 5.6h-1.4l-2.3-5.6V53h-1.7V42.9h1.7l3 6.9L32 42.9z" class="xml-icon-white"/><path d="M37.9 42.9v8.8h4.6V53h-6.3V42.9H37.9z" class="xml-icon-white"/><path d="M15.5 24c-0.3 0-0.5-0.1-0.7-0.3 -0.4-0.4-0.4-1 0-1.4l6-6c0.4-0.4 1-0.4 1.4 0s0.4 1 0 1.4l-6 6C16 23.9 15.8 24 15.5 24z" class="xml-icon-orange"/><path d="M21.5 30c-0.3 0-0.5-0.1-0.7-0.3l-6-6c-0.4-0.4-0.4-1 0-1.4s1-0.4 1.4 0l6 6c0.4 0.4 0.4 1 0 1.4C22 29.9 21.8 30 21.5 30z" class="xml-icon-orange"/><path d="M33.5 30c-0.3 0-0.5-0.1-0.7-0.3 -0.4-0.4-0.4-1 0-1.4l6-6c0.4-0.4 1-0.4 1.4 0s0.4 1 0 1.4l-6 6C34 29.9 33.8 30 33.5 30z" class="xml-icon-orange"/><path d="M39.5 24c-0.3 0-0.5-0.1-0.7-0.3l-6-6c-0.4-0.4-0.4-1 0-1.4s1-0.4 1.4 0l6 6c0.4 0.4 0.4 1 0 1.4C40 23.9 39.8 24 39.5 24z" class="xml-icon-orange"/><path d="M24.5 32c-0.1 0-0.2 0-0.3-0.1 -0.5-0.2-0.8-0.8-0.6-1.3l6-17c0.2-0.5 0.8-0.8 1.3-0.6 0.5 0.2 0.8 0.8 0.6 1.3l-6 17C25.3 31.7 24.9 32 24.5 32z" class="xml-icon-orange"/></svg>

